<svg width="19" height="18" viewBox="0 0 19 18" fill="none" xmlns="http://www.w3.org/2000/svg">
<g clip-path="url(#clip0_378_7563)">
<path d="M16.346 4.57156C13.8958 4.32875 11.4309 4.20366 8.97327 4.20366C7.51638 4.20366 6.05949 4.27724 4.6026 4.4244L3.10156 4.57156M7.14848 3.8284L7.31036 2.8645C7.42809 2.16549 7.51638 1.64307 8.75989 1.64307H10.6877C11.9312 1.64307 12.0269 2.19492 12.1372 2.87186L12.2991 3.8284M14.764 6.8967L14.2858 14.3062C14.2048 15.4615 14.1386 16.3591 12.0857 16.3591H7.36186C5.30897 16.3591 5.24275 15.4615 5.16181 14.3062L4.68354 6.8967M8.495 12.3122H10.9452M7.88429 9.369H11.5633" stroke="#DC2626" stroke-width="1.10371" stroke-linecap="round" stroke-linejoin="round"/>
</g>
<defs>
<clipPath id="clip0_378_7563">
<rect width="17.6593" height="17.6593" fill="white" transform="translate(0.893555 0.171387)"/>
</clipPath>
</defs>
</svg>
