<svg width="18" height="18" viewBox="0 0 18 18" fill="none" xmlns="http://www.w3.org/2000/svg">
<g clip-path="url(#clip0_378_7558)">
<path d="M8.20085 1.64307H6.72924C3.05022 1.64307 1.57861 3.11467 1.57861 6.79369V11.2085C1.57861 14.8875 3.05022 16.3591 6.72924 16.3591H11.1441C14.8231 16.3591 16.2947 14.8875 16.2947 11.2085V9.73691" stroke="#4680FF" stroke-width="1.10371" stroke-linecap="round" stroke-linejoin="round"/>
<path d="M11.9096 2.39387L6.11146 8.192C5.89072 8.41274 5.66998 8.84687 5.62583 9.16326L5.30943 11.378C5.19171 12.1801 5.75827 12.7393 6.5603 12.6289L8.77507 12.3125C9.08411 12.2684 9.51823 12.0476 9.74633 11.8269L15.5445 6.02874C16.5452 5.02805 17.0161 3.86548 15.5445 2.39387C14.0729 0.922264 12.9103 1.39318 11.9096 2.39387Z" stroke="#4680FF" stroke-width="1.10371" stroke-miterlimit="10" stroke-linecap="round" stroke-linejoin="round"/>
<path d="M11.0776 3.22485C11.3216 4.09124 11.784 4.88046 12.4204 5.51691C13.0569 6.15337 13.8461 6.61574 14.7125 6.85972" stroke="#4680FF" stroke-width="1.10371" stroke-miterlimit="10" stroke-linecap="round" stroke-linejoin="round"/>
</g>
<defs>
<clipPath id="clip0_378_7558">
<rect width="17.6593" height="17.6593" fill="white" transform="translate(0.106934 0.171387)"/>
</clipPath>
</defs>
</svg>
