<svg width="18" height="18" viewBox="0 0 18 18" fill="none" xmlns="http://www.w3.org/2000/svg">
<g clip-path="url(#clip0_378_7554)">
<path d="M11.784 9.00088C11.784 10.4578 10.6067 11.6351 9.1498 11.6351C7.69291 11.6351 6.51562 10.4578 6.51562 9.00088C6.51562 7.54398 7.69291 6.3667 9.1498 6.3667C10.6067 6.3667 11.784 7.54398 11.784 9.00088Z" stroke="#5B6B79" stroke-width="1.10371" stroke-linecap="round" stroke-linejoin="round"/>
<path d="M9.15003 15.0862C11.7474 15.0862 14.1682 13.5558 15.8532 10.9069C16.5154 9.86939 16.5154 8.12554 15.8532 7.08806C14.1682 4.43916 11.7474 2.90869 9.15003 2.90869C6.55265 2.90869 4.13185 4.43916 2.44686 7.08806C1.78464 8.12554 1.78464 9.86939 2.44686 10.9069C4.13185 13.5558 6.55265 15.0862 9.15003 15.0862Z" stroke="#5B6B79" stroke-width="1.10371" stroke-linecap="round" stroke-linejoin="round"/>
</g>
<defs>
<clipPath id="clip0_378_7554">
<rect width="17.6593" height="17.6593" fill="white" transform="translate(0.320312 0.171387)"/>
</clipPath>
</defs>
</svg>
