<svg width="70" height="71" viewBox="0 0 70 71" fill="none" xmlns="http://www.w3.org/2000/svg">
<path d="M55.5801 19.2522C57.9734 19.2522 59.9136 17.312 59.9136 14.9187C59.9136 12.5254 57.9734 10.5852 55.5801 10.5852C53.1867 10.5852 51.2465 12.5254 51.2465 14.9187C51.2465 17.312 53.1867 19.2522 55.5801 19.2522Z" fill="#FFE07D"/>
<path d="M34.9918 45.2507C40.3767 45.2507 44.742 40.8854 44.742 35.5005C44.742 30.1156 40.3767 25.7503 34.9918 25.7503C29.6069 25.7503 25.2416 30.1156 25.2416 35.5005C25.2416 40.8854 29.6069 45.2507 34.9918 45.2507Z" fill="#A4CCFF"/>
<path d="M37.7003 42.543C32.3153 42.543 27.9501 38.1776 27.9501 32.7928C27.9501 30.7928 28.5542 28.9351 29.587 27.3878C26.9681 29.1359 25.2416 32.1155 25.2416 35.5005C25.2416 40.8854 29.6069 45.2507 34.9918 45.2507C38.3768 45.2507 41.357 43.525 43.1051 40.9059C41.5581 41.9387 39.7002 42.543 37.7003 42.543Z" fill="#8BB3EA"/>
<path d="M8.99324 17.0844C13.1815 17.0844 16.5768 13.6892 16.5768 9.50089C16.5768 5.31262 13.1815 1.91735 8.99324 1.91735C4.80496 1.91735 1.4097 5.31262 1.4097 9.50089C1.4097 13.6892 4.80496 17.0844 8.99324 17.0844Z" fill="#EAD1FF"/>
<path d="M11.1 14.978C6.91176 14.978 3.51644 11.5827 3.51644 7.39446C3.51644 5.83905 3.98635 4.39405 4.78967 3.19069C2.75272 4.55028 1.4097 6.86808 1.4097 9.50089C1.4097 13.6892 4.80496 17.0844 8.99324 17.0844C11.626 17.0844 13.9442 15.7417 15.3038 13.7048C14.1004 14.5081 12.6554 14.978 11.1 14.978Z" fill="#D6BDEF"/>
<path d="M62.0763 55.0035C65.6662 55.0035 68.5765 52.0933 68.5765 48.5033C68.5765 44.9134 65.6662 42.0031 62.0763 42.0031C58.4863 42.0031 55.5761 44.9134 55.5761 48.5033C55.5761 52.0933 58.4863 55.0035 62.0763 55.0035Z" fill="#CCF49F"/>
<path d="M63.8818 53.1987C60.2919 53.1987 57.3816 50.2884 57.3816 46.6985C57.3816 45.3652 57.7844 44.1266 58.473 43.0952C56.727 44.2605 55.5761 46.2466 55.5761 48.5033C55.5761 52.0933 58.4863 55.0035 62.0763 55.0035C64.333 55.0035 66.3196 53.8533 67.4851 52.1074C66.4537 52.7959 65.2152 53.1987 63.8818 53.1987Z" fill="#B3E59F"/>
<path d="M57.2051 17.6257C54.8117 17.6257 52.8716 15.6855 52.8716 13.2922C52.8716 12.5144 53.0931 11.795 53.4518 11.1639C52.1411 11.9091 51.2465 13.3015 51.2465 14.9172C51.2465 17.3104 53.1867 19.2507 55.5801 19.2507C57.1956 19.2507 58.5883 18.3563 59.3334 17.0455C58.7024 17.4042 57.9827 17.6257 57.2051 17.6257Z" fill="#FFD064"/>
<path d="M4.65993 69.0845C6.45487 69.0845 7.90995 67.6294 7.90995 65.8345C7.90995 64.0395 6.45487 62.5844 4.65993 62.5844C2.86498 62.5844 1.4099 64.0395 1.4099 65.8345C1.4099 67.6294 2.86498 69.0845 4.65993 69.0845Z" fill="#FFE07D"/>
<path d="M34.9934 64.7507C37.3867 64.7507 39.3269 62.8106 39.3269 60.4172C39.3269 58.0239 37.3867 56.0837 34.9934 56.0837C32.6001 56.0837 30.6599 58.0239 30.6599 60.4172C30.6599 62.8106 32.6001 64.7507 34.9934 64.7507Z" fill="#ECEAEC"/>
<path d="M36.6184 63.1284C34.2251 63.1284 32.2849 61.1882 32.2849 58.7949C32.2849 58.0171 32.5064 57.2977 32.8651 56.6667C31.5544 57.4119 30.6599 58.8043 30.6599 60.42C30.6599 62.8132 32.6001 64.7535 34.9934 64.7535C36.609 64.7535 38.0016 63.8591 38.7467 62.5483C38.1157 62.907 37.3962 63.1284 36.6184 63.1284Z" fill="#DAD8DB"/>
<path d="M69.2737 46.3323C69.1122 45.7963 68.5466 45.4925 68.0107 45.6541C67.4747 45.8156 67.1712 46.3809 67.3325 46.9171C67.4866 47.4286 67.5647 47.9619 67.5647 48.5023C67.5647 51.5276 65.1036 53.9889 62.0781 53.9889C59.0527 53.9889 56.5915 51.5276 56.5915 48.5023C56.5915 45.4771 59.0527 43.0158 62.0781 43.0158C63.1076 43.0158 64.1106 43.3023 64.9787 43.8441C65.4536 44.1406 66.0789 43.996 66.3752 43.5211C66.6717 43.0462 66.5271 42.421 66.0521 42.1246C64.8618 41.3814 63.4875 40.9885 62.0781 40.9885C59.4614 40.9885 57.154 42.3339 55.8081 44.3685L45.0933 39.2254C45.5227 38.0645 45.7578 36.8103 45.7578 35.5021C45.7578 32.8987 44.8284 30.5085 43.2845 28.645L45.6899 26.2396C46.0329 26.6367 46.3572 27.054 46.6539 27.4862C46.8346 27.7493 47.1174 27.9006 47.4129 27.9231C47.6353 27.9402 47.8649 27.8841 48.0633 27.748C48.5247 27.4312 48.642 26.8001 48.3252 26.3387C47.9583 25.8044 47.5548 25.2895 47.1266 24.803L52.5836 19.346C53.4386 19.9261 54.4693 20.2653 55.5779 20.2653C58.5263 20.2653 60.9249 17.8665 60.9249 14.9182C60.9249 11.9698 58.5262 9.57118 55.5779 9.57118C52.6296 9.57118 50.2308 11.9699 50.2308 14.9182C50.2308 16.0268 50.5702 17.0577 51.1501 17.9125L41.8511 27.2115C39.9877 25.6675 37.5975 24.7381 34.994 24.7381C32.3905 24.7381 30.0004 25.6675 28.1369 27.2115L25.7263 24.801C25.7786 24.7558 25.8301 24.7095 25.8829 24.665C26.3117 24.3052 26.3678 23.6659 26.0079 23.237C25.6481 22.8082 25.0088 22.7523 24.5799 23.112C24.4818 23.1943 24.3857 23.2793 24.2894 23.3641L15.7424 14.8171C16.898 13.353 17.5904 11.507 17.5904 9.50131C17.5904 8.86909 17.5213 8.23808 17.3849 7.62586C17.2633 7.07946 16.7222 6.73524 16.1754 6.85674C15.629 6.97837 15.2846 7.51991 15.4062 8.06631C15.5104 8.53419 15.5632 9.01707 15.5632 9.50131C15.5632 13.1239 12.6159 16.0712 8.99323 16.0712C5.37059 16.0712 2.4237 13.1241 2.4237 9.50144C2.4237 5.87881 5.371 2.93151 8.99363 2.93151C10.588 2.93151 12.1254 3.50954 13.3225 4.55923C13.7434 4.92818 14.3839 4.88615 14.7529 4.4653C15.1219 4.04432 15.0799 3.40399 14.659 3.0349C13.0918 1.66099 11.0799 0.904297 8.99363 0.904297C4.25319 0.904297 0.396484 4.761 0.396484 9.50144C0.396484 14.2419 4.25319 18.0986 8.99363 18.0986C10.9994 18.0986 12.8453 17.4062 14.3094 16.2506L22.8807 24.8219C22.686 25.216 22.7644 25.7063 23.1048 26.0181C23.2786 26.1772 23.4931 26.2643 23.7112 26.2811C23.891 26.2949 24.073 26.2597 24.2373 26.1787L26.7038 28.6451C25.1599 30.5087 24.2304 32.8987 24.2304 35.5022C24.2304 38.1057 25.1599 40.4958 26.7038 42.3593L6.87114 62.1917C6.22608 61.799 5.46912 61.5725 4.66012 61.5725C2.30909 61.5725 0.396484 63.4852 0.396484 65.8362C0.396484 68.1873 2.30909 70.0999 4.66012 70.0999C7.01115 70.0999 8.92376 68.1873 8.92376 65.8362C8.92376 65.0274 8.69725 64.2703 8.30451 63.6252L24.2892 47.6405C24.6091 47.923 24.9389 48.1945 25.2782 48.4491C25.4384 48.5694 25.6226 48.6351 25.8086 48.6493C26.1422 48.6748 26.4816 48.5346 26.6974 48.2471C27.0335 47.7993 26.9431 47.164 26.4954 46.8279C26.2323 46.6303 25.9752 46.4216 25.725 46.2047L28.1373 43.7924C29.756 45.1337 31.7725 46.0093 33.9807 46.2166V55.1699C31.5156 55.645 29.6473 57.8175 29.6473 60.4193C29.6473 63.3676 32.046 65.7662 34.9943 65.7662C37.9425 65.7662 40.3413 63.3675 40.3413 60.4193C40.3413 57.8175 38.473 55.6449 36.0077 55.1699V51.6532C36.6915 51.6102 37.3784 51.5237 38.0513 51.3937C38.601 51.2875 38.9605 50.7558 38.8542 50.2062C38.748 49.6566 38.2163 49.2971 37.6667 49.4032C37.1203 49.5088 36.5632 49.5806 36.0077 49.6204V46.2166C39.4882 45.8899 42.4921 43.9004 44.2135 41.0515L47.275 42.521C46.9686 43.1314 46.3832 43.9254 46.0107 44.3867C45.659 44.8221 45.727 45.4604 46.1626 45.8121C46.3284 45.946 46.5236 46.019 46.7212 46.0341C47.0426 46.0587 47.3703 45.9299 47.588 45.6603C47.9962 45.1549 48.7126 44.1392 49.0896 43.392L54.9287 46.1947C54.6933 46.9222 54.5647 47.6974 54.5647 48.5022C54.5647 52.6453 57.9353 56.016 62.0785 56.016C66.2218 56.016 69.5921 52.6456 69.5921 48.5023C69.5921 47.7638 69.485 47.0337 69.2737 46.3323ZM55.5782 11.5984C57.4088 11.5984 58.898 13.0877 58.898 14.9182C58.898 16.7486 57.4086 18.2381 55.5782 18.2381C53.7478 18.2381 52.2583 16.7487 52.2583 14.9182C52.2583 13.0876 53.7476 11.5984 55.5782 11.5984ZM4.66012 68.0727C3.4269 68.0727 2.4237 67.0695 2.4237 65.8362C2.4237 64.603 3.4269 63.5998 4.66012 63.5998C5.89334 63.5998 6.89654 64.603 6.89654 65.8362C6.89654 67.0695 5.89334 68.0727 4.66012 68.0727ZM38.314 60.4194C38.314 62.25 36.8247 63.7392 34.9943 63.7392C33.1638 63.7392 31.6745 62.2498 31.6745 60.4194C31.6745 58.589 33.1638 57.0996 34.9943 57.0996C36.8247 57.0996 38.314 58.5888 38.314 60.4194ZM34.9943 44.2387C30.1768 44.2387 26.2577 40.3194 26.2577 35.5021C26.2577 30.6848 30.1769 26.7655 34.9943 26.7655C39.8116 26.7655 43.7309 30.6848 43.7309 35.5021C43.7309 40.3194 39.8118 44.2387 34.9943 44.2387Z" fill="black"/>
<path d="M43.0644 47.1265C42.5551 47.4802 42.0173 47.8036 41.4658 48.0878C40.9682 48.3443 40.7726 48.9556 41.0291 49.453C41.1963 49.7777 41.5146 49.9736 41.8538 49.9996C42.0346 50.0135 42.2214 49.9789 42.3944 49.8897C43.0244 49.5651 43.6388 49.1956 44.2208 48.7915C44.6805 48.4723 44.7945 47.8406 44.4751 47.3808C44.1559 46.921 43.5244 46.8071 43.0644 47.1265Z" fill="black"/>
<path d="M40.7654 22.5777C41.3321 22.8302 41.8869 23.1228 42.414 23.4471C42.5562 23.5346 42.7114 23.5828 42.8671 23.5947C43.2336 23.6228 43.6026 23.4498 43.8086 23.1153C44.102 22.6385 43.9534 22.0143 43.4766 21.7209C42.8733 21.3495 42.2387 21.0147 41.5902 20.7259C41.0788 20.4985 40.4797 20.7279 40.2519 21.2393C40.0242 21.7506 40.254 22.35 40.7654 22.5777Z" fill="black"/>
<path d="M34.9586 21.3433C34.983 21.3452 35.0077 21.3461 35.0326 21.3462C35.6513 21.3488 36.2765 21.3929 36.8928 21.4772C37.4488 21.5521 37.9586 21.1651 38.0347 20.6105C38.1106 20.0558 37.7226 19.5447 37.168 19.4686C36.4637 19.3723 35.7486 19.322 35.0411 19.3189C34.4814 19.3165 34.0256 19.7684 34.0233 20.3282C34.021 20.8634 34.4335 21.3031 34.9586 21.3433Z" fill="black"/>
<path d="M31.3539 51.2694C31.4047 51.2812 31.4555 51.2889 31.5061 51.2926C31.9972 51.3302 32.4555 51.0045 32.5697 50.51C32.6958 49.9645 32.3557 49.4202 31.8103 49.2942L31.738 49.2773C31.156 49.14 30.579 48.965 30.0226 48.7574C29.4979 48.5617 28.9142 48.8282 28.7185 49.3527C28.5228 49.8771 28.7893 50.4609 29.3138 50.6568C29.9493 50.894 30.6082 51.0936 31.272 51.2503L31.3539 51.2694Z" fill="black"/>
<path d="M28.8135 22.6256C28.9742 22.6379 29.1403 22.612 29.2981 22.5425C29.8667 22.2923 30.4565 22.078 31.0514 21.9051C31.589 21.749 31.8982 21.1867 31.742 20.6491C31.5859 20.1113 31.0233 19.8022 30.486 19.9585C29.8059 20.1561 29.1316 20.4011 28.482 20.6869C27.9695 20.9123 27.7369 21.5105 27.9623 22.0229C28.1182 22.3773 28.4525 22.598 28.8135 22.6256Z" fill="black"/>
<path d="M21.8083 27.9223C21.3053 27.6768 20.6984 27.8853 20.4527 28.3883C20.1421 29.0242 19.8706 29.688 19.6458 30.3617C19.4685 30.8927 19.7553 31.4668 20.2863 31.6441C20.3672 31.6712 20.4493 31.6875 20.5306 31.6937C20.9831 31.7283 21.4184 31.4537 21.5687 31.0037C21.7653 30.4144 22.0028 29.8338 22.2743 29.2781C22.5199 28.775 22.3113 28.168 21.8083 27.9223Z" fill="black"/>
<path d="M20.5211 40.1677C20.001 40.375 19.7478 40.9647 19.9551 41.4847C20.2175 42.1429 20.5265 42.7902 20.873 43.4085C21.0453 43.716 21.3539 43.8989 21.6808 43.9239C21.8732 43.9386 22.0719 43.8986 22.2527 43.7972C22.741 43.5236 22.9151 42.9058 22.6413 42.4175C22.3379 41.8762 22.0676 41.3098 21.8378 40.7338C21.6307 40.2137 21.0411 39.9601 20.5211 40.1677Z" fill="black"/>
<path d="M49.824 33.7219C49.9106 33.7285 49.9997 33.724 50.089 33.7073C50.6392 33.6039 51.0014 33.0742 50.8981 32.5241C50.7673 31.8276 50.5885 31.1326 50.3667 30.4583C50.1918 29.9265 49.6187 29.6373 49.0871 29.8122C48.5553 29.9871 48.2661 30.5601 48.4411 31.0918C48.6352 31.6814 48.7914 32.2892 48.9058 32.898C48.9924 33.3589 49.3778 33.6878 49.824 33.7219Z" fill="black"/>
<path d="M49.3766 40.4084C49.4386 40.425 49.5006 40.4354 49.5624 40.4401C50.0393 40.4766 50.4896 40.17 50.6178 39.6913C50.6594 39.5354 50.699 39.3785 50.7363 39.2207C50.8995 38.529 51.0186 37.822 51.09 37.1193C51.1466 36.5623 50.741 36.065 50.1841 36.0084C49.6259 35.9485 49.1298 36.3573 49.0732 36.9143C49.0106 37.5296 48.9064 38.1488 48.7633 38.7551C48.7307 38.8935 48.696 39.0308 48.6595 39.1673C48.5147 39.708 48.8357 40.2638 49.3766 40.4084Z" fill="black"/>
<path d="M18.8192 34.8833C18.7912 35.5926 18.8106 36.3103 18.8769 37.0168C18.9235 37.5156 19.3242 37.8959 19.8075 37.9329C19.8641 37.9373 19.922 37.937 19.9806 37.9314C20.538 37.8793 20.9475 37.385 20.8953 36.8277C20.8375 36.2103 20.8206 35.583 20.845 34.9631C20.8669 34.4037 20.4317 33.9289 19.8721 33.9104C19.3125 33.8882 18.8412 34.3238 18.8192 34.8833Z" fill="black"/>
</svg>
