<svg width="67" height="66" viewBox="0 0 67 66" fill="none" xmlns="http://www.w3.org/2000/svg">
<path d="M49.7881 43.2928C49.5894 43.5738 49.3196 43.7952 49.0094 43.9372L50.2406 44.3222C50.7092 44.3689 51.1793 44.2454 51.5636 43.9749L60.1893 37.8952C60.7159 37.5243 61.3131 37.327 61.9128 37.2909C62.0646 36.1094 61.5713 34.6232 60.5242 33.8899C59.0176 32.8338 56.9354 33.1932 55.8742 34.6929L49.7881 43.2928Z" fill="#F0A479"/>
<path d="M59.5744 34.6929C59.8191 34.3471 60.1187 34.063 60.4521 33.8417C58.9515 32.8464 56.9188 33.2168 55.8742 34.6929L49.7881 43.2928C49.5894 43.5738 49.3196 43.7952 49.0094 43.9372L50.2406 44.3222C50.7097 44.3689 51.1793 44.2454 51.5636 43.9749L54.4412 41.9466L59.5744 34.6929Z" fill="#E5966E"/>
<path d="M64.8419 38.4236C63.7766 36.9269 61.6934 36.5726 60.1893 37.6331L51.5637 43.7123C51.1793 43.9834 50.7097 44.1068 50.2406 44.0602L44.7296 43.5111C44.5339 43.4915 44.4951 43.2225 44.6787 43.1512C45.8973 42.6779 46.8224 41.5702 46.9908 40.1859C47.2299 38.2274 45.863 36.434 43.9034 36.1344L29.0732 33.8657C27.3961 33.6093 25.6842 34.0118 24.2991 34.9875L16.027 40.8178L25.1157 53.587C28.3953 51.6271 32.1671 50.6056 36.0127 50.6523L49.3756 50.8154C51.6701 50.8727 53.9212 50.1901 55.794 48.87L64.0475 43.0533C65.5516 41.9928 65.9072 39.9204 64.8419 38.4236Z" fill="#F7B594"/>
<path d="M22.0939 39.5334L28.5436 34.9875C29.1221 34.58 29.7582 34.2738 30.4245 34.0725L29.0732 33.8663C27.3961 33.6093 25.6842 34.0118 24.2996 34.988L16.027 40.8183L25.1162 53.5871C26.1235 52.9848 27.1782 52.4723 28.2667 52.0507L21.5622 42.6317C20.849 41.6299 21.0876 40.2426 22.0939 39.5334Z" fill="#F0A479"/>
<path d="M26.1759 54.7073L15.1443 39.2092C14.6631 38.5336 13.7154 38.3785 13.0274 38.8633L9.63076 41.2575L22.4041 59.203L25.8012 56.8088C26.4892 56.324 26.6566 55.3834 26.1759 54.7073Z" fill="#E4EAF8"/>
<path d="M15.5937 39.841L15.1443 39.2092C14.6631 38.5331 13.7154 38.3785 13.0274 38.8633L9.63076 41.2575L10.9513 43.113L15.5937 39.841Z" fill="#D8DCE5"/>
<path d="M9.67307 41.2279L1.93666 46.6807C1.24513 47.1676 1.07515 48.1107 1.55584 48.7862L12.5875 64.2844C13.0687 64.9605 14.0189 65.1131 14.71 64.6262L22.4464 59.1734L9.67307 41.2279Z" fill="#00AAF0"/>
<path d="M5.50929 48.7862C5.0281 48.1107 5.19858 47.1681 5.8896 46.6807L10.9941 43.0835L9.67307 41.2279L1.93666 46.6807C1.24513 47.1676 1.07515 48.1107 1.55584 48.7862L12.5875 64.2844C13.0687 64.9605 14.0189 65.1131 14.71 64.6262L16.091 63.6525L5.50929 48.7862Z" fill="#059ADB"/>
<path d="M59.3752 18.731L56.9945 17.8135C56.4139 18.4519 55.7869 19.1345 55.1852 19.7855C53.6826 21.4117 51.1031 21.4117 49.6005 19.7855C49.0099 19.1466 48.395 18.4775 47.8236 17.8491L45.4085 18.7807C43.4963 19.518 42.2359 21.3495 42.2359 23.3903V25.5124C42.2359 25.9937 42.6283 26.3842 43.112 26.3842H61.6732C62.157 26.3842 62.5494 25.9937 62.5494 25.5124V23.3416C62.5494 21.2998 61.2884 19.4683 59.3752 18.731Z" fill="#F25C5C"/>
<path d="M53.7951 20.7376C52.3843 21.2947 50.7026 20.9786 49.6005 19.7855C49.0099 19.1466 48.395 18.4775 47.8236 17.8486L45.4085 18.7801C43.4963 19.518 42.2359 21.349 42.2359 23.3903V25.5124C42.2359 25.9937 42.6283 26.3842 43.112 26.3842L56.8906 26.3842C56.5874 24.1818 55.4661 22.1686 53.7951 20.7376Z" fill="#E54A4A"/>
<path d="M55.7254 17.3246C55.4949 17.2357 55.343 17.0149 55.343 16.769V14.5465C54.5249 15.1081 53.5338 15.4384 52.4665 15.4384C51.3497 15.4384 50.3677 15.1332 49.5647 14.6228V16.769C49.5647 17.0149 49.4129 17.2357 49.1829 17.3246L47.6762 17.9058C48.2876 18.5794 48.9599 19.3112 49.6005 20.0043C51.1031 21.6305 53.6826 21.6305 55.1852 20.0043C55.8374 19.2986 56.5218 18.5533 57.1417 17.8702L55.7254 17.3246Z" fill="#F0A479"/>
<path d="M53.7688 20.7171C53.4571 20.4531 53.2836 20.0626 53.2836 19.6555V15.3722C53.0178 15.4153 52.7444 15.4384 52.4665 15.4384C51.3497 15.4384 50.3677 15.1332 49.5647 14.6228V16.769C49.5647 17.0149 49.4129 17.2357 49.1829 17.3246L47.6762 17.9058C49.4865 19.9004 50.6648 21.745 53.2836 21.1181V21.1151C53.5151 21.0599 53.7426 20.9851 53.9625 20.8862C53.8985 20.8285 53.8339 20.7723 53.7688 20.7171Z" fill="#E5966E"/>
<path d="M52.3929 1.44496C52.3722 1.44496 52.3515 1.44496 52.3313 1.44496C49.5042 1.46955 47.24 3.79192 47.24 6.60516V8.88637C47.24 8.61383 47.4735 8.3985 47.7449 8.41908C50.4182 8.60981 53.1389 7.76458 55.1958 6.42748C55.3875 6.3025 55.6422 6.33412 55.7986 6.50126C57.5564 8.38144 57.5458 8.30866 57.5458 8.5541V6.60516C57.5458 3.79192 55.2815 1.47005 52.4544 1.44496C52.4337 1.44496 52.4136 1.44496 52.3929 1.44496Z" fill="#5E6377"/>
<path d="M51.0875 6.60516C51.0875 4.44742 52.4201 2.57979 54.3166 1.81487C53.7406 1.58248 53.1132 1.45098 52.4544 1.44496C52.4337 1.44496 52.4136 1.44496 52.3929 1.44496C52.3722 1.44496 52.352 1.44496 52.3313 1.44496C49.5042 1.46955 47.24 3.79192 47.24 6.60516V8.88587C47.24 8.61332 47.474 8.398 47.7449 8.41858C48.8687 8.49889 50 8.39399 51.0875 8.14855V6.60516Z" fill="#52586D"/>
<path d="M55.798 6.39082C55.6417 6.22418 55.3875 6.19306 55.1953 6.31804C53.1389 7.65514 50.4182 8.50037 47.7449 8.30914C47.4735 8.28856 47.24 8.50388 47.24 8.77642V10.6024C47.24 13.244 49.3201 15.6572 52.4665 15.6572C55.2674 15.6572 57.5458 13.3895 57.5458 10.6024V8.44466C57.5458 8.19922 57.5564 8.272 55.798 6.39082Z" fill="#F7B594"/>
<path d="M51.0875 10.6025V8.03967C49.9995 8.2851 48.8687 8.38945 47.7449 8.30914C47.4735 8.28856 47.24 8.50388 47.24 8.77642V10.6024C47.24 13.244 49.3201 15.6572 52.4665 15.6572C53.1253 15.6572 53.7542 15.5303 54.3323 15.3019C52.3243 14.5385 51.0875 12.6392 51.0875 10.6025Z" fill="#F0A479"/>
<path d="M38.2214 18.731L35.8406 17.8135C35.2601 18.4519 34.6331 19.1345 34.0314 19.7855C32.5288 21.4117 29.9493 21.4117 28.4467 19.7855C27.8566 19.1466 27.2412 18.4775 26.6697 17.8491L24.2547 18.7807C22.3425 19.518 21.599 21.3495 21.599 23.3903V25.5124C21.599 25.9937 21.9909 26.3842 22.4752 26.3842H40.5194C41.0031 26.3842 41.3955 25.9937 41.3955 25.5124V23.3416C41.3955 21.2998 40.1345 19.4683 38.2214 18.731Z" fill="#FFC850"/>
<path d="M24.1876 25.5123V21.7364C24.1876 20.4013 24.7273 19.1556 25.6357 18.2476L24.2547 18.7801C22.3425 19.518 21.599 21.349 21.599 23.3903V25.5124C21.599 25.9937 21.9909 26.3842 22.4752 26.3842L25.0637 26.3842C24.58 26.3842 24.1876 25.9937 24.1876 25.5123Z" fill="#FEB644"/>
<path d="M34.5715 17.3246C34.341 17.2357 34.1892 17.0149 34.1892 16.769V14.5465C33.3706 15.1081 32.3799 15.4384 31.3126 15.4384C30.1954 15.4384 29.2139 15.1332 28.4109 14.6228V16.769C28.4109 17.0149 28.259 17.2357 28.029 17.3246L26.5219 17.9058C27.1337 18.5794 27.8056 19.3112 28.4462 20.0043C29.9493 21.6305 32.5287 21.6305 34.0313 20.0043C34.683 19.2986 35.368 18.5533 35.9879 17.8702L34.5715 17.3246Z" fill="#F0A479"/>
<path d="M32.1298 15.3722C31.864 15.4153 31.5906 15.4384 31.3126 15.4384C30.1954 15.4384 29.2139 15.1332 28.4109 14.6228V16.769C28.4109 17.0149 28.2595 17.2357 28.029 17.3246L26.5225 17.9058C27.1338 18.5794 27.8061 19.3112 28.4467 20.0043C29.4182 21.0559 30.8401 21.4263 32.1298 21.1181V15.3722Z" fill="#E5966E"/>
<path d="M31.239 1.44496C31.2183 1.44496 31.1981 1.44496 31.1775 1.44496C28.3503 1.46955 26.0861 3.79192 26.0861 6.60516V8.88637C26.0861 8.61383 26.3201 8.3985 26.591 8.41908C29.2643 8.60981 31.985 7.76458 34.0419 6.42748C34.2341 6.3025 34.4883 6.33412 34.6447 6.50126C36.4025 8.38144 36.3919 8.30866 36.3919 8.5541V6.60516C36.3919 3.79192 34.1277 1.47005 31.3005 1.44496C31.2799 1.44496 31.2597 1.44496 31.239 1.44496Z" fill="#5E6377"/>
<path d="M29.9336 6.60516C29.9336 4.44742 31.2662 2.57979 33.1628 1.81487C32.5867 1.58248 31.9593 1.45098 31.3005 1.44496C31.2804 1.44496 31.2597 1.44496 31.239 1.44496C31.2183 1.44496 31.1981 1.44496 31.1775 1.44496C28.3503 1.46955 26.0861 3.79192 26.0861 6.60516V8.88587C26.0861 8.61332 26.3201 8.398 26.591 8.41858C27.7148 8.49889 28.8461 8.39399 29.9336 8.14855V6.60516Z" fill="#52586D"/>
<path d="M34.6442 6.39082C34.4878 6.22418 34.2336 6.19306 34.0419 6.31804C31.985 7.65514 29.2643 8.50037 26.591 8.30914C26.3201 8.28856 26.0861 8.50388 26.0861 8.77642V10.6024C26.0861 13.244 28.1662 15.6572 31.3126 15.6572C34.1135 15.6572 36.3919 13.3895 36.3919 10.6024V8.44466C36.3919 8.19922 36.4025 8.272 34.6442 6.39082Z" fill="#F7B594"/>
<path d="M29.9336 10.6025V8.03967C28.8461 8.2851 27.7148 8.38945 26.591 8.30914C26.3201 8.28856 26.0861 8.50388 26.0861 8.77642V10.6024C26.0861 13.244 28.1662 15.6572 31.3126 15.6572C31.9714 15.6572 32.6004 15.5303 33.1784 15.3019C31.1704 14.5385 29.9336 12.6392 29.9336 10.6025Z" fill="#F0A479"/>
<path d="M50.0182 22.1726L47.2213 21.095C46.5394 21.8453 45.803 22.6469 45.0963 23.4113C43.3309 25.3221 40.301 25.3221 38.5356 23.4118C37.8421 22.6615 37.1198 21.875 36.4485 21.1366L33.6117 22.2308C31.3652 23.0976 29.8848 25.2488 29.8848 27.646V30.139C29.8848 30.7047 30.3458 31.1629 30.9142 31.1629H52.7177C53.2862 31.1629 53.7472 30.7047 53.7472 30.139V27.5888C53.7472 25.1906 52.2658 23.0389 50.0182 22.1726Z" fill="#00AAF0"/>
<path d="M33.5325 30.139V25.7036C33.5325 24.1346 34.1666 22.672 35.2339 21.605L33.6117 22.2308C31.3652 23.0976 29.8848 25.2488 29.8848 27.646V30.139C29.8848 30.7047 30.3458 31.1629 30.9142 31.1629L34.562 31.1629C33.9936 31.1629 33.5325 30.7042 33.5325 30.139Z" fill="#059ADB"/>
<path d="M45.7308 20.5203C45.46 20.4164 45.2814 20.1569 45.2814 19.8678V17.2573C44.3201 17.9173 43.1559 18.3048 41.9025 18.3048C40.59 18.3048 39.437 17.9464 38.4938 17.3466V19.8683C38.4938 20.1569 38.3157 20.4159 38.0449 20.5203L36.2749 21.2034C36.9932 21.9944 37.7831 22.8542 38.5356 23.6683C40.301 25.5791 43.3309 25.5786 45.0963 23.6683C45.862 22.8396 46.6665 21.9643 47.3943 21.1617L45.7308 20.5203Z" fill="#F0A479"/>
<path d="M42.8624 18.2271C42.5496 18.2778 42.2293 18.3048 41.9025 18.3048C40.59 18.3048 39.437 17.9464 38.4938 17.3466V19.8683C38.4938 20.1569 38.3157 20.4164 38.0449 20.5208L36.2749 21.2034C36.9932 21.9949 37.7831 22.8542 38.5356 23.6683C39.6771 24.904 41.3471 25.3392 42.8624 24.9768V18.2271Z" fill="#E5966E"/>
<path d="M41.8157 1.86704C41.792 1.86704 41.7678 1.86704 41.7436 1.86704C38.4226 1.89615 35.7625 4.62356 35.7625 7.92868V10.6079C35.7625 10.2877 36.0373 10.0347 36.3561 10.0588C39.496 10.2832 42.6918 9.29038 45.1084 7.71988C45.3339 7.57282 45.633 7.60996 45.8166 7.80621C47.8816 10.0151 47.8689 9.92982 47.8689 10.2179V7.92868C47.8689 4.62406 45.2093 1.89615 41.8878 1.86704C41.8641 1.86704 41.8399 1.86704 41.8157 1.86704Z" fill="#5E6377"/>
<path d="M40.2823 7.92868C40.2823 5.394 41.848 3.20013 44.0754 2.3017C43.399 2.02866 42.6616 1.87407 41.8878 1.86704C41.8641 1.86704 41.8399 1.86704 41.8157 1.86704C41.7915 1.86704 41.7678 1.86704 41.7436 1.86704C38.4226 1.89615 35.7625 4.62406 35.7625 7.92868V10.6079C35.7625 10.2877 36.0373 10.0352 36.3561 10.0593C37.6756 10.1532 39.0047 10.0302 40.2823 9.7421V7.92868Z" fill="#52586D"/>
<path d="M45.8161 7.67729C45.6325 7.48104 45.3339 7.4444 45.1084 7.59146C42.6918 9.16195 39.496 10.1547 36.3561 9.93039C36.0373 9.90629 35.7625 10.1593 35.7625 10.4795V12.6247C35.7625 15.7275 38.2062 18.5618 41.9025 18.5618C45.1926 18.5618 47.8689 15.8987 47.8689 12.6247V10.09C47.8695 9.80139 47.8816 9.88672 45.8161 7.67729Z" fill="#F7B594"/>
<path d="M40.2823 12.6246V9.61365C39.0047 9.90175 37.6756 10.0247 36.3561 9.93039C36.0373 9.90629 35.7625 10.1593 35.7625 10.4795V12.6247C35.7625 15.7275 38.2062 18.5618 41.9025 18.5618C42.6762 18.5618 43.4151 18.4132 44.0941 18.1452C41.7355 17.2478 40.2823 15.0168 40.2823 12.6246Z" fill="#F0A479"/>
<path d="M11.8011 64.6507C12.5971 65.769 14.1425 66.0185 15.2517 65.237C24.6627 58.6041 22.004 60.4778 26.2057 57.5165C27.3219 56.73 27.5857 55.1941 26.7948 54.0834L26.531 53.7125C29.4434 52.1751 32.6992 51.3836 36.0035 51.4262L37.2786 51.4418H37.2907C37.8199 51.4418 38.2521 51.0182 38.2587 50.4897C38.2652 49.9576 37.837 49.521 37.3023 49.5144L36.0272 49.4989C32.3083 49.4547 28.655 50.3597 25.4016 52.1254L17.3813 40.8579L24.8624 35.5848C26.0488 34.7491 27.4934 34.4098 28.9294 34.6296L43.7586 36.8978C45.2098 37.1196 46.2085 38.4296 46.0319 39.8807C45.8766 41.152 44.8486 42.1308 43.574 42.2352L34.1539 41.0737C33.6243 41.0085 33.1396 41.3834 33.074 41.9119C33.0084 42.4399 33.3852 42.9213 33.9158 42.9865C46.2544 44.5078 41.3935 43.9572 49.2101 44.7362C50.2123 44.8361 51.1122 45.0238 52.1255 44.3091L60.7502 38.2299C60.7512 38.2294 60.7522 38.2289 60.7532 38.2284C61.8114 37.484 63.2948 37.7264 64.0524 38.791C64.8095 39.8546 64.5568 41.3237 63.4885 42.0771L55.2361 47.8938C53.5454 49.0853 51.4708 49.7137 49.3897 49.6615L41.8217 49.5692C41.2861 49.5631 40.8482 49.9888 40.8417 50.5213C40.8351 51.0533 41.2634 51.49 41.798 51.4965L49.3539 51.5884C51.8426 51.6521 54.3267 50.8967 56.3554 49.4663L64.6083 43.6496C66.5502 42.2813 67.0092 39.6096 65.6332 37.6773C64.9553 36.7241 63.9541 36.1314 62.8812 35.9396C62.7471 34.7355 62.1065 33.6298 61.0836 32.9126C59.1376 31.5494 56.4547 32.0126 55.0843 33.949L48.9988 42.5479C48.9418 42.6282 48.8722 42.6979 48.794 42.7577L46.8702 42.5659C47.4508 41.8929 47.8407 41.0486 47.9547 40.1126C48.2583 37.6225 46.5439 35.3735 44.0527 34.9925L29.224 32.7243C27.2881 32.4282 25.3416 32.8855 23.7432 34.0123L16.262 39.2849L15.7642 38.5857C14.9753 37.4775 13.4273 37.2145 12.3136 37.9995C7.01694 41.7327 1.66985 45.5011 1.36015 45.72C0.243417 46.5065 -0.0203816 48.0423 0.77051 49.1531L11.8011 64.6507ZM56.6676 35.0588C57.4227 33.9917 58.8995 33.7397 59.9684 34.4886C60.4965 34.8585 60.84 35.4171 60.9418 36.032C60.4839 36.162 60.0299 36.3758 59.6309 36.6574L51.4617 42.4148L56.6676 35.0588ZM13.4328 39.5725C13.675 39.4013 14.0119 39.4591 14.1834 39.7C14.9037 40.7113 24.8534 54.6902 25.2145 55.1971C25.386 55.4381 25.3295 55.7718 25.0859 55.944L22.5231 57.7499C22.0116 57.0316 11.3815 42.0971 10.87 41.3789L13.4328 39.5725ZM2.4794 47.2925L9.28975 42.4926C9.8012 43.2114 20.4308 58.1454 20.9423 58.8641L14.1319 63.664C13.8903 63.8351 13.5534 63.7779 13.3819 63.5365L2.35078 48.0393C2.17929 47.7984 2.23679 47.4636 2.4794 47.2925Z" fill="black"/>
<path d="M23.0577 27.3243H28.9183C28.9138 27.4277 28.9102 27.5321 28.9102 27.6365V30.129C28.9102 31.2252 29.8066 32.1171 30.9082 32.1171H52.7116C53.8132 32.1171 54.7096 31.2252 54.7096 30.129V27.5792C54.7096 27.4939 54.708 27.4091 54.7045 27.3243H61.6712C62.6881 27.3243 63.5158 26.5011 63.5158 25.4893C63.5158 25.3728 63.5163 25.2544 63.5173 25.1339C63.5198 24.7369 63.5229 24.3263 63.5002 23.8776C63.4729 23.3466 63.019 22.937 62.4833 22.9646C61.9491 22.9912 61.5386 23.4444 61.5658 23.976C61.5855 24.3685 61.5829 24.7509 61.5804 25.1203C61.5799 25.2137 61.5789 25.3061 61.5789 25.3969H54.3459C53.9 24.0879 53.0677 22.9591 51.9677 22.146C52.1099 22.159 52.2526 22.1666 52.3959 22.1666C53.7235 22.1666 55.0006 21.6089 55.8994 20.6362C56.4538 20.0364 56.9607 19.4848 57.4131 18.9889L59.0247 19.6103C59.3853 19.7493 59.7268 19.9436 60.0395 20.1875C60.4607 20.5163 61.0695 20.443 61.3994 20.0244C61.7297 19.6058 61.6561 19 61.2354 18.6712C60.7719 18.3098 60.2635 18.0207 59.7243 17.8129L56.3125 16.4984V15.2276C57.6567 14.1234 58.5142 12.4535 58.5142 10.5879C58.5142 10.09 58.5142 7.05739 58.5142 6.59261C58.5142 3.31159 55.8707 0.455686 52.3258 0.471747C50.1962 0.490318 48.2609 1.64723 47.1799 3.40244C44.3689 0.0576664 39.2514 0.0571642 36.4394 3.40244C35.3463 1.62716 33.3973 0.461709 31.1538 0.471747C27.8187 0.500858 25.1051 3.24634 25.1051 6.59261V10.5879C25.1051 12.5268 26.0049 14.2232 27.4288 15.3159V16.4984L23.892 17.8631C22.9634 18.223 22.2043 18.9086 21.7544 19.7935C20.7269 21.8142 20.8455 23.3712 20.8455 25.1234C20.846 26.337 21.8381 27.3243 23.0577 27.3243ZM45.3364 8.70418C46.1939 9.61867 46.6796 10.1251 46.8945 10.3715V12.6151C46.8945 15.98 43.6043 18.4117 40.1976 17.3326C38.0564 16.65 36.7248 14.6609 36.7248 12.6151V11.0351C39.6887 11.1475 42.8063 10.2666 45.3364 8.70418ZM48.6008 15.325V16.4984C48.0939 16.6942 48.3638 16.5903 47.2208 17.031C47.6964 16.4643 48.0808 15.8208 48.3557 15.1227C48.4359 15.1914 48.5171 15.2602 48.6008 15.325ZM48.8919 20.6367C48.9231 20.6704 48.9559 20.7025 48.9882 20.7351L46.2438 19.6776V19.4748C46.4748 19.3855 46.8037 19.259 47.2657 19.0808L47.411 19.0246C47.8528 19.5094 48.3486 20.049 48.8919 20.6367ZM45.7232 21.5442C45.3091 21.9959 44.8597 22.4848 44.3775 23.0063C43.7092 23.7295 42.7973 24.1281 41.8096 24.1281C39.9807 24.1281 39.2403 23.0108 37.9339 21.5854C38.2254 21.4724 38.1286 21.5101 38.3888 21.4097C39.0092 21.1703 39.4561 20.5589 39.4561 19.8588V19.124C40.986 19.6429 42.7559 19.658 44.3069 19.0858V19.8583C44.3069 20.5419 44.7377 21.1642 45.3747 21.4097L45.7232 21.5442ZM35.2702 15.1162C35.5299 15.7762 35.8936 16.4016 36.3506 16.9642L35.141 16.4984V15.2256C35.1844 15.1899 35.2278 15.1533 35.2702 15.1162ZM36.2411 18.9894L37.5193 19.4818V19.6781L34.5408 20.827C34.736 20.6382 36.1226 19.1194 36.2411 18.9894ZM52.7722 30.1295C52.7722 30.1626 52.7449 30.1897 52.7116 30.1897H30.9082C30.8744 30.1897 30.8471 30.1626 30.8471 30.1295V27.6365C30.8471 25.7292 32.0138 23.8821 33.9557 23.1202L35.998 22.3322C36.5438 22.93 37.1526 23.593 37.8169 24.3118C39.9636 26.6346 43.6562 26.6346 45.8029 24.3113C46.4904 23.5674 47.1118 22.8908 47.6596 22.29C49.7292 23.0876 49.8956 23.1333 50.3153 23.3727C51.7669 24.1993 52.7722 25.7909 52.7722 27.5792V30.1295ZM52.3959 20.2397C50.9437 20.2397 50.3475 19.3684 49.3473 18.2777C49.538 18.2044 49.6802 18.1578 49.8517 18.0393C50.627 17.5128 50.5377 16.7429 50.5377 16.3233C51.7604 16.6997 53.1459 16.7052 54.3756 16.2967V16.7509C54.3756 17.3587 54.7146 17.949 55.4767 18.2431C54.4679 19.3428 53.8551 20.2397 52.3959 20.2397ZM48.8303 12.7396C48.8313 12.6969 48.8318 12.6553 48.8318 12.6151C48.8318 10.8097 48.8318 10.6265 48.8318 9.38879C51.0996 9.32756 53.4238 8.62136 55.3713 7.44487C56.0084 8.12396 56.3781 8.50993 56.5778 8.73329V10.5879C56.5773 14.7467 51.0017 16.2299 48.8303 12.7396ZM48.3774 5.43469C48.8767 3.69405 50.4953 2.38204 52.4489 2.39911C54.4674 2.41667 56.1526 3.89783 56.5082 5.83171V5.83121H56.5077C56.0291 5.31925 55.2543 5.2259 54.6672 5.60786C52.984 6.70153 50.8948 7.39819 48.8167 7.46093C48.7718 6.76829 48.6185 6.07112 48.3774 5.43469ZM46.8778 7.52267C46.7552 7.39217 46.6387 7.26769 46.5192 7.14021C46.5192 7.1397 46.5192 7.1397 46.5187 7.1397V7.1392C46.1389 6.73365 45.584 6.57655 45.0675 6.6935C44.5127 6.81948 44.316 7.19893 42.6913 7.9242C40.8437 8.74935 38.7414 9.19254 36.7248 9.1032C36.7248 7.79571 36.6552 7.03932 37.1364 5.91402C39.2176 1.05849 46.4682 2.18228 46.8778 7.52267ZM31.2769 2.39911C33.1129 2.41517 34.7375 3.67548 35.2424 5.43469C35.2404 5.44022 35.1622 5.65905 35.1582 5.67009C34.6946 5.31925 34.0858 5.28663 33.6021 5.54512C33.3111 5.70071 30.7251 7.57035 27.0425 7.46294V6.59261C27.0425 4.35557 28.8295 2.39057 31.2769 2.39911ZM27.0425 9.3918C29.452 9.45203 32.0304 8.75738 34.1993 7.44437C34.4253 7.68529 34.616 7.88756 34.7779 8.05921L34.7885 8.07026V12.6151C34.7885 12.6553 34.789 12.6959 34.7895 12.7381C32.6004 16.25 27.0425 14.7222 27.0425 10.5879V9.3918ZM33.2042 16.2967C33.2042 16.7193 33.1981 16.8332 33.2223 16.9873C33.3071 17.5254 33.643 17.9881 34.3048 18.2431C33.9915 18.5844 33.6566 18.9483 33.302 19.3317C32.1812 20.5449 30.2656 20.5434 29.1458 19.3317C28.8038 18.9618 28.48 18.61 28.1753 18.2777C28.369 18.2034 28.5103 18.1563 28.6802 18.0393C29.4212 17.5359 29.3662 16.8387 29.3662 16.3197C30.6166 16.7012 31.9921 16.6987 33.2042 16.2967ZM24.5936 19.6595L26.239 19.0251C26.6843 19.5129 27.1802 20.0525 27.7199 20.6367C28.7085 21.7063 30.1929 22.3096 31.7465 22.1375C30.6176 22.9435 29.7571 24.0769 29.2931 25.3969H23.0577C22.9059 25.3969 22.7828 25.2744 22.7828 25.1234C22.7828 24.1261 22.5276 20.4601 24.5936 19.6595Z" fill="black"/>
</svg>
