<svg width="58" height="69" viewBox="0 0 58 69" fill="none" xmlns="http://www.w3.org/2000/svg">
<path fill-rule="evenodd" clip-rule="evenodd" d="M44.5098 35.1583V42.7414C44.5098 43.3058 44.0529 43.7637 43.4875 43.7637C42.9231 43.7637 42.4652 43.3058 42.4652 42.7414V35.1583C42.4652 34.5939 42.9231 34.136 43.4875 34.136C44.0529 34.136 44.5098 34.5937 44.5098 35.1583ZM36.5071 35.1583V42.7414C36.5071 43.3058 36.0485 43.7637 35.4848 43.7637C34.9202 43.7637 34.4615 43.3058 34.4615 42.7414V35.1583C34.4615 34.5939 34.9202 34.136 35.4848 34.136C36.0485 34.136 36.5071 34.5937 36.5071 35.1583ZM28.5025 35.1583V42.7414C28.5025 43.3058 28.0439 43.7637 27.4802 43.7637C26.9157 43.7637 26.4571 43.3058 26.4571 42.7414V35.1583C26.4571 34.5939 26.9157 34.136 27.4802 34.136C28.0439 34.136 28.5025 34.5937 28.5025 35.1583ZM33.2295 10.3548C33.7949 10.3548 34.2518 9.89792 34.2518 9.33251V2.74464H37.4761V9.33251C37.4761 9.89792 37.9339 10.3548 38.4984 10.3548H42.0167L35.8649 19.7997L29.7131 10.3548H33.2295ZM35.0071 22.2305C35.4078 22.847 36.3177 22.8495 36.7205 22.2305L44.7595 9.89066C45.2008 9.21312 44.7104 8.31021 43.9018 8.31021H39.5205V1.7225C39.5205 1.15804 39.0627 0.700195 38.4982 0.700195H33.2295C32.6658 0.700195 32.2072 1.15804 32.2072 1.7225V8.31037H27.8259C27.0175 8.31037 26.5263 9.21249 26.9692 9.89082L35.0071 22.2305ZM44.9694 66.1318C44.1442 66.1318 43.4722 65.4596 43.4722 64.6346C43.4722 63.8087 44.1444 63.1373 44.9694 63.1373C45.7953 63.1373 46.4666 63.8085 46.4666 64.6346C46.4667 65.4595 45.7953 66.1318 44.9694 66.1318ZM44.9694 61.0927C43.0171 61.0927 41.4276 62.6813 41.4276 64.6345C41.4276 66.5868 43.0171 68.1762 44.9694 68.1762C46.9225 68.1762 48.5121 66.5868 48.5121 64.6345C48.5121 62.6813 46.9227 61.0927 44.9694 61.0927ZM24.9598 66.1318C24.1346 66.1318 23.4624 65.4596 23.4624 64.6346C23.4624 63.8087 24.1346 63.1373 24.9598 63.1373C25.7857 63.1373 26.4569 63.8085 26.4569 64.6346C26.4571 65.4595 25.7857 66.1318 24.9598 66.1318ZM24.9598 61.0927C23.0074 61.0927 21.418 62.6813 21.418 64.6345C21.418 66.5868 23.0074 68.1762 24.9598 68.1762C26.9129 68.1762 28.5025 66.5868 28.5025 64.6345C28.5025 62.6813 26.913 61.0927 24.9598 61.0927ZM55.2691 31.5216C55.8105 29.5048 54.308 27.5491 52.2213 27.5491H15.8923L21.9826 50.2782L48.3675 47.9026C49.9805 47.7578 51.1538 46.8812 51.5085 45.5594L55.2691 31.5216ZM56.3475 27.5382C55.3397 26.2264 53.8741 25.5036 52.2213 25.5036H15.3441L13.8578 19.9615C13.2408 17.6554 11.2216 16.1066 8.83508 16.1066H1.34603C0.779682 16.1066 0.32373 16.5645 0.32373 17.1289C0.32373 17.6934 0.779682 18.1512 1.34603 18.1512H8.83492C10.2842 18.1512 11.5082 19.0912 11.8827 20.4908L21.2598 55.4855C21.8785 57.7916 23.8979 59.3403 26.2825 59.3403H48.9753C49.5407 59.3403 49.9976 58.8826 49.9976 58.318C49.9976 57.7535 49.5407 57.2957 48.9753 57.2957H26.2825C24.835 57.2957 23.61 56.3557 23.2347 54.9562L22.5191 52.2829L48.5511 49.939C51.0163 49.7174 52.9053 48.2418 53.4834 46.0887L57.2441 32.05C57.672 30.4531 57.3536 28.8509 56.3475 27.5382Z" fill="#2B3F4F"/>
</svg>
