<svg width="71" height="79" viewBox="0 0 71 79" fill="none" xmlns="http://www.w3.org/2000/svg">
<path d="M54.373 55.0753H16.4361L17.5758 2.42922H54.373V55.0753Z" fill="#FBF7EE"/>
<path d="M16.7577 50.4187L15.03 52.8142L9.0812 54.6989L4.95435 50.4187L2.07618 49.0758V22.8112H16.7577V50.4187Z" fill="#FFCF6B"/>
<path d="M13.8203 22.8105V47.8741C13.8203 48.7958 13.5909 49.703 13.1526 50.514C12.7144 51.3251 12.081 52.0144 11.3097 52.5201L9.30914 53.8318H14.7368L17.0631 45.0846L16.7575 22.8105H13.8203Z" fill="#1F2A4C"/>
<path d="M36.2533 13.3066C37.2503 13.1899 38.2325 12.97 39.184 12.6505C39.8409 12.2971 41.6093 9.11688 41.7609 9.3188C41.9124 9.52071 45.4999 13.6096 45.702 13.6096H48.1274L44.8431 17.2946L45.3989 20.8785L41.983 19.5157L38.8303 21.6863L38.4267 16.6383L35.0414 13.3066H36.2533Z" fill="#FFCF6B"/>
<path d="M54.5264 43.2671L40.4114 51.2105L39.8974 56.3873V67.9912L54.1698 76.7384L69.4474 68.705L69.2684 51.8356L54.5264 43.2671Z" fill="#97DFAE"/>
<path d="M51.4894 74.3281L66.3203 66.1159V53.8883L69.804 52.4607L69.9829 67.7236L68.017 70.4001L54.6717 76.7384L51.4894 74.3281Z" fill="#1F2A4C"/>
<path d="M33.1696 56.0433H11.6405C11.2836 56.0433 10.9414 55.9016 10.6891 55.6495C10.4367 55.3974 10.2949 55.0555 10.2949 54.699C10.2949 54.3425 10.4367 54.0005 10.6891 53.7484C10.9414 53.4963 11.2836 53.3547 11.6405 53.3547H33.1696C33.5265 53.3547 33.8687 53.4963 34.1211 53.7484C34.3734 54.0005 34.5152 54.3425 34.5152 54.699C34.5152 55.0555 34.3734 55.3974 34.1211 55.6495C33.8687 55.9016 33.5265 56.0433 33.1696 56.0433Z" fill="#5F6975"/>
<path d="M54.6987 37.2233C54.3418 37.2233 53.9995 37.0817 53.7472 36.8296C53.4949 36.5775 53.3531 36.2356 53.3531 35.879V4.12564C53.353 3.99059 53.2992 3.8611 53.2037 3.7656C53.1081 3.6701 52.9784 3.6164 52.8433 3.6163H18.8782C18.743 3.6164 18.6134 3.6701 18.5178 3.7656C18.4222 3.8611 18.3685 3.99059 18.3684 4.12564V22.4362C18.3684 22.7928 18.2266 23.1347 17.9742 23.3868C17.7219 23.6389 17.3796 23.7805 17.0228 23.7805C16.6659 23.7805 16.3237 23.6389 16.0713 23.3868C15.819 23.1347 15.6772 22.7928 15.6772 22.4362V4.12564C15.6783 3.27783 16.0159 2.46505 16.6159 1.86556C17.216 1.26607 18.0296 0.928802 18.8782 0.927734H52.8433C53.6919 0.928802 54.5054 1.26607 55.1055 1.86556C55.7056 2.46505 56.0432 3.27783 56.0442 4.12564V35.879C56.0442 36.2356 55.9025 36.5775 55.6501 36.8296C55.3978 37.0817 55.0555 37.2233 54.6987 37.2233Z" fill="#5F6975"/>
<path d="M11.479 56.0433C8.66987 56.0442 5.97521 54.931 3.98708 52.9482C1.99895 50.9655 0.87997 48.2754 0.875977 45.4689V37.2233C0.875977 36.8668 1.01774 36.5249 1.27008 36.2728C1.52243 36.0207 1.86468 35.879 2.22154 35.879C2.57841 35.879 2.92066 36.0207 3.173 36.2728C3.42535 36.5249 3.56711 36.8668 3.56711 37.2233V45.4689C3.56957 47.5596 4.40198 49.5639 5.88174 51.0423C7.3615 52.5206 9.36778 53.3522 11.4605 53.3547C12.013 53.356 12.5605 53.2486 13.0715 53.0385C13.5824 52.8285 14.047 52.5199 14.4386 52.1304C14.8302 51.7409 15.1411 51.2781 15.3536 50.7686C15.5662 50.259 15.6761 49.7126 15.6772 49.1605V23.7805H3.56711V30.5019C3.56711 30.8584 3.42535 31.2004 3.173 31.4525C2.92066 31.7046 2.57841 31.8462 2.22154 31.8462C1.86468 31.8462 1.52243 31.7046 1.27008 31.4525C1.01774 31.2004 0.875977 30.8584 0.875977 30.5019V22.4362C0.875977 22.0797 1.01774 21.7378 1.27008 21.4857C1.52243 21.2336 1.86468 21.092 2.22154 21.092H17.0228C17.3796 21.092 17.7219 21.2336 17.9742 21.4857C18.2266 21.7378 18.3684 22.0797 18.3684 22.4362V49.1605C18.3662 50.9853 17.6397 52.7347 16.3482 54.025C15.0567 55.3153 13.3056 56.0412 11.479 56.0433Z" fill="#5F6975"/>
<path d="M31.824 27.8134H23.7506C23.3938 27.8134 23.0515 27.6717 22.7992 27.4196C22.5468 27.1675 22.4051 26.8256 22.4051 26.4691C22.4051 26.1125 22.5468 25.7706 22.7992 25.5185C23.0515 25.2664 23.3938 25.1248 23.7506 25.1248H31.824C32.1809 25.1248 32.5231 25.2664 32.7755 25.5185C33.0278 25.7706 33.1696 26.1125 33.1696 26.4691C33.1696 26.8256 33.0278 27.1675 32.7755 27.4196C32.5231 27.6717 32.1809 27.8134 31.824 27.8134Z" fill="#5F6975"/>
<path d="M39.8974 35.879H23.7506C23.3938 35.879 23.0515 35.7374 22.7992 35.4853C22.5468 35.2332 22.4051 34.8913 22.4051 34.5348C22.4051 34.1782 22.5468 33.8363 22.7992 33.5842C23.0515 33.3321 23.3938 33.1905 23.7506 33.1905H39.8974C40.2543 33.1905 40.5965 33.3321 40.8489 33.5842C41.1012 33.8363 41.243 34.1782 41.243 34.5348C41.243 34.8913 41.1012 35.2332 40.8489 35.4853C40.5965 35.7374 40.2543 35.879 39.8974 35.879Z" fill="#5F6975"/>
<path d="M39.8974 43.9447H23.7506C23.3938 43.9447 23.0515 43.8031 22.7992 43.551C22.5468 43.2989 22.4051 42.957 22.4051 42.6004C22.4051 42.2439 22.5468 41.902 22.7992 41.6499C23.0515 41.3978 23.3938 41.2562 23.7506 41.2562H39.8974C40.2543 41.2562 40.5965 41.3978 40.8489 41.6499C41.1012 41.902 41.243 42.2439 41.243 42.6004C41.243 42.957 41.1012 43.2989 40.8489 43.551C40.5965 43.8031 40.2543 43.9447 39.8974 43.9447Z" fill="#5F6975"/>
<path d="M54.6987 78.0768C53.9904 78.0773 53.2943 77.8919 52.6803 77.5391L40.5702 70.5538C39.957 70.1994 39.4478 69.6902 39.0936 69.0772C38.7394 68.4643 38.5525 67.7692 38.5519 67.0614V53.0908C38.5526 52.383 38.7396 51.6878 39.0941 51.0749C39.4486 50.462 39.9581 49.953 40.5716 49.5989L52.6803 42.6139C53.2946 42.2617 53.9904 42.0763 54.6987 42.0763C55.4069 42.0763 56.1028 42.2617 56.717 42.6139L68.8271 49.5992C69.4402 49.9536 69.9493 50.4626 70.3035 51.0754C70.6578 51.6882 70.8446 52.3832 70.8455 53.0908V67.0614C70.8447 67.7692 70.6577 68.4644 70.3032 69.0773C69.9487 69.6902 69.4392 70.1992 68.8258 70.5533L56.717 77.5383C56.1031 77.8913 55.407 78.077 54.6987 78.0768ZM54.6987 44.7626C54.4625 44.7626 54.2305 44.8246 54.0259 44.9425L41.9158 51.9277C41.7114 52.0456 41.5416 52.2152 41.4235 52.4193C41.3055 52.6234 41.2432 52.855 41.243 53.0908V67.0614C41.2432 67.297 41.3054 67.5284 41.4232 67.7325C41.541 67.9366 41.7104 68.1063 41.9144 68.2245L54.0259 75.2098C54.2306 75.3271 54.4626 75.3889 54.6987 75.3889C54.9347 75.3889 55.1667 75.3271 55.3714 75.2098L67.4816 68.2245C67.6859 68.1066 67.8557 67.937 67.9738 67.7329C68.0919 67.5288 68.1541 67.2972 68.1543 67.0614V53.0908C68.1541 52.8552 68.0919 52.6238 67.9741 52.4197C67.8563 52.2156 67.6869 52.0459 67.4829 51.9277L55.3714 44.9425C55.1668 44.8246 54.9348 44.7626 54.6987 44.7626Z" fill="#5F6975"/>
<path d="M54.6973 61.4204C54.4727 61.4207 54.2517 61.3642 54.0548 61.2562L39.2536 53.1906C38.9471 53.0164 38.7212 52.7289 38.6247 52.3901C38.5282 52.0512 38.5686 51.6881 38.7374 51.3787C38.9062 51.0694 39.1897 50.8386 39.5271 50.736C39.8645 50.6335 40.2286 50.6673 40.5413 50.8303L55.3425 58.896C55.6051 59.039 55.8124 59.2654 55.9319 59.5394C56.0513 59.8133 56.0759 60.1192 56.0019 60.4087C55.928 60.6982 55.7595 60.9548 55.5233 61.138C55.287 61.3212 54.9964 61.4206 54.6973 61.4204Z" fill="#5F6975"/>
<path d="M54.7 61.4204C54.4009 61.4206 54.1103 61.3212 53.8741 61.138C53.6378 60.9548 53.4694 60.6982 53.3954 60.4087C53.3214 60.1192 53.3461 59.8133 53.4655 59.5394C53.5849 59.2654 53.7923 59.039 54.0548 58.896L68.8561 50.8303C69.0114 50.742 69.1829 50.6855 69.3603 50.6641C69.5378 50.6427 69.7178 50.6569 69.8897 50.7058C70.0616 50.7547 70.2221 50.8373 70.3617 50.9489C70.5013 51.0604 70.6173 51.1986 70.7028 51.3554C70.7884 51.5122 70.8418 51.6845 70.8599 51.8621C70.8781 52.0398 70.8607 52.2193 70.8086 52.3901C70.7566 52.561 70.671 52.7198 70.5568 52.8572C70.4427 52.9946 70.3022 53.108 70.1438 53.1906L55.3425 61.2562C55.1456 61.3642 54.9246 61.4207 54.7 61.4204Z" fill="#5F6975"/>
<path d="M37.7608 22.8484C37.5741 22.8483 37.3894 22.8093 37.2185 22.7341C37.0477 22.6588 36.8943 22.5488 36.7683 22.4112C36.6422 22.2735 36.5462 22.1112 36.4863 21.9345C36.4265 21.7578 36.404 21.5706 36.4205 21.3847L36.7767 17.3886L34.138 14.364C33.9852 14.1889 33.8804 13.9772 33.8339 13.7496C33.7873 13.522 33.8006 13.2862 33.8725 13.0653C33.9443 12.8444 34.0722 12.6458 34.2437 12.4889C34.4152 12.3321 34.6245 12.2223 34.8511 12.1704L38.7657 11.2737L40.8273 7.83156C40.9557 7.644 41.128 7.49055 41.3291 7.38452C41.5303 7.27848 41.7543 7.22306 41.9817 7.22306C42.2091 7.22306 42.4332 7.27848 42.6343 7.38452C42.8355 7.49055 43.0077 7.644 43.1361 7.83156L45.2004 11.2737L49.115 12.1704C49.3416 12.2223 49.5509 12.3321 49.7224 12.4889C49.8939 12.6458 50.0218 12.8444 50.0936 13.0653C50.1655 13.2862 50.1788 13.522 50.1322 13.7496C50.0857 13.9772 49.9809 14.1889 49.8281 14.364L47.1895 17.3886L47.5443 21.3847C47.5649 21.6161 47.5252 21.8489 47.4289 22.0603C47.3327 22.2718 47.1833 22.4547 46.9952 22.5913C46.8072 22.7279 46.5869 22.8134 46.3559 22.8396C46.1248 22.8659 45.891 22.8318 45.677 22.7408L41.982 21.168L38.2869 22.7408C38.1206 22.8118 37.9416 22.8483 37.7608 22.8484ZM41.9831 18.3631C42.1642 18.3627 42.3435 18.3993 42.51 18.4706L44.6663 19.3882L44.4589 17.0564C44.4428 16.8759 44.4633 16.6941 44.5193 16.5217C44.5753 16.3494 44.6656 16.1902 44.7848 16.0536L46.3244 14.2899L44.0406 13.7674C43.8639 13.7269 43.6973 13.6512 43.5507 13.5447C43.4041 13.4382 43.2807 13.3031 43.1877 13.1477L41.9831 11.1385L40.7804 13.1472C40.6871 13.3026 40.5634 13.4376 40.4166 13.5441C40.2699 13.6506 40.1031 13.7264 39.9264 13.767L37.6425 14.2895L39.1827 16.0539C39.3019 16.1904 39.3922 16.3497 39.4481 16.522C39.5041 16.6943 39.5246 16.8762 39.5084 17.0567L39.3008 19.3882L41.4559 18.4706C41.6224 18.3993 41.8018 18.3627 41.9831 18.3631Z" fill="#5F6975"/>
</svg>
