<svg width="79" height="58" viewBox="0 0 79 58" fill="none" xmlns="http://www.w3.org/2000/svg">
<path d="M56.6752 24.4452V25.3382C56.6752 26.4325 56.8495 27.5195 57.1913 28.5575L59.1895 34.6256H62.961V20.6274H60.4467C58.3638 20.6275 56.6752 22.3367 56.6752 24.4452Z" fill="#5A4146"/>
<path d="M73.8885 27.0888L71.7612 34.6258L61.7038 25.7179C60.3151 25.7179 59.1894 24.5784 59.1894 23.1728C59.1894 21.0644 60.878 19.3552 62.9609 19.3552H71.761C73.1497 19.3552 74.2754 20.4947 74.2754 21.9003V24.2922C74.2755 25.2379 74.1452 26.1791 73.8885 27.0888Z" fill="#694B4B"/>
<path d="M69.2459 38.4442H61.703V44.0764H69.2459V38.4442Z" fill="#E6AF78"/>
<path d="M61.7037 40.7808C62.8697 41.2604 64.1411 41.5304 65.4752 41.5304C66.8092 41.5304 68.0807 41.2604 69.2467 40.7808V38.4433H61.7037V40.7808Z" fill="#D29B6E"/>
<path d="M75.3115 43.2845L69.2464 41.5305L65.4752 44.0638L61.7038 41.5304L55.639 43.2845C54.0198 43.7528 52.9036 45.2508 52.9036 46.9553V56.2592C52.9036 56.962 53.4665 57.5317 54.1608 57.5317H76.7898C77.4842 57.5317 78.047 56.962 78.047 56.2592V46.9553C78.047 45.2507 76.9306 43.7528 75.3115 43.2845Z" fill="#D5DCED"/>
<path d="M66.7324 57.5317H64.2181L64.8467 44.0756H66.1039L66.7324 57.5317Z" fill="#AFB9D2"/>
<path d="M65.4753 39.7159C61.3094 39.7159 57.9323 36.2973 57.9323 32.0806V30.5897C57.9323 29.9147 58.1972 29.2673 58.6687 28.7899L60.9484 26.4823C61.4311 25.9936 62.0912 25.7127 62.7736 25.7345C66.7923 25.8628 70.3494 26.7342 72.2939 28.6566C72.7699 29.1273 73.0184 29.7856 73.0184 30.459V32.0806C73.0184 36.2975 69.6412 39.7159 65.4753 39.7159Z" fill="#F0C087"/>
<path d="M61.7038 30.9053C61.7038 29.4373 62.9217 28.2705 64.369 28.3638C66.9069 28.5278 70.6729 28.9571 72.9834 30.0821C72.908 29.5452 72.6801 29.0385 72.2939 28.6566C70.3494 26.7342 66.7923 25.8628 62.7736 25.7345L62.7734 25.7345C62.0912 25.7127 61.431 25.9938 60.9484 26.4823L58.6688 28.7896C58.1972 29.2669 57.9323 29.9142 57.9323 30.5893V32.0803C57.9323 35.5623 60.2373 38.494 63.3854 39.4121C62.3376 38.1035 61.7039 36.4423 61.7039 34.6254L61.7038 30.9053Z" fill="#E6AF78"/>
<path d="M73.0183 50.7472C73.0183 49.7346 73.4157 48.7637 74.1229 48.0477L77.359 44.772C77.7915 45.3978 78.047 46.1512 78.047 46.9555V56.2594C78.047 56.9622 77.4842 57.5319 76.7898 57.5319H73.0183V50.7472Z" fill="#C7CFE2"/>
<path d="M66.1039 46.6207H64.8467C64.4996 46.6207 64.2181 46.3358 64.2181 45.9844V44.0756H66.7324V45.9844C66.7324 46.3358 66.4511 46.6207 66.1039 46.6207Z" fill="#959CB5"/>
<path d="M65.4752 44.0638L63.3444 45.7114C62.9773 45.9952 62.4466 45.8815 62.2248 45.4713L60.3134 41.9378L61.0828 40.7499C61.2534 40.4864 61.6171 40.4415 61.8453 40.6557L65.4752 44.0638Z" fill="#C7CFE2"/>
<path d="M65.4752 44.0638L67.606 45.7115C67.9731 45.9954 68.5038 45.8817 68.7256 45.4715L70.6371 41.938L69.8677 40.75C69.697 40.4865 69.3333 40.4417 69.1051 40.6559L65.4752 44.0638Z" fill="#C7CFE2"/>
<path d="M22.6063 39.1846C21.532 36.3033 20.6799 31.3501 20.4959 28.7712C20.1457 23.8638 16.4922 19.8634 11.5534 19.8634C6.61461 19.8634 2.96111 23.8639 2.61097 28.7712C2.42692 31.3499 1.57486 36.3033 0.500535 39.1846C0.263809 39.8198 0.537072 40.5202 1.15499 40.8037C2.3062 41.3318 4.76069 42.3665 7.7209 42.7694H15.3858C18.3322 42.3655 20.8038 41.3303 21.9517 40.8037C22.5698 40.5202 22.843 39.8198 22.6063 39.1846Z" fill="#5A4146"/>
<path d="M21.9518 40.8039C22.5695 40.5203 22.8429 39.82 22.6061 39.1848C21.5319 36.3034 20.6797 31.3502 20.4958 28.7714C20.1458 23.8639 16.4921 19.8635 11.5535 19.8635C11.541 19.8635 11.5287 19.8635 11.5162 19.8637C7.72659 19.8792 6.38738 25.1107 9.64963 27.0627C9.84555 27.18 9.97115 27.2364 9.97115 27.2364L12.8285 42.7696H15.3858C18.3322 42.3654 20.8039 41.3303 21.9518 40.8039Z" fill="#694B4B"/>
<path d="M20.6467 45.3243L16.5784 43.2654C15.7264 42.8342 15.1883 41.9528 15.1884 40.9887L15.1887 37.1709H7.64549V40.9889C7.64549 41.9529 7.10749 42.8341 6.25558 43.2652L2.18725 45.3243C0.909538 45.9709 0.102539 47.2928 0.102539 48.7387V56.259C0.102539 56.9617 0.665353 57.5316 1.3597 57.5316H21.4744C22.1687 57.5316 22.7316 56.9617 22.7316 56.259V48.7388C22.7316 47.2928 21.9244 45.9709 20.6467 45.3243Z" fill="#E6AF78"/>
<path d="M11.4171 42.261C12.7707 42.261 14.0673 41.9785 15.256 41.4757C15.2248 41.3153 15.1884 41.1558 15.1884 40.9886L15.1887 37.1708H7.64543V40.9887C7.64543 41.1569 7.60904 41.3171 7.57753 41.4781C8.76694 41.9784 10.0629 42.261 11.4171 42.261Z" fill="#D29B6E"/>
<path d="M20.6467 45.3243L17.7484 43.8575C16.4045 45.9582 14.0736 47.3514 11.4171 47.3514C8.76062 47.3514 6.42959 45.9582 5.08566 43.8574L2.1874 45.3244C0.90969 45.971 0.102539 47.2928 0.102539 48.7387V56.259C0.102539 56.9617 0.665353 57.5316 1.3597 57.5316H21.4744C22.1687 57.5316 22.7316 56.9617 22.7316 56.259V48.7388C22.7316 47.2928 21.9244 45.9709 20.6467 45.3243Z" fill="#D5DCED"/>
<path d="M11.4171 39.7159C7.58195 39.7159 4.41546 36.8188 3.93668 33.0688C3.86726 32.5255 4.1253 31.9927 4.60849 31.746C5.18729 31.4505 6.02839 30.9521 6.83372 30.2247C7.73053 29.4148 8.25666 28.5606 8.55382 27.9336C8.80973 27.3936 9.39797 27.0882 9.97129 27.2363C14.3977 28.3791 17.4112 30.7102 18.5045 31.6619C18.798 31.9174 18.9672 32.2941 18.937 32.6849C18.6324 36.6191 15.382 39.7159 11.4171 39.7159Z" fill="#F0C087"/>
<path d="M18.5045 31.6617C17.4113 30.71 14.3976 28.379 9.97124 27.2362C9.39793 27.0881 8.80969 27.3935 8.55378 27.9335C8.32878 28.4084 7.95687 29.0134 7.40501 29.631C7.40486 29.6326 7.4044 29.6338 7.40425 29.6353C7.23299 29.8318 7.0505 30.0287 6.83372 30.2247C6.02839 30.9523 5.18729 31.4505 4.60849 31.746C4.1253 31.9927 3.86752 32.5256 3.93679 33.069C4.36685 36.4368 6.97038 39.1175 10.2736 39.6288C8.76843 38.5923 7.6457 37.1669 7.6457 34.6258V32.8112C7.93129 32.5977 8.21886 32.3849 8.50781 32.1239C9.20657 31.4927 9.81657 30.7627 10.3057 29.9768C13.6919 31.0464 15.9876 32.828 16.8579 33.5855C17.0962 33.7969 17.6874 34.3486 18.3792 35.0055C18.6768 34.2805 18.8737 33.5026 18.9368 32.6851C18.9671 32.2942 18.798 31.9174 18.5045 31.6617Z" fill="#E6AF78"/>
<path d="M0.868891 46.4449C0.384631 47.0955 0.102539 47.8934 0.102539 48.7387V56.259C0.102539 56.9617 0.665353 57.5316 1.3597 57.5316L5.13117 57.5317V51.1196C5.13117 50.3465 4.78393 49.6151 4.18747 49.1322L0.868891 46.4449Z" fill="#C7CFE2"/>
<path d="M57.1365 43.5877L46.6178 39.7158L39.0748 42.2611L31.5319 39.716L21.0132 43.5879C19.0259 44.3194 17.703 46.2311 17.703 48.3716V56.2593C17.703 56.962 18.2658 57.5318 18.9601 57.5318H59.1895C59.8838 57.5318 60.4467 56.962 60.4467 56.2593V48.3716C60.4467 46.231 59.1239 44.3192 57.1365 43.5877Z" fill="#FF507D"/>
<path d="M37.7578 44.8062L36.5605 57.5315H41.5891L40.3918 44.8062H37.7578Z" fill="#707487"/>
<path d="M40.3946 46.5545H37.7549C37.2688 46.5545 36.8748 46.1557 36.8748 45.6637V42.261H41.2745V45.6637C41.2747 46.1556 40.8807 46.5545 40.3946 46.5545Z" fill="#5B5D6E"/>
<path d="M59.0934 44.9033C59.9422 45.8255 60.4466 47.0539 60.4466 48.3714V56.2591C60.4466 56.962 59.8838 57.5317 59.1894 57.5317H52.9036V53.2773C52.9036 51.9273 53.4334 50.6325 54.3765 49.678L59.0934 44.9033Z" fill="#D23C69"/>
<path d="M52.9037 13.4723V2.8117C52.9037 1.40601 51.7779 0.266602 50.3894 0.266602H35.3033C29.7489 0.266602 25.2459 4.82454 25.2459 10.4472V13.4723C25.2459 14.8401 25.4637 16.1989 25.8911 17.4964L26.3096 18.7673C26.4377 19.1565 26.503 19.5641 26.503 19.9745V20.6276H51.6464V19.9745C51.6464 19.5641 51.7117 19.1565 51.8399 18.7673L52.2584 17.4964C52.6858 16.1988 52.9037 14.8399 52.9037 13.4723Z" fill="#5A4146"/>
<path d="M31.5318 5.43632C31.5318 8.29146 33.8184 10.606 36.639 10.606H37.3462L37.6875 20.6274H51.6464V19.9743C51.6464 19.564 51.7117 19.1564 51.8399 18.7671L52.2584 17.4963C52.6857 16.1988 52.9035 14.8399 52.9035 13.4721L52.9037 2.8117C52.9037 1.40601 51.7779 0.266602 50.3894 0.266602H36.639C33.8184 0.266602 31.5318 2.58117 31.5318 5.43632Z" fill="#694B4B"/>
<path d="M46.6181 30.8085H31.5315V42.2611H46.6181V30.8085Z" fill="#E6AF78"/>
<path d="M31.5318 35.1109C33.7526 36.4132 36.3238 37.1706 39.0748 37.1706C41.8258 37.1706 44.3971 36.4132 46.6177 35.1109V30.8079H31.5317L31.5318 35.1109Z" fill="#D29B6E"/>
<path d="M39.0748 42.2611L35.0651 46.3197C34.5262 46.8652 33.6355 46.8037 33.1748 46.1892L29.0174 40.6441L30.1048 38.3244C30.4258 37.6399 31.2627 37.3891 31.9 37.7866L39.0748 42.2611Z" fill="#D23C69"/>
<path d="M39.0748 42.2611L43.0843 46.3197C43.6232 46.8652 44.5139 46.8037 44.9746 46.1892L49.132 40.6441L48.0446 38.3244C47.7236 37.6399 46.8867 37.3891 46.2494 37.7866L39.0748 42.2611Z" fill="#D23C69"/>
<path d="M39.0748 34.6257C32.1316 34.6257 26.503 28.9282 26.503 21.9V20.4091C26.503 19.7342 26.7679 19.0868 27.2394 18.6094L28.2808 17.5552C28.7523 17.078 29.0172 16.4306 29.0172 15.7555V12.7049C29.0172 12.1157 29.4081 11.6037 29.9746 11.4683C32.9479 10.7574 42.2003 9.0736 48.4969 13.7613C48.9058 14.0656 49.1319 14.5657 49.1319 15.0795V15.7555C49.1319 16.4304 49.3968 17.0778 49.8682 17.5552L50.9097 18.6094C51.3812 19.0866 51.646 19.734 51.646 20.4091V21.9C51.6465 28.9282 46.0179 34.6257 39.0748 34.6257Z" fill="#F0C087"/>
<path d="M48.4971 13.7614C44.0685 10.4645 38.186 10.3218 34.0461 10.7731C32.2998 10.9634 30.8569 11.2576 29.9749 11.4684C29.4084 11.6039 29.0175 12.1158 29.0175 12.7051V15.7555C29.0175 16.4306 28.7526 17.0779 28.281 17.5553L27.2395 18.6095C26.7679 19.0869 26.503 19.7343 26.503 20.4094V21.9C26.503 28.4067 31.3304 33.7635 37.5556 34.524C35.3864 32.2373 34.046 29.1385 34.046 25.7178V16.4162C34.046 15.1266 34.9933 14.0488 36.2573 13.8884C39.2743 13.5055 44.8002 13.2752 49.1319 15.7558V15.0795C49.1322 14.5657 48.9057 14.0656 48.4971 13.7614Z" fill="#E6AF78"/>
<path d="M19.0562 44.9033C18.2073 45.8255 17.703 47.054 17.703 48.3716V56.2593C17.703 56.962 18.2658 57.5318 18.9601 57.5318L25.2459 57.5317V53.2773C25.2459 51.9273 24.7161 50.6325 23.773 49.678L19.0562 44.9033Z" fill="#D23C69"/>
</svg>
