<svg width="56" height="63" viewBox="0 0 56 63" fill="none" xmlns="http://www.w3.org/2000/svg">
<path d="M32.348 36.5694L42.8877 39.3806C45.9259 40.1905 48.6542 41.8867 50.7246 44.2532C53.2506 47.1396 54.6432 50.8448 54.6435 54.6804V61.9052H1.94505V54.6804C1.94509 50.8449 3.33726 47.1397 5.86298 44.2532C7.93364 41.8866 10.6623 40.1903 13.7009 39.3806L24.2405 36.5694" fill="#C16B3F"/>
<path d="M33.6837 36.9251L32.348 36.5694H24.2405L13.7009 39.3806C10.3294 40.2793 7.34922 42.2664 5.22336 45.0331C3.0975 47.7998 1.94503 51.1913 1.94505 54.6804V61.9052H22.5745C29.2319 55.2337 33.1885 46.337 33.6837 36.9251Z" fill="#E39854"/>
<path d="M44.509 61.9055V52.7846C44.509 52.2471 44.2954 51.7315 43.9153 51.3514C43.5352 50.9713 43.0197 50.7578 42.4821 50.7578H14.106C13.5685 50.7578 13.0529 50.9713 12.6728 51.3514C12.2927 51.7315 12.0792 52.2471 12.0792 52.7846V61.9055" fill="#669E4F"/>
<path d="M30.2885 50.7578H14.106C13.5685 50.7578 13.0529 50.9713 12.6728 51.3514C12.2927 51.7315 12.0792 52.2471 12.0792 52.7846V61.9055L22.5745 61.9052C25.787 58.6764 28.3989 54.902 30.2885 50.7578Z" fill="#78B75B"/>
<path d="M41.4688 50.7577V39.0019L37.4151 37.9206V50.7577" fill="#F2C351"/>
<path d="M19.1731 50.7577V37.9206L15.1194 39.0019V50.7577" fill="#F7D881"/>
<path d="M24.2407 31.5023V36.8309C24.7589 37.388 25.3862 37.8322 26.0837 38.136C26.7811 38.4398 27.5337 38.5965 28.2945 38.5965C29.0552 38.5965 29.8078 38.4398 30.5052 38.136C31.2027 37.8322 31.8301 37.388 32.3482 36.8309V31.5023" fill="#F5CF88"/>
<path d="M37.4151 22.8021V15.6929C37.4148 14.6432 37.1427 13.6115 36.6254 12.6981C36.1081 11.7848 35.3631 11.0209 34.463 10.4808L32.348 9.20694L31.6903 9.86466C30.1646 11.3901 28.0955 12.2472 25.938 12.2472C24.1783 12.2472 22.4661 12.8179 21.0584 13.8738L19.1734 15.2875V22.7869C19.1734 24.2487 19.4898 25.6932 20.1006 27.0213C20.7115 28.3494 21.6024 29.5295 22.7123 30.4809L24.725 32.2037C25.7199 33.0583 26.9878 33.5285 28.2993 33.5293C29.6045 33.5291 30.8669 33.0642 31.8605 32.2179L33.855 30.5194C34.9717 29.5675 35.8684 28.3844 36.4831 27.052C37.0978 25.7196 37.4158 24.2695 37.4151 22.8021Z" fill="#FADFB2"/>
<path d="M37.4154 17.3142H39.4423C39.9798 17.3142 40.4954 17.5278 40.8755 17.9079C41.2556 18.288 41.4691 18.8035 41.4691 19.3411C41.4691 19.8786 41.2556 20.3942 40.8755 20.7743C40.4954 21.1544 39.9798 21.368 39.4423 21.368H37.4154" fill="#FADFB2"/>
<path d="M19.1735 17.3142H17.1466C16.609 17.3142 16.0935 17.5278 15.7134 17.9079C15.3333 18.288 15.1197 18.8035 15.1197 19.3411C15.1197 19.8786 15.3333 20.3942 15.7134 20.7743C16.0935 21.1544 16.609 21.368 17.1466 21.368H19.1735" fill="#FADFB2"/>
<path d="M37.4154 17.3142H39.4423L40.2678 13.1855C40.3924 12.5615 40.4552 11.9268 40.4552 11.2904C40.4552 9.27615 39.8259 7.31221 38.6554 5.67297C37.6447 4.25825 36.3109 3.10522 34.7648 2.30974C33.2188 1.51425 31.5053 1.09929 29.7666 1.09935H24.7916C23.096 1.09962 21.4236 1.49446 19.9069 2.25263L12.0792 6.16651L13.4696 6.86172C14.225 7.23954 14.829 7.86367 15.1818 8.63108C15.5347 9.39849 15.6153 10.2633 15.4103 11.0827C15.2215 11.8398 15.2758 12.6372 15.5654 13.3619L17.1466 17.3142H19.1735L19.1734 15.2875L21.0584 13.8738C22.4661 12.8179 24.1783 12.2472 25.938 12.2472C28.0955 12.2472 30.1646 11.3901 31.6903 9.86466L32.348 9.20694L34.4638 10.4766C35.3643 11.0172 36.1095 11.7818 36.6267 12.6959C37.1438 13.61 37.4156 14.6426 37.4151 15.6929L37.4154 17.3142Z" fill="#C18E59"/>
<path d="M22.2139 55.8248H34.3751V61.9054H22.2139V55.8248Z" fill="#96CC7F"/>
<path d="M37.4144 54.8101H41.4692V56.836H37.4144V54.8101Z" fill="#F2C351"/>
<path d="M15.1194 54.8101H19.1711V56.836H15.1194V54.8101Z" fill="#F7D881"/>
<path d="M27.4969 55.8248H22.2139V61.9054L22.5745 61.9052C24.4175 60.0507 26.067 58.0136 27.4969 55.8248Z" fill="#ACDB95"/>
<path d="M51.4877 43.5845C49.2865 41.0642 46.3824 39.2591 43.1482 38.4008L33.3615 35.7891V32.2705L34.5127 31.2895C35.7421 30.2434 36.7292 28.9423 37.4054 27.4765C38.0816 26.0106 38.4307 24.4153 38.4286 22.801V22.3814H39.442C40.1425 22.3806 40.8212 22.1379 41.3633 21.6943C41.9055 21.2508 42.2778 20.6337 42.4175 19.9473C42.5572 19.261 42.4555 18.5474 42.1298 17.9273C41.8041 17.3072 41.2742 16.8186 40.6298 16.5441L41.2612 13.3852C41.397 12.6956 41.4649 11.9943 41.4638 11.2915C41.4682 9.06555 40.773 6.89455 39.4765 5.0852C38.3713 3.54077 36.9142 2.28177 35.2257 1.41242C33.5372 0.543068 31.666 0.0883619 29.7668 0.0859375H24.7909C22.9381 0.0880813 21.111 0.519609 19.4531 1.34665L11.6254 5.25444C11.457 5.33859 11.3154 5.46798 11.2164 5.62809C11.1174 5.7882 11.065 5.97272 11.065 6.16095C11.065 6.34919 11.1174 6.5337 11.2164 6.69382C11.3154 6.85393 11.457 6.98331 11.6254 7.06747L13.0168 7.7637C13.5678 8.03571 14.0087 8.4888 14.2655 9.04708C14.5223 9.60535 14.5795 10.2349 14.4275 10.8303C14.1858 11.7952 14.2568 12.8119 14.6302 13.7338L15.7896 16.6333C15.1746 16.9363 14.6805 17.439 14.3881 18.0591C14.0957 18.6793 14.0223 19.3802 14.1798 20.0475C14.3374 20.7148 14.7165 21.3089 15.2554 21.7329C15.7942 22.1568 16.4609 22.3854 17.1465 22.3814H18.16V22.7868C18.1592 24.395 18.5067 25.9844 19.1787 27.4455C19.8506 28.9066 20.8311 30.2049 22.0526 31.251L23.2271 32.2573V35.7901L13.4384 38.4008C9.85141 39.3567 6.68065 41.4707 4.41895 44.4144C2.15726 47.358 0.931303 50.9663 0.931641 54.6785V61.9053C0.931641 62.1741 1.03841 62.4318 1.22847 62.6219C1.41852 62.8119 1.67629 62.9187 1.94507 62.9187H54.6435C54.9123 62.9187 55.1701 62.8119 55.3601 62.6219C55.5502 62.4318 55.657 62.1741 55.657 61.9053V54.6785C55.6571 50.5975 54.1756 46.6553 51.4877 43.5845ZM43.4958 60.8918H35.3883V55.8247C35.3883 55.5559 35.2815 55.2981 35.0915 55.1081C34.9014 54.918 34.6437 54.8113 34.3749 54.8113H22.2137C21.9449 54.8113 21.6872 54.918 21.4971 55.1081C21.307 55.2981 21.2003 55.5559 21.2003 55.8247V60.8918H13.0928V52.7844C13.0928 52.5156 13.1996 52.2578 13.3896 52.0678C13.5797 51.8777 13.8375 51.771 14.1063 51.771H42.4823C42.7511 51.771 43.0089 51.8777 43.1989 52.0678C43.389 52.2578 43.4958 52.5156 43.4958 52.7844V60.8918ZM23.2271 60.8918V56.8381H33.3615V60.8918H23.2271ZM23.7409 37.7532C24.9575 38.9443 26.5923 39.6113 28.2948 39.6113C29.9973 39.6113 31.6321 38.9443 32.8487 37.7532L36.4018 38.6977V49.7441H20.1868V38.6977L23.7409 37.7532ZM28.2943 34.5426C29.3555 34.537 30.3993 34.2719 31.3346 33.7704V36.4053C30.4938 37.1435 29.4132 37.5506 28.2943 37.5506C27.1754 37.5506 26.0948 37.1435 25.254 36.4053V33.7704C26.1892 34.2722 27.233 34.5373 28.2943 34.5426ZM18.16 49.7441H16.1331V39.78L18.16 39.2389V49.7441ZM38.4286 49.7441V39.2389L40.4555 39.779V49.7441H38.4286ZM39.442 20.3546H38.4286V18.3277H39.442C39.7108 18.3277 39.9686 18.4345 40.1587 18.6245C40.3487 18.8146 40.4555 19.0724 40.4555 19.3411C40.4555 19.6099 40.3487 19.8677 40.1587 20.0577C39.9686 20.2478 39.7108 20.3546 39.442 20.3546ZM14.3201 6.17768L20.3601 3.15765C21.7364 2.47148 23.253 2.11382 24.7909 2.1128H29.7658C31.3428 2.1145 32.8967 2.49169 34.2989 3.21317C35.7012 3.93466 36.9115 4.97968 37.8297 6.26179C38.5166 7.22468 38.999 8.31804 39.2472 9.47449C39.4954 10.6309 39.5041 11.826 39.2728 12.9859L38.61 16.3008H38.4286V15.6928C38.4249 14.4687 38.1059 13.2661 37.5024 12.2011C36.8989 11.1361 36.0312 10.2445 34.9829 9.6122L32.8679 8.33628C32.674 8.21998 32.4468 8.17187 32.2224 8.1996C31.998 8.22732 31.7893 8.32931 31.6295 8.48931L30.9728 9.14602C30.3139 9.80961 29.5299 10.3358 28.6662 10.6942C27.8025 11.0526 26.8762 11.2359 25.9411 11.2337C23.963 11.236 22.0383 11.8757 20.4524 13.0579L18.5654 14.4767C18.4395 14.5711 18.3373 14.6935 18.267 14.8342C18.1966 14.9749 18.16 15.1301 18.16 15.2874V16.3008H17.8326L16.5061 12.9859C16.294 12.4594 16.255 11.8791 16.3946 11.3289C16.6416 10.3613 16.5736 9.34011 16.2005 8.41374C15.8275 7.48737 15.1688 6.70408 14.3201 6.17768ZM17.1465 20.3546C16.8778 20.3546 16.62 20.2478 16.4299 20.0577C16.2399 19.8677 16.1331 19.6099 16.1331 19.3411C16.1331 19.0724 16.2399 18.8146 16.4299 18.6245C16.62 18.4345 16.8778 18.3277 17.1465 18.3277H18.16V20.3546H17.1465ZM20.1868 22.7868V15.7941L21.6665 14.6844C22.9 13.7632 24.3975 13.264 25.9371 13.2606C27.1385 13.2634 28.3285 13.0279 29.4384 12.5678C30.5482 12.1077 31.5558 11.4321 32.4027 10.58L32.5041 10.4787L33.9411 11.3411C34.691 11.7935 35.3114 12.4318 35.7424 13.1941C36.1735 13.9564 36.4006 14.817 36.4018 15.6928V22.8061C36.4028 24.1271 36.1165 25.4325 35.5626 26.6317C35.0087 27.831 34.2006 28.8954 33.1942 29.7511L31.2028 31.4456C30.3811 32.1164 29.3525 32.4821 28.2917 32.4805C27.2308 32.4788 26.2033 32.1099 25.3837 31.4364L23.371 29.7136C22.3717 28.8574 21.5695 27.7949 21.0199 26.5991C20.4702 25.4034 20.186 24.1028 20.1868 22.7868ZM2.9585 54.6785C2.95821 51.4129 4.03664 48.2387 6.02617 45.6492C8.0157 43.0596 10.8049 41.1998 13.9603 40.3587L14.1063 40.3192V49.7441C13.2999 49.7441 12.5266 50.0644 11.9564 50.6346C11.3863 51.2047 11.066 51.9781 11.066 52.7844V60.8918H2.9585V54.6785ZM53.6301 60.8918H45.5226V52.7844C45.5226 51.9781 45.2023 51.2047 44.6322 50.6346C44.062 50.0644 43.2887 49.7441 42.4823 49.7441V40.3192L42.6293 40.3577C45.7844 41.1995 48.5732 43.0596 50.5625 45.6493C52.5518 48.2389 53.6302 51.413 53.6301 54.6785V60.8918Z" fill="black"/>
<path d="M37.4144 54.8101H41.4671V56.836H37.4144V54.8101Z" fill="black"/>
<path d="M15.1194 54.8101H19.1711V56.836H15.1194V54.8101Z" fill="black"/>
</svg>
