<svg width="19" height="20" viewBox="0 0 19 20" fill="none" xmlns="http://www.w3.org/2000/svg">
<path d="M6.21531 4.82286V3.95479C6.21531 2.51653 7.45894 1.35059 8.99313 1.35059C10.5273 1.35059 11.7709 2.51653 11.7709 3.95479V4.82286M1.41325 13.1294C1.93217 15.6163 2.19163 16.8597 3.04896 17.6607C3.20742 17.8086 3.37884 17.9433 3.56134 18.0633C4.5488 18.712 5.87181 18.712 8.51781 18.712H10.1629C12.8089 18.712 14.1319 18.712 15.1194 18.0633C15.3019 17.9433 15.4733 17.8086 15.6318 17.6607C16.489 16.8597 16.7485 15.6163 17.2675 13.1294C18.0125 9.55895 18.385 7.7737 17.5274 6.50869C17.3722 6.27964 17.191 6.06776 16.9871 5.87691C15.8611 4.82286 13.9617 4.82286 10.1629 4.82286H8.51781C4.719 4.82286 2.8196 4.82286 1.69362 5.87691C1.48974 6.06776 1.30851 6.27964 1.15325 6.50869C0.295742 7.7737 0.668244 9.55895 1.41325 13.1294ZM13.1599 8.64236C13.1599 9.21767 12.6935 9.68405 12.1182 9.68405C11.5429 9.68405 11.0765 9.21767 11.0765 8.64236C11.0765 8.06706 11.5429 7.60068 12.1182 7.60068C12.6935 7.60068 13.1599 8.06706 13.1599 8.64236ZM7.60422 8.64236C7.60422 9.21767 7.13784 9.68405 6.56254 9.68405C5.98723 9.68405 5.52085 9.21767 5.52085 8.64236C5.52085 8.06706 5.98723 7.60068 6.56254 7.60068C7.13784 7.60068 7.60422 8.06706 7.60422 8.64236Z" stroke="#494343" stroke-width="0.826732" stroke-linecap="round"/>
</svg>
