<svg width="22" height="23" viewBox="0 0 22 23" fill="none" xmlns="http://www.w3.org/2000/svg">
<path d="M4.12903 14.4322C4.14166 14.1165 4.24266 14.0203 4.56403 14.0198C5.38639 14.0198 6.20875 14.0198 7.0443 14.0198V12.9475H0.686943V14.0198C1.44159 14.0198 2.16409 14.0192 2.88602 14.0198C3.16033 14.0198 3.26535 14.136 3.27855 14.3878C3.2906 14.6134 3.12705 14.6246 2.97956 14.6435C2.8315 14.6624 2.67943 14.6507 2.52907 14.6501C1.91331 14.6479 1.29812 14.6396 0.682352 14.644C0.318516 14.6462 0.00632959 14.2688 0.00690346 13.9498C0.0120683 11.1416 0.0189548 8.33391 1.69853e-05 5.52571C-0.00285238 5.07157 0.358114 4.67969 0.863122 4.68414C2.94571 4.70137 5.02886 4.69137 7.11202 4.69137C7.29681 4.69137 7.48102 4.69137 7.68934 4.69137C7.68934 4.36452 7.68704 4.05491 7.68991 3.7453C7.69336 3.36953 7.82879 3.23613 8.21214 3.23224C8.57023 3.2289 8.92776 3.2289 9.28585 3.23224C9.6055 3.23557 9.79717 3.42345 9.80062 3.73251C9.80348 4.04379 9.80119 4.35507 9.80119 4.69137C9.88784 4.69137 9.96417 4.69137 10.0399 4.69137C11.357 4.69303 12.674 4.69192 13.991 4.69804C14.5207 4.70026 14.799 5.01043 14.8237 5.49347C14.8461 5.92926 14.8341 6.36673 14.8237 6.80363C14.822 6.8909 14.7824 6.99318 14.7244 7.05988C14.5368 7.27611 14.3629 7.23442 14.2699 6.96483C14.2619 6.94148 14.2458 6.92092 14.2332 6.89924C14.2177 6.85866 14.2022 6.81753 14.1862 6.77695C14.1844 6.38173 14.1827 5.98652 14.1804 5.59186C14.1787 5.34005 14.1156 5.2878 13.8613 5.31949C13.812 5.3256 13.7615 5.31949 13.711 5.31949C12.4163 5.31949 11.1217 5.31949 9.81324 5.31949V10.3005H10.3188C10.3217 10.2366 10.3286 10.1638 10.3286 10.091C10.3292 8.96092 10.3303 7.83086 10.3286 6.7008C10.328 6.26778 10.4588 6.13271 10.9225 6.12215C11.2376 6.11492 11.5526 6.11881 11.8671 6.12104C12.2614 6.12437 12.4542 6.31058 12.4542 6.68968C12.4554 7.87533 12.4542 9.06097 12.4542 10.2466C12.4542 10.7802 12.317 10.9153 11.7776 10.9153C8.84971 10.9153 5.92238 10.9153 2.99448 10.9153C2.60081 10.9153 2.20713 10.9164 1.81345 10.9114C1.67745 10.9098 1.54431 10.8909 1.49209 10.7347C1.44216 10.5857 1.45536 10.4556 1.59194 10.3539C1.60801 10.3433 1.6235 10.3328 1.63957 10.3228C1.87371 10.3228 2.10785 10.3228 2.38388 10.3228C2.38388 9.77025 2.38388 9.22995 2.38388 8.68966C2.39307 8.67521 2.40225 8.6602 2.41086 8.64575L2.40913 8.64741C2.4384 8.60517 2.46767 8.56237 2.49694 8.52012C2.62835 8.47009 2.75748 8.38616 2.89176 8.37782C3.22633 8.35726 3.56319 8.3706 3.89948 8.37115C4.33103 8.37171 4.49918 8.5368 4.50033 8.96203C4.50147 9.39115 4.50033 9.82028 4.50033 10.2611H5.03403C5.03403 10.1738 5.03403 10.086 5.03403 9.99871C5.03403 9.07765 5.03288 8.15659 5.0346 7.23553C5.0346 6.92314 5.18553 6.78084 5.51206 6.77862C5.84089 6.77639 6.17087 6.79418 6.49855 6.77361C6.84402 6.75194 7.06037 6.88812 7.17802 7.19329C7.16769 7.23553 7.15793 7.27833 7.1476 7.32058C7.1476 8.29055 7.1476 9.26053 7.1476 10.2305C7.15908 10.2427 7.17056 10.2544 7.18146 10.2666H7.69393V5.36006C7.70368 5.35117 7.71401 5.34228 7.72377 5.33338C7.71287 5.33338 7.70139 5.33338 7.69049 5.33338L7.69737 5.31949C7.68073 5.29781 7.66351 5.27557 7.64687 5.2539C7.63482 5.27391 7.62219 5.29336 7.61014 5.31337C6.2713 5.3156 4.93303 5.31838 3.59418 5.31949C2.73509 5.3206 1.87601 5.32505 1.01692 5.3156C0.817212 5.31337 0.668579 5.32449 0.673743 5.56629C0.674891 5.61965 0.65251 5.67357 0.65251 5.72749C0.651362 7.87699 0.651362 10.0271 0.651936 12.1766C0.651936 12.2105 0.655953 12.2444 0.658823 12.29H7.03111C7.10054 11.9915 7.2641 11.7313 7.58145 11.6229C7.74673 11.5662 7.94127 11.5768 8.12261 11.5768C10.0554 11.574 11.9888 11.5751 13.9216 11.5751C13.9996 11.5751 14.0777 11.5751 14.1793 11.5751C14.1793 11.4884 14.1793 11.4145 14.1793 11.3406C14.1793 10.3628 14.1787 9.38504 14.1793 8.40728C14.1793 8.10156 14.243 8.02541 14.4874 8.02596C14.7158 8.02652 14.826 8.15381 14.826 8.42229C14.826 9.40005 14.826 10.3778 14.826 11.3556V11.5751C14.9207 11.5751 14.9976 11.5751 15.0739 11.5751C16.6062 11.5751 18.1378 11.5751 19.6701 11.5751C20.0069 11.5751 20.3031 11.678 20.462 11.9787C20.5412 12.1288 20.5756 12.3166 20.5762 12.4873C20.5831 14.8591 20.5808 17.2304 20.5808 19.6023C20.5808 19.6768 20.5808 19.7512 20.5808 19.8424C20.854 19.8424 21.1111 19.8585 21.3653 19.8385C21.6832 19.8135 21.8801 19.9469 22 20.2171V21.6317C21.7848 21.8791 21.4979 21.8941 21.1897 21.8935C16.2504 21.8891 11.3116 21.8913 6.3723 21.8869C6.20875 21.8869 6.02625 21.8696 5.88623 21.7979C5.74448 21.7257 5.62741 21.5939 5.63315 21.3994C5.64348 21.0253 5.63315 20.6506 5.63832 20.2765C5.64176 20.0225 5.8782 19.8013 6.13472 19.8007C6.43428 19.8007 6.73327 19.8007 7.04373 19.8007V18.5928C6.96683 18.5928 6.89051 18.5928 6.81418 18.5928C5.54707 18.5928 4.27996 18.599 3.01342 18.5828C2.86938 18.5812 2.72649 18.4561 2.58359 18.3877C2.57211 18.3733 2.56064 18.3588 2.54859 18.3444C2.35978 17.8913 2.38388 17.0359 2.87799 16.7179C3.04212 16.6123 3.25388 16.5323 3.44784 16.5234C4.03205 16.4961 4.61854 16.5095 5.20389 16.5067L5.2389 16.4711C5.2389 15.8891 5.2389 15.3066 5.2389 14.7246C5.22742 14.7129 5.21537 14.7013 5.20389 14.689C4.99902 14.6868 4.79185 14.699 4.58928 14.6768C4.46245 14.6629 4.34136 14.5968 4.21741 14.5545L4.12616 14.4311L4.12903 14.4322ZM15.2541 20.4383H12.3463C12.4353 20.7023 12.5116 20.9469 12.604 21.1854C12.6189 21.2232 12.705 21.256 12.7584 21.2565C13.4654 21.261 14.173 21.2615 14.88 21.2554C14.9328 21.2554 15.0142 21.2065 15.0326 21.1615C15.1193 20.9491 15.1887 20.7307 15.2645 20.5139C15.2765 20.4939 15.2886 20.4739 15.3 20.4539C15.2845 20.4489 15.2696 20.4433 15.2541 20.4383ZM5.72382 7.40896C5.71235 7.42063 5.70087 7.43286 5.68996 7.44454V10.2305C5.70144 10.2422 5.71235 10.2544 5.72382 10.2661H6.48478V7.40896H5.72382ZM7.01102 17.1471C5.85352 17.1448 4.69659 17.1404 3.53909 17.1437C3.34512 17.1437 3.17411 17.2115 3.14427 17.4339C3.12131 17.6051 3.10639 17.778 3.08745 17.9547H7.04717V17.181C7.03512 17.1698 7.02307 17.1587 7.01102 17.1476V17.1471ZM7.71459 19.7946C7.71344 19.8052 7.71229 19.8152 7.71057 19.8257C7.72147 19.818 7.7318 19.8107 7.74271 19.8029H19.9065C19.9203 19.7724 19.9306 19.7601 19.9306 19.7479C19.9318 17.321 19.9329 14.8936 19.9329 12.4667C19.9329 12.2927 19.8583 12.216 19.6603 12.216C15.7586 12.221 11.8568 12.221 7.95504 12.2155C7.76279 12.2155 7.71 12.2794 7.71 12.4512C7.71344 14.8992 7.71401 17.3466 7.71459 19.7946ZM9.13435 10.2694V3.87981H8.35503V10.2694H9.13435ZM21.3498 20.4344C19.5886 20.4344 17.8452 20.4333 16.1017 20.4388C16.0507 20.4388 15.9738 20.4972 15.9537 20.5456C15.8596 20.7768 15.7815 21.0142 15.6972 21.2515H21.3504V20.4344H21.3498ZM11.633 20.4477H6.29081V21.2454H11.9285C11.8247 20.9641 11.7277 20.7029 11.633 20.4477ZM11.0069 6.78362V10.3011H11.7776V6.78362H11.0069ZM5.90631 14.6601V16.5039H7.04029V14.6601H5.90631ZM3.82832 9.03763H3.06048V10.3061H3.82832V9.03763Z" fill="#5B6B79"/>
<path d="M2.69493 5.95039C2.93767 5.95039 3.18042 5.94761 3.42374 5.95094C3.65846 5.95428 3.7893 6.06712 3.79045 6.25778C3.79217 6.4829 3.69002 6.58518 3.43522 6.58629C2.90668 6.58851 2.37872 6.58018 1.85019 6.57906C1.71418 6.57906 1.5994 6.52459 1.58276 6.39952C1.56784 6.28891 1.58678 6.15161 1.64761 6.06212C1.69294 5.99486 1.82723 5.96039 1.92421 5.95484C2.18074 5.94038 2.4384 5.94983 2.6955 5.94983L2.69493 5.95039Z" fill="#5B6B79"/>
<path d="M2.67197 7.53792C2.40053 7.53792 2.12908 7.54737 1.85822 7.53514C1.63957 7.52514 1.55119 7.42175 1.55636 7.22608C1.56095 7.04654 1.67573 6.92259 1.87199 6.91314C2.08547 6.90257 2.30067 6.90869 2.51473 6.90813C2.82921 6.90813 3.14369 6.90035 3.4576 6.91036C3.75027 6.91981 3.90465 7.19773 3.73191 7.41619C3.67452 7.48845 3.54368 7.53403 3.44268 7.5407C3.18673 7.55793 2.92906 7.54626 2.67139 7.54626C2.67139 7.54348 2.67139 7.5407 2.67139 7.53792H2.67197Z" fill="#5B6B79"/>
<path d="M14.1867 6.77751C14.2022 6.81808 14.2177 6.85922 14.2338 6.89979C14.2183 6.85922 14.2028 6.81808 14.1867 6.77751Z" fill="#D5D3D3"/>
<path d="M2.49923 8.52068L2.41143 8.64797C2.4407 8.60572 2.46996 8.56292 2.49923 8.52068Z" fill="#5B6B79"/>
<path d="M7.61244 5.31393C7.62449 5.29392 7.63711 5.27446 7.64916 5.25445C7.66581 5.27613 7.68302 5.29836 7.69967 5.32004C7.6704 5.31782 7.6417 5.31615 7.61244 5.31393Z" fill="#212020"/>
<path d="M5.20677 14.6902C5.21824 14.7018 5.2303 14.7135 5.24177 14.7257C5.2303 14.7141 5.21824 14.7024 5.20677 14.6902Z" fill="#DFDEDE"/>
<path d="M1.64129 10.3233C1.62522 10.3339 1.60973 10.3445 1.59366 10.3545C1.60973 10.3439 1.62522 10.3333 1.64129 10.3233Z" fill="#5B6B79"/>
<path d="M7.18433 10.2661C7.17285 10.2538 7.16138 10.2422 7.15047 10.2299C7.16195 10.2422 7.17343 10.2538 7.18433 10.2661Z" fill="#D5D3D3"/>
<path d="M2.55146 18.3455C2.56293 18.3599 2.57441 18.3744 2.58646 18.3888C2.57499 18.3744 2.56351 18.3599 2.55146 18.3455Z" fill="#5B6B79"/>
<path d="M2.41315 8.6463C2.40397 8.66076 2.39479 8.67576 2.38618 8.69022C2.39536 8.67576 2.40455 8.66076 2.41315 8.6463Z" fill="#5B6B79"/>
<path d="M7.69278 5.33394C7.70368 5.33394 7.71516 5.33394 7.72607 5.33394C7.71631 5.34283 7.70598 5.35173 7.69622 5.36062L7.68532 5.34895L7.69278 5.3345V5.33394Z" fill="#B7B4B4"/>
<path d="M7.04775 17.1804V17.9542H3.08745C3.10639 17.7774 3.12131 17.6051 3.14427 17.4333C3.17411 17.211 3.34512 17.1437 3.53909 17.1432C4.69659 17.1398 5.85352 17.1443 7.01102 17.1465C7.02307 17.1576 7.03512 17.1687 7.04717 17.1798L7.04775 17.1804Z" fill="white"/>
<path d="M15.2639 20.5139C15.2604 20.4889 15.2576 20.4633 15.2541 20.4383C15.2696 20.4433 15.2845 20.4489 15.3 20.4539L15.2645 20.5139H15.2639Z" fill="#B5B3B3"/>
<path d="M7.71459 19.7946L7.7318 19.789L7.74271 19.8029C7.7318 19.8107 7.72147 19.818 7.71057 19.8257C7.71172 19.8152 7.71287 19.8052 7.71459 19.7946Z" fill="#A5A2A2"/>
<path d="M5.72382 7.40896C5.71235 7.42063 5.70087 7.43286 5.68996 7.44454C5.70144 7.43286 5.71292 7.42063 5.72382 7.40896Z" fill="#D5D3D3"/>
<path d="M8.42906 12.778C8.55301 12.7585 8.67697 12.7219 8.80035 12.7213C12.1397 12.718 15.4791 12.7185 18.8184 12.7191C19.2454 12.7191 19.4181 12.8897 19.4187 13.3083C19.4187 14.2155 19.4204 15.1232 19.4158 16.0303C19.4158 16.1226 19.4004 16.2293 19.3516 16.3049C19.1943 16.5489 18.951 16.5278 18.7473 16.2643C18.749 16.2093 18.7507 16.1543 18.7525 16.0998V13.3628H8.89676V18.669H18.757C18.757 18.3082 18.757 17.9508 18.757 17.594C18.7657 17.5373 18.7737 17.4806 18.7823 17.4239C18.7811 17.415 18.7806 17.4061 18.7806 17.3972C18.9338 17.3716 19.1037 17.2938 19.2368 17.3327C19.4038 17.3816 19.4239 17.5684 19.4199 17.7379C19.4124 18.0776 19.4227 18.4172 19.4164 18.7568C19.409 19.1231 19.2161 19.3021 18.8426 19.3021C15.7798 19.3021 12.717 19.3021 9.65427 19.3021C9.35357 19.3021 9.05343 19.3021 8.75272 19.3021C8.40036 19.3016 8.22304 19.1304 8.22304 18.7941C8.22304 16.9503 8.22418 15.1065 8.22074 13.2627C8.22074 13.1098 8.22591 12.9687 8.34355 12.8536C8.37167 12.8286 8.40036 12.8036 8.42848 12.7786L8.42906 12.778Z" fill="#5B6B79"/>
<path d="M16.6234 15.2232C16.6704 15.5195 16.9528 15.6379 17.1261 15.838C17.1393 15.853 17.2018 15.8308 17.2409 15.8213C17.6988 15.714 18.1464 15.8964 18.3295 16.3105C18.5826 16.8841 18.2147 17.5211 17.5439 17.5556C16.8191 17.5928 16.4243 16.9447 16.644 16.3472C16.6641 16.3344 16.6836 16.3222 16.7037 16.3094C16.6796 16.2944 16.6555 16.2799 16.6314 16.2649C16.5121 16.1404 16.3892 16.0192 16.275 15.8908C16.1563 15.7568 16.0415 15.7029 15.8372 15.743C15.6409 15.7813 15.4217 15.7124 15.1594 15.6851C14.5184 16.1593 13.8177 16.6762 13.1205 17.196C13.0424 17.2538 12.985 17.3055 13.016 17.4439C13.1073 17.8463 12.6941 18.4105 12.2809 18.465C11.7891 18.5295 11.3461 18.2371 11.229 17.7663C11.1968 17.6368 11.2319 17.4928 11.2215 17.3572C11.2158 17.2816 11.2014 17.1887 11.1532 17.1376C10.9742 16.9475 10.7814 16.7685 10.588 16.5912C10.5466 16.5534 10.4577 16.5028 10.4313 16.5195C10.2293 16.6457 10.0365 16.5934 9.84078 16.5156C9.83562 16.5039 9.83103 16.4922 9.82586 16.4806C9.81898 16.4917 9.81266 16.5028 9.80578 16.5145C9.24568 16.3238 8.96677 15.604 9.44079 15.0948C9.69617 14.8202 10.0864 14.8047 10.4456 14.8925C10.4755 14.9064 10.5048 14.9203 10.5346 14.9342C10.553 14.9442 10.5707 14.9536 10.5891 14.9636L10.6081 14.9647C10.9329 15.1404 11.0867 15.5201 11.0063 15.908C10.9925 15.9759 11.0166 16.0754 11.0631 16.1254C11.2296 16.3049 11.4069 16.4761 11.5934 16.6362C11.6531 16.6874 11.765 16.7346 11.8321 16.7157C12.0686 16.6484 12.2866 16.6829 12.5081 16.7618C12.5454 16.7752 12.5931 16.7624 12.6355 16.7618C12.6654 16.7096 12.6958 16.6579 12.7256 16.6056C12.9087 16.5017 13.1044 16.4128 13.2731 16.2905C13.7534 15.9419 14.2212 15.5767 14.6998 15.226C14.787 15.1621 14.8168 15.1265 14.795 15.0064C14.7124 14.5523 15.1124 13.9698 15.6421 14.0131C15.7304 14.0203 15.8234 13.9775 15.972 13.9459C16.1408 14.1121 16.3451 14.3133 16.5488 14.5145C16.566 14.5579 16.5832 14.6018 16.6004 14.6457C16.6085 14.8108 16.6159 14.9759 16.624 15.141C16.6062 15.1487 16.589 15.1571 16.5712 15.1649C16.5884 15.1843 16.6062 15.2038 16.6234 15.2232ZM9.82471 15.5351C9.9217 15.9809 9.98138 16.0164 10.3561 15.8547C10.3779 15.3783 10.3487 15.3605 9.82471 15.5351ZM12.0921 17.3005C11.9572 17.326 11.8643 17.3972 11.8625 17.5545C11.8608 17.7062 11.9262 17.7991 12.0909 17.8069C12.2493 17.8146 12.3911 17.6974 12.3802 17.5556C12.3681 17.3977 12.2642 17.3194 12.0921 17.2999V17.3005ZM17.7505 16.6212C17.735 16.5234 17.6592 16.4305 17.4853 16.43C17.3097 16.4289 17.2472 16.5434 17.2403 16.6779C17.2328 16.8252 17.3315 16.9286 17.4848 16.9247C17.6311 16.9208 17.7585 16.858 17.7505 16.6212ZM15.9468 14.8786C15.968 14.6902 15.8492 14.6496 15.6891 14.6401C15.5227 14.6307 15.4263 14.7552 15.4464 14.8569C15.4676 14.9631 15.5927 15.1054 15.696 15.1265C15.8268 15.1532 15.9663 15.0609 15.9468 14.8786Z" fill="#5B6B79"/>
<path d="M11.2215 13.9653C11.2232 13.7797 11.3237 13.6852 11.5205 13.6846C11.7133 13.6841 11.8648 13.8186 11.866 13.992C11.8671 14.1654 11.7162 14.3055 11.5268 14.3072C11.3139 14.3088 11.2198 14.2032 11.2215 13.9648V13.9653Z" fill="#5B6B79"/>
<path d="M9.33119 13.9614C9.33349 13.7769 9.43564 13.6835 9.63362 13.6846C9.8253 13.6852 9.97622 13.823 9.97508 13.9959C9.97393 14.1693 9.82185 14.3072 9.6319 14.3072C9.42072 14.3072 9.32775 14.2004 9.33062 13.9614H9.33119Z" fill="#5B6B79"/>
<path d="M10.2764 13.9609C10.2787 13.7769 10.3814 13.6835 10.5799 13.6846C10.771 13.6857 10.9225 13.8241 10.9208 13.9964C10.9197 14.1699 10.767 14.3077 10.5771 14.3072C10.3659 14.3072 10.2735 14.1999 10.2764 13.9603V13.9609Z" fill="#5B6B79"/>
<path d="M18.7834 17.4239C18.7748 17.4806 18.7668 17.5373 18.7582 17.594C18.7548 17.5389 18.7519 17.4845 18.7484 17.4294C18.7593 17.425 18.7714 17.4233 18.7834 17.4239Z" fill="#827F7F"/>
<path d="M18.7536 16.0993C18.7519 16.1543 18.7502 16.2093 18.7484 16.2638C18.7502 16.2088 18.7519 16.1537 18.7536 16.0993Z" fill="#827F7F"/>
<path d="M16.6004 14.6457C16.5832 14.6023 16.566 14.5584 16.5488 14.5145C16.5855 14.554 16.6222 14.594 16.6584 14.6335C16.6389 14.6373 16.6194 14.6412 16.5999 14.6451L16.6004 14.6457Z" fill="#5B6B79"/>
<path d="M16.6308 16.2655C16.655 16.2805 16.6791 16.2949 16.7032 16.3099C16.6831 16.3227 16.6636 16.3349 16.6435 16.3477C16.6395 16.3205 16.6349 16.2927 16.6308 16.2655Z" fill="#5B6B79"/>
<path d="M16.6234 15.2232C16.6062 15.2038 16.5884 15.1843 16.5712 15.1649C16.589 15.1571 16.6062 15.1487 16.624 15.141C16.624 15.1682 16.624 15.196 16.624 15.2232H16.6234Z" fill="#5B6B79"/>
<path d="M9.80578 16.515C9.81266 16.5039 9.81898 16.4923 9.82586 16.4811C9.83103 16.4928 9.83562 16.5045 9.84078 16.5162C9.82931 16.515 9.81725 16.5145 9.80578 16.515Z" fill="#FAFAFA"/>
<path d="M10.6075 14.9647L10.5885 14.9636C10.592 14.9514 10.5949 14.9392 10.5983 14.927C10.6012 14.9397 10.604 14.952 10.6069 14.9647H10.6075Z" fill="#FAFAFA"/>
<path d="M18.7834 17.4239C18.7714 17.4239 18.7599 17.425 18.7484 17.4294C18.7593 17.4189 18.7702 17.4083 18.7817 17.3972C18.7817 17.4061 18.7817 17.415 18.7834 17.4239Z" fill="#5B6B79"/>
</svg>
