<svg width="20" height="20" viewBox="0 0 20 20" fill="none" xmlns="http://www.w3.org/2000/svg">
<path d="M19.2965 4.14097H0.703504C0.703504 4.23023 0.703504 4.31949 0.703504 4.40874C0.703504 6.05498 0.703504 7.70083 0.703504 9.34707C0.703504 9.69369 0.582983 9.86339 0.341942 9.85859C0.10971 9.85379 0 9.69168 0 9.35187C0 6.63295 0 3.91403 0 1.19511C0 0.451841 0.448849 0.000355781 1.19359 0.000355781C6.43964 0.000355781 11.6861 0.000355781 16.9321 0.000355781C17.5588 0.000355781 18.1854 -0.000444726 18.812 0.000355781C19.5455 0.00115629 20 0.452242 20 1.1807C20 7.05842 20 12.9361 20 18.8139C20 19.5407 19.5435 19.9994 18.8144 19.9994C12.9349 20.0002 7.05545 20.0002 1.17598 19.9994C0.46006 19.9994 0.000800581 19.5367 0.00040018 18.8235C-2.19938e-07 16.6841 -0.000400498 14.5452 0.0024023 12.4058C0.0024023 12.3093 0.00400396 12.1797 0.0612612 12.1244C0.146947 12.042 0.28989 11.9599 0.395195 11.9743C0.499699 11.9887 0.606206 12.1096 0.677077 12.2085C0.71992 12.2685 0.702702 12.3758 0.702702 12.4618C0.703903 14.5544 0.703503 16.6469 0.703903 18.7394C0.703903 19.1781 0.820821 19.2938 1.26126 19.2938C7.08749 19.2938 12.9133 19.2938 18.7395 19.2938C19.1796 19.2938 19.2965 19.1781 19.2965 18.739C19.2965 13.954 19.2965 9.16935 19.2965 4.38433V4.14017V4.14097ZM0.715916 3.41091H19.2845C19.2889 3.34207 19.2961 3.28403 19.2961 3.22559C19.2969 2.54597 19.2981 1.86594 19.2961 1.18631C19.2949 0.840487 19.154 0.700399 18.81 0.700399C12.9369 0.699998 7.06386 0.699998 1.19079 0.700399C0.846446 0.700399 0.705506 0.841288 0.704705 1.18631C0.703103 1.86594 0.703904 2.54597 0.704705 3.22559C0.704705 3.28363 0.711912 3.34207 0.716317 3.41091H0.715916Z" fill="#5B6B79"/>
<path d="M13.636 10.9781C13.2364 10.9781 12.8364 10.9749 12.4368 10.9789C12.1269 10.9821 11.9031 10.8488 11.7498 10.5818C11.3522 9.88901 10.9526 9.19777 10.551 8.50694C10.396 8.24037 10.3972 7.9794 10.5518 7.71283C10.9562 7.01639 11.3574 6.31795 11.7602 5.62071C11.9059 5.36815 12.1241 5.24407 12.4176 5.24487C13.2304 5.24727 14.0432 5.24727 14.8561 5.24487C15.1504 5.24407 15.367 5.37015 15.5127 5.62231C15.9191 6.32515 16.3251 7.0284 16.7311 7.73164C16.8773 7.9846 16.8757 8.23757 16.7299 8.49012C16.3239 9.19337 15.9183 9.89661 15.5119 10.5995C15.3662 10.8516 15.1475 10.9785 14.8549 10.9777C14.4484 10.9769 14.042 10.9777 13.6356 10.9777L13.636 10.9781ZM13.634 10.2789C13.9936 10.2789 14.3536 10.2749 14.7131 10.2813C14.8324 10.2833 14.9053 10.2504 14.9674 10.1408C15.3281 9.50397 15.7005 8.87357 16.0589 8.23516C16.0949 8.17112 16.0969 8.05185 16.0609 7.98861C15.6993 7.3446 15.3297 6.705 14.9522 6.07019C14.9149 6.00735 14.8116 5.94852 14.7379 5.94772C14.0052 5.93891 13.2725 5.94532 12.5401 5.93931C12.4228 5.93851 12.3628 5.98094 12.3067 6.079C11.9443 6.715 11.5732 7.3462 11.2148 7.9842C11.1788 8.04865 11.1764 8.16752 11.212 8.23116C11.5736 8.87517 11.9431 9.51477 12.3203 10.1496C12.358 10.2128 12.4605 10.2713 12.5349 10.2737C12.9009 10.2865 13.2673 10.2793 13.6336 10.2789H13.634Z" fill="#5B6B79"/>
<path d="M14.9209 17.6019C14.8028 17.5627 14.6783 17.5366 14.5674 17.4822C14.2987 17.3505 14.0404 17.1972 13.769 17.0715C13.6941 17.0367 13.5756 17.0383 13.4999 17.0736C13.2348 17.1968 12.9794 17.3413 12.7207 17.4782C12.4509 17.6211 12.1826 17.6295 11.9299 17.4474C11.6689 17.2593 11.5996 16.9955 11.6565 16.6869C11.7093 16.3991 11.7638 16.1109 11.7998 15.8208C11.809 15.7447 11.7734 15.6398 11.7205 15.5838C11.5151 15.3657 11.2953 15.1615 11.0799 14.953C10.8653 14.7449 10.7812 14.4979 10.8725 14.2085C10.9634 13.9204 11.1684 13.7595 11.4663 13.7154C11.7626 13.6714 12.0581 13.6178 12.3556 13.5877C12.4897 13.5741 12.5506 13.5133 12.603 13.4004C12.7287 13.1287 12.8657 12.8625 12.9998 12.5947C13.1315 12.3318 13.3489 12.1913 13.6396 12.1929C13.9299 12.1945 14.1461 12.3366 14.2767 12.5999C14.4156 12.8801 14.5481 13.1639 14.6967 13.4385C14.7303 13.5009 14.8148 13.5613 14.8849 13.5745C15.2052 13.6342 15.5295 13.6734 15.8511 13.7266C16.1249 13.7719 16.3087 13.934 16.3972 14.1949C16.4893 14.4663 16.4268 14.7105 16.2294 14.913C16.0064 15.1419 15.7682 15.3561 15.5487 15.5886C15.4967 15.6438 15.4635 15.7495 15.4731 15.8252C15.5131 16.135 15.5756 16.442 15.6256 16.7509C15.6977 17.1968 15.3734 17.5807 14.9205 17.6019H14.9209ZM11.572 14.4135C11.7962 14.6444 11.9968 14.8754 12.2234 15.0775C12.4973 15.322 12.5766 15.6058 12.5005 15.9572C12.4376 16.2478 12.3988 16.5436 12.3423 16.8782C12.6655 16.7089 12.955 16.564 13.238 16.4075C13.5067 16.259 13.7654 16.2586 14.034 16.4075C14.3175 16.5648 14.6086 16.7093 14.9293 16.8766C14.8805 16.5812 14.8589 16.3155 14.79 16.0621C14.6687 15.6158 14.7892 15.2744 15.1447 14.9838C15.3449 14.8205 15.5095 14.6132 15.7029 14.4119C15.3686 14.3618 15.0539 14.3058 14.7371 14.2702C14.4128 14.2338 14.2034 14.0672 14.0709 13.7739C13.9407 13.4869 13.7918 13.2083 13.6356 12.8953C13.4699 13.2299 13.3205 13.5253 13.1772 13.8235C13.0551 14.0773 12.8629 14.2253 12.5798 14.2622C12.2454 14.3058 11.9127 14.3614 11.5724 14.4127L11.572 14.4135Z" fill="#5B6B79"/>
<path d="M3.14915 8.11428C3.14995 6.51727 4.42082 5.24487 6.01522 5.24487C7.60521 5.24487 8.88689 6.52848 8.88248 8.11629C8.87808 9.70489 7.59119 10.9837 6.0028 10.9777C4.42042 10.9717 3.14835 9.69568 3.14915 8.11428ZM8.17738 8.11308C8.17738 6.91833 7.21281 5.94651 6.02242 5.94171C4.82763 5.93691 3.84545 6.91793 3.84545 8.11629C3.84545 9.29983 4.82763 10.2781 6.01522 10.2768C7.20761 10.2756 8.17738 9.30504 8.17738 8.11308Z" fill="#5B6B79"/>
<path d="M5.9972 17.5478C5.27728 17.5478 4.55776 17.549 3.83784 17.5478C3.17678 17.5466 2.85966 16.9975 3.18959 16.4243C3.91351 15.1663 4.63864 13.9091 5.36537 12.6528C5.69009 12.0912 6.33433 12.0884 6.65746 12.6463C7.38779 13.9083 8.11692 15.1707 8.84444 16.4343C9.16677 16.9947 8.84565 17.5454 8.1962 17.5474C7.46306 17.5498 6.72993 17.5478 5.9972 17.5482V17.5478ZM6.01401 12.9389C5.25365 14.2566 4.51331 15.539 3.76617 16.8334H8.26266C7.51031 15.5302 6.77197 14.2514 6.01401 12.9389Z" fill="#5B6B79"/>
<path d="M13.775 2.02083C13.7582 2.58439 13.2917 3.02827 12.7347 3.01026C12.1638 2.99185 11.7289 2.52155 11.7505 1.94558C11.7714 1.38723 12.2426 0.95696 12.8096 0.978573C13.3586 0.999386 13.7914 1.46688 13.775 2.02083ZM13.0747 2.00122C13.0791 1.83672 12.9461 1.69423 12.7796 1.68502C12.6054 1.67541 12.4525 1.8143 12.4488 1.98561C12.4452 2.14971 12.579 2.293 12.7443 2.30221C12.9185 2.31182 13.0699 2.17413 13.0747 2.00122Z" fill="#5B6B79"/>
<path d="M13.9876 1.99522C13.9864 1.43006 14.4344 0.978975 14.9982 0.978175C15.5624 0.976974 16.0108 1.42526 16.0124 1.99121C16.0136 2.55517 15.5624 3.01066 15.0022 3.01066C14.4396 3.01066 13.9892 2.55957 13.988 1.99522H13.9876ZM15.3137 1.98601C15.3097 1.8139 15.1588 1.67622 14.983 1.68462C14.8172 1.69263 14.6823 1.83632 14.6867 2.00002C14.6915 2.17253 14.8432 2.31102 15.017 2.30221C15.1816 2.29381 15.3173 2.14891 15.3133 1.98601H15.3137Z" fill="#5B6B79"/>
<path d="M18.2507 2.00282C18.2462 2.56558 17.7874 3.01786 17.2284 3.01066C16.6655 3.00345 16.221 2.54837 16.225 1.98361C16.2294 1.41965 16.6823 0.974172 17.2476 0.978175C17.8094 0.982177 18.2555 1.43766 18.2507 2.00282ZM17.552 1.99602C17.554 1.83351 17.4166 1.69223 17.25 1.68502C17.0759 1.67742 16.9273 1.8179 16.9253 1.99161C16.9233 2.15612 17.0591 2.29701 17.2256 2.30261C17.3994 2.30862 17.5499 2.16733 17.552 1.99602Z" fill="#5B6B79"/>
</svg>
