<svg width="25" height="25" viewBox="0 0 25 25" fill="none" xmlns="http://www.w3.org/2000/svg">
<path d="M0.00244112 11.7513C0.00244112 9.50985 0.00244112 7.26842 0.00244112 5.02698C3.18029 3.43635 6.35765 1.84425 9.5399 0.262891C9.64535 0.210651 9.82551 0.222857 9.93536 0.277538C11.7638 1.18222 13.5848 2.10105 15.4103 3.0111C16.7368 3.67216 18.0682 4.32394 19.3942 4.98548C19.4425 5.00941 19.4879 5.09387 19.4889 5.1505C19.4943 5.56403 19.4879 5.97755 19.485 6.39157C19.4552 6.44088 19.4045 6.48775 19.3996 6.5395C19.3752 6.78019 19.3503 7.02186 19.3498 7.26354C19.3454 8.65937 19.3454 10.0552 19.3537 11.4505C19.3537 11.5179 19.4484 11.5853 19.4987 11.6527C20.2227 11.7293 20.8799 12.0027 21.516 12.3386C22.3206 12.7639 22.9729 13.3678 23.5402 14.0704C24.1495 14.8247 24.5347 15.6883 24.7652 16.6252C24.7808 16.6902 24.7969 16.7551 24.8125 16.82C24.8242 16.9494 24.836 17.0788 24.8472 17.2077C24.7188 17.3293 24.8462 17.383 24.9121 17.4533C24.9082 17.9078 24.9038 18.3623 24.8999 18.8174C24.8672 18.8501 24.835 18.8833 24.8023 18.916C24.9429 19.2216 24.8052 19.517 24.7178 19.7875C24.5357 20.3518 24.2887 20.8957 24.068 21.4479C24.0524 21.4787 24.0367 21.5094 24.0206 21.5402C23.9235 21.6871 23.8268 21.8341 23.7296 21.9811C23.6803 22.047 23.6305 22.1129 23.5812 22.1793C23.4846 22.2916 23.3874 22.4039 23.2907 22.5161C23.1926 22.6148 23.0949 22.7134 22.9968 22.812L22.9983 22.8105L22.8035 23.0034C22.6575 23.1337 22.5115 23.2641 22.3651 23.3945C22.3162 23.4267 22.2674 23.4589 22.2181 23.4911C22.0555 23.6039 21.8925 23.7167 21.7299 23.8295C21.6977 23.8466 21.6654 23.8641 21.6332 23.8812C21.2353 24.058 20.8442 24.2528 20.4375 24.4065C20.1324 24.5218 19.8072 24.5852 19.4914 24.6717C19.4425 24.6726 19.3937 24.6736 19.3454 24.6746C19.2209 24.6883 19.0949 24.6951 18.9719 24.7175C18.3958 24.8215 17.8251 24.7673 17.2553 24.6697C16.9775 24.6219 16.7012 24.5667 16.4239 24.5149C16.3907 24.5027 16.3575 24.49 16.3243 24.4778C16.2598 24.4578 16.1959 24.4378 16.1314 24.4173C16.0982 24.4056 16.065 24.3939 16.0318 24.3821C15.7076 24.2313 15.3835 24.0804 15.0593 23.93L14.9616 23.8812C14.947 23.8656 14.9328 23.8505 14.9182 23.8348C14.8513 23.8016 14.7849 23.7679 14.718 23.7347C14.1536 23.2455 13.5892 22.7563 13.0204 22.2632C11.9952 22.9482 10.9348 23.662 9.86554 24.3621C9.79377 24.409 9.63168 24.3953 9.55406 24.345C8.53074 23.6767 7.51279 23 6.49826 22.3179C5.90263 21.9176 5.31627 21.5031 4.72601 21.0954C4.71332 21.0842 4.70111 21.0725 4.68842 21.0612C4.48971 20.8962 4.29149 20.7312 4.09278 20.5657C4.07374 20.5515 4.0547 20.5374 4.03517 20.5237C3.58308 20.0487 3.13147 19.5741 2.67937 19.0991C2.66863 19.0873 2.65789 19.0756 2.64715 19.0639C2.33957 18.6226 1.99732 18.2007 1.73222 17.735C1.38412 17.1232 1.09606 16.4773 0.782135 15.846C0.76163 15.785 0.741124 15.7245 0.720619 15.6634C0.644944 15.4315 0.569269 15.1996 0.493106 14.9677L0.432078 14.8706C0.428172 14.8247 0.429149 14.7783 0.419873 14.7339C0.331504 14.3096 0.241183 13.8853 0.151838 13.4615C0.147444 13.3385 0.150861 13.215 0.136703 13.0929C0.114733 12.9055 0.0810452 12.719 0.05224 12.5324C0.0346639 12.5168 0.0175761 12.5007 0 12.4851C0 12.3064 0 12.1277 0 11.949V11.7542L0.00244112 11.7513ZM1.94997 14.4272C1.92458 14.3296 1.89187 14.2329 1.87527 14.1338C1.76884 13.4874 1.58868 12.8425 1.57599 12.1941C1.53644 10.2148 1.56183 8.23413 1.56183 6.25438V5.9756C3.48934 5.01136 5.40073 4.05297 7.31457 3.0985C8.09036 2.71133 8.87005 2.33247 9.64779 1.94971C10.1912 2.22262 10.7341 2.49603 11.2794 2.76553C11.296 2.77383 11.3312 2.74307 11.358 2.73086C11.3908 2.74697 11.423 2.76357 11.4557 2.77969C11.5162 2.83632 11.568 2.91151 11.6393 2.94715C13.1952 3.72977 14.7532 4.50849 16.313 5.28428C16.3731 5.31406 16.4531 5.30478 16.5235 5.31357C16.6211 5.36239 16.7183 5.41121 16.8159 5.46004C16.8403 5.49812 16.8559 5.55329 16.8906 5.57135C17.1542 5.71001 17.4213 5.8428 17.6893 5.97169C17.7133 5.98341 17.7562 5.95607 17.7904 5.94728C17.8231 5.96339 17.8553 5.97999 17.888 5.99611C17.9007 6.01417 17.9139 6.03175 17.9266 6.04981V11.4999H18.7063V5.5401C15.7999 4.07934 12.8999 2.62345 10.0032 1.16122C9.81818 1.06797 9.66928 1.06944 9.48424 1.1622C6.65645 2.58196 3.82572 3.99683 0.992559 5.40584C0.831446 5.48591 0.777741 5.57184 0.778229 5.75151C0.785553 7.8787 0.787505 10.0059 0.778229 12.1326C0.776764 12.4993 0.811916 12.8503 0.912002 13.2042C0.98963 13.4772 0.982795 13.7745 1.06042 14.0474C1.21031 14.5742 1.36312 15.1044 1.57159 15.6092C1.79374 16.1463 2.08179 16.656 2.34103 17.1774C2.37033 17.2204 2.39962 17.2633 2.42891 17.3063C2.43428 17.3458 2.42745 17.3932 2.44698 17.424C3.02113 18.3189 3.69488 19.1318 4.4775 19.8519C4.51412 19.8856 4.57905 19.8885 4.63081 19.9056C4.66449 19.9647 4.69769 20.0238 4.73138 20.0828C4.86173 20.1898 4.98477 20.3069 5.12391 20.4002C5.25964 20.4905 5.41245 20.5559 5.55745 20.6321C5.56966 20.6443 5.58138 20.656 5.59358 20.6682C5.64338 20.7248 5.6839 20.7937 5.74396 20.8352C6.20875 21.1574 6.675 21.4777 7.14467 21.7926C7.94585 22.3296 8.75337 22.8584 9.55064 23.4018C9.69418 23.4999 9.78547 23.4911 9.92413 23.3974C10.8327 22.7827 11.7481 22.1778 12.6382 21.5851C12.5474 21.4001 12.4595 21.2175 12.3687 21.0368C12.3194 20.9387 12.291 20.8708 12.1455 20.9709C11.401 21.4816 10.6404 21.9688 9.89288 22.4751C9.7635 22.563 9.69222 22.5523 9.56626 22.4673C8.39599 21.6793 7.21888 20.9021 6.04373 20.1219C6.02517 20.1092 6.00613 20.0965 5.98758 20.0838C5.89238 20.0145 5.79766 19.9452 5.70246 19.8758C5.68976 19.8641 5.67658 19.8529 5.66389 19.8412C5.1576 19.3691 4.65131 18.8969 4.14502 18.4248C4.10157 18.3931 4.05812 18.3614 4.01467 18.3296C4.00881 18.314 4.00344 18.2989 3.99758 18.2832C3.9844 18.2666 3.9717 18.25 3.95852 18.2334C3.58161 17.6661 3.20421 17.0988 2.82731 16.531C2.81461 16.5134 2.80143 16.4963 2.78874 16.4788C2.68816 16.2683 2.5871 16.0579 2.48653 15.8475C2.45772 15.7977 2.42891 15.7484 2.40011 15.6986C2.25071 15.306 2.10083 14.913 1.95143 14.5205C1.95094 14.4897 1.95046 14.4585 1.94948 14.4277L1.94997 14.4272ZM10.0896 16.5666H9.40661C9.39343 16.5535 9.38025 16.5403 9.36658 16.5271V15.0004C8.58933 14.8208 8.02787 14.2603 7.84967 13.4884C7.80866 13.3102 7.7198 13.2877 7.55917 13.3287C6.8034 13.5226 6.04226 13.6974 5.28942 13.9034C5.05263 13.9683 4.7802 13.9341 4.60639 14.2198C4.41989 14.5268 4.26854 14.811 4.28319 15.1874C4.30809 15.8275 4.28319 16.4695 4.29588 17.1105C4.29881 17.2438 4.34275 17.403 4.42477 17.5031C4.70404 17.8438 5.00869 18.1641 5.30602 18.4902C5.33922 18.5264 5.38706 18.5493 5.46616 18.6045V15.8114H6.23902C6.23902 16.8737 6.25122 17.9205 6.23072 18.9663C6.22534 19.2304 6.33129 19.37 6.52707 19.4999C7.53476 20.1688 8.5405 20.8406 9.54429 21.5153C9.67367 21.6022 9.77766 21.5988 9.90753 21.5109C10.5427 21.0803 11.1759 20.6462 11.8267 20.24C11.9888 20.1385 11.9664 20.0526 11.94 19.9149C11.8541 19.4667 11.7315 19.0185 11.711 18.5664C11.693 18.1592 11.6183 17.7413 11.7833 17.3293C11.8624 17.1315 11.8009 16.8825 11.8521 16.6687C12.0909 15.6649 12.5034 14.7417 13.1708 13.9434C13.2152 13.8936 13.2602 13.8443 13.3046 13.7945C13.2919 13.7628 13.2856 13.7081 13.2655 13.7022C12.9599 13.6158 12.6523 13.5353 12.3452 13.4552C12.1216 13.3971 11.8975 13.3424 11.6729 13.2863C11.5148 14.21 10.9709 14.7314 10.1302 14.9965V16.5261C10.117 16.5393 10.1038 16.5525 10.0901 16.5657L10.0896 16.5666ZM18.2752 12.2791C17.8182 12.3079 17.3608 12.3372 16.915 12.4534C15.7218 12.7644 14.7024 13.361 13.8963 14.3037C13.4403 14.8364 13.0815 15.4276 12.8408 16.0882C12.7309 16.3894 12.5972 16.6853 12.5234 16.9948C12.4673 17.2301 12.4863 17.484 12.4766 17.7296C12.4478 18.4522 12.5049 19.1645 12.7265 19.8583C13.019 20.7746 13.4965 21.588 14.1687 22.2667C14.5115 22.6123 14.9255 22.8989 15.342 23.1567C16.1544 23.6596 17.0488 23.9432 18.0077 23.9789C18.5491 23.9989 19.0876 23.9964 19.6242 23.8441C20.1417 23.6972 20.6695 23.5648 21.1215 23.2812C21.7445 22.8906 22.348 22.4541 22.8035 21.8634C23.0915 21.4894 23.3884 21.1047 23.5832 20.6799C23.8039 20.1981 23.9166 19.6669 24.0719 19.1557C24.1124 19.0224 24.1544 18.8857 24.1632 18.748C24.1715 18.6162 24.1305 18.4824 24.1236 18.3487C24.1026 17.9224 24.1402 17.486 24.0602 17.072C23.7999 15.7279 23.1609 14.5913 22.1029 13.7003C21.3989 13.1076 20.6143 12.6809 19.7125 12.4758C19.486 12.4241 19.2629 12.3552 18.9963 12.283C18.8337 12.4026 18.6038 12.3494 18.3724 12.2791C18.3562 12.2561 18.3396 12.2332 18.3235 12.2097C18.3074 12.2327 18.2908 12.2556 18.2747 12.2791H18.2752ZM6.28784 8.3801C6.27466 8.36692 6.26147 8.35374 6.2478 8.34056C6.23511 7.8787 6.20484 7.41488 6.39622 6.97499C6.40843 6.95742 6.42063 6.93984 6.43235 6.92227C6.45188 6.8754 6.47141 6.82804 6.49094 6.78117C6.52023 6.73137 6.55001 6.68206 6.57931 6.63226C6.64424 6.53559 6.70869 6.43941 6.77362 6.34274L6.87322 6.25486C6.92204 6.21483 6.97086 6.1748 7.01969 6.13476C7.03336 6.12304 7.04703 6.11084 7.06021 6.09912C7.36535 5.77836 7.75495 5.64312 8.1758 5.53864C8.93841 5.35019 9.70101 5.33505 10.4675 5.46785C10.7829 5.52253 11.0876 5.67974 11.4015 5.69487C11.7716 5.71245 12.0323 5.8721 12.2339 6.13916C12.3369 6.27537 12.4458 6.49361 12.4043 6.62884C12.3604 6.77238 12.4097 6.85294 12.436 6.96084C12.4526 7.02821 12.4741 7.09754 12.4746 7.16589C12.4771 8.48117 12.48 9.79693 12.4697 11.1122C12.4688 11.2216 12.396 11.3509 12.3174 11.4344C12.2056 11.5536 12.0679 11.6595 11.9224 11.7327C11.734 11.8275 11.6739 11.9617 11.6949 12.159C11.7057 12.2625 11.6969 12.3674 11.6969 12.4685C12.1631 12.5866 12.6123 12.7009 13.0615 12.8146C13.37 12.8806 13.6786 12.947 13.9871 13.0129C14.2019 12.8849 14.4168 12.757 14.6316 12.6291C14.6599 12.6115 14.6887 12.5935 14.717 12.5759C14.7741 12.5237 14.8318 12.4709 14.8894 12.4187L14.9284 12.4343C14.9167 12.427 14.9055 12.4197 14.8938 12.4128C14.9323 12.3899 14.9714 12.3674 15.01 12.3445C15.0183 12.3635 15.0266 12.3826 15.0349 12.4011C15.0432 12.3821 15.051 12.363 15.0593 12.3435C15.6671 12.0013 16.3184 11.7772 16.9804 11.6414C17.0424 11.4584 17.1455 11.2928 17.1469 11.1264C17.1596 9.6407 17.1513 8.15454 17.1591 6.66888C17.1601 6.51997 17.1005 6.4526 16.9853 6.39499C14.6726 5.24082 12.3594 4.08715 10.0486 2.92811C9.84455 2.82558 9.69174 2.79775 9.45446 2.91737C7.0939 4.11254 4.72064 5.2833 2.32443 6.47457C2.4172 8.64326 2.2141 10.8305 2.4421 13.0114C2.47237 13.299 2.51582 13.5914 2.60321 13.8658C2.77409 14.4043 2.9728 14.934 3.17443 15.4618C3.24962 15.6585 3.36435 15.8402 3.46102 16.0286C3.51082 15.6698 3.50935 15.331 3.51082 14.9921C3.51472 14.1338 4.09474 13.4069 4.8964 13.1793C5.73224 12.9421 6.57931 12.7424 7.42296 12.5324C7.80475 12.4372 7.81158 12.4436 7.79352 12.0662C7.7901 11.9959 7.74226 11.9109 7.68855 11.8621C7.51328 11.7044 7.31897 11.5682 7.14614 11.4081C7.08267 11.3495 7.02506 11.2474 7.02408 11.1644C7.0148 10.4014 7.01871 9.63826 7.01871 8.87467V8.37961H6.28735L6.28784 8.3801ZM7.79889 8.38596C7.79889 9.21643 7.7945 10.0254 7.80621 10.8344C7.80719 10.9101 7.89507 11.0014 7.96489 11.0565C8.20753 11.2489 8.46776 11.4188 8.7065 11.6156C8.95159 11.8182 9.20742 11.9383 9.53843 11.8997C9.77034 11.8724 10.0086 11.9007 10.2434 11.8909C10.3259 11.8875 10.4211 11.8636 10.4856 11.8152C10.8527 11.5423 11.215 11.2621 11.5724 10.977C11.6295 10.9311 11.69 10.8481 11.6915 10.7807C11.7018 10.3267 11.6988 9.87212 11.6944 9.41758C11.6939 9.35802 11.6769 9.28771 11.6422 9.24035C11.36 8.85515 11.0783 8.46945 10.78 8.09693C10.7351 8.04079 10.5788 8.00515 10.5212 8.03981C10.1189 8.28051 9.63998 8.21655 9.22255 8.38694C9.18789 8.4011 9.14248 8.38694 9.10147 8.38694C8.67379 8.38694 8.24562 8.38694 7.7984 8.38694L7.79889 8.38596ZM11.6964 7.9905C11.6964 7.56965 11.7091 7.2152 11.6915 6.8627C11.6808 6.65033 11.5577 6.4648 11.3361 6.44869C11.0055 6.42525 10.6965 6.40329 10.3738 6.26756C10.0721 6.14062 9.70101 6.17235 9.35925 6.14941C9.2206 6.14013 9.07901 6.17431 8.93841 6.18261C8.76216 6.19286 8.58151 6.17724 8.41064 6.21141C8.31104 6.23143 8.2339 6.34372 8.13479 6.3862C7.71687 6.56489 7.28235 6.71721 7.13735 7.22204C7.12612 7.26061 7.07974 7.28697 7.0607 7.32505C7.0275 7.39243 7.0026 7.46468 6.97428 7.5345C7.04605 7.55842 7.11782 7.60285 7.18959 7.60334C7.85455 7.60969 8.52049 7.62775 9.18447 7.60041C9.48424 7.5882 9.80598 7.53206 10.0711 7.40121C10.3342 7.27135 10.5813 7.21032 10.8664 7.21422C11.0446 7.21667 11.1632 7.25914 11.2609 7.41879C11.3742 7.60383 11.5231 7.76689 11.6959 7.99099L11.6964 7.9905ZM8.58688 12.5915C8.53172 13.1515 8.55759 13.733 9.15371 14.0826C9.59165 14.3394 10.0403 14.2754 10.4397 13.9859C10.9387 13.6246 10.9216 13.0807 10.9167 12.6023C10.6291 12.6281 10.3601 12.6623 10.0906 12.6735C9.79084 12.6858 9.4901 12.6862 9.19033 12.6726C8.99406 12.6638 8.79926 12.6213 8.58688 12.591V12.5915Z" fill="#5B6B79"/>
<path d="M0.154281 13.4591C0.103506 13.4586 0.0532188 13.4576 0.0024435 13.4571C0.0024435 13.1486 0.0024435 12.8395 0.0024435 12.531C0.0200196 12.531 0.0371074 12.53 0.0546835 12.5295C0.0834887 12.7165 0.117664 12.9025 0.139146 13.09C0.153305 13.2116 0.149887 13.3356 0.154281 13.4586V13.4591Z" fill="white"/>
<path d="M24.9004 18.8169C24.9043 18.3623 24.9087 17.9078 24.9126 17.4528C24.9414 17.4528 24.9707 17.4528 24.9995 17.4528V18.8174C24.9663 18.8174 24.9336 18.8174 24.9004 18.8169Z" fill="white"/>
<path d="M24.8477 17.2072C24.836 17.0778 24.8242 16.9484 24.813 16.8195C24.8755 16.8195 24.9375 16.8195 25 16.8195V17.2091C24.9492 17.2087 24.8989 17.2077 24.8482 17.2072H24.8477Z" fill="white"/>
<path d="M24.8477 17.2072C24.8984 17.2077 24.9487 17.2087 24.9995 17.2091L24.9995 17.4528C24.9707 17.4528 24.9414 17.4528 24.9126 17.4528C24.8467 17.3825 24.7193 17.3288 24.8477 17.2072Z" fill="white"/>
<path d="M24.9995 16.8195C24.937 16.8195 24.875 16.8195 24.8125 16.8195C24.7969 16.7546 24.7808 16.6897 24.7652 16.6247C24.8433 16.6409 24.9214 16.6575 24.999 16.6736V16.8195H24.9995Z" fill="white"/>
<path d="M24.9004 18.8169C24.9336 18.8169 24.9663 18.8169 24.9995 18.8174V18.915C24.9341 18.915 24.8687 18.915 24.8028 18.9155C24.8355 18.8828 24.8677 18.8496 24.9004 18.8169Z" fill="white"/>
<path d="M0.0546835 12.53C0.0371074 12.53 0.0200196 12.531 0.0024435 12.5315C0.0024435 12.5154 0.0024435 12.4988 0.0024435 12.4826C0.0200196 12.4983 0.0371074 12.5144 0.0546835 12.53Z" fill="#FAFAFA"/>
<path d="M19.485 6.39108C19.4875 7.90116 19.4904 9.41123 19.4933 10.9213C19.4938 11.1649 19.4967 11.4081 19.4987 11.6517C19.4479 11.5843 19.3537 11.5174 19.3537 11.4496C19.3454 10.0537 19.3454 8.65839 19.3498 7.26256C19.3508 7.02089 19.3757 6.77922 19.3996 6.53852C19.405 6.48677 19.4552 6.4399 19.485 6.39059V6.39108Z" fill="#5B6B79"/>
<path d="M11.4552 2.77968C12.1119 3.10387 12.769 3.42707 13.4252 3.75272C14.4417 4.25754 15.4567 4.76432 16.4722 5.2706C16.4912 5.28037 16.5064 5.29892 16.523 5.31308C16.4522 5.30429 16.3726 5.31357 16.3125 5.28379C14.7532 4.508 13.1952 3.72928 11.6388 2.94666C11.5675 2.91102 11.5162 2.83583 11.4552 2.7792V2.77968Z" fill="#5B6B79"/>
<path d="M9.64779 1.94971C9.69515 1.94189 9.75326 1.91162 9.78792 1.9292C10.3132 2.19284 10.8352 2.46283 11.358 2.73086C11.3312 2.74307 11.296 2.77383 11.2794 2.76553C10.7346 2.49603 10.1912 2.22262 9.64779 1.94971Z" fill="#5B6B79"/>
<path d="M13.0615 12.8156C13.1015 12.7873 13.1489 12.7277 13.1796 12.7351C13.4418 12.799 13.7015 12.8742 13.9608 12.9499C13.9749 12.9538 13.9788 12.9919 13.9876 13.0138C13.6791 12.9479 13.3705 12.8815 13.0619 12.8156H13.0615Z" fill="white"/>
<path d="M16.8154 5.46003C17.1401 5.62261 17.4652 5.7847 17.7899 5.94728C17.7557 5.95656 17.7133 5.98341 17.6888 5.97169C17.4203 5.8428 17.1538 5.71001 16.8901 5.57135C16.8554 5.55329 16.8398 5.49812 16.8154 5.46003Z" fill="#5B6B79"/>
<path d="M23.2922 22.5152C23.3469 22.7744 23.3122 22.8096 22.9983 22.811C23.0964 22.7124 23.1941 22.6138 23.2922 22.5152Z" fill="white"/>
<path d="M22.9998 22.8096C22.9963 22.8789 23.0134 22.9585 22.9846 23.0151C22.9304 23.1211 22.8538 23.163 22.8049 23.0024C22.8699 22.938 22.9348 22.874 22.9998 22.8096Z" fill="white"/>
<path d="M23.7311 21.9801C23.737 22.0875 23.7423 22.1944 23.5827 22.1783C23.632 22.1124 23.6818 22.0465 23.7311 21.9801Z" fill="white"/>
<path d="M14.9201 23.8334C14.8059 23.8954 14.7297 23.8812 14.72 23.7333C14.7868 23.7665 14.8532 23.8002 14.9201 23.8334Z" fill="white"/>
<path d="M22.3665 23.3935C22.3616 23.4926 22.3665 23.6073 22.2196 23.4901C22.2684 23.4579 22.3172 23.4257 22.3665 23.3935Z" fill="white"/>
<path d="M19.4933 24.6702C19.4655 24.6985 19.4382 24.7263 19.4103 24.7546C19.3893 24.7273 19.3683 24.7005 19.3469 24.6731L19.4928 24.6702H19.4933Z" fill="white"/>
<path d="M6.77362 6.34274C6.76142 6.31833 6.74921 6.29343 6.737 6.26902C6.78241 6.26414 6.82781 6.25975 6.87322 6.25486L6.77362 6.34274Z" fill="#121111"/>
<path d="M24.069 21.4469C24.0787 21.4865 24.088 21.5265 24.0978 21.5661L24.0216 21.5392C24.0372 21.5084 24.0528 21.4777 24.069 21.4469Z" fill="white"/>
<path d="M18.3729 12.2791L18.2752 12.2791C18.2913 12.2561 18.3079 12.2332 18.324 12.2097C18.3401 12.2327 18.3567 12.2556 18.3729 12.2791Z" fill="#5B6B79"/>
<path d="M15.01 12.3455C15.0266 12.3455 15.0427 12.3455 15.0593 12.345C15.051 12.364 15.0432 12.3831 15.0349 12.4026C15.0266 12.3835 15.0183 12.3645 15.01 12.3459V12.3455Z" fill="#121111"/>
<path d="M1.95192 14.5205C1.9363 14.5107 1.92067 14.501 1.90456 14.4912C1.9197 14.4702 1.93483 14.4492 1.94997 14.4277C1.95046 14.4585 1.95094 14.4897 1.95192 14.5205Z" fill="#100F0F"/>
<path d="M4.09522 20.5642C4.07618 20.5501 4.05714 20.5359 4.03761 20.5222C4.05665 20.5364 4.07569 20.5506 4.09522 20.5642Z" fill="#5B6B79"/>
<path d="M6.28784 8.38059C6.27465 8.36741 6.26147 8.35423 6.2478 8.34105C6.26098 8.35423 6.27417 8.36741 6.28784 8.38059Z" fill="#5B6B79"/>
<path d="M9.40613 16.5671C9.39295 16.5539 9.37976 16.5408 9.36609 16.5276C9.37928 16.5408 9.39246 16.5539 9.40613 16.5671Z" fill="#5B6B79"/>
<path d="M6.39622 6.97548C6.40843 6.95791 6.42063 6.94033 6.43235 6.92275C6.42015 6.94033 6.40794 6.95791 6.39622 6.97548Z" fill="#121111"/>
<path d="M10.1292 16.5276C10.116 16.5408 10.1028 16.5539 10.0892 16.5671C10.1023 16.5539 10.1155 16.5408 10.1292 16.5276Z" fill="#5B6B79"/>
<path d="M7.01969 6.13525C7.03336 6.12353 7.04703 6.11133 7.06021 6.09961C7.04654 6.11133 7.03287 6.12353 7.01969 6.13525Z" fill="#F8F8F8"/>
<path d="M14.8938 12.4133C14.9055 12.4206 14.9167 12.428 14.9284 12.4348C14.9152 12.4294 14.9021 12.4241 14.8889 12.4192L14.8938 12.4133Z" fill="#121111"/>
<path d="M20.2838 6.83634H24.94V7.59846H20.2838V6.83634Z" fill="#5B6B79"/>
<path d="M23.3859 8.4011V9.15443H20.2867V8.4011H23.3859Z" fill="#5B6B79"/>
<path d="M20.2784 10.7138V9.96H21.8182V10.7138H20.2784Z" fill="#5B6B79"/>
<path d="M16.8989 22.2422C15.7057 21.0485 14.5139 19.8558 13.3393 18.6807C14.0555 17.9639 14.7825 17.237 15.4953 16.5237C15.9225 16.9523 16.3789 17.4098 16.8257 17.858C18.1409 16.5422 19.4167 15.2655 20.6856 13.9961C21.4511 14.7622 22.1859 15.4979 22.9133 16.2264C20.9224 18.2173 18.9094 20.2313 16.8989 22.2422ZM16.8896 21.1301C18.5266 19.4931 20.1729 17.8473 21.8148 16.2058C21.4604 15.849 21.1001 15.4862 20.729 15.1132C19.4494 16.3938 18.1712 17.673 16.8691 18.9755C16.4126 18.5127 15.9591 18.0528 15.5333 17.6212C15.1647 17.9859 14.8049 18.3423 14.4524 18.6914C15.257 19.4965 16.0762 20.3167 16.8896 21.1306V21.1301Z" fill="#5B6B79"/>
</svg>
