<svg width="20" height="20" viewBox="0 0 20 20" fill="none" xmlns="http://www.w3.org/2000/svg">
<path d="M20 3.39838C19.844 3.98852 19.6844 4.57709 19.5321 5.16828C19.1018 6.84268 18.6761 8.51813 18.2448 10.192C17.9855 11.1985 17.2094 11.7955 16.1662 11.7965C15.2356 11.7975 14.3045 11.7996 13.374 11.7934C13.2415 11.7923 13.1872 11.8283 13.145 11.9593C12.9447 12.5766 12.398 12.9663 11.7392 12.9674C10.2099 12.9705 8.67997 12.9669 7.15061 12.9721C7.04055 12.9721 6.91849 13.0044 6.82199 13.0577C6.1851 13.4104 5.55447 13.7746 4.91967 14.1315C4.77205 14.2145 4.65521 14.3157 4.70111 14.4999C4.7491 14.6929 4.90246 14.7279 5.08137 14.7274C9.34451 14.7253 13.6076 14.7258 17.8713 14.7263C18.3162 14.7263 18.6417 14.9366 18.7753 15.3055C18.9724 15.8502 18.5922 16.4378 18.0142 16.4811C17.9626 16.4847 17.9099 16.4837 17.8583 16.4837C13.5951 16.4837 9.33199 16.4842 5.06833 16.4837C4.04858 16.4837 3.24425 15.881 3.00066 14.9413C2.77532 14.073 3.13419 13.1594 3.90409 12.6955C4.45491 12.3632 5.0193 12.0527 5.5816 11.7396C5.6927 11.6775 5.71565 11.6196 5.68331 11.4939C4.94784 8.63658 4.21915 5.77772 3.48576 2.91991C3.29433 2.17428 2.75133 1.75998 1.98091 1.75789C1.63612 1.75685 1.29081 1.75894 0.946029 1.75789C0.453105 1.7558 0.0879768 1.46413 0.012343 1.01435C-0.0606827 0.583355 0.194907 0.195147 0.657577 0.0307853C0.675312 0.0245239 0.689917 0.0104357 0.706087 0C1.26578 0 1.82547 0 2.38516 0C2.42167 0.0114793 2.45714 0.0281764 2.4947 0.0344378C3.71057 0.231672 4.56497 0.896948 5.0386 2.03131C5.16744 2.3402 5.23838 2.6731 5.34009 3.00809H5.5889C10.249 3.00809 14.9091 3.00861 19.5691 3.00548C19.7517 3.00548 19.9025 3.03731 20 3.20323V3.39838ZM12.5749 11.797H12.3448C10.6788 11.797 9.01224 11.797 7.34621 11.797C7.01029 11.797 6.95761 11.7548 6.87519 11.4328C6.12147 8.4863 5.36721 5.54031 4.61348 2.59379C4.51959 2.22593 4.36468 1.88938 4.12369 1.5951C3.97764 1.73702 3.84463 1.86694 3.73613 1.97235C3.8488 2.25411 3.98442 2.50978 4.05484 2.78215C4.81587 5.72658 5.56647 8.67362 6.31968 11.6201C6.38853 11.8889 6.34993 11.9744 6.10634 12.1122C5.49553 12.4586 4.88368 12.8025 4.27496 13.1526C3.80499 13.4229 3.54366 13.8341 3.52175 14.3752C3.4868 15.2356 4.15342 15.8967 5.04538 15.8972C9.30852 15.8988 13.5717 15.8977 17.8343 15.8977C17.8796 15.8977 17.9261 15.9014 17.9709 15.8946C18.1337 15.8701 18.2291 15.7751 18.239 15.6097C18.2484 15.4558 18.1285 15.33 17.9621 15.3139C17.8974 15.3076 17.8322 15.3118 17.767 15.3118C14.9226 15.3118 12.0788 15.3118 9.23445 15.3118C7.84174 15.3118 6.44904 15.3102 5.05581 15.3133C4.819 15.3133 4.60462 15.2606 4.42153 15.1072C3.94165 14.7049 4.0105 13.9864 4.56915 13.6603C5.20917 13.2867 5.86118 12.9329 6.50016 12.5583C6.71558 12.432 6.93049 12.3767 7.18138 12.3783C8.69145 12.3866 10.2015 12.3835 11.7111 12.3819C12.1284 12.3819 12.4199 12.1868 12.5743 11.797H12.5749ZM10.9198 8.46856C10.8833 7.74641 10.8473 7.04722 10.8108 6.3282C10.4785 6.3282 10.1619 6.3282 9.84473 6.3282C9.77327 6.3282 9.70129 6.33133 9.63035 6.32664C9.44779 6.31516 9.33199 6.19828 9.33355 6.03183C9.33512 5.86642 9.45196 5.74693 9.63661 5.74433C10.0116 5.73911 10.3872 5.74276 10.7815 5.74276C10.7435 5.01748 10.707 4.31359 10.6699 3.60918H8.37379C8.62416 5.24132 8.87245 6.85625 9.12021 8.46856H10.9198ZM5.47727 3.60083C5.66088 4.31933 5.84188 5.02687 6.02288 5.73337H8.10672C7.9977 5.018 7.89025 4.31411 7.78123 3.60083H5.47727ZM11.2578 3.60344C11.2959 4.32298 11.3329 5.02687 11.3699 5.73389H13.4506C13.4872 5.02218 13.5231 4.31829 13.5597 3.60344H11.2573H11.2578ZM16.4442 3.61023H14.1465C14.1105 4.32559 14.075 5.02426 14.0395 5.72815H16.1192C16.2282 5.01591 16.3357 4.31672 16.4442 3.61023ZM17.0388 3.6024C16.9298 4.31255 16.8213 5.01591 16.7118 5.7318H18.7831C18.963 5.02687 19.1435 4.31985 19.3266 3.6024H17.0388ZM8.52714 8.46752C8.41656 7.7485 8.30754 7.04148 8.19905 6.33551H6.17676C6.36088 7.054 6.54188 7.76207 6.72236 8.46752H8.52766H8.52714ZM13.3124 8.46282C13.3479 7.74641 13.3828 7.04357 13.4173 6.34281H11.3986C11.4351 7.05713 11.4706 7.75633 11.5066 8.46282H13.3124ZM14.0072 6.33864C13.9712 7.04566 13.9352 7.75006 13.8992 8.46595H15.6988C15.8073 7.75893 15.9158 7.05505 16.0253 6.33864H14.0067H14.0072ZM18.6276 6.34125H16.6179C16.5089 7.05557 16.4014 7.75789 16.2924 8.47013H18.082C18.2625 7.76572 18.4425 7.06235 18.6271 6.34125H18.6276ZM8.94704 11.2017C8.83698 10.4863 8.72848 9.78242 8.61947 9.07174H6.87624C7.05984 9.78868 7.24084 10.4967 7.42132 11.2017H8.94704ZM11.5395 9.07435C11.5765 9.78972 11.6125 10.4931 11.649 11.2001H13.1716C13.2086 10.4905 13.2451 9.79129 13.2822 9.07435H11.5395ZM11.0611 11.2017C11.0241 10.4832 10.9876 9.77876 10.9506 9.07174H9.21306C9.3226 9.78711 9.43057 10.4905 9.54011 11.2017H11.0611ZM13.8684 9.06287C13.8309 9.79181 13.7949 10.491 13.7584 11.2011H15.2799C15.3884 10.4905 15.4959 9.78659 15.6065 9.06287H13.8684ZM15.872 11.2105C16.0206 11.2105 16.1495 11.2131 16.2783 11.2105C16.8901 11.1959 17.43 10.8135 17.6204 10.2291C17.7425 9.8539 17.827 9.46674 17.9313 9.07435H16.1985C16.0895 9.78659 15.982 10.4894 15.872 11.2111V11.2105ZM3.70692 1.1401C3.48315 1.01696 3.28702 0.889121 3.07577 0.795721C2.35125 0.475867 1.58187 0.602139 0.827623 0.597965C0.680007 0.596921 0.589768 0.727889 0.592376 0.884946C0.594984 1.03209 0.68105 1.12549 0.821363 1.16254C0.870395 1.17558 0.924643 1.17141 0.976282 1.17141C1.223 1.17245 1.47025 1.1808 1.71645 1.16984C2.28031 1.14427 2.81444 1.22828 3.27451 1.57318C3.41691 1.43073 3.5447 1.3029 3.70744 1.1401H3.70692Z" fill="#5B6B79"/>
<path d="M8.20426 18.5322C8.20531 19.3373 7.54703 19.9984 6.74271 19.9995C5.93786 20.0005 5.27698 19.342 5.27593 18.5374C5.27437 17.7323 5.93316 17.0712 6.73749 17.0702C7.54338 17.0691 8.20322 17.7271 8.20479 18.5317L8.20426 18.5322ZM7.61797 18.5515C7.62632 18.0668 7.23459 17.6624 6.75105 17.6572C6.27378 17.652 5.8737 18.035 5.8617 18.5093C5.84918 18.995 6.23622 19.4031 6.71819 19.4135C7.20329 19.4239 7.60963 19.0342 7.61745 18.5515H7.61797Z" fill="#5B6B79"/>
<path d="M16.778 20C15.9737 20 15.3138 19.3399 15.3138 18.5354C15.3138 17.7308 15.9737 17.0707 16.778 17.0712C17.5834 17.0712 18.2422 17.7302 18.2422 18.5354C18.2422 19.3405 17.5823 20 16.778 20ZM15.8996 18.5385C15.9012 19.0222 16.3018 19.4177 16.7858 19.414C17.261 19.4104 17.6527 19.0175 17.6564 18.5421C17.6595 18.0579 17.2636 17.6582 16.7796 17.6572C16.2955 17.6561 15.898 18.0543 15.8996 18.5385Z" fill="#5B6B79"/>
<path d="M7.03168 18.5317C7.03377 18.694 6.89606 18.8307 6.73384 18.827C6.57944 18.8239 6.4506 18.6935 6.44852 18.539C6.44643 18.3772 6.58414 18.24 6.74584 18.2437C6.90023 18.2468 7.02959 18.3778 7.03168 18.5317Z" fill="#5B6B79"/>
<path d="M17.0696 18.5317C17.0717 18.694 16.934 18.8307 16.7717 18.827C16.6173 18.8239 16.4885 18.6935 16.4864 18.539C16.4843 18.3772 16.622 18.24 16.7837 18.2437C16.9381 18.2468 17.0675 18.3778 17.0696 18.5317Z" fill="#5B6B79"/>
</svg>
