<svg width="20" height="20" viewBox="0 0 20 20" fill="none" xmlns="http://www.w3.org/2000/svg">
<path d="M0 18.5543C0.0156529 18.5126 0.0328711 18.4719 0.0459152 18.4291C0.265578 17.7031 1.03674 17.3409 1.72965 17.6462C1.834 17.6922 1.89504 17.6948 1.98114 17.6087C3.81931 15.7643 5.66061 13.9241 7.50087 12.0823C7.53217 12.051 7.55931 12.0144 7.58435 11.9847C6.64935 10.657 6.6457 9.33868 7.59218 8.00314C7.3793 7.79125 7.16485 7.57466 6.94519 7.36277C6.91858 7.33668 6.86745 7.32467 6.82779 7.3252C6.56952 7.32937 6.485 7.24482 6.47508 6.98074C6.473 6.9296 6.44952 6.86697 6.41404 6.83096C5.634 6.04602 4.85083 5.26422 4.06819 4.48242C4.05514 4.46937 4.03636 4.46207 4.01079 4.44641C3.68261 4.68439 3.32363 4.85662 2.91874 4.92708C1.57207 5.16089 0.296883 4.2794 0.0401758 2.93656C0.0323493 2.89376 0.0135658 2.85253 0 2.81078C0 2.60255 0 2.39431 0 2.18555C0.0933956 1.7362 0.24575 1.31502 0.533764 0.945521C1.38476 -0.144722 3.02153 -0.322168 4.06662 0.570277C4.25341 0.729978 4.27115 0.94239 4.10367 1.06504C3.95757 1.17202 3.82557 1.12923 3.69617 1.02328C3.32363 0.719018 2.89579 0.572365 2.4142 0.585934C1.4552 0.613073 0.641769 1.40531 0.589593 2.36195C0.535329 3.36243 1.24493 4.22773 2.23263 4.36552C3.19215 4.49964 4.13758 3.84936 4.32803 2.89951C4.37655 2.6563 4.36142 2.39587 4.34368 2.14536C4.32646 1.90425 4.38959 1.74977 4.57221 1.71793C4.75744 1.68557 4.88475 1.80039 4.92649 2.04046C5.04023 2.6991 4.91084 3.30711 4.54508 3.86554C4.51377 3.91355 4.4809 3.96104 4.45899 3.99392C5.28494 4.82009 6.10202 5.63738 6.92276 6.45832C7.13198 6.32681 7.28434 6.31637 7.39234 6.44736C7.52591 6.60967 7.47008 6.7605 7.35164 6.88837C7.5807 7.11383 7.8061 7.33563 8.03881 7.56475C9.33069 6.64777 10.6487 6.64516 11.9886 7.5851C12.0256 7.55013 12.0726 7.50838 12.1174 7.46402C12.923 6.65873 13.7265 5.85136 14.5358 5.04972C14.6344 4.95213 14.6501 4.88637 14.5807 4.75589C14.2217 4.08317 14.42 3.25544 15.0336 2.80348C15.6466 2.35203 16.4924 2.41414 17.034 2.95117C17.5746 3.48716 17.6439 4.33368 17.1973 4.95056C16.7507 5.56797 15.9247 5.77203 15.2491 5.41975C15.1176 5.35138 15.045 5.35503 14.9386 5.46411C14.4711 5.94425 13.9926 6.41396 13.5105 6.89567C13.6196 7.04076 13.7276 7.17698 13.8267 7.31945C13.941 7.48385 13.9196 7.64929 13.7803 7.75002C13.6405 7.85127 13.4813 7.81891 13.3551 7.6613C13.2778 7.56475 13.2037 7.46611 13.1276 7.36851C13.1203 7.35912 13.1072 7.35338 13.1156 7.35912C12.8886 7.58458 12.6642 7.80691 12.4258 8.04385C13.1072 8.93473 13.2883 9.94669 12.9256 11.0682C12.9846 11.0996 13.0441 11.134 13.1056 11.1638C14.0135 11.5995 14.924 12.0317 15.8287 12.4742C15.9633 12.54 16.0307 12.5353 16.1287 12.4111C16.7971 11.5661 17.9742 11.3349 18.8847 11.8636C18.9604 11.9075 19.0621 11.9732 19.0751 12.0426C19.0939 12.1434 19.0725 12.2775 19.0151 12.361C18.9332 12.4805 18.7897 12.4815 18.6635 12.4069C18.3692 12.2316 18.0541 12.1564 17.7123 12.1773C16.9213 12.2258 16.2681 12.8938 16.2461 13.6835C16.2216 14.5503 16.817 15.2335 17.6857 15.3353C18.4459 15.4245 19.2249 14.8656 19.3652 14.0973C19.4096 13.8552 19.3814 13.5942 19.3532 13.3458C19.3277 13.1214 19.3835 12.9679 19.5604 12.9293C19.732 12.8918 19.8646 12.9899 19.9225 13.1976C20.2507 14.3776 19.5051 15.5967 18.2836 15.8775C17.1191 16.1453 15.8981 15.3494 15.7061 14.1673C15.6566 13.8609 15.7176 13.5368 15.7202 13.2205C15.7207 13.1621 15.704 13.0687 15.6659 13.0499C15.1437 12.7895 14.6156 12.5395 14.0871 12.2858C13.9509 12.4852 13.8278 12.6752 13.6942 12.8584C13.5502 13.0562 13.3801 13.0958 13.2314 12.9784C13.089 12.8657 13.0874 12.7013 13.2225 12.5134C13.3138 12.3866 13.401 12.2571 13.4881 12.1282C13.5058 12.1026 13.5163 12.0724 13.5398 12.0244C13.2481 11.884 12.9637 11.7467 12.6674 11.6037C12.1143 12.4601 11.3374 12.9622 10.31 13.0963V14.0645C10.4081 14.0571 10.5083 14.0509 10.6085 14.0415C10.6795 14.0347 10.7504 14.018 10.8214 14.017C10.9816 14.0144 11.0823 14.1005 11.1099 14.2529C11.1381 14.4068 11.0692 14.5269 10.9195 14.5723C10.7901 14.6114 10.6513 14.6427 10.5177 14.6401C10.3215 14.6359 10.274 14.72 10.2881 14.8984C10.3022 15.0795 10.3022 15.2638 10.2881 15.4449C10.2751 15.6119 10.3226 15.6896 10.4953 15.745C11.2257 15.9803 11.6531 16.7246 11.5169 17.4871C11.3885 18.2062 10.7285 18.7501 9.98864 18.7459C9.2493 18.7417 8.58875 18.1838 8.47709 17.4683C8.35708 16.7006 8.77606 15.9783 9.50027 15.745C9.67193 15.6896 9.71158 15.6134 9.70949 15.4459C9.7001 14.7429 9.70532 14.0399 9.70532 13.3364V13.0974C9.06981 13.0207 8.51674 12.7973 8.05446 12.4236C7.82332 12.6543 7.59896 12.8777 7.36156 13.1146C7.48209 13.2639 7.84732 13.4074 7.56505 13.6991C7.29477 13.9783 7.11372 13.6271 6.87736 13.5071C6.75631 13.6365 6.63579 13.7727 6.50743 13.9016C5.14615 15.2653 3.78435 16.6285 2.41942 17.9886C2.3255 18.082 2.29837 18.1488 2.35889 18.2856C2.65056 18.9458 2.3088 19.6957 1.62477 19.9311C1.56425 19.952 1.50477 19.976 1.44476 19.9984H1.01535C0.896389 19.9504 0.773775 19.9102 0.659509 19.8528C0.29897 19.6733 0.113223 19.3555 0 18.9844C0 18.8409 0 18.6979 0 18.5543ZM9.9902 7.47133C8.60544 7.47759 7.46904 8.6195 7.47165 10.002C7.47426 11.3866 8.61327 12.5249 9.99699 12.5259C11.3864 12.5275 12.5369 11.3709 12.5254 9.98531C12.514 8.59758 11.3718 7.46506 9.9902 7.47133ZM15.9487 5.00432C16.4752 5.00432 16.9057 4.57636 16.9077 4.05185C16.9098 3.53048 16.4773 3.09313 15.9555 3.08791C15.4244 3.08269 14.9897 3.51848 14.9923 4.05499C14.9944 4.58523 15.4171 5.00484 15.9487 5.00484V5.00432ZM10.0017 16.246C9.47157 16.2449 9.04581 16.6645 9.04007 17.1938C9.03433 17.7245 9.47418 18.1655 10.0053 18.1619C10.5281 18.1582 10.9586 17.724 10.9576 17.2C10.9565 16.6724 10.5307 16.247 10.0017 16.246ZM1.87626 18.7714C1.87835 18.4129 1.59399 18.1253 1.23606 18.1238C0.878128 18.1222 0.588549 18.4066 0.586462 18.7636C0.584375 19.118 0.873954 19.4113 1.22771 19.4139C1.58303 19.416 1.87417 19.1279 1.87626 18.772V18.7714Z" fill="#5B6B79"/>
<path d="M0 18.9844C0.113223 19.3555 0.29897 19.6733 0.659509 19.8544C0.773775 19.9118 0.896389 19.952 1.01535 20H0V18.9844Z" fill="white"/>
<path d="M14.6449 10.5521C14.612 10.7186 14.5734 10.9618 14.5134 11.1998C14.469 11.3756 14.3161 11.455 14.1549 11.4127C14.0036 11.373 13.9186 11.2379 13.9467 11.0677C13.9833 10.8444 14.024 10.6215 14.0678 10.3997C14.1027 10.2243 14.2389 10.1283 14.4054 10.1528C14.5582 10.1753 14.6506 10.299 14.6449 10.5526V10.5521Z" fill="#5B6B79"/>
<path d="M11.7736 5.63999C12.0506 5.80752 12.3027 5.93956 12.5249 6.1097C12.5781 6.15041 12.5755 6.35238 12.5223 6.42075C12.4628 6.49642 12.2974 6.55957 12.2113 6.53035C11.999 6.45832 11.7934 6.34716 11.6113 6.21564C11.5404 6.1645 11.496 6.00271 11.5205 5.91399C11.5471 5.81796 11.6682 5.74802 11.7736 5.64051V5.63999Z" fill="#5B6B79"/>
<path d="M10.1175 5.31902C10.2913 5.33311 10.441 5.33938 10.5887 5.35921C10.7822 5.38478 10.8929 5.51786 10.8735 5.68696C10.8548 5.85083 10.7337 5.94739 10.5417 5.93956C10.3732 5.93277 10.2052 5.91659 10.0366 5.90459C9.83524 5.88998 9.71941 5.78194 9.72149 5.6092C9.72358 5.43749 9.84828 5.32528 10.0445 5.31954C10.0768 5.3185 10.1092 5.31954 10.1165 5.31954L10.1175 5.31902Z" fill="#5B6B79"/>
<path d="M8.19012 6.31741C8.10872 6.22452 7.98402 6.14258 7.96576 6.04185C7.94906 5.94948 8.01898 5.78612 8.09933 5.74124C8.28873 5.63477 8.50422 5.57058 8.71501 5.509C8.85328 5.46829 8.99624 5.52361 9.02963 5.66452C9.05416 5.76629 9.0312 5.95313 8.96598 5.98966C8.73797 6.11857 8.48231 6.19947 8.1896 6.31741H8.19012Z" fill="#5B6B79"/>
<path d="M14.158 8.34394C14.3068 8.3476 14.4054 8.42379 14.4455 8.56314C14.4998 8.74998 14.5504 8.93838 14.5906 9.12888C14.6245 9.29119 14.5301 9.4321 14.3777 9.47385C14.2285 9.51508 14.0756 9.43262 14.0276 9.27135C13.9702 9.07825 13.9186 8.88358 13.8768 8.68683C13.8387 8.50782 13.9786 8.34603 14.158 8.34342V8.34394Z" fill="#5B6B79"/>
<path d="M12.7853 13.6574C12.7592 13.6944 12.7211 13.7905 12.6502 13.8421C12.4931 13.9554 12.3241 14.054 12.1524 14.1443C11.988 14.2309 11.8315 14.1808 11.7491 14.0358C11.6682 13.8928 11.7141 13.7357 11.8717 13.6365C12.0256 13.5405 12.18 13.4444 12.3387 13.3573C12.5526 13.2399 12.7848 13.3688 12.7848 13.6574H12.7853Z" fill="#5B6B79"/>
<path d="M8.50631 13.815C8.69884 13.8776 8.94511 13.9397 9.17573 14.0389C9.30826 14.0963 9.33278 14.2445 9.27956 14.3786C9.22634 14.5143 9.10947 14.589 8.96859 14.5566C8.75415 14.5075 8.54231 14.4423 8.33673 14.3635C8.20264 14.3118 8.14212 14.1887 8.17551 14.0441C8.20838 13.9037 8.30386 13.8223 8.50631 13.8145V13.815Z" fill="#5B6B79"/>
<path d="M6.39317 8.03602C6.26742 8.32045 6.17507 8.57096 6.04619 8.80112C5.98254 8.9149 5.83958 8.93003 5.71331 8.86479C5.58182 8.79695 5.514 8.68056 5.55939 8.54174C5.62774 8.33246 5.71331 8.12735 5.80983 7.92955C5.87245 7.80117 6.00289 7.7328 6.13698 7.79856C6.23507 7.84605 6.30499 7.95147 6.39264 8.03602H6.39317Z" fill="#5B6B79"/>
<path d="M5.9048 10.1116C5.91262 10.2264 5.92671 10.3172 5.92306 10.4075C5.91575 10.5761 5.79575 10.6946 5.64131 10.7003C5.48739 10.7055 5.36112 10.5965 5.34651 10.4253C5.32981 10.2379 5.32042 10.049 5.32355 9.86058C5.32668 9.66539 5.45243 9.537 5.6173 9.53752C5.78427 9.53752 5.89906 9.66591 5.90532 9.86214C5.90793 9.95295 5.90532 10.0443 5.90532 10.1111L5.9048 10.1116Z" fill="#5B6B79"/>
<path d="M5.97367 11.3271C6.01384 11.3548 6.1182 11.3913 6.16098 11.4638C6.27003 11.647 6.36186 11.8422 6.44012 12.0411C6.4996 12.1919 6.44899 12.3307 6.29664 12.4007C6.14898 12.468 6.00654 12.4346 5.92619 12.2879C5.8234 12.1011 5.72844 11.9075 5.65278 11.7081C5.5813 11.5207 5.72479 11.3308 5.97419 11.3271H5.97367Z" fill="#5B6B79"/>
</svg>
