<svg width="20" height="22" viewBox="0 0 20 22" fill="none" xmlns="http://www.w3.org/2000/svg">
<path d="M11.8279 0C12.0136 0.0373638 12.201 0.0688562 12.3851 0.112625C14.2304 0.549782 15.4682 1.66643 16.1002 3.45242C16.1477 3.5864 16.2048 3.63977 16.3542 3.63764C17.0428 3.62856 17.7319 3.63016 18.421 3.63443C19.2003 3.63924 19.764 4.04597 19.9449 4.74361C20.0501 5.1482 20.002 5.5464 19.8237 5.92537C18.7888 8.12664 17.7559 10.3284 16.7156 12.527C16.366 13.2652 15.7714 13.6373 14.951 13.6373C12.0819 13.6378 9.2124 13.6389 6.34339 13.6341C6.18753 13.6341 6.08452 13.673 5.98577 13.8006C5.5769 14.328 5.15629 14.8463 4.73888 15.3667C4.57929 15.5652 4.4704 15.7771 4.5937 16.0307C4.7202 16.2912 4.94492 16.3675 5.22675 16.3675C9.3245 16.3632 13.4228 16.3643 17.5205 16.3659C17.6262 16.3659 17.7351 16.3675 17.837 16.3921C18.0506 16.4433 18.1904 16.644 18.1739 16.8495C18.1562 17.0635 17.9977 17.2317 17.7805 17.261C17.7105 17.2706 17.639 17.2712 17.568 17.2712C13.4559 17.2712 9.34371 17.2722 5.23155 17.2712C4.41542 17.2712 3.86297 16.8756 3.67989 16.1492C3.55712 15.6608 3.68736 15.2247 4.00015 14.8361C4.43197 14.2997 4.85898 13.759 5.29347 13.2247C5.37247 13.1275 5.39435 13.0453 5.35699 12.9188C4.4357 9.77598 3.52082 6.63101 2.60274 3.48711C2.44528 2.94854 2.13943 2.72809 1.57096 2.72756C1.22295 2.72756 0.87493 2.73023 0.526912 2.72649C0.201847 2.72276 -0.0047219 2.53967 8.20218e-05 2.26692C0.00488595 1.9995 0.200246 1.82229 0.517838 1.82336C1.02172 1.82549 1.53413 1.78546 2.0268 1.86392C2.79063 1.98562 3.25874 2.4879 3.47439 3.22663C3.59342 3.63337 3.59448 3.63283 4.02097 3.63283C4.8024 3.63283 5.58331 3.63016 6.36475 3.63497C6.49392 3.6355 6.56277 3.60828 6.61188 3.47163C7.32179 1.49669 8.71066 0.34268 10.795 0.0368301C10.8281 0.0320262 10.8591 0.0128105 10.8906 0C11.2034 0 11.5156 0 11.8284 0H11.8279ZM16.3388 4.55198C16.4055 5.50476 16.2502 6.39455 15.829 7.2315C15.4105 8.06258 14.8074 8.72606 14.0227 9.22567C13.2306 9.73008 12.3611 9.98736 11.4259 9.99696C10.2426 10.0092 9.17077 9.65642 8.25109 8.90754C6.87823 7.78929 6.27721 6.3209 6.37115 4.56266H3.87311C3.88806 4.63152 3.89713 4.68703 3.91314 4.74094C4.66949 7.33292 5.42851 9.92437 6.17953 12.518C6.22757 12.6834 6.29109 12.7379 6.46723 12.7373C9.27165 12.7309 12.0761 12.7304 14.8805 12.7352C15.3844 12.7363 15.7185 12.5254 15.932 12.0643C16.6446 10.527 17.3721 8.99721 18.0938 7.46423C18.4018 6.80983 18.7162 6.15863 19.0161 5.50103C19.2248 5.04412 18.99 4.56586 18.5475 4.55679C17.8237 4.54238 17.0999 4.55305 16.3377 4.55305L16.3388 4.55198ZM11.3502 0.907941C9.0875 0.925556 7.25721 2.76706 7.26842 5.01476C7.27963 7.27047 9.13341 9.10717 11.379 9.08689C13.6448 9.06607 15.4708 7.2219 15.45 4.97526C15.4287 2.72489 13.5797 0.890327 11.3507 0.907941H11.3502Z" fill="#5B6B79"/>
<path d="M3.63718 20.0105C3.63131 19.0139 4.44264 18.1957 5.44293 18.1903C6.43734 18.1845 7.25934 18.9979 7.26682 19.9955C7.27429 20.983 6.45175 21.8125 5.45787 21.82C4.46773 21.8274 3.64359 21.0081 3.63718 20.011V20.0105ZM4.54192 20.0003C4.54086 20.4951 4.95239 20.9088 5.4472 20.9109C5.94093 20.9131 6.3562 20.4994 6.35781 20.0046C6.35941 19.5109 5.94574 19.0961 5.45147 19.0951C4.95613 19.094 4.54299 19.5055 4.54192 20.0009V20.0003Z" fill="#5B6B79"/>
<path d="M14.5474 20.0105C14.5416 19.0139 15.3529 18.1957 16.3532 18.1903C17.3476 18.1845 18.1696 18.9979 18.1771 19.9955C18.1845 20.983 17.362 21.8125 16.3681 21.82C15.378 21.8274 14.5538 21.0081 14.5474 20.011V20.0105ZM15.4522 20.0078C15.4554 20.5021 15.8733 20.9157 16.3654 20.9115C16.8613 20.9072 17.2729 20.4898 17.2681 19.9971C17.2632 19.5013 16.849 19.0919 16.3542 19.0951C15.8589 19.0983 15.449 19.5125 15.4516 20.0078H15.4522Z" fill="#5B6B79"/>
<path d="M10.4604 6.19439C10.6461 5.99796 10.8126 5.81435 10.9877 5.63874C11.7195 4.90374 12.4535 4.17141 13.1874 3.43907C13.2525 3.37449 13.3208 3.31044 13.3972 3.26079C13.5717 3.14657 13.7996 3.17379 13.9453 3.31577C14.0937 3.46042 14.1258 3.6814 14.0142 3.86182C13.9662 3.93922 13.9021 4.00807 13.837 4.07266C12.8538 5.058 11.869 6.04227 10.8842 7.02654C10.5596 7.35053 10.3397 7.3516 10.0173 7.02974C9.62501 6.63849 9.22468 6.25471 8.84784 5.84904C8.74215 5.73535 8.64501 5.5512 8.65622 5.40815C8.66636 5.27791 8.80514 5.11991 8.92951 5.04519C9.0907 4.94857 9.27646 5.01263 9.41577 5.14714C9.63035 5.35477 9.83958 5.56721 10.0504 5.77805C10.1759 5.90349 10.2992 6.03052 10.4604 6.19439Z" fill="#5B6B79"/>
</svg>
