<svg width="20" height="17" viewBox="0 0 20 17" fill="none" xmlns="http://www.w3.org/2000/svg">
<path d="M19.9988 8.43853C19.883 8.64911 19.7072 8.71643 19.4673 8.71604C16.8761 8.70978 14.285 8.71213 11.6943 8.71213C11.6618 8.71213 11.6293 8.71291 11.5968 8.71213C11.3447 8.70391 11.1733 8.54695 11.1721 8.32307C11.1709 8.09879 11.342 7.93439 11.5929 7.93244C12.0681 7.92891 12.5432 7.93126 13.0188 7.93126C13.0892 7.93126 13.1597 7.93126 13.2317 7.93126C13.1256 6.60203 11.9193 5.0219 9.94817 5.05322C7.96058 5.08492 6.84545 6.71476 6.76991 7.93126C7.26465 7.93126 7.75861 7.93126 8.25218 7.93126C8.32381 7.93126 8.39583 7.92735 8.46707 7.934C8.66825 7.95357 8.81855 8.11288 8.8256 8.30741C8.83265 8.5086 8.68274 8.68277 8.4745 8.70782C8.41031 8.71565 8.34456 8.71213 8.27958 8.71213C5.70136 8.71213 3.12352 8.71213 0.545296 8.71213C0.186763 8.71213 0.00358262 8.58257 5.99203e-05 8.3262C-0.00385419 8.06473 0.184023 7.93087 0.553907 7.93087C0.918311 7.93087 1.28271 7.93087 1.67843 7.93087V7.15353C1.67843 6.41141 1.71131 6.37893 2.44403 6.37736C2.61234 6.37697 2.81939 6.42394 2.93721 6.34409C3.04446 6.27129 3.0472 6.05249 3.1106 5.90414C3.26365 5.546 3.42099 5.18943 3.58656 4.83677C3.62883 4.74635 3.63275 4.69077 3.55603 4.61914C3.38498 4.45905 3.22098 4.29114 3.05816 4.12283C2.85462 3.91264 2.85423 3.70089 3.06246 3.49149C3.76035 2.79008 4.46019 2.09023 5.16121 1.39196C5.3847 1.16963 5.59333 1.17198 5.82074 1.39861C6.0094 1.58649 6.19179 1.78024 6.34288 1.9368C6.90886 1.71683 7.43492 1.51486 7.95745 1.3035C8.00364 1.28471 8.04865 1.2029 8.05139 1.14811C8.06196 0.920697 8.05335 0.692504 8.05648 0.464703C8.06117 0.144529 8.20639 0.00127209 8.52695 0.000880675C9.51018 -0.000293558 10.493 -0.000293558 11.4762 0.000880675C11.7933 0.00127209 11.9373 0.147269 11.942 0.4694C11.9451 0.697201 11.9377 0.925394 11.9467 1.1528C11.9487 1.20369 11.9862 1.28158 12.0273 1.29802C12.5557 1.51055 13.0881 1.71448 13.6591 1.93602C13.811 1.77828 13.993 1.58375 14.1817 1.39548C14.4067 1.17081 14.6154 1.17003 14.8412 1.3947C15.5379 2.08828 16.2331 2.78303 16.9266 3.47974C17.1501 3.70441 17.1486 3.91382 16.9239 4.14005C16.7364 4.32911 16.5427 4.51229 16.3853 4.66494C16.6057 5.23327 16.8096 5.76598 17.0225 6.29438C17.039 6.33509 17.118 6.3711 17.1693 6.37305C17.3967 6.38167 17.6249 6.37423 17.8527 6.37736C18.1733 6.38167 18.3181 6.52688 18.3197 6.8451C18.3216 7.19619 18.3201 7.54768 18.3201 7.92931C18.5056 7.92931 18.6849 7.92931 18.8641 7.92931C19.0661 7.92931 19.2688 7.94144 19.4692 7.92617C19.7104 7.90778 19.8853 7.99115 20 8.2029V8.43736L19.9988 8.43853ZM5.95499 7.925C6.2235 5.73936 7.9735 4.31697 9.89611 4.26961C10.8386 4.24652 11.695 4.51972 12.4442 5.09432C13.373 5.80668 13.8924 6.7582 14.0357 7.916H17.522V7.15901C17.2726 7.15901 17.039 7.16057 16.8057 7.15862C16.5227 7.15588 16.4029 7.06624 16.3368 6.7903C16.1763 6.12059 15.9113 5.4959 15.5555 4.90761C15.415 4.6755 15.4354 4.5252 15.6283 4.33185C15.7982 4.16197 15.9747 3.99875 16.1376 3.84297C15.5771 3.28365 15.0357 2.7435 14.4776 2.18691C14.3257 2.34426 14.166 2.51531 14.0004 2.68009C13.7914 2.88832 13.6454 2.90633 13.393 2.75328C12.8106 2.40023 12.1902 2.14033 11.5267 1.9822C11.2531 1.91723 11.1635 1.79628 11.1612 1.51095C11.1592 1.27218 11.1608 1.03381 11.1608 0.792314H8.83656C8.83656 1.04164 8.83852 1.2808 8.83617 1.51995C8.83343 1.79276 8.74536 1.91488 8.48077 1.97907C7.81184 2.14151 7.18559 2.40219 6.5969 2.75798C6.34562 2.90985 6.20432 2.88793 5.99178 2.67265C5.82817 2.5067 5.67239 2.33291 5.54049 2.19239C4.96981 2.7572 4.42692 3.295 3.88169 3.83436C3.88051 3.8324 3.88599 3.84454 3.89499 3.85354C4.03708 3.9968 4.17994 4.13927 4.32202 4.28253C4.57566 4.53773 4.5921 4.66063 4.40813 4.96671C4.07074 5.528 3.82258 6.12568 3.66797 6.76212C3.59243 7.07251 3.48245 7.15744 3.16227 7.15901C2.93095 7.16018 2.70001 7.15901 2.47456 7.15901V7.92461H5.95577L5.95499 7.925Z" fill="#5B6B79"/>
<path d="M12.1592 12.1879C12.1178 12.2579 12.0743 12.3268 12.0344 12.3977C11.5537 13.2537 11.0746 14.1109 10.5924 14.9661C10.3905 15.3238 10.0445 15.3203 9.83857 14.963C9.82566 14.9403 9.81313 14.9176 9.80021 14.8949C9.32269 14.0443 8.84556 13.1938 8.36765 12.3436C8.33712 12.2896 8.30346 12.2372 8.23613 12.1894V12.393C8.23613 13.5257 8.23692 14.6581 8.23496 15.7908C8.23496 15.8804 8.22948 15.9748 8.20208 16.0593C8.14728 16.23 7.97937 16.329 7.80597 16.311C7.62319 16.2918 7.48071 16.1529 7.45879 15.9701C7.4541 15.9313 7.45527 15.8922 7.45527 15.853C7.45527 14.1281 7.45449 12.4031 7.45527 10.6782C7.45527 10.369 7.64276 10.1678 7.90226 10.2386C8.02751 10.2727 8.16059 10.3913 8.22713 10.5079C8.85339 11.6027 9.46634 12.7053 10.0832 13.8056C10.1212 13.8733 10.1615 13.9402 10.2132 14.0291C10.2593 13.9543 10.3 13.8932 10.3361 13.8294C10.947 12.7409 11.5577 11.652 12.1683 10.5631C12.2031 10.5009 12.2352 10.4359 12.2778 10.3788C12.3827 10.2375 12.5299 10.1944 12.6939 10.2382C12.8607 10.2825 12.9569 10.3995 12.9726 10.5745C12.9785 10.639 12.9773 10.7044 12.9773 10.7694C12.9773 12.4356 12.9773 14.1023 12.9773 15.7685C12.9773 16.1298 12.8489 16.3118 12.5941 16.3149C12.333 16.318 12.1964 16.1278 12.1964 15.7583C12.1964 14.6389 12.1964 13.5191 12.1964 12.3996V12.1961C12.1839 12.1933 12.1714 12.1906 12.1589 12.1883L12.1592 12.1879Z" fill="#5B6B79"/>
<path d="M2.33561 13.2521C2.33561 12.6736 2.29177 12.0908 2.34657 11.5178C2.41898 10.7549 3.10395 10.1713 3.86955 10.16C4.28445 10.1541 4.70756 10.1369 5.11385 10.205C5.83052 10.3251 6.36284 11.0031 6.36949 11.7197C6.37184 11.9796 6.23015 12.1479 6.00157 12.1565C5.77064 12.1652 5.61681 12.0153 5.5902 11.7554C5.5354 11.2246 5.2207 10.9381 4.68838 10.9357C4.44101 10.9346 4.19364 10.933 3.94666 10.9361C3.46992 10.9428 3.1016 11.2751 3.09534 11.7479C3.08242 12.7628 3.08164 13.7782 3.09612 14.7931C3.10278 15.251 3.45857 15.5798 3.91652 15.5935C4.19599 15.6018 4.47624 15.6014 4.75571 15.5943C5.22344 15.5822 5.55066 15.2718 5.58706 14.8068C5.60272 14.6064 5.67591 14.4514 5.87592 14.388C6.12995 14.3077 6.36597 14.4999 6.37028 14.7825C6.38241 15.5888 5.70175 16.3274 4.89544 16.3689C4.57096 16.3857 4.24491 16.3834 3.91965 16.3752C3.00571 16.3513 2.32739 15.6695 2.31095 14.7551C2.30195 14.2541 2.30939 13.7531 2.30939 13.2521C2.31839 13.2521 2.32739 13.2521 2.33639 13.2521H2.33561Z" fill="#5B6B79"/>
<path d="M15.8409 9.9803C16.4288 9.99126 16.9129 10.2206 17.2856 10.6758C17.4672 10.8974 17.4566 11.1283 17.2691 11.2802C17.0832 11.4305 16.8664 11.3886 16.6769 11.1663C16.3599 10.794 15.8921 10.6657 15.4635 10.8336C15.0365 11.0007 14.7754 11.4097 14.7962 11.8794C14.8154 12.3174 15.1124 12.703 15.5426 12.8259C15.6784 12.8646 15.824 12.8756 15.9661 12.8842C16.8186 12.9358 17.54 13.5919 17.6586 14.4283C17.7846 15.3184 17.2938 16.1505 16.471 16.4429C15.6444 16.7368 14.7277 16.4147 14.2783 15.6718C14.1214 15.4127 14.1519 15.1853 14.3605 15.0569C14.5696 14.9285 14.7766 15.0005 14.9449 15.2604C15.222 15.6883 15.6984 15.8683 16.163 15.7215C16.6053 15.5814 16.9114 15.1634 16.9063 14.7058C16.9012 14.2306 16.5744 13.8095 16.1086 13.694C15.9775 13.6615 15.8381 13.66 15.7023 13.6474C14.6944 13.5543 13.9781 12.7398 14.0161 11.7295C14.0525 10.7612 14.8482 9.99831 15.8413 9.9803H15.8409Z" fill="#5B6B79"/>
<path d="M9.9971 7.93205C10.2049 7.93166 10.3815 8.1031 10.3873 8.31015C10.3932 8.52465 10.2135 8.70978 9.99905 8.71017C9.78456 8.71057 9.60412 8.5266 9.60921 8.31211C9.6139 8.10466 9.78965 7.93244 9.99749 7.93205H9.9971Z" fill="#5B6B79"/>
</svg>
