<svg width="16" height="20" viewBox="0 0 16 20" fill="none" xmlns="http://www.w3.org/2000/svg">
<path d="M7.08191 0C7.3364 0.0584375 7.59614 0.099135 7.8438 0.178443C9.40333 0.678292 10.396 2.05627 10.4097 3.72904C10.4123 4.03271 10.4097 4.3369 10.4097 4.66456C10.7336 4.66456 11.0333 4.66926 11.333 4.66352C11.7968 4.65413 12.1943 4.79605 12.4498 5.19259C12.5587 5.36164 12.6454 5.57191 12.6607 5.76966C12.7806 7.30729 12.8805 8.84597 12.9877 10.3841C13.0471 11.2346 13.1081 12.0846 13.1681 12.935C13.1754 13.0389 13.1844 13.1432 13.1828 13.247C13.1796 13.4458 13.0414 13.5878 12.8557 13.5904C12.6728 13.593 12.5308 13.4589 12.5145 13.2575C12.4877 12.9335 12.4656 12.6084 12.443 12.2839C12.2958 10.1546 12.1485 8.02576 12.0024 5.89645C11.9782 5.54739 11.7778 5.34494 11.4256 5.33607C11.0985 5.32825 10.7715 5.33451 10.4271 5.33451V6.67126C10.5401 6.67126 10.65 6.66552 10.7588 6.67283C10.9413 6.68483 11.0691 6.81266 11.0775 6.98276C11.0864 7.15129 10.9718 7.31721 10.7925 7.32242C10.3145 7.33755 9.83554 7.33756 9.35758 7.32347C9.17776 7.31825 9.06156 7.15494 9.06787 6.98693C9.0747 6.80953 9.20668 6.68222 9.40228 6.67126C9.50533 6.66552 9.60839 6.67022 9.72354 6.67022V5.34964H3.70468V6.67022C3.80827 6.67022 3.9108 6.66552 4.0128 6.67126C4.20787 6.6817 4.34038 6.80953 4.34774 6.98589C4.3551 7.1612 4.22996 7.32242 4.03962 7.32764C3.58112 7.34016 3.12157 7.33964 2.66254 7.32764C2.46905 7.32242 2.34969 7.16955 2.35442 6.98902C2.35915 6.80692 2.4843 6.68326 2.68305 6.67179C2.78663 6.66605 2.89074 6.67074 3.00852 6.67074V5.35068C2.61575 5.35068 2.23033 5.33503 1.84702 5.35694C1.62882 5.36946 1.46161 5.57034 1.43637 5.8187C1.39378 6.23924 1.37012 6.66187 1.34068 7.08346C1.19818 9.12825 1.05622 11.173 0.913724 13.2173C0.833802 14.3662 0.752828 15.5151 0.673958 16.6641C0.643462 17.1076 0.866927 17.333 1.33489 17.3335C3.55851 17.334 5.78213 17.3335 8.00522 17.3335C8.07725 17.3335 8.14981 17.3304 8.22132 17.3371C8.39011 17.3533 8.52156 17.4801 8.52524 17.6419C8.52892 17.8088 8.44952 17.9309 8.28232 17.9779C8.21449 17.9967 8.14035 17.9987 8.06884 17.9987C5.81262 17.9998 3.55641 18.0008 1.29966 17.9987C0.477308 17.9982 -0.0521749 17.4373 0.00408594 16.6229C0.167085 14.2728 0.334816 11.9239 0.498866 9.57383C0.584046 8.35343 0.668174 7.13302 0.747045 5.91262C0.797522 5.13415 1.28284 4.66978 2.06786 4.66456C2.37545 4.66248 2.68305 4.66456 3.02166 4.66456C3.02166 4.37238 3.00326 4.09375 3.02587 3.81878C3.059 3.41911 3.0632 3.00327 3.18309 2.62708C3.65421 1.15049 4.68478 0.291144 6.22433 0.0344364C6.26166 0.0281752 6.29741 0.0120006 6.33422 0C6.58345 0 6.83268 0 7.08191 0ZM9.7267 4.65778C9.7267 4.24924 9.7451 3.86 9.72354 3.47233C9.62048 1.59816 7.77018 0.25149 5.95091 0.772731C3.9313 1.35137 3.52854 3.00536 3.72256 4.65778H9.7267Z" fill="#5B6B79"/>
<path d="M13.3348 16.3541C13.7848 16.8618 14.2218 17.3544 14.6582 17.8474C14.745 17.945 14.8338 18.041 14.9164 18.1417C15.1877 18.4725 15.1756 18.8769 14.8796 19.1842C14.694 19.3772 14.5026 19.5646 14.3085 19.7498C13.9457 20.0962 13.4862 20.0827 13.1486 19.7106C12.6707 19.1831 12.199 18.6504 11.7247 18.1198C11.6422 18.0274 11.5591 17.9361 11.4661 17.8328C11.1921 18.0483 10.9271 18.2586 10.66 18.4668C10.1337 18.8784 9.54056 18.6953 9.35758 18.0608C8.9401 16.6119 8.52787 15.1614 8.11038 13.7125C8.01574 13.3843 8.05465 13.0889 8.32175 12.8573C8.59465 12.6204 8.89646 12.6241 9.22035 12.766C10.6574 13.3968 12.0975 14.0203 13.5356 14.6485C14.2097 14.9428 14.2943 15.5877 13.7217 16.0468C13.5992 16.1449 13.4762 16.2414 13.3342 16.3547L13.3348 16.3541ZM13.7417 19.3465C13.798 19.3011 13.8406 19.2713 13.8769 19.2353C14.022 19.0939 14.1587 18.9437 14.3112 18.8111C14.4416 18.6979 14.4516 18.6155 14.3285 18.4793C13.7712 17.8657 13.2259 17.2422 12.6759 16.6223C12.4393 16.3562 12.453 16.2002 12.7364 15.9743C12.9304 15.8199 13.1276 15.6685 13.32 15.512C13.4667 15.3931 13.462 15.3461 13.2885 15.2704C11.8394 14.637 10.3903 14.0046 8.93905 13.3759C8.88699 13.3535 8.81864 13.3676 8.75817 13.3644C8.75817 13.4197 8.7466 13.4782 8.7608 13.5298C9.1704 14.9736 9.5821 16.4162 9.99486 17.8589C10.0474 18.0431 10.0942 18.0577 10.2493 17.9366C10.579 17.6794 10.905 17.418 11.2347 17.1608C11.4576 16.9865 11.608 16.9985 11.7984 17.2004C11.8388 17.2432 11.8772 17.2876 11.9161 17.3314C12.4724 17.9544 13.0282 18.5779 13.5856 19.1998C13.6313 19.251 13.686 19.2943 13.7417 19.3459V19.3465Z" fill="#5B6B79"/>
<path d="M9.7267 4.65778L3.72309 4.65778C3.52906 3.00535 3.93183 1.35136 5.95143 0.772729C7.77071 0.251487 9.62101 1.59816 9.72407 3.47233C9.7451 3.86 9.72722 4.24924 9.72722 4.65778L9.7267 4.65778Z" fill="white"/>
</svg>
