<svg width="24" height="21" viewBox="0 0 24 21" fill="none" xmlns="http://www.w3.org/2000/svg">
<path d="M0.00295234 14.6311C0.00295234 14.1212 0.00295234 13.6105 0.00295234 13.1006C0.00295234 12.8506 0.0821173 12.6395 0.328848 12.5425C1.10005 12.2403 1.4365 11.6149 1.55525 10.8543C1.65288 10.2269 1.54073 9.62459 1.18317 9.08429C0.987896 8.7894 0.738527 8.55586 0.399437 8.43382C0.122359 8.33354 0.00229264 8.13299 0.00295234 7.84668C0.00361205 7.18037 -0.0056238 6.51341 0.00559124 5.8471C0.0201048 5.00795 0.537976 4.37925 1.36063 4.19717C1.51104 4.16419 1.57504 4.09294 1.61924 3.95308C1.81055 3.35011 2.01308 2.75109 2.21231 2.15076C2.53557 1.17637 3.39319 0.748219 4.36164 1.08335C7.24061 2.08017 10.1183 3.08161 12.9985 4.07645C13.1351 4.12329 13.2855 4.15033 13.43 4.15033C16.0715 4.15495 18.7129 4.17474 21.3537 4.14242C22.3367 4.13054 23.2253 4.84039 23.191 5.97904C23.1732 6.5708 23.1798 7.16388 23.191 7.7563C23.1976 8.10132 23.0703 8.31771 22.7385 8.46021C22.0511 8.75641 21.7535 9.35741 21.6401 10.0514C21.5332 10.7052 21.6473 11.3306 22.0293 11.8887C22.2193 12.1664 22.4601 12.3874 22.7813 12.5029C23.0696 12.6065 23.189 12.8123 23.1884 13.1085C23.1864 14.1126 23.1943 15.116 23.1858 16.1201C23.1778 16.9863 22.6501 17.6255 21.8076 17.801C21.6691 17.83 21.6031 17.8868 21.5602 18.024C21.3729 18.619 21.1723 19.2108 20.9751 19.8026C20.6538 20.7644 19.8054 21.1886 18.8429 20.8614C15.9666 19.8824 13.0916 18.8988 10.2146 17.9217C10.0701 17.8729 9.91111 17.8459 9.75871 17.8459C7.12582 17.8413 4.49292 17.8426 1.86003 17.8426C0.691688 17.8426 0.00559121 17.1565 0.00427179 15.9881C0.00427179 15.5356 0.00427179 15.083 0.00427179 14.6305L0.00295234 14.6311ZM4.74295 5.2085C3.67555 5.2085 2.64046 5.19795 1.60604 5.2151C1.29466 5.22038 1.07762 5.47371 1.07102 5.78971C1.05914 6.35706 1.06178 6.92506 1.0697 7.49241C1.07036 7.55772 1.12446 7.64744 1.18053 7.68373C2.16547 8.31969 2.61144 9.25779 2.63321 10.3912C2.65564 11.5819 2.22155 12.5728 1.19241 13.2536C1.12314 13.2992 1.07102 13.4232 1.0697 13.5109C1.06046 14.358 1.06244 15.2057 1.06508 16.0534C1.0664 16.5779 1.28872 16.795 1.82309 16.7956C2.71171 16.7969 3.60034 16.7956 4.48897 16.7956C4.56813 16.7956 4.6473 16.7956 4.74427 16.7956C4.74427 16.605 4.73966 16.4493 4.74493 16.2936C4.75747 15.9373 4.97187 15.7097 5.28391 15.7157C5.58606 15.721 5.79057 15.9439 5.8031 16.289C5.80904 16.4506 5.80442 16.6122 5.80442 16.7956C5.93505 16.7956 6.03202 16.7956 6.129 16.7956C11.181 16.7956 16.2331 16.7956 21.2851 16.7956C21.359 16.7956 21.4336 16.7983 21.5075 16.793C21.8868 16.7666 22.119 16.539 22.1223 16.159C22.1302 15.2625 22.1276 14.3653 22.1223 13.4687C22.1223 13.4001 22.0827 13.3005 22.0293 13.2668C21.0786 12.6705 20.6234 11.7805 20.5654 10.694C20.4988 9.4557 20.9137 8.4193 21.9811 7.70022C22.057 7.64942 22.1177 7.52078 22.1203 7.42644C22.1342 6.94156 22.1276 6.45601 22.1263 5.97047C22.1249 5.40906 21.9145 5.20125 21.3471 5.20125C16.2621 5.20125 11.1771 5.20125 6.09272 5.20125C6.00497 5.20125 5.91723 5.20125 5.8064 5.20125C5.8064 5.31999 5.8064 5.40906 5.8064 5.49812C5.80508 5.9797 5.61707 6.23567 5.2694 6.23105C4.92899 6.22643 4.74625 5.97574 4.74493 5.51065C4.74493 5.42093 4.74493 5.33055 4.74493 5.2085H4.74295ZM9.85833 4.1444C9.82402 4.11405 9.81017 4.09162 9.79038 4.08502C7.8383 3.40552 5.88689 2.72338 3.93217 2.05114C3.60232 1.93767 3.35427 2.07687 3.2375 2.41464C3.05608 2.94175 2.88324 3.47281 2.70907 4.00256C2.69456 4.04544 2.69456 4.0936 2.6873 4.14506H9.85833V4.1444ZM20.51 17.8617H13.4043C14.0989 18.1309 14.7976 18.3703 15.4962 18.6092C16.7318 19.0314 17.9675 19.4542 19.2044 19.8738C19.5362 19.9866 19.7922 19.92 19.8964 19.6449C20.1174 19.0644 20.3028 18.47 20.51 17.8617Z" fill="#5B6B79"/>
<path d="M16.7642 8.53937C16.6896 8.65944 16.6316 8.80853 16.5273 8.91343C14.8906 10.5587 13.2492 12.1994 11.6052 13.8381C11.3512 14.0915 11.0366 14.0968 10.8175 13.8705C10.5972 13.6435 10.6137 13.3453 10.8743 13.0834C11.9371 12.0167 13.0038 10.9526 14.0686 9.88782C14.6445 9.31189 15.2185 8.73267 15.7977 8.1607C16.0814 7.88033 16.4818 7.91265 16.6593 8.22601C16.7061 8.30848 16.7213 8.40941 16.7635 8.54003L16.7642 8.53937Z" fill="#5B6B79"/>
<path d="M11.1962 10.1926C10.2542 10.1926 9.479 9.42074 9.48164 8.48528C9.48428 7.55245 10.268 6.77597 11.2035 6.77993C12.1304 6.78389 12.893 7.54783 12.8996 8.48C12.9062 9.42206 12.1403 10.1926 11.1962 10.1926ZM11.2048 7.83612C10.8354 7.82953 10.5464 8.11386 10.5444 8.48462C10.5431 8.84614 10.8123 9.12981 11.1705 9.14367C11.5353 9.15752 11.8355 8.87384 11.8434 8.50639C11.8513 8.13431 11.5736 7.84272 11.2041 7.83546L11.2048 7.83612Z" fill="#5B6B79"/>
<path d="M16.2179 11.8029C17.1613 11.8062 17.9219 12.5755 17.9167 13.5202C17.9114 14.4457 17.1395 15.215 16.214 15.2176C15.2792 15.2202 14.504 14.4424 14.5047 13.5037C14.5053 12.559 15.2706 11.7996 16.2179 11.8029ZM16.2008 14.1568C16.5695 14.1614 16.8644 13.8738 16.8657 13.5076C16.8671 13.1547 16.5847 12.8631 16.2298 12.8532C15.863 12.8426 15.5622 13.1257 15.5529 13.4905C15.5437 13.854 15.8333 14.1515 16.2008 14.1568Z" fill="#5B6B79"/>
<path d="M4.74493 8.09406C4.74493 7.91396 4.73636 7.7332 4.74691 7.5531C4.76538 7.22787 4.97649 7.02006 5.2727 7.0194C5.56957 7.01874 5.78859 7.22457 5.79981 7.55047C5.81366 7.92716 5.81432 8.30451 5.79915 8.6812C5.78595 9.0038 5.56033 9.20831 5.26346 9.20303C4.97847 9.19841 4.76868 8.99457 4.74823 8.68384C4.73504 8.48791 4.74559 8.29066 4.74559 8.09406H4.74493Z" fill="#5B6B79"/>
<path d="M5.80311 10.9902C5.80311 11.1703 5.81234 11.351 5.80179 11.5311C5.782 11.857 5.57089 12.0649 5.27534 12.0655C4.98045 12.0655 4.76011 11.8564 4.74889 11.5325C4.7357 11.1558 4.73504 10.7784 4.74955 10.4017C4.76143 10.089 4.97517 9.8865 5.26149 9.88122C5.55967 9.87528 5.7787 10.0785 5.80047 10.4004C5.81366 10.5963 5.80311 10.7936 5.80311 10.9902Z" fill="#5B6B79"/>
<path d="M4.74559 13.8309C4.74559 13.6422 4.7357 13.4535 4.74757 13.2655C4.76868 12.9423 4.98441 12.7384 5.2826 12.7424C5.56957 12.7463 5.78595 12.9462 5.79849 13.2589C5.81366 13.6435 5.81432 14.0295 5.79783 14.4141C5.78463 14.7241 5.56231 14.926 5.27732 14.9273C4.98375 14.9293 4.7667 14.7182 4.74691 14.3963C4.7357 14.2082 4.74493 14.0196 4.74493 13.8309H4.74559Z" fill="#5B6B79"/>
</svg>
