<svg width="21" height="21" viewBox="0 0 21 21" fill="none" xmlns="http://www.w3.org/2000/svg">
<path d="M20.8379 12.7123C20.7971 13.0881 20.759 13.464 20.7155 13.8393C20.5958 14.876 20.4881 15.916 20.1895 16.9217C20.1248 17.1404 20.028 17.3531 19.9203 17.5543C19.8256 17.7311 19.6662 17.8415 19.4498 17.8018C19.1974 17.7556 18.9428 17.7143 18.698 17.6403C18.5604 17.5984 18.4761 17.6207 18.3755 17.7137C17.6183 18.4143 16.8568 19.1094 16.097 19.8068C15.4796 20.3735 14.7779 20.4584 13.9985 20.2049C12.4401 19.698 10.8856 19.1709 9.2641 18.8957C8.98289 18.8478 8.68373 18.9006 8.39327 18.912C7.69214 18.9397 6.99536 18.9283 6.32035 18.7042C5.83462 18.5432 5.42232 18.2935 5.20583 17.7964C5.18516 17.7491 5.07801 17.717 5.0111 17.7164C3.98634 17.7115 2.96211 17.7132 1.93735 17.7132C1.58434 17.7132 1.23187 17.7164 0.878857 17.7126C0.332206 17.7066 0.00258367 17.3814 0.00203974 16.8342C-0.000679914 14.8118 -0.000679914 12.79 0.00203974 10.7677C0.00258367 10.2347 0.33547 9.89742 0.862539 9.89688C3.34559 9.8947 5.82918 9.8947 8.31222 9.89688C8.76151 9.89688 8.97582 10.0698 9.17163 10.5697C9.62418 10.2972 10.0626 10.0008 10.5309 9.76198C10.9323 9.55692 11.3648 9.41006 11.7896 9.25449C11.968 9.18922 12.0893 9.10763 12.1393 8.91019C12.191 8.70784 12.2884 8.51801 12.3531 8.31839C12.3694 8.2678 12.3596 8.17316 12.3248 8.14651C11.5959 7.58517 11.2718 6.79592 11.1091 5.93379C10.9976 5.34363 10.9563 4.73986 10.8818 4.12957C10.8426 4.16765 10.7735 4.2166 10.73 4.28187C10.6441 4.41079 10.5761 4.55221 10.4923 4.6833C10.4064 4.81819 10.2829 4.87911 10.1268 4.81221C9.97611 4.74748 9.90268 4.62564 9.95925 4.46681C10.1235 4.00392 10.3862 3.62481 10.8578 3.41811C10.9427 3.38112 11.0297 3.2892 11.0618 3.20217C11.2794 2.61364 11.5589 2.06155 11.9353 1.55623C12.6049 0.658204 13.4953 0.272556 14.6055 0.350339C15.2185 0.393309 15.7994 0.527116 16.3086 0.887199C16.9917 1.37075 17.3268 2.06481 17.4084 2.86928C17.4601 3.37786 17.4122 3.89623 17.4122 4.41024C17.4122 4.48095 17.4149 4.562 17.447 4.62129C17.6613 5.01509 17.6287 5.40727 17.3823 5.75538C17.2055 6.00559 16.9553 6.20304 16.7399 6.42605C16.6708 6.49731 16.6012 6.57074 16.5457 6.65233C16.3292 6.97053 16.1138 7.29036 15.9082 7.61563C15.8674 7.67981 15.8397 7.77772 15.856 7.84843C15.9158 8.10517 16.0056 8.35538 16.0681 8.61157C16.1046 8.76169 16.1791 8.85416 16.3173 8.92759C17.5792 9.60207 18.8188 10.3135 19.9942 11.1338C20.4049 11.4199 20.7775 11.7212 20.8384 12.2624V12.7101L20.8379 12.7123ZM9.15967 16.1211C9.21025 16.1385 9.24724 16.157 9.2864 16.1635C10.9508 16.4431 12.6147 16.7243 14.2808 16.9925C14.3896 17.0099 14.5413 16.9582 14.6267 16.8848C14.7681 16.7635 14.896 16.6117 14.9868 16.4491C15.2006 16.0656 15.4132 15.6778 15.5813 15.2731C15.8332 14.6672 16.0464 14.0449 16.2759 13.4292C16.2971 13.3721 16.314 13.3133 16.3379 13.2573C16.4114 13.0832 16.5544 13.0071 16.7073 13.0577C16.8742 13.1126 16.9569 13.2671 16.8917 13.4482C16.6529 14.1107 16.4119 14.7727 16.1579 15.4292C16.1008 15.5766 16.1274 15.6441 16.2563 15.7169C16.5158 15.8633 16.7649 16.0286 17.0238 16.1771C17.6586 16.5421 18.2961 16.9033 19.0021 17.117C19.403 17.2383 19.4215 17.2351 19.5379 16.8325C19.9567 15.3835 20.0715 13.8888 20.1868 12.3946C20.2085 12.1134 20.0519 11.9149 19.8316 11.7713C19.0761 11.2801 18.3157 10.796 17.5563 10.3103C17.5009 10.2749 17.4399 10.2466 17.3714 10.2102C17.3268 10.2749 17.2871 10.3282 17.2512 10.3837C16.9678 10.8221 16.6817 11.2589 16.4027 11.7C16.0273 12.2924 16.0486 12.2994 15.4094 11.9616C15.0401 11.7664 14.6659 11.5809 14.2879 11.3878C14.2509 11.4454 14.2231 11.483 14.2003 11.5232C13.8979 12.053 13.6025 12.5872 13.2887 13.1104C13.2343 13.2007 13.089 13.3128 13.0129 13.2959C12.9057 13.272 12.8192 13.1403 12.7338 13.0462C12.7056 13.0147 12.7056 12.957 12.693 12.9113C12.5516 12.3908 12.4102 11.8708 12.2606 11.3187C11.9778 11.564 11.7216 11.7925 11.4578 12.0133C11.1787 12.2472 10.9253 12.1542 10.8551 11.7957C10.7675 11.3459 10.6849 10.8955 10.5929 10.4087C10.1572 10.6823 9.74874 10.9456 9.33264 11.1952C9.19937 11.2752 9.15532 11.3677 9.15586 11.5221C9.16184 12.988 9.15967 14.4534 9.15967 15.9193C9.15967 15.9867 9.15967 16.0536 9.15967 16.1216V16.1211ZM3.38475 17.1089V10.4756C2.56776 10.4756 1.76818 10.4756 0.968606 10.4756C0.623753 10.4756 0.574799 10.5251 0.574799 10.8792C0.574799 12.8249 0.574799 14.7705 0.574799 16.7156C0.574799 16.77 0.572624 16.8244 0.577519 16.8782C0.590573 17.0191 0.662916 17.1072 0.810866 17.1078C1.66429 17.1094 2.51827 17.1083 3.38475 17.1083V17.1089ZM15.8315 16.1662C15.7864 16.25 15.7499 16.3387 15.695 16.4148C15.478 16.7161 15.2735 17.0294 15.0292 17.3074C14.8127 17.5533 14.5141 17.6474 14.1785 17.5908C13.1761 17.4211 12.173 17.2557 11.1711 17.0849C10.0283 16.8902 8.88825 16.6813 7.72315 16.6715C7.50285 16.6699 7.37666 16.7406 7.38645 16.8962C7.39896 17.1045 7.55181 17.111 7.71063 17.11C8.05005 17.1072 8.38946 17.1051 8.72833 17.1116C8.9013 17.1148 9.02967 17.2465 9.02749 17.408C9.02532 17.5832 8.92197 17.68 8.75825 17.7153C8.70603 17.7268 8.65 17.7197 8.59561 17.7197C7.74762 17.7197 6.89909 17.7197 6.0511 17.7197C5.98692 17.7197 5.92328 17.7251 5.83244 17.7295C6.00378 17.99 6.24855 18.0874 6.49821 18.1674C7.15528 18.3773 7.83139 18.3833 8.51239 18.3523C8.80938 18.3387 9.11506 18.3093 9.40389 18.3599C11.0438 18.6455 12.6218 19.166 14.1986 19.6827C14.7524 19.8644 15.2283 19.8106 15.6635 19.4015C16.3755 18.7325 17.1005 18.0771 17.8191 17.4156C17.8468 17.3901 17.8696 17.3602 17.8832 17.3444C17.2011 16.9528 16.5261 16.5649 15.831 16.1662H15.8315ZM8.55318 16.0912C8.55699 16.0525 8.56624 15.9998 8.56624 15.947C8.56678 14.232 8.56733 12.5165 8.56624 10.8014C8.56624 10.5512 8.48791 10.4767 8.23498 10.4762C7.53005 10.4751 6.82457 10.4762 6.11964 10.4762C6.0065 10.4762 5.89336 10.4762 5.77478 10.4762V17.092H6.79248C6.71034 16.3898 7.23578 16.0243 7.77264 16.0863C8.02503 16.1156 8.28394 16.0912 8.55373 16.0912H8.55318ZM11.5133 3.91798C11.4931 4.92317 11.5628 5.893 11.9984 6.79375C12.5522 7.93872 13.3262 8.09646 14.3776 7.90609C15.0428 7.78588 15.4758 7.30396 15.7983 6.74643C16.0186 6.36567 16.2308 6.00722 16.6104 5.74831C16.7801 5.63246 16.8922 5.39041 16.9629 5.18262C17.0309 4.983 16.9537 4.91936 16.7355 4.91719C15.658 4.90576 14.5805 4.8938 13.503 4.89325C13.293 4.89325 13.1331 4.83668 12.9748 4.69472C12.563 4.32593 12.1105 4.02133 11.5138 3.91798H11.5133ZM16.846 4.29384C16.846 3.87556 16.8791 3.44803 16.8389 3.02757C16.7584 2.17632 16.3842 1.5013 15.5596 1.1472C14.9797 0.898077 14.3607 0.852931 13.763 0.982387C12.7126 1.21029 12.2361 2.05991 11.7901 2.93619C11.8298 2.94544 11.8434 2.95305 11.8543 2.95087C11.9005 2.94 11.9457 2.92585 11.9914 2.91334C12.4934 2.77301 13.0036 2.71862 13.5204 2.79966C14.4157 2.94054 15.0896 3.43008 15.615 4.1497C15.6607 4.21225 15.7434 4.28459 15.8119 4.28786C16.1361 4.30254 16.4614 4.29438 16.846 4.29438V4.29384ZM5.12859 17.1018V10.4865H4.02659V17.1018H5.12859ZM12.9389 8.4745C12.8192 8.78345 12.6996 9.08479 12.5881 9.38885C12.5685 9.44215 12.5799 9.50905 12.5843 9.56943C12.6446 10.4191 12.841 11.2409 13.0945 12.0508C13.1092 12.0971 13.1276 12.1417 13.1543 12.2129C13.2158 12.108 13.2653 12.0351 13.3033 11.9567C13.7145 11.1137 14.2743 10.3793 14.934 9.71684C15.1157 9.53462 15.2838 9.33826 15.453 9.14353C15.4943 9.09567 15.5487 9.02115 15.5373 8.97328C15.4725 8.69969 15.3893 8.43044 15.3094 8.14977C14.5582 8.60885 13.7755 8.63931 12.9384 8.4745H12.9389ZM16.8645 9.91428C16.5952 9.7647 16.3374 9.61784 16.0752 9.48023C16.042 9.46282 15.9648 9.47696 15.9392 9.5047C15.5188 9.96378 15.1032 10.4272 14.673 10.9048C15.0717 11.1104 15.454 11.3084 15.8533 11.5145C15.8718 11.4868 15.8876 11.4645 15.9017 11.4416C16.2194 10.938 16.5365 10.4343 16.8639 9.91428H16.8645ZM12.2383 3.47958C12.5146 3.65527 12.8214 3.8092 13.076 4.02514C13.3218 4.23401 13.5726 4.31016 13.8853 4.29003C14.2248 4.26828 14.5669 4.28514 14.9297 4.28514C14.277 3.42899 13.1135 3.17661 12.2383 3.47958ZM11.399 11.2714C11.6378 11.0631 11.8429 10.8857 12.0447 10.7057C12.073 10.6807 12.1078 10.6383 12.1045 10.6067C12.08 10.3467 12.0474 10.0878 12.0148 9.8093C11.7156 9.92135 11.4464 10.0225 11.1673 10.1275C11.2446 10.5099 11.3185 10.8732 11.399 11.2708V11.2714Z" fill="#5B6B79"/>
<path d="M12.5402 14.0607C12.5402 14.0204 12.5375 13.9796 12.5402 13.9394C12.5571 13.7185 12.6756 13.5934 12.8595 13.6C13.0384 13.6065 13.1429 13.7425 13.1407 13.9704C13.1402 14.0514 13.1429 14.1336 13.1276 14.2124C13.0945 14.3816 12.9998 14.4974 12.8133 14.4942C12.6479 14.4915 12.5364 14.3528 12.5326 14.1613C12.532 14.1276 12.5326 14.0938 12.5326 14.0601H12.5391L12.5402 14.0607Z" fill="#5B6B79"/>
<path d="M12.4075 15.3106C12.4075 15.297 12.4075 15.2834 12.4075 15.2698C12.4156 14.9739 12.5201 14.839 12.7295 14.8532C12.9405 14.8673 13.0248 15.0028 13.0064 15.3052C13.002 15.3726 13.002 15.4433 12.9808 15.5059C12.928 15.6653 12.8171 15.7556 12.6425 15.7322C12.4722 15.7093 12.402 15.5973 12.4031 15.4325C12.4031 15.3917 12.4031 15.3509 12.4031 15.3106H12.4075Z" fill="#5B6B79"/>
</svg>
