<svg width="25" height="21" viewBox="0 0 25 21" fill="none" xmlns="http://www.w3.org/2000/svg">
<path d="M9.35897 10.0222C6.70954 8.0564 6.52678 4.46031 8.64076 2.24381C10.704 0.0802513 14.1313 0.0986384 16.1751 2.28059C18.2394 4.48427 18.0734 8.04638 15.4702 9.98651C15.9745 10.2395 16.5144 10.4557 16.998 10.761C19.6853 12.4582 21.1095 14.897 21.212 18.0858C21.231 18.6781 21.2182 19.2721 21.2143 19.8649C21.2109 20.3329 20.9457 20.6065 20.4821 20.6305C20.4175 20.6338 20.3523 20.6322 20.2877 20.6322C15.015 20.6322 9.74232 20.6344 4.46964 20.6249C4.25123 20.6249 4.00829 20.5597 3.82442 20.4466C3.69849 20.3697 3.58761 20.158 3.58594 20.0053C3.57146 18.6463 3.4667 17.2784 3.85729 15.9462C4.65686 13.2182 6.35405 11.2825 8.96783 10.157C9.08595 10.1063 9.21132 10.0718 9.35842 10.0211L9.35897 10.0222ZM19.638 19.1929C19.843 16.0537 18.7844 13.5135 16.0369 11.9094C13.403 10.3715 10.699 10.4779 8.16993 12.1813C5.71106 13.8372 4.80061 16.2755 5.00176 19.1929H19.638ZM12.3065 9.37861C14.3909 9.38363 16.0831 7.74382 16.0932 5.70897C16.1032 3.65573 14.4188 1.98416 12.3338 1.97748C10.2494 1.97079 8.54381 3.6379 8.54381 5.68222C8.54381 7.71986 10.2271 9.3736 12.3065 9.37917V9.37861Z" fill="#5B6B79"/>
<path d="M6.83157 2.47338C6.55576 2.99713 6.30001 3.49805 6.02643 3.98893C5.97517 4.08142 5.86484 4.1572 5.76399 4.20345C3.87902 5.07433 3.46113 7.47303 4.97223 8.83647C5.20179 9.04374 5.49153 9.18694 5.76121 9.3463C6.26936 9.64607 6.34403 10.128 5.92001 10.503C5.84478 10.5693 5.71719 10.5782 5.61244 10.6094C5.55115 10.6278 5.48651 10.6356 5.42522 10.6529C2.88221 11.3795 1.17499 13.8974 1.44411 16.5641H2.26764C2.21637 17.0561 2.16957 17.5102 2.11942 17.99C1.61127 17.99 1.10423 18.0072 0.598856 17.9833C0.299645 17.9688 0.0333093 17.693 0.0221656 17.3938C-0.0374536 15.8409 -0.0263099 14.298 0.707507 12.861C1.42907 11.448 2.49553 10.4016 3.94812 9.73187C2.61922 8.21075 2.26819 6.52191 3.25609 4.70046C4.01498 3.3008 5.27088 2.60822 6.83101 2.47282L6.83157 2.47338Z" fill="#5B6B79"/>
<path d="M20.6303 9.57084C23.1689 10.9516 24.539 13.0282 24.5602 15.9384C24.563 16.3463 24.5669 16.7541 24.5563 17.1614C24.5474 17.5108 24.3323 17.8022 24.003 17.8256C23.5082 17.8601 23.009 17.8345 22.5125 17.8345C22.4679 17.4222 22.4239 17.0205 22.3766 16.5831H23.1995C23.3221 14.6362 22.717 13.0198 21.255 11.7533C20.6521 11.2307 19.9561 10.8747 19.1922 10.6434C19.0095 10.5883 18.8245 10.5058 18.6713 10.3938C18.216 10.0606 18.2879 9.43489 18.7989 9.19975C19.9255 8.68101 20.5027 7.78672 20.4899 6.56314C20.4777 5.3507 19.8525 4.50934 18.7409 4.02793C18.6696 3.99728 18.5882 3.94714 18.552 3.88362C18.2835 3.41001 18.0249 2.93027 17.7647 2.45164C17.753 2.42991 17.7569 2.39927 17.7486 2.33575C19.3644 2.47449 20.6248 3.181 21.3603 4.62301C22.2768 6.41938 21.9392 8.08148 20.6298 9.57196L20.6303 9.57084Z" fill="#5B6B79"/>
</svg>
