<svg width="21" height="20" viewBox="0 0 21 20" fill="none" xmlns="http://www.w3.org/2000/svg">
<path d="M0.000489229 18.281C0.000489229 14.9606 0.000489229 11.6407 0.000489229 8.32032C0.10812 8.21024 0.206455 8.08793 0.325826 7.99156C1.07337 7.3854 1.82287 6.78169 2.57824 6.18483C2.69859 6.08943 2.7387 5.99061 2.73821 5.84139C2.73332 4.0787 2.73821 2.31601 2.73185 0.552829C2.73088 0.310171 2.79056 0.121329 3.00876 0H7.96954C8.21807 0.1272 8.31004 0.270054 8.26748 0.463789C8.22051 0.678561 8.06494 0.779342 7.77678 0.780809C7.73764 0.780809 7.69851 0.780809 7.65937 0.780809C6.35068 0.780809 5.04248 0.780809 3.7338 0.780809C3.66481 0.780809 3.59632 0.780809 3.51609 0.780809C3.51609 0.851748 3.51609 0.896268 3.51609 0.941277C3.51609 4.24798 3.51511 7.55516 3.52098 10.8619C3.52098 10.9509 3.57577 11.061 3.64035 11.126C4.63006 12.1251 5.62515 13.1182 6.61976 14.1123C6.65987 14.1524 6.7039 14.1881 6.76163 14.24C7.66817 13.3002 8.75964 12.7845 10.0659 12.7865C9.62118 12.3447 9.19457 11.9206 8.76111 11.4895C8.73567 11.513 8.6936 11.5527 8.65104 11.5913C8.60309 11.6353 8.55613 11.6808 8.50573 11.7219C7.96709 12.1608 7.35507 12.3212 6.67895 12.1622C5.08358 11.787 4.5014 9.86922 5.62026 8.66865C6.04149 8.2166 6.49402 7.79342 6.92504 7.35018C7.0175 7.25527 7.09871 7.13883 7.15106 7.0175C7.98813 5.06401 8.81884 3.10856 9.65151 1.1536C9.83693 0.718677 10.107 0.663395 10.4372 0.993624C10.9759 1.53178 11.515 2.07042 12.0512 2.61102C12.1011 2.66141 12.1339 2.72892 12.1652 2.77491C12.9494 2.39282 13.6539 2.42951 14.2429 3.0205C14.831 3.611 14.8701 4.31549 14.4778 5.10168C15.1338 5.74599 15.8001 6.40058 16.4846 7.07278C16.4846 6.95879 16.4846 6.86388 16.4846 6.76897C16.4846 6.41722 16.4787 6.06595 16.488 5.71468C16.4944 5.47692 16.6715 5.31009 16.8838 5.31596C17.0902 5.32134 17.2468 5.48328 17.2634 5.71273C17.2693 5.79051 17.2727 5.86977 17.2634 5.94658C17.2492 6.06986 17.2967 6.14618 17.3955 6.2225C18.1793 6.82572 18.9566 7.43726 19.7389 8.04292C19.9087 8.17453 20.0031 8.32276 20.0031 8.55221C19.9977 11.6833 20.0002 14.8143 19.9967 17.9459C19.9967 18.1264 19.9782 18.3114 19.9351 18.486C19.713 19.3891 18.9146 19.9992 17.9552 19.9992C12.65 20.0007 7.34431 19.9997 2.03911 19.9997C1.99361 19.9997 1.94811 19.9997 1.90261 19.9972C1.34147 19.9654 0.880612 19.7316 0.502927 19.3182C0.231405 19.0212 0.098335 18.6602 0 18.281H0.000489229ZM17.5438 19.2081C17.4997 19.1616 17.4762 19.1342 17.4493 19.1098C15.7444 17.5609 14.0516 15.9978 12.3295 14.468C10.9768 13.2659 9.10602 13.2449 7.73275 14.419C6.68482 15.3148 5.68386 16.2664 4.66284 17.194C4.64768 17.2077 4.64132 17.2311 4.62224 17.2654C4.7147 17.2654 4.78613 17.2654 4.85707 17.2654C5.41674 17.2654 5.97642 17.262 6.5361 17.2668C6.85116 17.2698 7.03805 17.5056 6.95341 17.7771C6.89911 17.9513 6.74647 18.0452 6.50381 18.0457C5.632 18.0472 4.75971 18.0433 3.8879 18.0506C3.79495 18.0516 3.68292 18.0907 3.61345 18.1509C3.25924 18.4576 2.9158 18.7766 2.56992 19.0927C2.53567 19.1235 2.50877 19.1621 2.46963 19.2076H17.5438V19.2081ZM0.781788 9.43576C0.781788 9.51355 0.781788 9.58449 0.781788 9.65591C0.781788 11.4387 0.781788 13.2214 0.781788 15.0037C0.781788 15.9924 0.781788 16.9816 0.781788 17.9704C0.781788 18.3808 0.942744 18.7115 1.26074 18.9708C1.36642 19.0569 1.44029 19.0706 1.55477 18.9655C3.043 17.6044 4.53662 16.2493 6.03024 14.8941C6.07231 14.8559 6.12661 14.8305 6.15695 14.8109C4.3468 13.0008 2.56943 11.2234 0.781299 9.43527L0.781788 9.43576ZM13.8491 14.783C15.4244 16.214 16.9973 17.6431 18.5765 19.078C19.0119 18.8113 19.2199 18.4386 19.2199 17.94C19.2179 15.1553 19.2189 12.3706 19.2184 9.58644C19.2184 9.53312 19.211 9.4793 19.2071 9.42549C17.42 11.2126 15.6451 12.9876 13.8491 14.7835V14.783ZM13.242 14.2405C13.285 14.2028 13.3056 14.1872 13.3242 14.1691C14.3457 13.148 15.3682 12.128 16.3843 11.1021C16.443 11.0424 16.4797 10.9338 16.4802 10.8477C16.4865 9.74202 16.4846 8.63587 16.4846 7.53021C16.4846 7.46221 16.4846 7.39421 16.4846 7.36192C16.3554 7.44509 16.2336 7.54978 16.0927 7.61045C14.3144 8.37364 12.5331 9.13048 10.7528 9.88927C10.6838 9.91863 10.6163 9.95288 10.5243 9.99593C10.8981 10.3692 11.2557 10.7268 11.6133 11.084C12.0605 11.5306 12.06 11.627 11.6094 12.0776C11.3535 12.333 11.0967 12.5879 10.8124 12.8701C11.7973 13.0634 12.5688 13.5565 13.2425 14.241L13.242 14.2405ZM9.50181 3.49994C8.97539 4.7372 8.45094 5.97495 7.92062 7.20977C7.87561 7.31446 7.89909 7.37219 7.97296 7.44558C8.58695 8.05516 9.19897 8.6662 9.80659 9.28214C9.89368 9.37069 9.96364 9.38194 10.0762 9.33351C11.263 8.82276 12.4523 8.31738 13.6407 7.80956C13.6847 7.79097 13.7248 7.76309 13.7468 7.75037C12.33 6.33209 10.9206 4.92067 9.50181 3.50043V3.49994ZM7.43041 8.05026C6.995 8.46122 6.52631 8.85749 6.11438 9.30611C5.67701 9.78213 5.73817 10.5468 6.19608 11.0287C6.64373 11.4998 7.43628 11.6021 7.91328 11.1774C8.38147 10.7606 8.78264 10.2694 9.2024 9.82176C8.63147 9.25132 8.01699 8.63636 7.43041 8.05026ZM15.3412 7.08208C13.6196 5.3595 11.899 3.63791 10.1779 1.91533C10.1031 2.0895 10.0282 2.29057 9.93135 2.48039C9.85552 2.62863 9.87068 2.72354 9.99593 2.84584C10.6432 3.47744 11.2787 4.12126 11.9181 4.76069C12.7601 5.60265 13.6011 6.44559 14.4469 7.28364C14.4993 7.3355 14.6098 7.38491 14.6686 7.36436C14.9068 7.28168 15.1358 7.17112 15.3412 7.08208ZM2.72598 7.06398C2.12766 7.5444 1.56064 7.99987 1.0176 8.43626C1.59538 9.01356 2.16582 9.584 2.72598 10.1437V7.06398ZM17.2727 10.1569C17.8402 9.58889 18.4067 9.02187 18.9836 8.44458C18.4312 8.01455 17.8627 7.57229 17.2727 7.1129V10.1569ZM9.37656 10.8849C9.76697 11.2733 10.1471 11.652 10.5067 12.0101C10.6554 11.8721 10.8183 11.7214 10.9641 11.5859C10.5806 11.2019 10.2014 10.8227 9.81882 10.4397C9.67646 10.583 9.52284 10.7376 9.37656 10.8844V10.8849ZM13.9195 4.41382C14.0012 4.08311 13.9279 3.7881 13.6774 3.54887C13.4391 3.32187 13.1539 3.2612 12.8452 3.34192C13.2038 3.69955 13.556 4.05082 13.9195 4.41333V4.41382Z" fill="#5B6B79"/>
<path d="M16.9141 0C17.3402 0.174166 17.3955 0.452048 17.0677 0.780809C16.5995 1.25047 16.1333 1.72209 15.6583 2.18441C15.5746 2.26611 15.4518 2.35613 15.3471 2.35564C15.2297 2.35466 15.0712 2.28421 15.0076 2.19126C14.9445 2.09879 14.9577 1.93784 14.9763 1.81308C14.987 1.74166 15.0692 1.6761 15.1284 1.6169C15.5726 1.16926 16.0149 0.719656 16.4679 0.281307C16.5849 0.167806 16.7385 0.0924643 16.8755 0C16.8887 0 16.9014 0 16.9146 0H16.9141Z" fill="#5B6B79"/>
<path d="M13.9455 0C14.1666 0.103717 14.2468 0.280817 14.2346 0.519072C14.2238 0.732376 14.2375 0.947147 14.2282 1.16094C14.218 1.39871 14.0702 1.55183 13.8603 1.56162C13.6554 1.57091 13.4778 1.42366 13.4631 1.19323C13.4455 0.922197 13.4548 0.649207 13.4597 0.377685C13.4631 0.184439 13.5952 0.0817012 13.7503 0.000489229H13.9455V0Z" fill="#5B6B79"/>
<path d="M2.72598 7.06398V10.1437C2.16582 9.584 1.59489 9.01356 1.0176 8.43626C1.56064 7.99987 2.12766 7.5444 2.72598 7.06398Z" fill="white"/>
<path d="M5.64521 4.37517C5.94413 4.37517 6.24354 4.37224 6.54246 4.37615C6.81203 4.37958 6.98815 4.53515 6.99059 4.76264C6.99255 4.99062 6.81692 5.15354 6.54931 5.155C5.95734 5.15892 5.36586 5.15892 4.7739 5.155C4.50678 5.15305 4.33212 4.98867 4.33653 4.75922C4.34044 4.5376 4.51069 4.38104 4.76754 4.37664C5.0601 4.37126 5.35266 4.37517 5.64521 4.37517Z" fill="#5B6B79"/>
<path d="M5.49355 2.96864C5.25285 2.96864 5.01264 2.97255 4.77194 2.96766C4.50531 2.96228 4.33114 2.79937 4.33652 2.56992C4.34142 2.34879 4.51167 2.19174 4.769 2.1893C5.26312 2.1844 5.75725 2.18392 6.25137 2.1893C6.50577 2.19223 6.67749 2.35612 6.67846 2.57677C6.67944 2.79741 6.50772 2.96081 6.2543 2.96717C6.00088 2.97353 5.74746 2.96864 5.49355 2.96864Z" fill="#5B6B79"/>
<path d="M16.5139 3.04251C16.6627 3.04251 16.8128 3.02979 16.9596 3.04545C17.1529 3.066 17.2884 3.23038 17.2898 3.41628C17.2913 3.60072 17.1577 3.77831 16.964 3.78957C16.6548 3.80767 16.3432 3.80816 16.034 3.79054C15.8378 3.77929 15.7057 3.60757 15.7042 3.42118C15.7028 3.22646 15.8412 3.06257 16.0477 3.043C16.2018 3.02833 16.3579 3.04007 16.5134 3.04007C16.5134 3.04056 16.5134 3.04153 16.5134 3.04202L16.5139 3.04251Z" fill="#5B6B79"/>
<path d="M8.12218 2.57286C8.1256 2.77491 7.94312 2.96179 7.74009 2.96522C7.53804 2.96864 7.35115 2.78616 7.34773 2.58313C7.34431 2.38108 7.52679 2.19419 7.72982 2.19077C7.93187 2.18734 8.11876 2.36983 8.12218 2.57286Z" fill="#5B6B79"/>
<path d="M8.57619 17.6533C8.57814 17.8593 8.39909 18.0418 8.19312 18.0437C7.98618 18.0457 7.80907 17.8691 7.8081 17.6587C7.80663 17.4479 7.97982 17.2698 8.18774 17.2678C8.39224 17.2664 8.57472 17.4469 8.57619 17.6528V17.6533Z" fill="#5B6B79"/>
</svg>
