<svg width="21" height="22" viewBox="0 0 21 22" fill="none" xmlns="http://www.w3.org/2000/svg">
<path d="M8.27967 0.231711C9.23206 0.231711 10.1856 0.226031 11.138 0.232847C12.4458 0.241936 12.9665 1.08036 12.3531 2.18576C11.9027 2.99805 11.457 3.81148 10.9867 4.61241C10.846 4.85213 10.8401 5.02481 11.07 5.19295C11.1005 5.21567 11.1274 5.24407 11.1521 5.27361C11.6036 5.79734 11.9942 6.2779 12.8938 6.045C13.5835 5.86664 14.3635 6.03705 15.1 6.00183C15.5926 5.97797 15.8108 6.1836 15.8894 6.61986C15.9363 6.87661 15.9996 7.13109 16.0735 7.38216C16.2237 7.89112 16.7092 8.0763 17.1913 7.81614C18.0428 7.35641 18.813 7.45942 19.5019 8.12515C19.557 8.17855 19.6145 8.22967 19.6661 8.28534C20.0144 8.66365 20.5575 8.93177 20.7029 9.41006C20.8624 9.93378 20.2854 10.2882 20.0825 10.7415C19.9065 11.1335 20.0778 11.5822 20.4988 11.7208C20.6994 11.7867 20.9047 11.8401 21.1099 11.8912C21.7003 12.0397 21.9947 12.4135 21.9931 13.0125C21.9919 13.6533 21.9732 14.294 21.999 14.9336C22.0154 15.3324 21.8336 15.5221 21.4571 15.6005C21.1545 15.663 20.8531 15.7357 20.5563 15.8175C20.0543 15.9561 19.8643 16.4083 20.1118 16.8525C20.5888 17.7091 20.4691 18.485 19.7529 19.1803C19.6837 19.2473 19.6145 19.3132 19.5465 19.3791C18.8365 20.0661 18.0381 20.1804 17.1514 19.7222C16.6846 19.4802 16.2307 19.6643 16.0735 20.1596C16.0677 20.1778 16.0606 20.1948 16.0548 20.213C15.7959 21.0969 15.186 21.5392 14.2251 21.5399C13.7782 21.5399 13.3301 21.5411 12.8833 21.5422C12.6123 21.5422 12.3473 21.5706 12.1655 21.2877C12.0188 21.0582 11.7925 21.2048 11.5907 21.2423C8.53653 21.8114 5.55622 21.6785 2.77646 20.1925C1.12269 19.3087 0.0154773 18.0204 0.00022967 16.064C-0.00798057 14.9246 0.204313 13.8271 0.576119 12.7524C1.559 9.91333 3.2984 7.53099 5.37559 5.36222C5.65943 5.06684 5.67116 4.87485 5.48584 4.54993C5.03662 3.75922 4.6179 2.95374 4.19918 2.14713C3.63619 1.06105 4.16048 0.241936 5.42251 0.233983C6.37489 0.228303 7.32845 0.232847 8.28084 0.232847L8.27967 0.231711ZM21.1404 13.8135C21.1404 13.6624 21.1181 13.509 21.1439 13.3625C21.226 12.8944 21.0266 12.6376 20.5446 12.6263C19.7025 12.6047 19.3787 12.073 19.1254 11.3982C19.0011 11.0665 18.9788 10.8233 19.1805 10.5132C19.7728 9.60091 19.7588 9.59183 18.953 8.81021C18.9389 8.79657 18.9248 8.78408 18.9119 8.77044C18.4967 8.36827 18.0299 8.31753 17.5115 8.61821C16.6377 9.12376 15.4707 8.66706 15.2255 7.72298C15.0738 7.13677 14.6926 6.84291 14.082 6.84139C14.062 6.84139 14.0433 6.84139 14.0233 6.84139C13.3235 6.83988 12.8825 7.15836 12.7003 7.79683C12.454 8.66138 11.2717 9.1124 10.4683 8.64775C9.9225 8.33268 9.41503 8.40311 8.94587 8.85906C8.43527 9.35514 8.36333 9.89743 8.73006 10.4859C9.13236 11.1301 8.63975 12.3139 7.89144 12.5036C7.17441 12.6854 6.8159 13.1311 6.8159 13.8407C6.8159 13.8601 6.8159 13.8782 6.8159 13.8975C6.8159 14.7723 6.81121 14.7928 7.69557 14.9745C8.19639 15.0779 8.55061 15.2733 8.65499 15.7937C8.68432 15.9379 8.75704 16.0799 8.83914 16.2049C9.01976 16.481 8.96229 16.7139 8.79574 16.9854C8.1917 17.9658 8.20109 17.9704 9.03384 18.7815C9.45061 19.1875 9.90256 19.2469 10.3897 18.9599C11.3538 18.3919 12.461 18.8327 12.7296 19.8915C12.868 20.436 13.2269 20.7083 13.8063 20.7083C14.5906 20.7083 15.0899 20.3391 15.3041 19.6006C15.4918 18.9531 16.7315 18.4782 17.3297 18.8258C17.9693 19.197 18.5464 19.1333 19.0609 18.635C19.5246 18.1859 19.5906 17.6886 19.2591 17.1433C18.7853 16.364 19.2779 15.2177 20.181 14.9973C20.8175 14.842 21.1365 14.4474 21.1381 13.8135H21.1404ZM4.56278 7.55712C2.7964 9.83154 1.4511 12.1332 0.959655 14.8428C0.604269 16.8014 1.20713 18.3464 3.01691 19.3439C5.71925 20.8333 8.60925 20.9798 11.5872 20.3607C11.7127 20.3345 11.8804 20.3039 11.8535 20.1255C11.8347 20.0039 11.8511 19.8517 11.6963 19.7835C11.3984 19.6529 11.1134 19.487 10.7756 19.7233C10.5093 19.9097 10.195 20.0323 9.93345 20.2232C9.63084 20.4436 9.41151 20.372 9.17458 20.1346C8.75704 19.7142 8.32541 19.3053 7.89731 18.894C6.86282 17.9022 7.08332 18.134 7.66155 17.1308C8.16473 16.2594 8.04274 15.9913 7.04579 15.7278C5.91747 15.4301 5.94327 15.6869 5.95969 14.4167C5.96321 14.1713 5.95265 13.9271 5.96086 13.6817C5.97611 13.1932 5.80135 12.6479 6.03358 12.2321C6.2881 11.7776 6.93436 11.9049 7.39648 11.7436C7.89261 11.5697 8.08497 11.1369 7.82576 10.6938C7.66273 10.4155 7.50321 10.1337 7.3179 9.87016C7.11851 9.58728 7.15252 9.35893 7.40117 9.12263C7.99818 8.55573 8.58697 7.98087 9.17224 7.40375C9.41855 7.16063 9.66485 7.15267 9.95221 7.33104C10.2466 7.51395 10.5598 7.66845 10.8506 7.85477C11.2096 8.08539 11.5321 7.88658 11.7456 7.69458C11.9766 7.48668 11.7854 7.21516 11.5837 7.00839C11.2365 6.6528 10.8835 6.30062 10.5621 5.92344C10.249 5.55649 9.87949 5.42471 9.38922 5.45311C8.73006 5.49173 8.06738 5.46333 7.40586 5.46333C6.49218 5.46333 6.19661 5.79279 6.33853 6.69029C6.42064 7.21061 6.65522 7.65936 7.13141 7.95134C7.42463 8.13084 7.65452 8.37282 7.4258 8.68524C7.16542 9.03969 6.85461 8.82157 6.56842 8.63639C6.11803 8.34442 5.84709 7.90476 5.52689 7.38216C5.38263 8.23876 5.46825 8.91245 6.05 9.47481C6.25057 9.66794 6.30452 9.92242 6.0676 10.1212C5.83888 10.3132 5.58788 10.2496 5.39905 10.0383C5.22194 9.84063 5.05656 9.63045 4.91113 9.40892C4.56864 8.88746 4.56043 8.28648 4.55691 7.55598L4.56278 7.55712ZM8.25738 1.06332C7.30617 1.06332 6.35378 1.0565 5.40257 1.06559C4.86656 1.07127 4.72815 1.28031 4.96508 1.7336C5.4096 2.58907 5.88345 3.42976 6.32094 4.28863C6.44879 4.54084 6.62707 4.58515 6.87806 4.58288C7.75187 4.57606 8.62684 4.5647 9.49948 4.58969C9.85603 4.59992 10.0613 4.49426 10.2255 4.18184C10.6489 3.37977 11.1122 2.59702 11.5544 1.8029C11.8394 1.29167 11.7104 1.07127 11.1122 1.06559C10.161 1.0565 9.2086 1.06332 8.25738 1.06218V1.06332Z" fill="#5B6B79"/>
<path d="M18.0991 13.7646C18.0827 15.9493 16.2072 17.775 13.9788 17.7738C11.7444 17.7727 9.83962 15.9311 9.84783 13.7805C9.85604 11.5845 11.7761 9.74406 14.0268 9.77359C16.2307 9.80313 18.1144 11.6493 18.0991 13.7646ZM17.1831 13.7714C17.1784 12.0298 15.758 10.6495 13.9752 10.6563C12.1643 10.6631 10.7556 12.0571 10.7639 13.8339C10.7709 15.5108 12.2241 16.89 13.9799 16.8843C15.778 16.8786 17.189 15.5085 17.1843 13.7714H17.1831Z" fill="#5B6B79"/>
<path d="M14.0116 11.7163C14.0539 12.1843 14.4245 12.1139 14.6989 12.1991C14.8479 12.2457 15.1024 12.2434 15.0449 12.4865C14.9957 12.6979 14.7893 12.5581 14.6532 12.5842C14.4808 12.6172 14.1641 12.3309 14.1582 12.7035C14.1535 13.0262 13.8697 13.4806 14.4186 13.6635C14.8737 13.8146 15.2385 14.0191 15.2138 14.5565C15.1916 15.062 14.8198 15.2926 14.3905 15.371C14.0773 15.4278 14.1406 15.6448 14.0046 15.9209C13.9612 15.2847 13.4733 15.4278 13.1519 15.2938C12.9877 15.2245 12.7027 15.2063 12.7883 14.9564C12.8563 14.7576 13.071 14.8882 13.2363 14.9121C13.4545 14.9427 13.804 15.1609 13.865 14.8098C13.9213 14.4872 14.1406 14.0157 13.5225 13.8566C13.1085 13.7499 12.7613 13.5181 12.7731 13.0432C12.7848 12.5354 13.1402 12.2559 13.6058 12.165C13.8943 12.1094 13.9284 11.9537 14.0116 11.7151V11.7163ZM13.9096 13.058C13.8498 12.8933 14.048 12.6036 13.702 12.5865C13.4569 12.574 13.2375 12.7194 13.2246 12.9773C13.2105 13.2636 13.4592 13.4272 13.6973 13.4602C14.0421 13.5079 13.838 13.2011 13.9096 13.058ZM14.1219 14.4929C14.1946 14.653 13.9764 14.9564 14.3518 14.9541C14.6227 14.953 14.7775 14.7598 14.7834 14.5144C14.7893 14.2395 14.5347 14.1157 14.3189 14.0918C13.9624 14.0532 14.2063 14.3588 14.1219 14.4929Z" fill="#5B6B79"/>
</svg>
