<svg width="22" height="23" viewBox="0 0 22 23" fill="none" xmlns="http://www.w3.org/2000/svg">
<path d="M0.00450885 11.6285C0.00450885 8.09142 0.00520229 4.55468 0.00138904 1.01761C0.00138904 0.882627 0.0218418 0.824874 0.180612 0.82756C0.753638 0.836962 1.32701 0.836626 1.90004 0.828567C2.05396 0.826553 2.08342 0.875912 2.08273 1.01694C2.07614 2.15489 2.08273 3.2925 2.0751 4.43045C2.07406 4.60774 2.12121 4.67221 2.31291 4.66348C2.65194 4.64837 2.99271 4.64602 3.33139 4.66348C3.53419 4.67388 3.58099 4.60069 3.58029 4.42104C3.57579 3.16658 3.57995 1.91246 3.58029 0.657993C3.58029 0.229205 3.57925 0.229877 4.02714 0.229877C8.59159 0.229877 13.156 0.229877 17.7205 0.229877C18.1046 0.229877 18.0356 0.213424 18.036 0.536441C18.0384 1.83892 18.0408 3.14106 18.0335 4.44354C18.0325 4.61647 18.0835 4.66482 18.2578 4.66146C18.7386 4.65172 19.2205 4.65072 19.7013 4.66348C19.8833 4.66851 19.9266 4.60841 19.9259 4.44321C19.9207 3.30526 19.9294 2.16765 19.92 1.0297C19.9187 0.858451 19.97 0.824874 20.1312 0.82756C20.683 0.835954 21.2353 0.836962 21.7872 0.82756C21.9525 0.824538 21.9993 0.867517 21.999 1.03138C21.9938 3.95129 21.9958 6.87155 21.9958 9.79146C21.9958 13.9316 21.9945 18.0717 22 22.2119C22 22.3865 21.949 22.4278 21.7778 22.4247C21.219 22.415 20.6598 22.4157 20.1007 22.4227C19.9582 22.4244 19.9169 22.3774 19.9187 22.2464C19.9246 21.8146 19.9145 21.3825 19.9259 20.951C19.9304 20.7824 19.8812 20.7344 19.7023 20.7344C15.9023 20.7395 12.1019 20.7381 8.30178 20.7378C6.30607 20.7378 4.31036 20.7405 2.31499 20.7324C2.11185 20.7317 2.0699 20.7925 2.07545 20.9745C2.08862 21.3989 2.07406 21.8244 2.08134 22.2491C2.08377 22.3821 2.04737 22.4257 1.90385 22.4237C1.33083 22.4153 0.757452 22.4143 0.184425 22.4224C0.0332816 22.4244 -0.000344017 22.3818 2.64203e-06 22.2384C0.0045092 18.7016 0.00346906 15.1649 0.00416238 11.6278L0.00450885 11.6285ZM11.0359 6.67008C8.13469 6.67008 5.23351 6.67109 2.33267 6.66706C2.1635 6.66706 2.07545 6.68888 2.07614 6.8843C2.08169 8.48798 2.07926 10.092 2.07545 11.6957C2.07545 11.8202 2.11843 11.8635 2.24704 11.8622C2.67135 11.8575 3.09636 11.8525 3.52067 11.8656C3.72832 11.8719 3.78136 11.8008 3.77997 11.6057C3.77165 10.283 3.77997 8.96008 3.7713 7.63745C3.76992 7.44707 3.82642 7.40375 4.01778 7.40375C8.68796 7.40879 13.3578 7.40812 18.028 7.40308C18.2013 7.40308 18.2384 7.45143 18.2374 7.61093C18.2304 8.92684 18.2297 10.2427 18.2342 11.5587C18.2356 11.921 18.1982 11.8531 18.5338 11.8585C18.9158 11.8649 19.2981 11.8525 19.6798 11.8652C19.8694 11.8716 19.9311 11.8159 19.9304 11.6278C19.9228 10.0514 19.9211 8.47522 19.928 6.89874C19.9287 6.705 19.8628 6.66538 19.676 6.66571C16.796 6.67109 13.9163 6.66941 11.0362 6.66974L11.0359 6.67008ZM11.0324 13.8735C10.5724 13.8735 10.1124 13.8735 9.65271 13.8735C7.23269 13.8735 4.81266 13.8735 2.39264 13.8735C2.2252 13.8735 2.07406 13.8581 2.07545 14.1085C2.08481 15.589 2.08273 17.0694 2.07718 18.5499C2.07649 18.7026 2.13611 18.7309 2.27547 18.7285C2.69285 18.7218 3.11057 18.7188 3.52795 18.7298C3.7193 18.7349 3.78032 18.6788 3.77893 18.4871C3.77096 17.1712 3.7817 15.8553 3.76957 14.5393C3.76749 14.3161 3.83994 14.2784 4.05001 14.2788C8.4089 14.2842 12.7678 14.2828 17.1267 14.2825C17.438 14.2825 17.7496 14.2885 18.0606 14.2818C18.1913 14.2791 18.236 14.3248 18.2318 14.448C18.2252 14.6327 18.2318 14.818 18.2318 15.0031C18.2318 16.1682 18.2332 17.3333 18.2301 18.4985C18.2297 18.6479 18.2467 18.7379 18.4447 18.7302C18.8402 18.7144 19.2371 18.7258 19.6334 18.7258C19.9173 18.7258 19.9207 18.7258 19.9211 18.4475C19.9228 17.015 19.9225 15.5826 19.9235 14.1498C19.9235 13.8745 19.9246 13.8738 19.6302 13.8738C16.7644 13.8738 13.8986 13.8738 11.0328 13.8738L11.0324 13.8735ZM1.39565 11.609C1.39565 8.38086 1.39565 5.15304 1.39565 1.92488C1.39565 1.6341 1.24508 1.48882 0.943954 1.48904C0.763691 1.48926 0.67356 1.57847 0.67356 1.75665C0.67356 8.26065 0.67356 14.7647 0.67356 21.269C0.67356 21.7408 0.67356 21.7303 1.16235 21.7397C1.36272 21.7438 1.40016 21.6786 1.39981 21.4987C1.39426 18.202 1.39565 14.9053 1.39565 11.609ZM21.3126 11.603C21.3126 8.38791 21.3126 5.17285 21.3126 1.95778C21.3126 1.48803 21.3126 1.49576 20.8331 1.48434C20.6487 1.47997 20.5822 1.51926 20.5822 1.71569C20.5877 8.24185 20.587 14.768 20.587 21.2942C20.587 21.7364 20.5881 21.7263 21.0602 21.7397C21.2609 21.7455 21.3174 21.6964 21.3171 21.495C21.3098 18.1976 21.3119 14.9003 21.3122 11.603H21.3126ZM11.0009 20.0813C13.8026 20.0813 16.6043 20.0813 19.406 20.0813C19.936 20.0813 19.9304 20.0813 19.9263 19.5663C19.9249 19.4152 19.8788 19.3655 19.7204 19.3685C19.1477 19.3799 18.5747 19.3823 18.0016 19.3819C12.8583 19.3796 7.71454 19.3762 2.57117 19.3732C2.07718 19.3732 2.08758 19.3729 2.07267 19.853C2.06643 20.0471 2.13161 20.0857 2.31984 20.0854C5.2134 20.0797 8.10731 20.0813 11.0009 20.0813ZM11.0154 12.5106C8.2068 12.5106 5.39817 12.5106 2.58954 12.5106C2.05846 12.5106 2.06331 12.5092 2.07406 13.0213C2.07683 13.1603 2.13993 13.2033 2.26542 13.2033C2.38571 13.2033 2.506 13.2043 2.62629 13.2043C8.25082 13.204 13.875 13.2043 19.4995 13.2023C19.9811 13.2023 19.9221 13.2547 19.9239 12.7816C19.9249 12.5109 19.9225 12.5106 19.6327 12.5106C16.7603 12.5106 13.8878 12.5106 11.0158 12.5109L11.0154 12.5106ZM11.0095 5.33872V5.34074C8.17213 5.34074 5.33508 5.3394 2.49768 5.34175C1.98497 5.34208 2.09035 5.30145 2.07961 5.74233C2.07302 6.02606 2.07891 6.02639 2.36837 6.02639C8.0924 6.02572 13.8164 6.02539 19.5405 6.0227C19.9849 6.0227 19.9166 6.06669 19.9218 5.66913C19.9263 5.32059 19.9977 5.34074 19.5848 5.34007C16.7263 5.33772 13.8677 5.33872 11.0092 5.33872H11.0095ZM15.3833 4.65844V4.65911C15.9772 4.65911 16.571 4.65407 17.1648 4.66247C17.3222 4.66482 17.3673 4.62352 17.3662 4.46805C17.3593 3.33145 17.3607 2.19451 17.3655 1.0579C17.3662 0.921577 17.3381 0.854758 17.1807 0.868189C17.0334 0.880948 16.8837 0.878598 16.7356 0.869868C16.597 0.861473 16.5502 0.910161 16.5526 1.04548C16.5595 1.42894 16.5478 1.81239 16.5571 2.19585C16.5602 2.32748 16.5166 2.35534 16.3897 2.35434C15.7324 2.34896 15.0748 2.34796 14.4172 2.35568C14.2699 2.35736 14.2383 2.30196 14.2407 2.17537C14.2473 1.84664 14.2459 1.51792 14.2449 1.18919C14.2439 0.870203 14.2425 0.870539 13.9235 0.871547C13.8033 0.871882 13.683 0.877255 13.563 0.870875C13.4514 0.865167 13.4167 0.908146 13.4171 1.01459C13.4205 2.17167 13.4212 3.3291 13.4178 4.48619C13.4174 4.61982 13.4618 4.66247 13.6015 4.66079C14.1953 4.65407 14.7892 4.65777 15.383 4.65777L15.3833 4.65844ZM6.20207 4.65945C6.80318 4.65945 7.40428 4.65844 8.00539 4.66045C8.11597 4.66045 8.19259 4.65105 8.19189 4.50935C8.18773 3.34488 8.18877 2.18041 8.19189 1.01627C8.19189 0.909825 8.15376 0.867517 8.04456 0.870539C7.88198 0.87524 7.71905 0.877927 7.55681 0.870539C7.42058 0.86416 7.37101 0.909825 7.37413 1.04682C7.38244 1.42323 7.37239 1.80031 7.37898 2.17671C7.3814 2.30364 7.35402 2.35803 7.206 2.35635C6.55566 2.34863 5.90499 2.34661 5.25431 2.35568C5.08722 2.35803 5.04978 2.29726 5.05533 2.15388C5.06399 1.92824 5.05879 1.70192 5.05948 1.47595C5.06122 0.844349 5.06122 0.848042 4.40742 0.870203C4.27534 0.874568 4.23929 0.917548 4.23964 1.03944C4.24276 2.19014 4.24345 3.34085 4.23825 4.49156C4.23756 4.62923 4.28262 4.66381 4.42025 4.66247C5.01407 4.65542 5.60825 4.65945 6.20207 4.66012V4.65945ZM15.5993 11.8622V11.8598C16.1796 11.8598 16.7599 11.8528 17.3402 11.8639C17.5253 11.8676 17.5818 11.8192 17.5801 11.6359C17.5711 10.6487 17.5773 9.66185 17.5739 8.67467C17.5732 8.48428 17.6578 8.2395 17.5368 8.11761C17.4061 7.98632 17.1478 8.09109 16.9468 8.06859C16.7946 8.05147 16.7544 8.11392 16.7571 8.2536C16.7648 8.63034 16.7571 9.00742 16.7606 9.3845C16.7616 9.49665 16.7429 9.55675 16.5994 9.55474C15.9342 9.54634 15.2689 9.54567 14.6037 9.55272C14.4529 9.5544 14.4328 9.49598 14.4349 9.37107C14.4411 9.00104 14.4307 8.63068 14.4363 8.26065C14.4383 8.12231 14.3947 8.05852 14.2428 8.06825C14.1021 8.07732 13.9589 8.07833 13.8185 8.0659C13.6538 8.05113 13.6188 8.11896 13.6195 8.26636C13.6254 9.39726 13.6272 10.5285 13.6195 11.6594C13.6185 11.829 13.6798 11.8659 13.8372 11.8642C14.4245 11.8582 15.0121 11.8619 15.5993 11.8619V11.8622ZM8.85852 2.75257H8.85956C8.85956 3.32138 8.86441 3.89018 8.85609 4.45865C8.85401 4.60572 8.88486 4.66314 9.05161 4.66247C10.2261 4.65609 11.4002 4.65743 12.5747 4.66112C12.7075 4.66146 12.7674 4.62587 12.7671 4.48921C12.7654 3.33783 12.7664 2.18678 12.7702 1.03541C12.7706 0.909489 12.7199 0.863824 12.5934 0.870875C12.4665 0.877926 12.3376 0.88397 12.2117 0.870203C12.0062 0.847706 11.9244 0.90546 11.9368 1.12372C11.9573 1.47897 11.9382 1.83623 11.9434 2.19249C11.9452 2.31203 11.914 2.35904 11.7777 2.3577C11.134 2.35031 10.4902 2.35199 9.84649 2.35602C9.7262 2.35669 9.66692 2.33822 9.67351 2.20089C9.68564 1.95476 9.68426 1.7073 9.6749 1.46117C9.66796 1.27246 9.76468 1.02903 9.62949 0.909154C9.4981 0.792639 9.2492 0.892365 9.05438 0.870539C8.88798 0.851736 8.85332 0.92057 8.8554 1.0673C8.86268 1.62906 8.85817 2.19115 8.85817 2.7529L8.85852 2.75257ZM11.0026 11.8622C11.0026 11.8622 11.0026 11.8619 11.0026 11.8615C11.5683 11.8615 12.1344 11.8538 12.6998 11.8656C12.9006 11.8696 12.9626 11.8162 12.9602 11.6154C12.9491 10.6292 12.9536 9.64271 12.955 8.6562C12.9557 8.05784 12.9578 8.06187 12.3293 8.06658C12.1844 8.06758 12.1331 8.10317 12.1365 8.25025C12.1459 8.6337 12.1337 9.0175 12.1403 9.40095C12.1424 9.51579 12.1126 9.55474 11.9888 9.5534C11.3312 9.54702 10.6733 9.54433 10.016 9.55138C9.86764 9.55306 9.84268 9.49934 9.84511 9.37308C9.85204 9.01011 9.84025 8.6468 9.84961 8.28416C9.85377 8.12735 9.80905 8.05449 9.63677 8.06859C9.51023 8.07866 9.38128 8.07933 9.25544 8.06624C9.08627 8.04878 9.04017 8.11291 9.04086 8.27241C9.04641 9.40263 9.04675 10.5329 9.03878 11.6631C9.03739 11.8363 9.10915 11.8659 9.26307 11.8642C9.84303 11.8585 10.423 11.8619 11.0026 11.8619V11.8622ZM8.36141 9.96271C8.36141 9.38685 8.35863 8.81099 8.36384 8.23514C8.36487 8.11459 8.33402 8.05852 8.19883 8.06725C8.05808 8.07631 7.91457 8.07933 7.77452 8.06523C7.59668 8.04744 7.55959 8.12802 7.56236 8.27879C7.56895 8.64881 7.56063 9.01917 7.56617 9.3892C7.56791 9.51109 7.53012 9.5544 7.3977 9.55306C6.73974 9.54634 6.08144 9.54601 5.42313 9.55172C5.29001 9.55272 5.25639 9.51277 5.25881 9.38819C5.26644 9.01145 5.25639 8.63404 5.26263 8.2573C5.26505 8.11493 5.21306 8.05952 5.06538 8.06859C4.91736 8.07766 4.76795 8.07564 4.61992 8.06758C4.49686 8.06087 4.44139 8.09512 4.44174 8.22506C4.44555 9.38349 4.4459 10.5419 4.44278 11.7004C4.44278 11.8266 4.49027 11.8642 4.61646 11.8639C5.80549 11.8609 6.99419 11.8602 8.18323 11.8649C8.33922 11.8656 8.36522 11.8038 8.36349 11.6691C8.35621 11.1003 8.36037 10.5312 8.36106 9.96237L8.36141 9.96271ZM15.6014 18.7268C16.1817 18.7268 16.7616 18.7198 17.3416 18.7309C17.5316 18.7345 17.5798 18.6761 17.5784 18.4972C17.57 17.5103 17.5749 16.5235 17.5752 15.5369C17.5752 14.9362 17.5752 14.9406 16.9492 14.9618C16.805 14.9668 16.7547 15.0031 16.7582 15.1481C16.7675 15.5316 16.7578 15.9157 16.7609 16.2992C16.762 16.4012 16.7346 16.4445 16.6181 16.4432C15.946 16.4372 15.2741 16.4351 14.602 16.4392C14.4699 16.4398 14.4307 16.3948 14.4342 16.2723C14.4411 16.0258 14.4356 15.779 14.4356 15.5322C14.4359 14.9436 14.4363 14.948 13.8289 14.9577C13.6653 14.9604 13.6202 15.0145 13.6213 15.173C13.6282 16.283 13.6296 17.3931 13.6185 18.5032C13.6164 18.6953 13.685 18.7322 13.8608 18.7298C14.4408 18.7218 15.0211 18.7268 15.601 18.7268H15.6014ZM6.39932 18.7258V18.7278C6.97928 18.7278 7.55924 18.7218 8.1392 18.7315C8.31149 18.7345 8.36626 18.6926 8.36453 18.5173C8.35552 17.5174 8.36037 16.5171 8.36037 15.5168C8.36037 14.9423 8.36037 14.947 7.77105 14.9554C7.61679 14.9574 7.55889 14.9997 7.56271 15.1552C7.57207 15.5249 7.56028 15.8949 7.56687 16.2649C7.56929 16.3979 7.52561 16.4385 7.38556 16.4372C6.73489 16.4311 6.08421 16.4325 5.43353 16.4398C5.28863 16.4415 5.255 16.3878 5.25916 16.2599C5.26713 16.0134 5.26055 15.7666 5.26055 15.5202C5.26055 14.9134 5.26124 14.9171 4.61958 14.9584C4.48403 14.9671 4.44209 15.0111 4.44243 15.1417C4.44659 16.279 4.44659 17.4159 4.44035 18.5532C4.43966 18.6889 4.4771 18.7298 4.6168 18.7285C5.21098 18.7221 5.8048 18.7258 6.39897 18.7258H6.39932ZM9.04502 16.8102C9.04502 17.3854 9.05022 17.9609 9.04155 18.5361C9.03913 18.6912 9.09009 18.7315 9.24712 18.7305C10.4067 18.7241 11.5666 18.7235 12.7262 18.7298C12.9006 18.7309 12.9571 18.6825 12.956 18.5113C12.9491 17.5318 12.9529 16.5523 12.9536 15.5729C12.9536 14.9419 12.9543 14.946 12.3022 14.9584C12.1677 14.9607 12.1358 15.0037 12.1376 15.1253C12.1435 15.5155 12.1351 15.906 12.14 16.2965C12.1414 16.4009 12.1157 16.4392 11.9992 16.4382C11.3347 16.4338 10.6698 16.4345 10.0053 16.4412C9.86764 16.4425 9.84095 16.3885 9.84476 16.271C9.85204 16.0315 9.84649 15.7915 9.84684 15.5517C9.84719 14.9282 9.84753 14.9322 9.20587 14.9567C9.07414 14.9618 9.04051 15.0014 9.0419 15.1249C9.04849 15.6864 9.04467 16.2481 9.04502 16.8099V16.8102ZM10.7998 0.872218C10.7436 0.872218 10.6871 0.870875 10.631 0.872218C10.2982 0.880612 10.3318 0.817151 10.3335 1.16938C10.3363 1.71267 10.3394 1.71603 10.901 1.70965C11.335 1.70461 11.281 1.77445 11.2851 1.34398C11.29 0.872218 11.2869 0.872218 10.7998 0.872218ZM15.4118 0.872218C15.3764 0.872218 15.341 0.872218 15.306 0.872218C15.0636 0.872218 14.9424 0.991979 14.9424 1.2315C14.9424 1.55228 15.1154 1.71188 15.4613 1.71032C15.7387 1.70897 15.8773 1.57836 15.8773 1.31847C15.8773 1.02097 15.7221 0.872218 15.4118 0.872218ZM6.20935 0.872218C6.14557 0.872218 6.08213 0.872218 6.01834 0.872218C5.82306 0.872218 5.72599 0.96881 5.72715 1.16199C5.72715 1.17576 5.72715 1.18953 5.72715 1.20296C5.72784 1.54388 5.90545 1.71323 6.25996 1.71099C6.53059 1.70942 6.6659 1.57433 6.6659 1.30571C6.6659 1.01649 6.51372 0.871882 6.20935 0.871882V0.872218ZM6.41804 8.89024C6.44647 8.89024 6.47455 8.89057 6.50297 8.89024C6.92763 8.88285 6.87147 8.94967 6.87459 8.53163C6.87806 8.06792 6.87494 8.06792 6.31058 8.0696C6.06352 8.07027 5.94 8.18891 5.94 8.42552C5.94 8.736 6.09935 8.89102 6.41804 8.89057V8.89024ZM11.0068 8.0706C10.9503 8.0706 10.8934 8.0696 10.8369 8.0706C10.5062 8.07665 10.5284 8.0152 10.5305 8.36307C10.5336 8.88923 10.5339 8.89091 11.0948 8.88755C11.5209 8.88486 11.4803 8.95202 11.4772 8.5192C11.4751 8.21969 11.3184 8.07004 11.0071 8.07027L11.0068 8.0706ZM15.5608 8.88789C15.5962 8.88789 15.6315 8.88856 15.6669 8.88789C16.0912 8.87681 16.0461 8.9678 16.0486 8.51853C16.051 8.07128 16.0486 8.07128 15.532 8.07027C15.2524 8.06982 15.1126 8.19943 15.1126 8.4591C15.1126 8.74608 15.262 8.88912 15.5608 8.88822V8.88789ZM6.40105 15.7629C6.71744 15.7634 6.8754 15.6088 6.87494 15.2992C6.87494 15.2307 6.87182 15.1622 6.87702 15.0941C6.8836 15.0074 6.84547 14.9678 6.75707 14.9671C6.60177 14.9654 6.44647 14.9587 6.29151 14.9604C5.94 14.9638 5.94 14.9654 5.94 15.3116C5.94 15.6123 6.09357 15.7628 6.40071 15.7633L6.40105 15.7629ZM11.0036 15.7622C11.0886 15.7622 11.1742 15.7549 11.2577 15.7639C11.4172 15.7811 11.4956 15.735 11.4793 15.5635C11.4657 15.4211 11.4737 15.276 11.4799 15.1327C11.4851 15.0125 11.4387 14.9567 11.3097 14.9607C11.1264 14.9665 10.9416 14.9742 10.7589 14.9607C10.5689 14.9466 10.4982 15.0165 10.5287 15.1948C10.5343 15.228 10.5301 15.2629 10.5305 15.2972C10.5311 15.6077 10.6889 15.7627 11.0036 15.7622ZM15.5712 15.7616C15.6204 15.7616 15.67 15.7616 15.7192 15.7616C15.939 15.7616 16.049 15.652 16.0493 15.4328C16.0493 15.1159 15.8727 14.9587 15.5196 14.9614C15.2485 14.9634 15.1128 15.0819 15.1126 15.3167C15.1126 15.6119 15.2655 15.7601 15.5712 15.7612V15.7616Z" fill="#5B6B79"/>
</svg>
