<svg width="22" height="22" viewBox="0 0 22 22" fill="none" xmlns="http://www.w3.org/2000/svg">
<path fill-rule="evenodd" clip-rule="evenodd" d="M15.597 1.07688L15.597 1.07711C15.598 1.17375 15.5989 1.27028 15.5947 1.36645C15.5864 1.55404 15.4543 1.67983 15.2727 1.68346C15.0895 1.68637 14.9551 1.56713 14.9491 1.373C14.9401 1.09743 14.9394 0.821138 14.9491 0.545573C14.9559 0.339081 15.0933 0.220566 15.2892 0.230018C15.4678 0.238743 15.5909 0.367437 15.597 0.560115C15.5995 0.65072 15.5989 0.741674 15.5983 0.832494V0.832575V0.832655V0.832734V0.832814C15.598 0.873073 15.5977 0.913304 15.5977 0.953468H15.597L15.5962 0.952741C15.5962 0.994128 15.5966 1.03551 15.597 1.07688ZM18.0406 2.43226L18.0411 2.43236H18.0403L18.0406 2.43226ZM18.0856 2.419C18.0693 2.42335 18.054 2.42748 18.0406 2.43226C17.9005 2.40317 17.7963 2.35734 17.7393 2.23677C17.683 2.11753 17.6875 2.0012 17.7776 1.90886C17.9878 1.69291 18.2032 1.48133 18.4277 1.2792C18.5605 1.15996 18.7167 1.16869 18.8518 1.28647C18.9801 1.39845 19.0087 1.55622 18.9096 1.6791C18.7046 1.93503 18.4562 2.15534 18.2032 2.3691C18.1712 2.39601 18.1258 2.40818 18.0856 2.419ZM0.0889809 7.81409C0.0702227 7.884 0.0514827 7.95383 0.0015013 8.01201H0V19.5836C0.0494381 19.652 0.0653178 19.7304 0.0812486 19.8091C0.0911996 19.8582 0.101171 19.9074 0.119353 19.9544C0.445885 20.8029 1.18227 21.2864 2.18364 21.2864C6.27242 21.2893 10.3612 21.2893 14.45 21.2893C14.4621 21.2893 14.4742 21.2896 14.4863 21.2899C14.5177 21.2906 14.5488 21.2913 14.5791 21.2871C14.7562 21.2617 14.8666 21.1701 14.8763 20.9898C14.8861 20.8109 14.7743 20.6858 14.5896 20.6662C14.5285 20.66 14.4668 20.6601 14.4055 20.6603L14.3749 20.6604L13.804 20.6607C13.0419 20.6609 12.2802 20.6611 11.5179 20.6669C11.3776 20.6677 11.328 20.6306 11.3348 20.4932C11.3445 20.299 11.3483 20.1034 11.3325 19.9108C11.319 19.7457 11.3723 19.7028 11.5435 19.7028C12.4984 19.705 13.4533 19.7045 14.4081 19.7041H14.4081H14.4082H14.4082H14.4082H14.4082H14.4082H14.4082H14.4083C16.0242 19.7033 17.6401 19.7026 19.2556 19.7145C19.8982 19.7188 20.3801 19.2317 20.3771 18.6231C20.3631 15.8847 20.365 13.146 20.3668 10.4071V10.407V10.407V10.407V10.4069V10.4069V10.4069V10.4068V10.4068C20.3675 9.46966 20.3681 8.53253 20.3681 7.59539C20.3681 7.362 20.3816 7.35327 20.6083 7.4158C21.088 7.54813 21.3499 7.88259 21.3537 8.3821C21.3562 8.76167 21.3554 9.14091 21.3545 9.52004L21.3545 9.52271V9.52279V9.52287V9.52295V9.52303V9.52311V9.52319V9.52327C21.3541 9.71172 21.3537 9.90015 21.3537 10.0886L21.3539 12.6815C21.3542 14.8411 21.3545 17.0008 21.3529 19.1604C21.3522 19.7683 21.1225 20.2547 20.5205 20.5186C20.2195 20.6502 19.8959 20.6502 19.5739 20.6502C19.1898 20.6509 18.8057 20.6514 18.4214 20.6519H18.4211H18.4208H18.4204H18.4201H18.4198H18.4194H18.4191H18.4187C17.6512 20.6529 16.8834 20.6538 16.1157 20.6568C15.8852 20.6582 15.7343 20.784 15.7306 20.9607C15.7268 21.149 15.886 21.2879 16.1194 21.2879C16.4626 21.2881 16.8058 21.289 17.1491 21.2899C18.0804 21.2925 19.0118 21.295 19.9432 21.2828C21.1322 21.2668 22 20.3928 22 19.2448V8.425C22 7.48997 21.4573 6.8843 20.5062 6.76143C20.4146 6.74979 20.3673 6.72871 20.3643 6.62546C20.3516 6.15213 20.0919 5.85548 19.6385 5.7057C19.3022 5.59373 18.9621 5.49194 18.6116 5.43086C18.4539 5.40323 18.3511 5.35961 18.3849 5.16984C18.4036 5.06531 18.3848 4.95884 18.366 4.85269C18.3592 4.81412 18.3523 4.77559 18.3473 4.73722C18.2513 4.00141 17.9127 3.39648 17.3092 2.94059C16.6276 2.42655 15.8402 2.25786 14.9912 2.31094C14.1174 2.36547 13.3713 2.68321 12.8023 3.33904C12.3099 3.90689 12.123 4.57654 12.1582 5.30798C12.1643 5.43813 12.144 5.50212 11.9901 5.5312C11.7747 5.57119 11.5585 5.63445 11.3603 5.7246C11.1186 5.83512 10.9107 5.82131 10.6585 5.73187C9.53473 5.33343 8.35471 5.23019 7.17019 5.17275C6.96376 5.16329 6.83615 5.28326 6.82715 5.46576C6.81814 5.65117 6.948 5.79077 7.15443 5.80313C7.64685 5.83221 8.13853 5.86929 8.6272 5.93182C9.26375 6.01253 9.89204 6.12523 10.4978 6.34117C10.6232 6.38552 10.6682 6.44733 10.6682 6.58184C10.6637 10.3416 10.6622 14.1006 10.6682 17.8597C10.669 18.048 10.6194 18.0385 10.4693 17.9883C9.64208 17.7128 8.78183 17.5834 7.91559 17.5107C7.00955 17.435 6.10127 17.4299 5.19223 17.499C4.27194 17.5688 3.36891 17.7142 2.49591 18.0065C2.33076 18.0618 2.27446 18.056 2.27446 17.864C2.2781 15.3243 2.2785 12.7842 2.2789 10.2443V10.2442V10.2442V10.2441V10.2441V10.244V10.244V10.2439V10.2433C2.27908 9.11439 2.27926 7.9855 2.27972 6.85668C2.28047 6.42479 2.31125 6.3928 2.73987 6.2561C3.63464 5.97181 4.55869 5.85621 5.49474 5.80676C5.73195 5.79368 5.88733 5.66353 5.88283 5.47521C5.87833 5.29853 5.71318 5.16838 5.49249 5.17493C4.44008 5.20692 3.40869 5.36179 2.40808 5.68752C1.94643 5.83803 1.64842 6.12305 1.63791 6.6211C1.63566 6.74034 1.57486 6.75416 1.47878 6.76215C0.851986 6.81305 0.422615 7.13878 0.140371 7.66883C0.115706 7.71449 0.102339 7.76431 0.0889809 7.81409ZM11.337 12.2102H11.3385L11.3387 13.3375V13.3386C11.3389 14.8422 11.3391 16.3461 11.3355 17.8495C11.3355 18.0087 11.3603 18.0523 11.53 17.9927C12.3527 17.7033 13.2137 17.5848 14.0784 17.5092C14.9912 17.4292 15.9077 17.4299 16.8235 17.499C17.7078 17.5652 18.574 17.7113 19.42 17.9724C19.4655 17.9864 19.5041 17.9996 19.537 18.0108L19.5371 18.0108C19.6229 18.0401 19.6692 18.0559 19.6941 18.0394C19.7233 18.02 19.7231 17.9563 19.7226 17.8179L19.7225 17.7608V6.85668C19.7225 6.79415 19.7203 6.73162 19.718 6.66981C19.7135 6.48005 19.6174 6.36298 19.429 6.30554C19.083 6.19939 18.7324 6.1085 18.3796 6.02562C18.2738 6.0009 18.2558 6.04888 18.2317 6.11723C18.0839 6.53748 17.8226 6.89012 17.5374 7.23112C17.5001 7.27563 17.4625 7.31988 17.4248 7.36414C17.1407 7.69805 16.8563 8.03219 16.747 8.47517C16.7079 8.63513 16.7244 8.71656 16.8798 8.80526C17.3062 9.04957 17.4976 9.54326 17.3655 9.98823C17.2184 10.4834 16.8145 10.7968 16.3041 10.8004C15.731 10.804 15.1578 10.8026 14.5852 10.8012L14.242 10.8004C14.1497 10.8004 14.0596 10.796 13.9673 10.7691C13.4584 10.6179 13.1694 10.2798 13.1318 9.77665C13.0981 9.33313 13.312 8.98776 13.7143 8.76746C13.8044 8.71801 13.8232 8.68311 13.8059 8.57914C13.7391 8.18797 13.5312 7.87096 13.2827 7.57213C13.2317 7.51077 13.1801 7.44982 13.1284 7.38888C12.8214 7.0266 12.5146 6.66444 12.3392 6.21757C12.2971 6.11069 12.2213 6.12814 12.1485 6.14849C12.0628 6.1722 11.978 6.1992 11.8931 6.22622L11.8931 6.22622C11.7748 6.26384 11.6565 6.30149 11.536 6.33027C11.3708 6.37025 11.3333 6.45896 11.334 6.6131C11.3376 8.10569 11.3374 9.59827 11.3372 11.0912L11.337 12.2102ZM1.63395 11.9735L1.63416 13.1729H1.63491V18.6871C1.63491 19.2862 2.06428 19.705 2.68507 19.705L3.65209 19.7053H3.65362C5.90865 19.7061 8.16411 19.7069 10.419 19.6999C10.6337 19.6992 10.6945 19.7573 10.672 19.9537C10.6547 20.1049 10.6547 20.2598 10.6697 20.411C10.6885 20.6044 10.6314 20.6698 10.4152 20.6669C9.63174 20.6571 8.84824 20.6572 8.06474 20.6573C7.74554 20.6573 7.42634 20.6574 7.10714 20.6568L6.05839 20.655C4.8326 20.6529 3.60705 20.6509 2.38106 20.6458L2.38044 20.6458C2.1742 20.6444 1.96199 20.6429 1.76252 20.5993C1.05166 20.4444 0.647059 19.9224 0.647059 19.1757C0.645557 17.0119 0.645557 14.8473 0.645557 12.6835L0.645312 11.4646C0.645006 10.449 0.6447 9.43355 0.646308 8.41773C0.647059 7.87968 0.923297 7.52632 1.41647 7.40199C1.58687 7.35909 1.63791 7.39763 1.63791 7.57504C1.6332 9.04153 1.63358 10.5076 1.63395 11.9735ZM15.5962 7.53795H15.5955C15.5955 7.45249 15.5968 7.36697 15.5981 7.28146L15.5981 7.28131C15.6011 7.08265 15.6041 6.88406 15.591 6.68654C15.5775 6.49313 15.6548 6.44369 15.8327 6.46405C15.9175 6.4735 16.0053 6.47205 16.0901 6.46259C16.3041 6.4386 16.4257 6.30918 16.4189 6.12377C16.4122 5.95 16.2868 5.81985 16.0811 5.81694C15.5227 5.80895 14.9642 5.80895 14.4064 5.81694C14.212 5.81985 14.0717 5.96818 14.0694 6.1325C14.0671 6.29173 14.209 6.44224 14.3974 6.46187C14.525 6.47496 14.6549 6.47059 14.7833 6.46623C14.8876 6.46259 14.9387 6.48804 14.9379 6.60438C14.934 7.06667 14.9346 7.52936 14.9352 7.99186V7.99193V7.99201V7.99208V7.99216V7.99223V7.9923V7.99238V7.99245C14.9354 8.16042 14.9356 8.32836 14.9356 8.49625C14.9356 8.56896 14.9319 8.65403 14.8283 8.63004C14.7901 8.62144 14.7435 8.62955 14.6971 8.63764C14.602 8.6542 14.5072 8.67071 14.4845 8.54424C14.3622 7.86514 13.9561 7.346 13.5154 6.84141C13.1746 6.45169 12.8954 6.03652 12.8301 5.50866C12.6927 4.40567 13.2264 3.33758 14.5175 3.02421C15.3245 2.8279 16.1104 2.90715 16.8123 3.37539C17.5074 3.83854 17.7356 4.52128 17.7206 5.30653C17.7085 5.89183 17.4301 6.36226 17.0562 6.79705L16.9833 6.88157C16.6455 7.2724 16.3072 7.66375 16.1524 8.16834C16.1452 8.1925 16.1352 8.21674 16.1253 8.24093L16.1253 8.24098L16.1253 8.241C16.1053 8.28958 16.0854 8.33794 16.0879 8.38501C16.1026 8.64302 15.9393 8.63978 15.7546 8.6361L15.7418 8.63585C15.6315 8.63367 15.5917 8.60459 15.594 8.49407C15.5988 8.26666 15.5979 8.03925 15.597 7.81157V7.81156V7.81155V7.81154V7.81152V7.81151V7.8115V7.81148V7.81147L15.597 7.81089C15.5966 7.71996 15.5962 7.62899 15.5962 7.53795ZM10.4775 19.0724C9.18268 19.0739 7.88781 19.0739 6.59294 19.0739V19.071H6.59219L5.31159 19.0708C4.45785 19.0707 3.60411 19.0705 2.75038 19.071C2.61901 19.071 2.4914 19.0637 2.39081 18.9692C2.26471 18.8507 2.28272 18.762 2.44411 18.6994C3.0161 18.4799 3.61137 18.3417 4.21714 18.2486C5.35212 18.0741 6.49386 18.0378 7.63709 18.1301C8.5664 18.205 9.48969 18.3272 10.3777 18.6253C10.4049 18.6344 10.4315 18.6451 10.458 18.6558C10.4908 18.669 10.5235 18.6821 10.5571 18.6922C10.6952 18.7325 10.6803 18.8249 10.6661 18.9128C10.6619 18.939 10.6577 18.9649 10.6577 18.9888C10.6583 19.0868 10.5848 19.0805 10.5194 19.0749C10.5048 19.0737 10.4905 19.0724 10.4775 19.0724ZM15.401 19.0703V19.0724H11.5142C11.5022 19.0724 11.4896 19.0732 11.4767 19.074C11.4106 19.0781 11.34 19.0825 11.34 18.9808C11.3402 18.96 11.3385 18.9386 11.3368 18.9172C11.3295 18.8264 11.3221 18.7349 11.4564 18.6849C11.8167 18.5511 12.1853 18.4486 12.5613 18.3744C13.9568 18.101 15.3665 18.0189 16.7845 18.1301C17.7153 18.2028 18.6333 18.3599 19.5124 18.6813C19.5287 18.6872 19.5479 18.6912 19.5676 18.6953C19.6331 18.709 19.7047 18.724 19.6978 18.8129C19.6895 18.9139 19.6144 18.9881 19.5184 19.0317C19.4328 19.0703 19.339 19.0703 19.2451 19.0703H15.401ZM15.7321 10.1744C15.5752 10.1744 15.4176 10.1744 15.2607 10.1751L15.2599 10.1736C15.1578 10.1736 15.0556 10.1739 14.9534 10.1741H14.9533H14.9532H14.9531H14.953H14.953H14.9529H14.9528H14.9526C14.7477 10.1746 14.5428 10.1751 14.3381 10.1736C14.0003 10.1707 13.7924 9.99696 13.7909 9.71994C13.7894 9.43637 13.9891 9.26187 14.3291 9.26042C14.9507 9.25824 15.5729 9.25824 16.1945 9.26042C16.5293 9.26115 16.7485 9.44219 16.7515 9.71194C16.7552 9.98096 16.533 10.1693 16.2035 10.1744C16.099 10.1763 15.9941 10.1757 15.8893 10.175H15.8893H15.8893H15.8892H15.8892H15.8892H15.8891H15.8891H15.8891C15.8367 10.1747 15.7844 10.1744 15.7321 10.1744ZM8.94697 8.06072C8.13176 7.80406 7.28803 7.73863 6.4383 7.72118H6.43905C5.98791 7.71463 5.53902 7.75244 5.09314 7.80988C4.54892 7.87968 4.01821 8.00983 3.51678 8.23304C3.32086 8.3203 3.2533 8.48898 3.32761 8.66057C3.39367 8.81326 3.57833 8.89033 3.75999 8.81544C4.50013 8.51006 5.2778 8.39082 6.07423 8.37265C7.11238 8.34938 8.14152 8.39518 9.11211 8.81471C9.29226 8.89251 9.47017 8.82635 9.55049 8.67002C9.63306 8.51006 9.58201 8.34865 9.39735 8.25049C9.25398 8.17415 9.10235 8.10944 8.94697 8.06072ZM9.58051 10.7691C9.57601 11.0687 9.35757 11.2257 9.14739 11.1305C8.63695 10.8993 8.09423 10.7975 7.54325 10.7335C6.70253 10.6353 5.8618 10.6404 5.02408 10.7757C4.59396 10.8447 4.17659 10.9531 3.775 11.121C3.58358 11.201 3.39592 11.1268 3.32611 10.9647C3.2533 10.7967 3.32611 10.6273 3.52203 10.5408C4.07751 10.2951 4.66602 10.1664 5.26879 10.0966C5.8663 10.0275 6.46682 10.0217 7.06659 10.0551C7.80823 10.0958 8.54086 10.194 9.23296 10.4747C9.40561 10.5445 9.58051 10.6208 9.58051 10.7684V10.7691ZM8.87827 13.3406C8.99787 13.3914 9.11698 13.4421 9.24877 13.4572V13.4579C9.39214 13.4746 9.47246 13.3954 9.54452 13.2907C9.60582 13.2014 9.55364 13.1739 9.50175 13.1466C9.47548 13.1328 9.44929 13.119 9.43793 13.0972C9.42612 13.0747 9.40948 13.0543 9.39285 13.034C9.37356 13.0104 9.35429 12.9868 9.3426 12.9598C9.27354 12.8042 9.13917 12.7388 8.98604 12.6886C8.47035 12.5207 7.93738 12.4363 7.39767 12.3854C6.63351 12.3134 5.8701 12.3229 5.10894 12.4269C4.55046 12.5032 4.00324 12.6239 3.4928 12.866C3.3179 12.9489 3.25484 13.1278 3.32991 13.2841C3.39972 13.4288 3.58287 13.5088 3.74877 13.4382C4.50842 13.1176 5.30937 13.0071 6.12757 12.9838C6.97205 12.9598 7.80752 13.0245 8.62723 13.247C8.71397 13.2707 8.79623 13.3057 8.87827 13.3406ZM6.41802 14.6496C7.34057 14.6714 8.2436 14.7281 9.10534 15.0444C9.20518 15.0807 9.30351 15.1236 9.39584 15.176C9.47251 15.219 9.47942 15.2806 9.48968 15.3721L9.49118 15.3854C9.5152 15.5919 9.42587 15.6253 9.26523 15.6842C9.17515 15.7169 9.11435 15.7278 9.03253 15.6966C7.9561 15.2887 6.83313 15.248 5.7004 15.3149C5.02782 15.3548 4.37251 15.485 3.74797 15.7453C3.56856 15.8202 3.3854 15.7337 3.3231 15.5752C3.25629 15.4057 3.3231 15.2487 3.50851 15.1651C4.06249 14.9135 4.6525 14.7892 5.25527 14.715C5.56666 14.6768 5.87947 14.6667 6.18538 14.6568H6.1854L6.18545 14.6568C6.26372 14.6543 6.34155 14.6518 6.41877 14.6488L6.41802 14.6496ZM12.156 1.31846C12.0832 1.24721 11.9953 1.20722 11.8933 1.19268L11.8925 1.19195C11.7619 1.22249 11.6553 1.27702 11.5975 1.40571C11.5367 1.54168 11.5832 1.65147 11.6771 1.74526C11.8707 1.93939 12.0659 2.13134 12.2693 2.31602C12.4322 2.46435 12.6086 2.45999 12.7422 2.32184C12.8729 2.18733 12.8668 2.01501 12.7152 1.86232C12.5931 1.73918 12.468 1.61895 12.3429 1.49882L12.3426 1.49854C12.2803 1.4386 12.2179 1.37869 12.156 1.31846ZM15.5692 12.97C14.8125 12.9969 14.0581 13.042 13.3285 13.2608C13.2195 13.2936 13.1145 13.3383 13.0098 13.3828L13.0098 13.3828C12.9774 13.3966 12.9451 13.4103 12.9126 13.4237C12.7175 13.5044 12.5448 13.455 12.454 13.2892C12.3699 13.1358 12.4224 12.9693 12.6034 12.8689C13.0177 12.6399 13.4779 12.5432 13.9418 12.469C14.9349 12.3091 15.9325 12.2938 16.9293 12.4298C17.4578 12.5018 17.9772 12.6225 18.4659 12.842C18.6693 12.9337 18.7534 13.1038 18.6776 13.2783C18.61 13.4353 18.4126 13.508 18.2235 13.4281C17.3752 13.0718 16.4767 12.9962 15.5692 12.97ZM18.4202 15.1287C17.5096 14.755 16.5488 14.6627 15.636 14.6539V14.6532C14.9657 14.6539 14.3607 14.6939 13.7639 14.8044C13.3653 14.8786 12.9712 14.9775 12.6117 15.1687C12.4345 15.2632 12.3714 15.4297 12.4473 15.5861C12.5261 15.7497 12.7107 15.8107 12.9007 15.7351C12.9419 15.7186 12.9828 15.701 13.0237 15.6835C13.1068 15.6478 13.1899 15.6122 13.276 15.5853C13.7669 15.4319 14.2728 15.3599 14.7863 15.3214C15.5302 15.2654 16.2696 15.2741 17.0067 15.3999C17.4286 15.4719 17.8377 15.5781 18.2325 15.7417C18.4967 15.8514 18.7354 15.6602 18.6919 15.3919C18.6679 15.2392 18.5493 15.1818 18.4202 15.1287Z" fill="#5B6B79"/>
</svg>
