<svg width="20" height="20" viewBox="0 0 20 20" fill="none" xmlns="http://www.w3.org/2000/svg">
<path d="M4.00067 5.9763C4.00067 5.02984 4.00067 4.07893 4.00067 3.12858C4.00067 2.40524 4.39911 2.00407 5.11808 2.00407C6.17984 2.00407 7.2416 2.00407 8.33453 2.00407C8.33453 1.90781 8.33341 1.82101 8.33453 1.73421C8.33954 1.46101 8.45695 1.34027 8.72907 1.3386C9.18705 1.33582 9.64504 1.33804 10.1091 1.33804C10.3328 0.768274 10.7163 0.357085 11.2839 0.136189C12.2688 -0.24718 13.3746 0.204071 13.8158 1.17279C13.8743 1.30076 13.9349 1.34583 14.0741 1.34194C14.4486 1.33136 14.8242 1.33804 15.1987 1.3386C15.5676 1.3386 15.665 1.43708 15.6673 1.8071C15.6673 1.86218 15.6673 1.91782 15.6673 2.00462C15.7474 2.00462 15.8203 2.00462 15.8932 2.00462C16.8999 2.00462 17.9071 2.00407 18.9138 2.00462C19.5904 2.00518 20 2.41693 20 3.09742C20 8.36665 20 13.6353 20 18.9046C20 19.5839 19.5888 19.9996 18.9149 19.9996C14.3039 20.0001 9.69345 20.0001 5.08246 19.9996C4.41858 19.9996 4.00067 19.5834 4.00011 18.9235C3.99844 17.9587 4.00011 16.9944 4.00011 16.0146C3.71297 15.9617 3.65343 15.7647 3.664 15.5071C3.6768 15.2022 3.67068 14.8962 3.664 14.5907C3.66233 14.5234 3.62504 14.456 3.6039 14.3893C3.53545 14.4221 3.45365 14.441 3.40134 14.4911C3.16539 14.7164 2.93946 14.9524 2.70741 15.1816C2.49094 15.3958 2.329 15.3986 2.11699 15.1883C1.67848 14.7532 1.24109 14.3169 0.805921 13.8779C0.603919 13.6743 0.606701 13.5112 0.812042 13.3031C1.0313 13.0806 1.25778 12.8653 1.4737 12.6393C1.53435 12.5759 1.56885 12.4869 1.6156 12.4095C1.52322 12.3845 1.4314 12.3411 1.33903 12.3383C1.03352 12.3294 0.728014 12.3361 0.422507 12.3344C0.120339 12.3328 0.00236504 12.2187 0.00125208 11.9227C-0.000417359 11.3117 -0.000417359 10.7008 0.00125208 10.0899C0.00180856 9.78105 0.117 9.66977 0.43308 9.66866C0.752499 9.66755 1.07192 9.67255 1.39134 9.66532C1.46535 9.66365 1.5388 9.6247 1.61226 9.603C1.57887 9.53456 1.55995 9.45277 1.50987 9.40047C1.28449 9.16455 1.04855 8.93864 0.819277 8.70662C0.604476 8.49018 0.60225 8.33048 0.814268 8.11738C1.24498 7.68393 1.67681 7.25216 2.11086 6.82149C2.32344 6.61061 2.49205 6.60894 2.70352 6.81649C2.94614 7.05463 3.18209 7.30001 3.42638 7.53648C3.46923 7.57766 3.54046 7.5899 3.59833 7.61549C3.62171 7.55651 3.66344 7.49809 3.66455 7.43911C3.67123 7.11973 3.66734 6.80035 3.66789 6.48152C3.66789 6.15602 3.7024 6.10316 4.00122 5.9763H4.00067ZM6.00844 17.9898H15.3345C15.3345 17.9058 15.3345 17.8312 15.3345 17.7572C15.3345 17.0907 15.3334 16.4241 15.3345 15.758C15.335 15.447 15.4491 15.3352 15.7641 15.3346C16.4307 15.3335 17.0974 15.3346 17.7641 15.3346C17.8381 15.3346 17.9115 15.3346 17.9861 15.3346V4.01272H15.675C15.6723 4.06113 15.6689 4.10119 15.6678 4.14125C15.6589 4.60085 15.5899 4.66873 15.1319 4.66873C13.0624 4.66873 10.9934 4.66873 8.92384 4.66873C8.8476 4.66873 8.77081 4.67096 8.69457 4.66817C8.46252 4.65816 8.34232 4.53575 8.33453 4.30038C8.33119 4.20579 8.33453 4.1112 8.33453 4.01773H6.00733V5.9852C6.2878 6.09204 6.33343 6.15714 6.33454 6.44814C6.3351 6.78143 6.3312 7.11472 6.33844 7.44801C6.33955 7.50477 6.37516 7.57821 6.41913 7.61049C6.4425 7.62718 6.53042 7.58322 6.56882 7.54539C6.81757 7.30335 7.05908 7.05407 7.30671 6.81036C7.51149 6.60839 7.67677 6.60783 7.88211 6.81092C8.32117 7.24604 8.75801 7.68282 9.19318 8.12183C9.39629 8.32659 9.39629 8.49073 9.19318 8.69716C8.94999 8.94476 8.70013 9.18569 8.45807 9.43441C8.42023 9.4728 8.37571 9.56183 8.3924 9.58408C8.42523 9.62804 8.49813 9.66309 8.55545 9.66421C8.90269 9.67144 9.24994 9.66588 9.59718 9.6681C9.8821 9.67033 10.0001 9.78884 10.0012 10.0754C10.0034 10.693 10.0034 11.3112 10.0012 11.9288C10.0001 12.2131 9.87987 12.3311 9.59328 12.3328C9.25327 12.335 8.91271 12.3305 8.5727 12.3361C8.51204 12.3372 8.45194 12.3751 8.39184 12.3956C8.41911 12.4591 8.43135 12.537 8.47643 12.5837C8.70737 12.8241 8.94832 13.0544 9.1826 13.2915C9.3974 13.509 9.40074 13.6704 9.19151 13.8813C8.76135 14.3153 8.32896 14.747 7.89547 15.1771C7.67621 15.3947 7.51038 15.3914 7.28779 15.1705C7.05129 14.9357 6.81924 14.6964 6.57939 14.4649C6.53654 14.4238 6.46587 14.4115 6.40855 14.3859C6.38462 14.4438 6.34066 14.5011 6.33899 14.5595C6.33232 14.8789 6.32675 15.1983 6.33899 15.5171C6.34845 15.7692 6.28168 15.9556 6.01011 16.0107V17.9876L6.00844 17.9898ZM15.6778 3.33668C15.7691 3.33668 15.8442 3.33668 15.9193 3.33668C16.6973 3.33668 17.4747 3.33556 18.2527 3.33668C18.5509 3.33723 18.6678 3.45408 18.6678 3.75399C18.6683 7.69673 18.67 11.6395 18.6617 15.5828C18.6617 15.7119 18.5927 15.8721 18.5014 15.9645C17.6656 16.8169 16.8208 17.6615 15.9678 18.4973C15.8748 18.5885 15.7157 18.6586 15.5866 18.6592C12.3089 18.6681 9.0318 18.6664 5.75413 18.6659C5.44696 18.6659 5.33455 18.5485 5.33399 18.2324C5.33288 17.5658 5.33399 16.8998 5.33399 16.2332V16.0168H4.66733C4.66733 16.9838 4.66733 17.9347 4.66733 18.8856C4.66733 19.2262 4.77473 19.333 5.11585 19.333C9.70569 19.333 14.2955 19.333 18.8854 19.333C19.2265 19.333 19.3345 19.2256 19.3345 18.8862C19.3345 13.6314 19.3345 8.37611 19.3345 3.12135C19.3345 2.77859 19.2276 2.67121 18.8893 2.67065C17.8826 2.67009 16.8754 2.67065 15.8687 2.67065H15.6773V3.33723L15.6778 3.33668ZM1.47759 8.41895C1.72968 8.67101 1.97119 8.91973 2.22105 9.15898C2.3841 9.31534 2.42194 9.47836 2.31231 9.6809C2.25332 9.78996 2.20936 9.90792 2.1654 10.0248C2.06968 10.2774 1.99233 10.3341 1.71688 10.3347C1.37186 10.3358 1.0274 10.3347 0.681826 10.3347V11.6679C0.994567 11.6679 1.29228 11.6679 1.59056 11.6679C1.88994 11.6679 2.09584 11.8096 2.20825 12.0929C2.23663 12.1636 2.26724 12.2337 2.30007 12.3022C2.42305 12.5609 2.40914 12.6516 2.20602 12.8547C1.96173 13.0995 1.71576 13.3421 1.50152 13.5546C1.82316 13.8785 2.12812 14.1862 2.44086 14.5017C2.67013 14.2713 2.91887 14.0298 3.15816 13.7794C3.31453 13.6159 3.47758 13.5786 3.68014 13.6887C3.78921 13.7477 3.90718 13.7917 4.02404 13.8356C4.27724 13.9308 4.33289 14.007 4.334 14.2841C4.33511 14.6285 4.334 14.9735 4.334 15.319H5.66732C5.66732 14.9646 5.66677 14.6252 5.66732 14.2858C5.66788 14.0081 5.72353 13.9308 5.97506 13.8367C6.08524 13.7956 6.19487 13.7511 6.30115 13.701C6.56103 13.5791 6.65062 13.5919 6.85374 13.795C7.09859 14.0393 7.34177 14.2847 7.55601 14.4994C7.87821 14.1778 8.18483 13.8718 8.50258 13.5546C8.27443 13.3287 8.03125 13.0817 7.78027 12.843C7.61667 12.6878 7.57827 12.5242 7.68845 12.3216C7.74744 12.2126 7.7914 12.0946 7.83537 11.9778C7.93164 11.7229 8.0062 11.6684 8.28333 11.6679C8.62835 11.6673 8.97281 11.6679 9.3195 11.6679V10.3347C8.97225 10.3347 8.64003 10.3347 8.30726 10.3347C8.00064 10.3347 7.93553 10.2874 7.83036 10.0075C7.7914 9.90402 7.748 9.80164 7.7007 9.70149C7.57827 9.43997 7.59107 9.35206 7.79419 9.14897C8.03904 8.9047 8.285 8.66211 8.50147 8.44733C8.17816 8.12406 7.87209 7.81747 7.5549 7.50032C7.33398 7.72344 7.0958 7.96548 6.85541 8.20585C6.65118 8.41005 6.56047 8.42341 6.30338 8.30266C6.19709 8.25259 6.08747 8.20807 5.97728 8.1669C5.72353 8.07231 5.66732 7.99552 5.66677 7.71954C5.66565 7.37457 5.66677 7.03015 5.66677 6.6835H4.33344C4.33344 7.03015 4.33344 7.36288 4.33344 7.69506C4.33344 8.00109 4.28503 8.06786 4.00568 8.17135C3.90161 8.20974 3.79978 8.2537 3.69961 8.30099C3.44029 8.42341 3.35014 8.41005 3.14703 8.20752C2.90218 7.96381 2.65788 7.71899 2.41804 7.47973C2.10085 7.79633 1.79645 8.10013 1.47759 8.4184V8.41895ZM9.01065 3.98824H14.9833V2.00351C14.5565 2.00351 14.147 2.00407 13.7374 2.00351C13.4514 2.00295 13.3668 1.93897 13.2911 1.67189C13.118 1.06206 12.6066 0.668119 11.9906 0.670902C11.3868 0.673684 10.8776 1.07096 10.7096 1.67022C10.635 1.9373 10.5488 2.00295 10.2644 2.00351C9.84982 2.00462 9.43524 2.00351 9.01065 2.00351V3.98824ZM5.33344 5.99244C5.33344 5.24239 5.33288 4.50848 5.33344 3.77402C5.33344 3.44685 5.44362 3.33668 5.76972 3.33668C6.54712 3.33556 7.32452 3.33668 8.10136 3.33668C8.17482 3.33668 8.24827 3.33668 8.31672 3.33668V2.67009C7.23159 2.67009 6.16315 2.66954 5.09415 2.67009C4.7803 2.67009 4.66733 2.78305 4.66677 3.09519C4.66566 4.00382 4.66677 4.913 4.66677 5.82162V5.99188H5.33344V5.99244ZM16.0134 16.0084V17.4373C16.4853 16.966 16.97 16.4814 17.443 16.0084H16.0134Z" fill="#5B6B79"/>
<path d="M11.0051 16.0001C12.0674 16.0001 13.1303 16.0001 14.1926 16.0001C14.2549 16.0001 14.3195 15.994 14.3796 16.0056C14.5587 16.0413 14.6645 16.1531 14.6634 16.3373C14.6623 16.512 14.5587 16.6199 14.3912 16.6583C14.3317 16.6722 14.2671 16.6661 14.2043 16.6661C12.0657 16.6661 9.92661 16.6661 7.78806 16.6661C7.72574 16.6661 7.66063 16.6722 7.60164 16.6567C7.43581 16.6133 7.33565 16.5036 7.33787 16.3284C7.34065 16.1537 7.44193 16.0452 7.60999 16.0079C7.67677 15.9934 7.748 16.0001 7.81756 16.0001C8.87988 16.0001 9.94275 16.0001 11.0051 16.0001Z" fill="#5B6B79"/>
<path d="M14.6884 6.00245C15.2093 6.00245 15.7301 6.00134 16.251 6.00245C16.5137 6.003 16.6661 6.12764 16.6661 6.33518C16.6661 6.54273 16.5131 6.66792 16.2504 6.66792C15.1948 6.66903 14.1397 6.66903 13.0841 6.66792C12.8214 6.66792 12.6689 6.54273 12.6695 6.33463C12.6695 6.12653 12.8214 6.003 13.0846 6.00245C13.6194 6.00134 14.1542 6.00245 14.6884 6.00245Z" fill="#5B6B79"/>
<path d="M14.684 7.33562C15.2048 7.33562 15.7257 7.3345 16.2466 7.33562C16.5114 7.33617 16.6634 7.45691 16.6661 7.6639C16.6689 7.87144 16.5148 8.00053 16.2549 8.00109C15.1993 8.0022 14.1442 8.0022 13.0885 8.00109C12.8236 8.00109 12.6723 7.87923 12.6695 7.67225C12.6667 7.46415 12.8198 7.33617 13.0802 7.33562C13.615 7.33395 14.1497 7.33562 14.684 7.33562Z" fill="#5B6B79"/>
<path d="M14.6606 10.0014C14.133 10.0014 13.6049 10.0025 13.0774 10.0014C12.8181 10.0003 12.665 9.87008 12.6695 9.66142C12.674 9.45944 12.8214 9.33648 13.0707 9.33592C14.133 9.33481 15.1954 9.33481 16.2577 9.33592C16.5164 9.33592 16.6706 9.46723 16.6661 9.67533C16.6617 9.87564 16.512 10.0003 16.2644 10.0008C15.7296 10.0025 15.1948 10.0014 14.6606 10.0014Z" fill="#5B6B79"/>
<path d="M14.6467 11.3346C14.1258 11.3346 13.6049 11.3357 13.0841 11.3346C12.8214 11.334 12.6689 11.2094 12.6689 11.0018C12.6689 10.7937 12.8209 10.6696 13.0841 10.6691C14.1397 10.668 15.1948 10.668 16.2504 10.6691C16.5131 10.6691 16.6656 10.7937 16.6656 11.0018C16.6656 11.2094 16.5125 11.334 16.2504 11.3351C15.7157 11.3368 15.1809 11.3351 14.6467 11.3351V11.3346Z" fill="#5B6B79"/>
<path d="M14.6511 13.3338C14.1303 13.3338 13.6094 13.3349 13.0885 13.3338C12.8236 13.3332 12.6723 13.2125 12.6689 13.0049C12.6662 12.7963 12.8186 12.6683 13.0796 12.6683C14.1353 12.6672 15.1904 12.6672 16.246 12.6683C16.5109 12.6683 16.6628 12.7896 16.6656 12.9966C16.6684 13.2041 16.5142 13.3332 16.2549 13.3338C15.7201 13.3354 15.1853 13.3338 14.6511 13.3338Z" fill="#5B6B79"/>
<path d="M14.6678 14.6669C14.1403 14.6669 13.6122 14.668 13.0846 14.6669C12.822 14.6664 12.6695 14.5417 12.6695 14.3342C12.6695 14.1261 12.8214 14.0014 13.0841 14.0014C14.1397 14.0003 15.1948 14.0003 16.2504 14.0014C16.5137 14.0014 16.6656 14.1261 16.6661 14.3336C16.6661 14.5412 16.5131 14.6664 16.251 14.6669C15.7235 14.6686 15.1954 14.6669 14.6678 14.6669Z" fill="#5B6B79"/>
<path d="M11.4959 6.66848C11.4614 6.66848 11.4263 6.66903 11.3918 6.66848C11.1486 6.66291 10.9995 6.53327 11.0023 6.33074C11.0051 6.1282 11.1525 6.00635 11.4007 6.00245C11.4842 6.00134 11.5677 5.99911 11.6506 6.00356C11.862 6.01414 12.0012 6.15101 11.9984 6.34019C11.9956 6.52826 11.8548 6.65846 11.6411 6.66848C11.5927 6.6707 11.5437 6.66848 11.4953 6.66848H11.4959Z" fill="#5B6B79"/>
<path d="M11.4814 7.99998C11.4258 7.99998 11.3701 8.00498 11.315 7.99886C11.1303 7.97939 11.0034 7.84363 11.0023 7.67002C11.0012 7.49642 11.1275 7.35454 11.3111 7.33896C11.4286 7.32894 11.5471 7.33061 11.6651 7.33729C11.8637 7.34842 11.9978 7.48474 11.9989 7.66613C12.0001 7.84696 11.8659 7.9844 11.6689 7.99998C11.6066 8.00498 11.5443 8.00053 11.4814 8.00053C11.4814 8.00053 11.4814 7.99998 11.4814 7.99942V7.99998Z" fill="#5B6B79"/>
<path d="M11.5009 10.0014C11.4803 10.0014 11.4592 10.0014 11.4386 10.0014C11.1575 9.99972 11.0028 9.88121 11.0028 9.6681C11.0028 9.45444 11.157 9.33648 11.438 9.33481C11.5076 9.33481 11.5771 9.33203 11.6461 9.33537C11.8593 9.34538 11.9989 9.47781 11.9989 9.66699C11.9989 9.85561 11.8587 9.98859 11.6467 9.99972C11.5983 10.0025 11.5493 9.99972 11.5009 10.0003V10.0014Z" fill="#5B6B79"/>
<path d="M11.4959 11.3346C11.4614 11.3346 11.4263 11.3351 11.3918 11.3346C11.1486 11.329 10.9995 11.1993 11.0023 10.9968C11.0051 10.7943 11.1525 10.6724 11.4007 10.6685C11.4842 10.6674 11.5677 10.6652 11.6506 10.6696C11.862 10.6802 12.0012 10.8171 11.9989 11.0063C11.9962 11.1943 11.8554 11.3245 11.6417 11.3346C11.5933 11.3368 11.5443 11.3346 11.4959 11.3346Z" fill="#5B6B79"/>
<path d="M11.5209 12.6711C11.5833 12.6711 11.6472 12.6616 11.7079 12.6727C11.8876 12.7056 11.9956 12.8163 11.9962 12.9999C11.9962 13.1841 11.8882 13.3004 11.7085 13.3265C11.586 13.3443 11.4586 13.3382 11.3345 13.331C11.1364 13.3198 11.0028 13.1819 11.0023 13.0005C11.0023 12.8185 11.1353 12.6833 11.3334 12.6688C11.3957 12.6644 11.458 12.6683 11.5209 12.6683C11.5209 12.6694 11.5209 12.67 11.5209 12.6711Z" fill="#5B6B79"/>
<path d="M11.4803 14.6636C11.418 14.6636 11.354 14.673 11.2933 14.6619C11.1141 14.6291 11.0101 14.5195 11.0034 14.3347C10.9973 14.1611 11.1281 14.0204 11.3122 14.0048C11.4297 13.9948 11.5482 13.9964 11.6662 14.0031C11.8643 14.0142 11.9984 14.1517 11.9989 14.3331C11.9989 14.5139 11.8654 14.6508 11.6678 14.6658C11.6055 14.6703 11.5432 14.6664 11.4803 14.6664C11.4803 14.6652 11.4803 14.6647 11.4803 14.6636Z" fill="#5B6B79"/>
<path d="M2.66734 11.0052C2.66734 9.71095 3.71408 8.66767 5.01123 8.66879C6.28112 8.6699 7.3312 9.71818 7.33342 10.9857C7.33565 12.2894 6.28168 13.3399 4.9784 13.3338C3.71019 13.3276 2.6679 12.2771 2.6679 11.0052H2.66734ZM3.33401 11.0029C3.33734 11.9238 4.08637 12.6683 5.00845 12.6672C5.92497 12.6661 6.67065 11.911 6.6662 10.9879C6.66175 10.0704 5.90605 9.32869 4.9823 9.33537C4.07357 9.34204 3.33067 10.0932 3.33401 11.0029Z" fill="#5B6B79"/>
<path d="M4.6434 11.2233C4.9873 10.8777 5.28502 10.5784 5.58385 10.2796C5.70405 10.1594 5.84484 10.1205 6.0001 10.2C6.13922 10.2718 6.19932 10.3976 6.16537 10.5478C6.14812 10.6235 6.10026 10.7019 6.04517 10.7587C5.68123 11.1304 5.3134 11.4987 4.94279 11.8637C4.75303 12.0507 4.58831 12.0501 4.39911 11.8693C4.25386 11.7302 4.11029 11.5888 3.97284 11.4425C3.82927 11.2895 3.82816 11.0892 3.9606 10.9584C4.09249 10.8277 4.29115 10.8304 4.44418 10.9751C4.51374 11.0408 4.56605 11.1248 4.64396 11.2233H4.6434Z" fill="#5B6B79"/>
</svg>
