<svg width="20" height="20" viewBox="0 0 20 20" fill="none" xmlns="http://www.w3.org/2000/svg">
<path d="M0.00159769 18.3532C0.00159769 14.5912 0.00159769 10.8291 0.00159769 7.06764C0.00852101 7.05699 0.0202374 7.04687 0.0218351 7.03516C0.143792 6.11329 0.939973 5.41031 1.97421 5.45344C2.3699 5.46995 2.76773 5.46516 3.16342 5.45131C3.29869 5.44652 3.44834 5.41297 3.56444 5.3464C5.57114 4.18541 7.56506 3.00206 9.58081 1.85705C10.6997 1.2217 11.7483 0.454809 12.9658 0H13.4344C14.2242 0.12462 14.6742 0.643869 15.0412 1.30904C15.782 2.65216 16.5606 3.97505 17.3179 5.30912C17.3866 5.43001 17.4697 5.487 17.6028 5.5051C17.9133 5.54824 18.1844 5.68617 18.424 5.88429C18.8937 6.27199 19.0881 6.78432 19.0887 7.38079C19.0897 8.22011 19.0913 9.05996 19.0865 9.89928C19.086 10.0228 19.1142 10.0931 19.2351 10.1538C19.7187 10.3967 19.9812 10.8014 19.9892 11.3399C20.0036 12.2639 20.0036 13.1884 19.9892 14.1124C19.9807 14.6519 19.7112 15.0524 19.2308 15.2968C19.119 15.3538 19.086 15.4134 19.0865 15.5322C19.0913 16.3715 19.0913 17.2114 19.0876 18.0507C19.0865 18.3644 19.0476 18.6743 18.9007 18.9587C18.5396 19.6569 17.9559 19.9919 17.1789 19.9929C14.9858 19.9961 12.7922 19.994 10.5991 19.994C7.70938 19.994 4.81969 19.9929 1.93001 19.9945C1.28454 19.9945 0.751979 19.7671 0.355752 19.2458C0.154443 18.9805 0.0644401 18.6727 0 18.3537L0.00159769 18.3532ZM18.1647 15.4518C18.0661 15.4518 17.9831 15.4518 17.9 15.4518C16.9957 15.4454 16.0893 15.4784 15.1876 15.4236C13.5793 15.3256 12.4146 13.6879 12.797 12.1206C13.1064 10.8515 14.1603 10.009 15.4662 9.9978C16.2927 9.99088 17.1192 9.99621 17.9452 9.99621C18.015 9.99621 18.0848 9.99621 18.1609 9.99621C18.1668 9.94561 18.1737 9.91472 18.1737 9.8833C18.1742 9.02428 18.1817 8.16525 18.1716 7.30623C18.1647 6.70923 17.786 6.36253 17.1672 6.36253C12.0849 6.362 7.00267 6.36253 1.92095 6.36359C1.81764 6.36359 1.71112 6.36679 1.61154 6.39129C1.15353 6.50259 0.907487 6.85994 0.907487 7.40369C0.907487 10.566 0.907487 13.7289 0.907487 16.8913C0.907487 17.295 0.907487 17.6981 0.907487 18.1018C0.90802 18.4411 1.01027 18.751 1.3149 18.9156C1.51088 19.0215 1.75692 19.0801 1.9806 19.0807C7.02344 19.0897 12.0668 19.0876 17.1096 19.0871C17.1874 19.0871 17.2662 19.086 17.3434 19.0764C17.803 19.0194 18.1503 18.7063 18.1593 18.2744C18.178 17.345 18.1652 16.4147 18.1652 15.4518H18.1647ZM16.9382 14.5257C16.9382 14.5299 16.9382 14.5336 16.9382 14.5379C17.4585 14.5379 17.9793 14.539 18.4996 14.5379C18.9241 14.5368 19.0887 14.3728 19.0892 13.9484C19.0902 13.1351 19.0902 12.3219 19.0892 11.5087C19.0892 11.0736 18.9214 10.9037 18.4911 10.9032C17.5149 10.9021 16.5393 10.8968 15.5631 10.9074C15.3389 10.9101 15.1093 10.9479 14.8931 11.0086C14.1358 11.2211 13.518 12.0551 13.6597 13.0185C13.7731 13.7886 14.4836 14.4815 15.2984 14.5209C15.8437 14.547 16.3907 14.5257 16.9371 14.5257H16.9382ZM14.0053 1.36176C13.706 0.895238 13.2203 0.782867 12.7362 1.06406C10.2806 2.4908 7.82708 3.92126 5.37303 5.35066C5.33735 5.37143 5.30592 5.39912 5.22817 5.45611C5.77937 5.45611 6.27732 5.46303 6.77473 5.45131C6.90361 5.44812 7.04687 5.41403 7.15764 5.34959C9.38482 4.06026 11.6083 2.764 13.8323 1.46934C13.8876 1.43739 13.9409 1.40171 14.0053 1.36123V1.36176ZM8.86611 5.41297C8.87037 5.42735 8.87516 5.44173 8.87942 5.45611C9.39015 5.45611 9.90034 5.46143 10.4111 5.45185C10.5213 5.44972 10.6433 5.41723 10.7386 5.36184C12.0775 4.58909 13.4126 3.80995 14.7483 3.03188C14.8021 3.00046 14.8526 2.96371 14.9112 2.9259C14.7605 2.66335 14.6183 2.41624 14.4665 2.15155C12.593 3.24224 10.7295 4.32761 8.86611 5.41297ZM15.3676 3.72261C14.3856 4.29512 13.427 4.85431 12.4231 5.4396H16.3491C16.0168 4.85804 15.6984 4.30098 15.3676 3.72261Z" fill="#5B6B79"/>
<path d="M15.4475 11.8202C15.9481 11.8181 16.3582 12.2223 16.3603 12.7192C16.3625 13.2139 15.9524 13.6267 15.456 13.6288C14.9592 13.6309 14.5491 13.2257 14.5448 12.7277C14.5406 12.2308 14.9469 11.8224 15.4475 11.8202Z" fill="#5B6B79"/>
</svg>
