<svg width="21" height="20" viewBox="0 0 21 20" fill="none" xmlns="http://www.w3.org/2000/svg">
<path d="M2.20152 7.90361C2.20152 8.00319 2.20152 8.08877 2.20152 8.1749C2.20152 11.5197 2.20152 14.864 2.20152 18.2088C2.20152 18.5705 2.16922 18.6028 1.81558 18.6033C1.50661 18.6033 1.19765 18.6044 0.888682 18.6033C0.629775 18.6022 0.571642 18.5446 0.571642 18.2814C0.571103 16.3604 0.571642 14.4398 0.571642 12.5187C0.571642 11.0546 0.571642 9.59054 0.571642 8.12645C0.571642 8.05432 0.571642 7.9822 0.571642 7.91545C0.10873 7.81856 0 7.68184 0 7.21947C0 6.27265 0 5.3253 0 4.37849C0 3.94356 0.172784 3.7697 0.601785 3.7471C0.718589 3.74118 0.839161 3.70834 0.948968 3.6642C3.92452 2.45956 6.90007 1.2533 9.87347 0.0416528C10.0253 -0.0202482 10.1491 -0.00948279 10.2944 0.0497268C13.2683 1.25976 16.2439 2.46709 19.2205 3.67066C19.3352 3.71695 19.4649 3.73956 19.5892 3.74817C19.9639 3.77347 20.1474 3.95917 20.1479 4.34027C20.1496 5.30054 20.1485 6.26135 20.1479 7.22162C20.1479 7.68346 20.0446 7.81318 19.5763 7.91707V8.16898C19.5763 11.5202 19.5763 14.8715 19.5763 18.2233C19.5763 18.5662 19.5386 18.6039 19.1957 18.6039C18.8868 18.6039 18.5778 18.6044 18.2688 18.6039C18.0035 18.6028 17.947 18.549 17.9464 18.2879C17.9448 17.6635 17.9464 17.0386 17.9464 16.4142C17.9464 13.6674 17.9464 10.9201 17.9464 8.17328V7.90415H2.20152V7.90361ZM10.0742 7.48806C13.2027 7.48806 16.3316 7.48806 19.46 7.48806C19.6502 7.48806 19.7453 7.39118 19.7453 7.1974C19.7453 6.29741 19.7453 5.39797 19.7453 4.49798C19.7453 4.26832 19.6332 4.15331 19.4089 4.15295C16.435 4.15295 13.4605 4.15295 10.4866 4.15295C7.22357 4.15295 3.96058 4.15295 0.698135 4.15295C0.501487 4.15295 0.402984 4.24804 0.402625 4.43823C0.402625 5.35814 0.402625 6.27804 0.402625 7.19794C0.402625 7.391 0.497899 7.48771 0.688446 7.48806C3.81686 7.48806 6.94582 7.48806 10.0742 7.48806ZM1.93615 3.70403C1.93938 3.71265 1.94207 3.72126 1.9453 3.73041H18.2656C18.173 3.68735 18.1386 3.66959 18.1025 3.65505C15.4693 2.58551 12.8366 1.51543 10.2007 0.451814C10.1211 0.419518 10.0027 0.432974 9.91868 0.466347C7.64988 1.3814 5.38269 2.30184 3.1155 3.22175C2.72203 3.38161 2.32909 3.54363 1.93562 3.70457L1.93615 3.70403ZM0.989877 7.90307V18.1862H1.7849V7.90307H0.989877ZM19.1618 7.90146C19.0854 7.89769 19.0197 7.8923 18.9546 7.89177C18.7619 7.89069 18.5692 7.89177 18.3652 7.89177V18.1948H19.1618V7.90146Z" fill="#5B6B79"/>
<path d="M6.02754 11.9514C6.02754 11.8529 6.02754 11.7738 6.02754 11.6952C6.02754 10.849 6.02754 10.0029 6.02754 9.1567C6.02754 8.86496 6.07275 8.82136 6.3688 8.82082C7.31561 8.82082 8.26243 8.82082 9.20871 8.82082C9.50368 8.82082 9.55105 8.86765 9.55105 9.15455C9.55105 12.1898 9.55105 15.2251 9.55105 18.2604C9.55105 18.5549 9.50475 18.6022 9.21732 18.6028C7.22303 18.6028 5.22928 18.6028 3.235 18.6028C2.94918 18.6028 2.90073 18.5527 2.90073 18.2599C2.90073 16.2656 2.90073 14.2708 2.90073 12.2765C2.90073 11.9939 2.94379 11.9514 3.22746 11.9514C4.08008 11.9514 4.9327 11.9514 5.78585 11.9514C5.85798 11.9514 5.93011 11.9514 6.027 11.9514H6.02754ZM6.01031 18.1948V15.4884H5.32133C5.32133 15.736 5.32294 15.9696 5.32133 16.2037C5.31917 16.4755 5.18622 16.566 4.951 16.4249C4.74753 16.3028 4.58175 16.3071 4.37936 16.4249C4.1409 16.5644 4.01064 16.4772 4.00634 16.2032C4.00257 15.9696 4.0058 15.7354 4.0058 15.4905H3.32112V18.1948H6.01085H6.01031ZM3.31466 12.361V15.0567H6.01569V12.3696H5.32133C5.32133 12.6049 5.32187 12.825 5.32133 13.0457C5.32025 13.3633 5.20291 13.4435 4.92785 13.2885C4.74807 13.1873 4.60059 13.1722 4.41327 13.2815C4.12691 13.4489 4.00741 13.3681 4.00526 13.0376C4.00364 12.8132 4.00526 12.5887 4.00526 12.361H3.31466ZM6.442 9.23421V11.9374H9.13389V9.2396H8.45082C8.45082 9.48236 8.45298 9.71004 8.45082 9.93719C8.44759 10.2246 8.31464 10.3167 8.07188 10.1724C7.87649 10.0562 7.71716 10.054 7.51908 10.1686C7.26071 10.3183 7.13368 10.2289 7.1326 9.92858C7.13153 9.69766 7.1326 9.46621 7.1326 9.23475H6.44254L6.442 9.23421ZM9.13496 18.1937V15.4889H8.45082C8.45082 15.7306 8.45244 15.9583 8.45082 16.1854C8.44759 16.475 8.31626 16.5681 8.07457 16.4233C7.87111 16.3011 7.70532 16.3071 7.50347 16.4249C7.26663 16.5633 7.13529 16.4739 7.13314 16.2026C7.13099 15.9647 7.13314 15.7263 7.13314 15.4744C6.94206 15.4744 6.78111 15.4835 6.62179 15.4717C6.46999 15.4604 6.42693 15.5147 6.42801 15.6644C6.43447 16.4492 6.4307 17.2345 6.43178 18.0193C6.43178 18.0764 6.44254 18.1329 6.44846 18.1937H9.1355H9.13496ZM6.44254 15.0551H9.13658V12.3659H8.45082C8.45082 12.6178 8.45513 12.8578 8.44975 13.0979C8.44383 13.3455 8.30441 13.4386 8.09449 13.3094C7.88133 13.1786 7.70532 13.1733 7.49001 13.3068C7.2704 13.4424 7.13529 13.3466 7.1326 13.0839C7.12991 12.8449 7.1326 12.6054 7.1326 12.3664H6.44308V15.0551H6.44254ZM8.03905 9.65083C8.07888 9.18523 8.02559 9.14002 7.54384 9.25305V9.65083H8.03905ZM4.41919 15.8996H4.90255V15.4932H4.41919V15.8996ZM7.54599 15.4846V15.8991H8.0299V15.4846H7.54599ZM8.03797 12.3691H7.54976V12.7728H8.03797V12.3691ZM4.91117 12.3632H4.42349V12.7733H4.91117V12.3632Z" fill="#5B6B79"/>
<path d="M15.19 12.8837C15.7864 13.1582 16.2735 13.5097 16.6449 13.9995C17.4695 15.0873 17.6574 16.2818 17.2085 17.5725C17.1837 17.6436 17.1347 17.7238 17.0739 17.7582C17.0238 17.7868 16.8979 17.7765 16.8785 17.7421C16.8349 17.6651 16.8091 17.5575 16.8252 17.4713C16.8796 17.1823 16.9802 16.9008 17.019 16.6106C17.209 15.1928 16.2794 13.69 14.9289 13.2206C14.8605 13.1969 14.7572 13.2126 14.6926 13.2492C14.4353 13.3934 14.185 13.5506 13.9358 13.7094C13.8071 13.7912 13.693 13.7939 13.5633 13.7099C13.3152 13.55 13.0622 13.3972 12.8081 13.2475C12.7559 13.2169 12.6784 13.1851 12.6289 13.2018C12.1983 13.3482 11.8215 13.584 11.4641 13.9285C11.5706 13.9182 11.6455 13.8886 11.6977 13.9112C11.7741 13.9441 11.885 14.0119 11.8882 14.0695C11.892 14.1427 11.8139 14.2746 11.7515 14.288C11.47 14.3472 11.1825 14.386 10.8956 14.4075C10.7358 14.4194 10.6733 14.3009 10.6916 14.1508C10.7218 13.9042 10.7611 13.6593 10.7923 13.4128C10.8101 13.2707 10.8752 13.1792 11.0264 13.2023C11.1782 13.2255 11.2105 13.339 11.1906 13.4752C11.1847 13.514 11.1777 13.5533 11.1712 13.5926C11.5383 13.3482 11.9001 13.1071 12.2639 12.8648C12.2058 12.804 12.1347 12.727 12.061 12.6528C11.7488 12.3384 11.5766 11.9665 11.5782 11.5175C11.5803 10.9131 11.5825 10.3086 11.5766 9.70412C11.5749 9.52057 11.6487 9.42583 11.8236 9.36931C12.4103 9.17984 12.9911 8.97207 13.5789 8.78475C13.685 8.75084 13.8201 8.7503 13.9256 8.78368C14.5133 8.97099 15.0941 9.17877 15.6809 9.36877C15.8547 9.42529 15.9268 9.51734 15.9236 9.70358C15.9145 10.2677 15.9053 10.8323 15.9247 11.3959C15.9435 11.9395 15.7411 12.375 15.3563 12.74C15.3127 12.7814 15.2658 12.818 15.1905 12.8826L15.19 12.8837ZM15.5167 10.75C15.5167 10.4679 15.5113 10.1864 15.5194 9.90489C15.5226 9.78701 15.4892 9.72888 15.3708 9.69066C14.874 9.53079 14.3815 9.35532 13.8847 9.19545C13.8028 9.16908 13.6979 9.17177 13.6155 9.19814C13.1182 9.35801 12.6256 9.53241 12.1288 9.69228C12.0104 9.73049 11.9781 9.7897 11.9792 9.90758C11.9851 10.4109 11.9916 10.9141 11.9786 11.4169C11.9673 11.8448 12.1111 12.2028 12.4464 12.4568C12.835 12.7518 13.2473 13.0161 13.6532 13.2874C13.6941 13.3148 13.7797 13.3277 13.8152 13.3041C14.2636 13.0005 14.7227 12.7093 15.1442 12.3712C15.4203 12.1505 15.535 11.8201 15.5188 11.4535C15.5086 11.2193 15.5167 10.9841 15.5167 10.7489V10.75Z" fill="#5B6B79"/>
<path d="M13.7614 18.0478C13.271 18.0478 12.7807 18.0484 12.2908 18.0478C12.0416 18.0473 11.9883 17.9999 11.9878 17.7588C11.9856 16.7781 11.9856 15.7973 11.9878 14.8166C11.9878 14.5814 12.0416 14.5281 12.2709 14.5276C13.2581 14.5259 14.2453 14.5259 15.2325 14.5276C15.4612 14.5276 15.5134 14.583 15.514 14.8171C15.5151 15.7979 15.5151 16.7786 15.514 17.7593C15.514 17.9935 15.4618 18.0468 15.2319 18.0473C14.7416 18.0489 14.2512 18.0478 13.7614 18.0478ZM13.0945 14.9442H12.4028V17.6285H15.0974V14.9436H14.4111C14.4111 15.1907 14.4143 15.4248 14.41 15.6585C14.4052 15.9244 14.2717 16.0186 14.052 15.884C13.8373 15.7521 13.6607 15.7548 13.447 15.8851C13.2274 16.0186 13.0966 15.9227 13.0945 15.6563C13.0923 15.4227 13.0945 15.1891 13.0945 14.9442ZM14.0009 14.9442H13.5116V15.349H14.0009V14.9442Z" fill="#5B6B79"/>
<path d="M16.0033 18.6502C15.9322 18.6572 15.8553 18.6878 15.8063 18.6636C15.7266 18.6243 15.6281 18.5586 15.6087 18.4849C15.5947 18.4322 15.6857 18.2997 15.7476 18.2868C16.0296 18.2292 16.3165 18.1932 16.6034 18.1657C16.7391 18.1528 16.8209 18.2427 16.8074 18.381C16.7811 18.6545 16.7472 18.9279 16.7063 19.1997C16.688 19.3198 16.6083 19.393 16.478 19.3741C16.3456 19.3553 16.3058 19.2632 16.3128 19.1405C16.316 19.0899 16.3128 19.0388 16.3128 18.9613C16.2293 19.0291 16.1648 19.084 16.098 19.1357C14.8756 20.0787 13.5391 20.2746 12.152 19.6018C10.767 18.9306 10.0624 17.7679 10.0737 16.2204C10.0764 15.8129 10.2072 15.4055 10.2928 15.0007C10.3218 14.8634 10.4037 14.7375 10.5775 14.8037C10.7471 14.8683 10.7186 15.0018 10.6696 15.1406C9.9892 17.0806 11.0948 19.0894 13.0923 19.506C14.1581 19.7283 15.1124 19.4522 15.9387 18.7417C15.9538 18.7287 15.9694 18.7153 15.9817 18.6997C15.9893 18.69 15.992 18.676 16.0022 18.6502H16.0033Z" fill="#5B6B79"/>
<path d="M8.03851 9.65083H7.5433V9.25305C8.02505 9.14001 8.07834 9.18576 8.03851 9.65083Z" fill="white"/>
<path d="M4.41919 15.9001V15.4937H4.90255V15.9001H4.41919Z" fill="white"/>
<path d="M7.54599 15.4851H8.0299V15.8996H7.54599V15.4851Z" fill="white"/>
<path d="M8.03797 12.3696V12.7733H7.54976V12.3696H8.03797Z" fill="white"/>
<path d="M4.91063 12.3632V12.7733H4.42296V12.3632H4.91063Z" fill="white"/>
<path d="M14.0009 14.9436V15.3484H13.5116V14.9436H14.0009Z" fill="white"/>
<path d="M10.0942 5.13798C10.9602 5.13798 11.8263 5.13798 12.6924 5.13798C12.9432 5.13798 12.9868 5.18105 12.989 5.43026C12.9911 5.70532 12.9879 5.98091 12.9895 6.25597C12.9906 6.43144 12.9088 6.51326 12.7322 6.51326C10.9597 6.51218 9.18771 6.51218 7.41519 6.51326C7.23864 6.51326 7.15682 6.43144 7.15844 6.25543C7.16059 5.97338 7.15628 5.69132 7.15951 5.40927C7.16221 5.18481 7.21065 5.13798 7.43565 5.13745C8.32164 5.13637 9.20817 5.13745 10.0942 5.13691V5.13798ZM12.5761 5.55299H7.57506V6.0961H12.5761V5.55299Z" fill="#5B6B79"/>
<path d="M13.2721 11.6893C13.7113 11.25 14.136 10.8232 14.5634 10.399C14.6743 10.2892 14.79 10.1148 14.9617 10.2817C15.1356 10.4507 14.9617 10.5686 14.8525 10.6795C14.3895 11.1456 13.9239 11.6096 13.4589 12.073C13.2468 12.2846 13.1429 12.2722 12.997 12.0198C12.8431 11.7528 12.6913 11.4847 12.5368 11.2183C12.4658 11.0961 12.4335 10.968 12.575 10.8851C12.7145 10.8033 12.814 10.8851 12.8851 11.011C13.0094 11.2323 13.137 11.4519 13.2726 11.6893H13.2721Z" fill="#5B6B79"/>
</svg>
