<svg width="20" height="20" viewBox="0 0 20 20" fill="none" xmlns="http://www.w3.org/2000/svg">
<path d="M1.60131 11.2567C1.15603 11.157 0.734216 11.0665 0.314001 10.9668C-0.0267582 10.8865 -0.101949 10.6117 0.146554 10.3589C0.751281 9.74406 1.35814 9.13081 1.9682 8.5208C2.02686 8.46206 2.10632 8.40386 2.18417 8.38877C3.87837 8.06221 5.57416 7.74158 7.28969 7.41609C7.32915 7.62572 7.36701 7.82672 7.41021 8.05575C6.31594 8.26375 5.23607 8.46907 4.15674 8.67438L4.15354 8.70348C4.50283 8.76707 4.85158 8.83173 5.20088 8.89317C6.61297 9.14105 8.02293 9.40026 9.43876 9.62497C9.70913 9.66808 10.003 9.59048 10.2813 9.54252C11.8059 9.28008 13.329 9.00957 14.852 8.74066C14.908 8.73096 14.9618 8.70941 15.0599 8.68085C13.9396 8.46799 12.8645 8.26375 11.7643 8.05413C11.8011 7.84073 11.8358 7.63973 11.8747 7.41447C12.2752 7.48938 12.664 7.56105 13.0522 7.63434C14.2979 7.86983 15.5436 8.10855 16.7904 8.33974C16.9877 8.37638 17.1466 8.45075 17.2901 8.59894C17.8479 9.17608 18.4153 9.74298 18.9816 10.312C19.0989 10.4301 19.2056 10.5492 19.1528 10.7324C19.0995 10.9177 18.9384 10.9565 18.7811 10.991C18.3811 11.0794 17.9801 11.1646 17.5684 11.2535V12.8841H16.9381V11.3936C16.2625 11.5418 15.6156 11.6835 14.9682 11.8263C13.8537 12.0715 12.7392 12.3161 11.6252 12.563C11.4396 12.6039 11.3084 12.5333 11.1906 12.3916C10.7794 11.8985 10.3624 11.4103 9.92297 10.8908V18.6065C10.6312 18.4287 11.3361 18.2519 12.0619 18.0703C12.1152 18.2767 12.1664 18.475 12.224 18.6981C11.9286 18.7725 11.6417 18.8452 11.3543 18.918C10.8205 19.0527 10.2883 19.1923 9.75233 19.3178C9.64194 19.3437 9.51395 19.341 9.40303 19.313C6.93133 18.6949 4.46123 18.0714 1.9906 17.4485C1.65357 17.3633 1.60344 17.2997 1.60344 16.9516C1.60344 15.1367 1.60344 13.3217 1.60344 11.5073V11.2556L1.60131 11.2567ZM2.24603 11.3974V16.8401C4.58122 17.4296 6.9116 18.0181 9.24839 18.6081V10.8924C8.81004 11.4097 8.39249 11.8974 7.98187 12.3905C7.85815 12.5387 7.72324 12.6044 7.52913 12.5608C6.357 12.2984 5.18434 12.0402 4.01169 11.7821C3.42936 11.6539 2.84649 11.5283 2.24657 11.3974H2.24603ZM0.973654 10.4478C1.3928 10.54 1.76716 10.623 2.14151 10.7049C3.89757 11.0896 5.65362 11.4723 7.40861 11.8619C7.51686 11.8856 7.57659 11.8667 7.64485 11.7832C7.83896 11.5445 8.04213 11.3133 8.24104 11.0783C8.47621 10.8003 8.71032 10.5217 8.94602 10.242C8.91563 10.2188 8.90656 10.2059 8.8959 10.2037C6.75855 9.82651 4.62121 9.44983 2.48334 9.07639C2.42521 9.06615 2.33882 9.07315 2.30149 9.1098C1.86475 9.54144 1.43546 9.98009 0.974187 10.4473L0.973654 10.4478ZM10.1997 10.2194C10.6743 10.7787 11.1223 11.309 11.5766 11.8333C11.6065 11.8678 11.6956 11.8721 11.7505 11.8603C13.514 11.4771 15.277 11.0907 17.04 10.7038C17.4133 10.6219 17.7866 10.5384 18.1769 10.4516C18.1454 10.4074 18.1332 10.3837 18.1156 10.3659C17.7114 9.95692 17.3103 9.54468 16.8981 9.14429C16.8459 9.09363 16.7312 9.07693 16.6528 9.0904C15.6977 9.25152 14.7437 9.42127 13.7897 9.58886C12.608 9.79633 11.4263 10.0038 10.1987 10.2194H10.1997Z" fill="#5B6B79"/>
<path d="M9.58168 9.04406C9.3705 9.0252 9.15453 9.03004 8.94975 8.98262C8.38395 8.85168 7.99413 8.33974 7.98827 7.75289C7.98827 7.73296 7.98827 7.71248 7.98827 7.69254C7.97547 6.94242 8.03626 6.85404 7.45873 6.22193C5.93198 4.55086 6.82148 1.82681 9.01161 1.33804C10.493 1.00771 12.0224 1.99494 12.3712 3.52698C12.6266 4.65001 12.3403 5.63078 11.5217 6.43425C11.2839 6.66759 11.1596 6.91709 11.1767 7.25066C11.1884 7.47807 11.1975 7.71086 11.166 7.93504C11.077 8.5693 10.541 9.02142 9.90217 9.02627C9.79552 9.02735 9.6894 9.02627 9.58274 9.02627C9.58274 9.0322 9.58168 9.03813 9.58114 9.04352L9.58168 9.04406ZM10.0286 5.05849C10.1725 4.94855 10.3043 4.8564 10.4248 4.75186C10.476 4.70767 10.5362 4.63654 10.5357 4.5778C10.5346 4.45871 10.5341 4.28842 10.4626 4.23238C10.3261 4.12568 10.2504 4.30728 10.1667 4.38596C9.81205 4.72168 9.3561 4.72546 9.00681 4.38596C8.95402 4.33477 8.90869 4.25501 8.84736 4.23938C8.78497 4.22376 8.67192 4.25016 8.64312 4.29704C8.56153 4.43069 8.63939 4.67534 8.77111 4.77557C9.08467 5.01376 9.3961 5.25464 9.71393 5.48743C9.85044 5.58767 9.9139 5.70838 9.90537 5.88028C9.89577 6.06512 9.90324 6.25049 9.90324 6.44611C10.0707 6.44611 10.2109 6.43479 10.3485 6.4488C10.5682 6.47143 10.7437 6.43964 10.8519 6.209C10.8978 6.11146 11.005 6.04356 11.0844 5.96273C11.7222 5.31607 11.9595 4.54547 11.7377 3.65847C11.4572 2.53706 10.4685 1.83705 9.4185 1.94213C8.47728 2.03643 7.80856 2.564 7.49233 3.46878C7.1713 4.3865 7.38247 5.21153 8.0416 5.92123C8.17758 6.06727 8.3013 6.22463 8.43408 6.3739C8.46181 6.40515 8.50447 6.44126 8.54127 6.44233C8.77804 6.44826 9.01534 6.44557 9.24145 6.44557C9.32517 6.12332 9.25798 5.89537 8.97162 5.7364C8.79297 5.63724 8.64686 5.47881 8.47301 5.36834C8.10932 5.13824 7.95467 4.82192 7.984 4.38596C8.0096 4.00228 8.15411 3.7199 8.46501 3.59865C8.8063 3.46555 9.10067 3.555 9.35504 3.81367C9.58274 4.04485 9.58541 4.04269 9.82165 3.80882C10.1331 3.50165 10.5325 3.451 10.8519 3.67895C11.2561 3.96725 11.334 4.75294 10.9778 5.12531C10.8146 5.29559 10.6104 5.42654 10.4173 5.5812C10.2808 5.39744 10.1619 5.23739 10.0286 5.05795V5.05849ZM10.5341 7.10354H8.64152V7.4037H10.5341V7.10354ZM8.72258 8.0676C9.05481 8.5138 9.50115 8.36075 9.89844 8.37638C10.1139 8.385 10.3037 8.29232 10.4296 8.0676H8.72258Z" fill="#5B6B79"/>
<path d="M18.6808 14.608C18.5886 14.726 18.5049 14.8413 18.4131 14.9497C18.3422 15.0337 18.2334 15.0914 18.3225 15.2353C18.4073 15.3721 18.4035 15.5947 18.66 15.5338C18.7166 15.5203 18.7795 15.5284 18.8392 15.5338C19.0477 15.5543 19.1608 15.6772 19.1629 15.8922C19.1661 16.2554 19.1651 16.618 19.1629 16.9812C19.1619 17.2399 19.044 17.3574 18.7843 17.3671C18.7646 17.3676 18.7443 17.3671 18.7246 17.3671C18.4649 17.3687 18.315 17.4986 18.29 17.7529C18.2862 17.7912 18.314 17.8402 18.3412 17.8726C18.4062 17.9485 18.4841 18.0137 18.5486 18.0903C18.6771 18.2433 18.6824 18.4007 18.5475 18.5424C18.2804 18.8237 18.0073 19.0991 17.7295 19.3696C17.5807 19.5145 17.4255 19.5081 17.2666 19.3706C17.2362 19.3442 17.2096 19.3146 17.1813 19.286C17.0058 19.1104 16.7813 19.0969 16.6043 19.2596C16.576 19.2855 16.5654 19.341 16.5622 19.3841C16.5558 19.4779 16.5654 19.5727 16.5574 19.666C16.5392 19.8788 16.4177 19.9952 16.207 19.9974C15.8348 20.0006 15.462 20.0011 15.0893 19.9974C14.8888 19.9952 14.7699 19.8815 14.7459 19.6805C14.7411 19.6406 14.7432 19.6002 14.7427 19.5598C14.74 19.2833 14.6317 19.1513 14.3651 19.1179C14.3235 19.1125 14.2686 19.1481 14.2318 19.1788C14.1603 19.2386 14.1017 19.3135 14.0307 19.3744C13.8713 19.5118 13.7193 19.5129 13.5684 19.3658C13.2959 19.0996 13.0277 18.8285 12.7642 18.5532C12.6192 18.4012 12.6229 18.246 12.7568 18.0854C12.7824 18.0547 12.8122 18.0272 12.8405 17.9987C13.0202 17.8154 13.0341 17.608 12.8725 17.4167C12.8474 17.387 12.7936 17.373 12.752 17.3698C12.6528 17.3622 12.552 17.3736 12.4528 17.3633C12.2544 17.3428 12.1419 17.2194 12.1403 17.0163C12.1366 16.6401 12.1371 16.2635 12.1403 15.8868C12.1424 15.6745 12.2587 15.5532 12.4688 15.5338C12.5152 15.5295 12.5621 15.5322 12.6085 15.5322C12.8288 15.5317 13.0079 15.3619 13.0154 15.1367C13.0165 15.0979 12.9839 15.052 12.9551 15.0192C12.8938 14.9486 12.8218 14.8877 12.7605 14.8171C12.6234 14.6581 12.6186 14.4997 12.7621 14.3499C13.0255 14.074 13.2943 13.804 13.5663 13.5373C13.7177 13.3891 13.8686 13.3896 14.0286 13.5222C14.0595 13.5475 14.0867 13.5771 14.115 13.6057C14.3032 13.7932 14.4904 13.8094 14.6899 13.6456C14.7197 13.6213 14.7363 13.5674 14.74 13.5259C14.7475 13.4322 14.7379 13.3373 14.7448 13.2441C14.7603 13.021 14.8824 12.9041 15.1047 12.9024C15.4706 12.8998 15.8364 12.8998 16.2022 12.9024C16.415 12.9041 16.5355 13.0183 16.5574 13.229C16.5616 13.2689 16.5595 13.3098 16.5595 13.3497C16.5611 13.6008 16.7056 13.7684 16.9456 13.7857C16.9835 13.7884 17.0309 13.7577 17.0629 13.7296C17.1381 13.6634 17.2021 13.5847 17.2783 13.52C17.4277 13.3918 17.5844 13.3891 17.7258 13.5265C18.0036 13.797 18.2756 14.0734 18.5433 14.3542C18.5993 14.4129 18.6243 14.5013 18.6808 14.6085V14.608ZM17.8415 18.3214C17.778 18.2234 17.7018 18.135 17.6586 18.0326C17.5151 17.6931 17.8388 16.9063 18.1785 16.7662C18.2852 16.722 18.4046 16.7086 18.5187 16.6811V16.209C18.4537 16.1982 18.3945 16.1912 18.3369 16.1783C18.2788 16.1654 18.2196 16.153 18.1657 16.1287C17.85 15.9859 17.5253 15.218 17.6511 14.892C17.6954 14.7778 17.7759 14.6775 17.8308 14.5865C17.7188 14.4663 17.6106 14.3499 17.5045 14.2367C17.4069 14.3008 17.3194 14.3774 17.2181 14.421C16.8816 14.566 16.1041 14.24 15.9649 13.8956C15.9212 13.7878 15.9078 13.6671 15.8807 13.5518H15.4172C15.3943 13.6633 15.3842 13.7717 15.349 13.8708C15.2157 14.2453 14.4072 14.5805 14.0542 14.4075C13.9614 14.3623 13.8814 14.2911 13.8126 14.2443C13.6921 14.3639 13.5791 14.4754 13.4671 14.5865C13.5247 14.6754 13.6004 14.7643 13.6436 14.8667C13.7865 15.2067 13.4628 15.9924 13.1226 16.1325C13.0159 16.1767 12.897 16.1907 12.7834 16.2182V16.6902C12.8426 16.6999 12.8943 16.7075 12.9466 16.7167C13.4212 16.798 13.8425 17.6478 13.6201 18.0822C13.5759 18.1684 13.5108 18.2444 13.4692 18.3058C13.5871 18.4319 13.6953 18.5483 13.802 18.6626C13.891 18.6011 13.9721 18.5278 14.0665 18.4842C14.4126 18.3241 15.2146 18.6626 15.3458 19.0236C15.3836 19.1271 15.3954 19.2397 15.4188 19.3475H15.8817C15.9089 19.2289 15.9206 19.1131 15.9617 19.0091C16.0961 18.6674 16.8768 18.3338 17.2117 18.4761C17.3178 18.5214 17.4101 18.6006 17.4917 18.6539C17.6127 18.5386 17.7279 18.4292 17.8399 18.322L17.8415 18.3214Z" fill="#5B6B79"/>
<path d="M7.09398 2.11996C6.87161 1.89579 6.6551 1.67808 6.42633 1.44797C6.58258 1.31433 6.73829 1.18123 6.87641 1.06267C7.06305 1.25398 7.28382 1.47923 7.5078 1.70879C7.39261 1.82304 7.24756 1.96746 7.09345 2.1205L7.09398 2.11996Z" fill="#5B6B79"/>
<path d="M11.6305 1.67215C11.8534 1.44851 12.0699 1.23081 12.2965 1.00286C12.4277 1.15267 12.5627 1.30679 12.6805 1.44097C12.4859 1.6382 12.264 1.86345 12.0395 2.0914C11.9238 1.97285 11.7809 1.82573 11.6305 1.67161V1.67215Z" fill="#5B6B79"/>
<path d="M9.28091 0H9.89044V0.948432H9.28091V0Z" fill="#5B6B79"/>
<path d="M5.44244 4.49805V3.87887H6.37726V4.49805H5.44244Z" fill="#5B6B79"/>
<path d="M13.722 4.50505H12.7952V3.87995H13.722V4.50505Z" fill="#5B6B79"/>
<path d="M17.4069 16.4499C17.4085 17.4285 16.6299 18.2218 15.6663 18.2234C14.6813 18.225 13.8974 17.4441 13.8958 16.4596C13.8942 15.4654 14.6691 14.6759 15.6455 14.6754C16.6256 14.6754 17.4053 15.4605 17.4069 16.4494V16.4499ZM15.654 17.5789C16.2609 17.5746 16.7691 17.0588 16.7691 16.4461C16.7691 15.8361 16.2497 15.3134 15.6492 15.3193C15.0375 15.3253 14.5357 15.835 14.5336 16.4521C14.5315 17.0594 15.0519 17.5826 15.654 17.5783V17.5789Z" fill="#5B6B79"/>
</svg>
