<svg width="21" height="20" viewBox="0 0 21 20" fill="none" xmlns="http://www.w3.org/2000/svg">
<path d="M0 13.8671C0.134652 13.5085 0.346547 13.2293 0.746329 13.1484C0.834531 13.1306 0.926909 13.1259 1.01772 13.1254C1.54485 13.1233 2.07302 13.1359 2.59962 13.1207C3.02498 13.1087 3.38614 13.2089 3.6163 13.5774C4.1737 13.3237 4.71492 13.0727 5.26031 12.8321C5.44402 12.7512 5.63974 12.6969 5.82919 12.6291C6.34327 12.4459 6.84639 12.4866 7.35316 12.6755C8.67933 13.1693 9.92722 13.8269 11.1746 14.486C11.232 14.5163 11.2884 14.5497 11.3473 14.5768C11.7435 14.759 12.0425 15.0304 12.1652 15.4844C12.2492 15.4578 12.3223 15.437 12.3938 15.4124C13.7507 14.9427 15.1082 14.4735 16.4646 14.0012C16.747 13.9025 17.0335 13.8556 17.3274 13.9219C17.748 14.0168 18.0559 14.3503 18.1133 14.7929C18.1718 15.2449 18.0152 15.6228 17.6222 15.8634C17.0899 16.189 16.5455 16.4959 16.0022 16.8028C14.2585 17.7882 12.5159 18.7756 10.6819 19.5882C10.3213 19.7479 9.94183 19.8638 9.57075 20H9.10208C8.45752 19.8481 7.91108 19.5026 7.37769 19.1295C6.99983 18.8648 6.62249 18.5976 6.22793 18.3591C6.04422 18.248 5.81615 18.1284 5.61678 18.141C4.99675 18.1801 4.38038 18.2803 3.76452 18.3565C3.75565 18.4468 3.752 18.4979 3.74521 18.5486C3.68415 19.0131 3.31151 19.3664 2.85014 19.3727C2.19984 19.3815 1.54902 19.3758 0.898204 19.3737C0.840272 19.3737 0.781819 19.3617 0.725452 19.3492C0.334543 19.2615 0.132565 18.9818 0 18.6326V13.8665V13.8671ZM3.76296 17.7401C4.15491 17.6791 4.54112 17.6316 4.92212 17.5559C5.59851 17.4218 6.21227 17.546 6.77385 17.9468C7.09691 18.1775 7.41684 18.4144 7.75399 18.6222C8.14073 18.8596 8.53946 19.0794 8.94394 19.2845C9.1694 19.3988 9.4194 19.4097 9.66417 19.3106C10.0191 19.1665 10.3828 19.0413 10.7304 18.881C12.6521 17.9948 14.484 16.9406 16.3206 15.8952C16.6374 15.7151 16.9552 15.5372 17.2679 15.3508C17.4688 15.2308 17.546 15.0199 17.4803 14.8154C17.4156 14.6144 17.248 14.5001 17.009 14.5205C16.8811 14.5314 16.7533 14.5664 16.6311 14.6082C15.1933 15.1035 13.757 15.6029 12.3191 16.0977C12.2001 16.1384 12.1276 16.1984 12.0723 16.3164C11.7779 16.9364 11.0457 17.2234 10.4418 16.9113C9.7435 16.5502 9.06972 16.141 8.39489 15.7371C8.31713 15.6906 8.24563 15.5288 8.26807 15.4474C8.29677 15.343 8.41003 15.2371 8.51389 15.187C8.57756 15.1562 8.70125 15.211 8.78111 15.2564C9.398 15.6061 10.0081 15.9667 10.6255 16.3158C10.9423 16.4949 11.3238 16.3889 11.4909 16.0914C11.6683 15.7746 11.5597 15.414 11.2273 15.2245C11.0973 15.1504 10.9653 15.0805 10.8327 15.0106C9.63077 14.3759 8.42569 13.7496 7.15171 13.2674C6.72374 13.1051 6.29943 13.0795 5.88034 13.2648C5.20342 13.5643 4.53225 13.877 3.86316 14.1938C3.80784 14.2199 3.7567 14.3216 3.75617 14.389C3.74939 15.4631 3.75148 16.5377 3.752 17.6117C3.752 17.6498 3.75826 17.6879 3.76348 17.7396L3.76296 17.7401ZM3.12571 16.2496C3.12571 15.5471 3.12675 14.8446 3.12571 14.1421C3.12519 13.8603 3.01715 13.7512 2.73793 13.7501C2.1654 13.7486 1.59339 13.7486 1.02085 13.7501C0.731193 13.7507 0.625768 13.8592 0.625768 14.1546C0.625246 15.5528 0.625246 16.9515 0.625768 18.3497C0.625768 18.6436 0.732759 18.7506 1.02398 18.7511C1.58973 18.7521 2.15548 18.7521 2.72175 18.7511C3.02446 18.7506 3.12571 18.6467 3.12623 18.3367C3.12675 17.641 3.12623 16.9447 3.12623 16.249L3.12571 16.2496Z" fill="#5B6B79"/>
<path d="M13.435 2.18466C15.8509 2.1831 17.8148 4.15174 17.8143 6.57391C17.8138 8.99348 15.8415 10.971 13.4334 10.9663C11.0217 10.9611 9.06033 8.98461 9.0645 6.56295C9.06816 4.15017 11.0284 2.18675 13.435 2.18519V2.18466ZM17.189 6.58644C17.1937 4.49985 15.5226 2.81304 13.4475 2.80991C11.3776 2.80678 9.69758 4.47897 9.68975 6.55095C9.68192 8.64589 11.3625 10.3437 13.4412 10.341C15.5069 10.3384 17.1844 8.65789 17.189 6.58644Z" fill="#5B6B79"/>
<path d="M12.5253 13.0993C12.6312 13.2496 12.7273 13.3791 12.8155 13.5132C12.9318 13.6901 12.9084 13.8462 12.7549 13.9584C12.603 14.0696 12.435 14.0455 12.3129 13.8791C12.0587 13.533 11.8087 13.1839 11.5629 12.8316C11.4345 12.6479 11.4601 12.4908 11.6401 12.3582C11.9861 12.1035 12.3353 11.8535 12.6876 11.6088C12.8567 11.4913 13.0279 11.5216 13.1343 11.6693C13.2429 11.8196 13.2132 11.9819 13.0503 12.1119C12.9793 12.1688 12.9026 12.2183 12.829 12.2721C12.7565 12.3248 12.685 12.3791 12.6177 12.4762C12.8791 12.4929 13.1406 12.5221 13.4021 12.5237C16.3451 12.5393 18.8612 10.3844 19.3054 7.47264C19.809 4.16896 17.5116 1.11057 14.1938 0.672693C13.9558 0.641378 13.7142 0.636159 13.4736 0.624677C13.2361 0.613195 13.1119 0.507248 13.114 0.307357C13.1161 0.107466 13.2429 -0.00839727 13.4804 0.000475168C16.1024 0.102247 18.0841 1.28593 19.285 3.6173C21.3158 7.55875 18.8915 12.3055 14.5117 13.0555C13.8848 13.163 13.257 13.1781 12.626 13.0998C12.6025 13.0967 12.578 13.0998 12.5242 13.0998L12.5253 13.0993Z" fill="#5B6B79"/>
<path d="M1.56259 17.5027C1.73274 17.5032 1.87104 17.6389 1.87417 17.8085C1.8773 17.988 1.73378 18.13 1.55477 18.1243C1.38567 18.119 1.24997 17.9776 1.25206 17.809C1.25415 17.6399 1.39402 17.5016 1.56259 17.5021V17.5027Z" fill="#5B6B79"/>
<path d="M13.7471 4.39077C14.2502 4.5322 14.5727 4.84639 14.7476 5.31559C14.8347 5.54992 14.782 5.71432 14.5973 5.79C14.412 5.86568 14.2648 5.78269 14.1672 5.54679C13.9704 5.0729 13.5592 4.8584 13.1437 5.04889C12.9898 5.11935 12.8212 5.25609 12.756 5.40483C12.5587 5.85524 12.6965 6.0186 13.0775 6.08227C13.3656 6.13081 13.6589 6.15064 13.9459 6.20596C14.6933 6.35001 15.0153 6.94081 14.7423 7.65165C14.5915 8.04517 14.3112 8.31499 13.9162 8.45278C13.7909 8.49662 13.7429 8.54568 13.7476 8.68294C13.7565 8.92249 13.6401 9.05402 13.4485 9.05923C13.2513 9.06445 13.1223 8.92406 13.1307 8.68033C13.1354 8.54515 13.0889 8.49088 12.9652 8.44599C12.5394 8.29203 12.2748 7.97419 12.1218 7.55718C12.042 7.33903 12.1062 7.1741 12.2878 7.10521C12.4747 7.03475 12.613 7.11095 12.7074 7.33694C12.8964 7.78995 13.2246 7.98828 13.6302 7.89329C13.9355 7.82179 14.1526 7.58432 14.198 7.27222C14.2345 7.02223 14.1625 6.89384 13.9167 6.84373C13.6437 6.78789 13.3645 6.76023 13.0879 6.72109C13.0493 6.71534 13.0101 6.7143 12.972 6.70647C12.5796 6.62401 12.2288 6.4737 12.1041 6.04939C11.9689 5.58854 12.0738 5.16319 12.4026 4.82186C12.5592 4.65903 12.7732 4.54055 12.9799 4.44139C13.0952 4.38555 13.1417 4.33753 13.1281 4.21697C13.1208 4.15278 13.1213 4.08597 13.1317 4.0223C13.1604 3.85216 13.2643 3.75352 13.4381 3.75352C13.6114 3.75352 13.722 3.85111 13.7445 4.02125C13.7601 4.14182 13.7476 4.26603 13.7476 4.39181L13.7471 4.39077Z" fill="#5B6B79"/>
</svg>
