<svg width="25" height="25" viewBox="0 0 25 25" fill="none" xmlns="http://www.w3.org/2000/svg">
<path d="M0.00476796 7.19393C0.00476796 6.117 0.0114978 5.04006 5.71203e-05 3.96246C-0.0026348 3.68665 0.0895635 3.5093 0.331163 3.37038C2.22358 2.28401 4.11197 1.1909 5.99766 0.0930605C6.21166 -0.0316936 6.39606 -0.0303449 6.60805 0.0930605C8.50854 1.19831 10.4117 2.29952 12.3156 3.39871C12.5101 3.51132 12.6023 3.66035 12.6016 3.88828C12.5982 6.10149 12.5982 8.31402 12.6016 10.5272C12.6016 10.7558 12.5081 10.9062 12.3149 11.0175C10.403 12.12 8.49239 13.2246 6.58382 14.3326C6.38798 14.4465 6.21503 14.4452 6.01919 14.3312C4.11062 13.2226 2.2007 12.1173 0.288093 11.0161C0.0821607 10.8974 0.000730082 10.7369 0.00207604 10.5009C0.00880584 9.39837 0.00476796 8.29648 0.00476796 7.19393ZM0.823785 4.50666C0.817728 4.58218 0.811671 4.6213 0.811671 4.66041C0.811671 6.51081 0.81369 8.3619 0.806287 10.2123C0.805614 10.3748 0.888391 10.4294 1.00078 10.4942C2.57017 11.4005 4.13754 12.3082 5.70626 13.2152C5.76077 13.2469 5.82066 13.2684 5.8819 13.2961C5.88998 13.261 5.89738 13.2455 5.89738 13.2293C5.89805 11.3533 5.90142 9.47794 5.892 7.60191C5.892 7.51424 5.80115 7.39219 5.71904 7.34431C4.56892 6.66861 3.41341 6.00236 2.25925 5.33408C1.79018 5.06299 1.32044 4.79258 0.825131 4.50666H0.823785ZM6.70496 13.3062C6.76485 13.2839 6.78908 13.2786 6.80927 13.2664C8.42173 12.3345 10.0328 11.3998 11.6493 10.4739C11.7893 10.3937 11.794 10.2925 11.794 10.1624C11.792 8.36189 11.7927 6.56139 11.7927 4.76089C11.7927 4.68873 11.7927 4.61725 11.7927 4.50126C11.3923 4.73054 11.0342 4.94296 10.6688 5.14189C10.5403 5.21202 10.4985 5.29834 10.4999 5.44198C10.5066 6.15678 10.4985 6.87226 10.5053 7.58707C10.5073 7.82242 10.4225 7.98291 10.2145 8.09957C9.69501 8.39089 9.18422 8.69772 8.66602 8.99106C8.30329 9.19674 8.00448 9.03085 7.99304 8.61612C7.98362 8.25467 7.99035 7.89255 7.99035 7.5311C7.99035 7.2735 7.99035 7.0159 7.99035 6.69828C7.58656 6.93161 7.23796 7.14268 6.87926 7.33554C6.73995 7.41039 6.70092 7.50143 6.70227 7.65316C6.70832 8.898 6.70563 10.1435 6.70563 11.3884C6.70563 12.0189 6.70563 12.6487 6.70563 13.3055L6.70496 13.3062ZM1.21546 3.79724C2.90397 4.77505 4.55075 5.72925 6.20022 6.67873C6.24868 6.70637 6.33684 6.71514 6.3826 6.68952C6.77427 6.47103 7.15989 6.2431 7.5482 6.01719C7.52532 5.9801 7.51994 5.96055 7.50782 5.95313C5.87517 5.00635 4.24252 4.06024 2.60651 3.11885C2.55469 3.08918 2.45778 3.08581 2.40596 3.11413C2.01765 3.32857 1.63473 3.55381 1.21546 3.79657V3.79724ZM5.05548 1.57527C5.08038 1.61573 5.08577 1.63462 5.09788 1.64136C6.72919 2.58747 8.36116 3.5329 9.99381 4.47564C10.0389 4.50194 10.1156 4.52621 10.152 4.50531C10.5564 4.28008 10.9562 4.0454 11.3862 3.79724C11.1359 3.65226 10.9259 3.53088 10.7159 3.4095C9.30872 2.59489 7.90286 1.77758 6.4923 0.969711C6.4075 0.921158 6.26012 0.895533 6.18138 0.935993C5.80249 1.13223 5.43774 1.35476 5.05414 1.57527H5.05548ZM3.33535 2.57331C3.34948 2.59219 3.35352 2.60095 3.36025 2.605C5.00501 3.56122 6.6491 4.51745 8.29588 5.46962C8.34299 5.49727 8.42981 5.50334 8.47624 5.47839C8.74409 5.33273 9.0052 5.17493 9.29391 5.00567C7.61415 4.03394 5.96804 3.08041 4.31924 2.13228C4.2654 2.10126 4.1685 2.09385 4.11668 2.12149C3.8522 2.26311 3.59579 2.42023 3.33467 2.57263L3.33535 2.57331ZM9.69635 5.73532C9.09695 6.0055 8.79703 6.44428 8.79658 7.05164C8.79658 7.1946 8.79658 7.33756 8.79658 7.47985C8.79658 7.63293 8.79658 7.78533 8.79658 7.98089C9.09673 7.80691 9.34506 7.67002 9.58464 7.51896C9.63713 7.48592 9.6903 7.40432 9.69097 7.34431C9.69905 6.81697 9.69568 6.28895 9.69568 5.73464L9.69635 5.73532Z" fill="#5B6B79"/>
<path d="M24.9945 17.8075C24.9945 18.8932 24.9885 19.9782 24.9986 21.0639C25.0013 21.3309 24.9077 21.5029 24.6769 21.6364C22.8 22.7154 20.925 23.7984 19.0555 24.8901C18.7977 25.0405 18.5911 25.0344 18.3354 24.8847C16.4807 23.8004 14.6212 22.7248 12.7571 21.6573C12.5 21.5096 12.3943 21.3302 12.3957 21.0315C12.4051 18.8777 12.4044 16.7231 12.3957 14.5693C12.3943 14.2833 12.4906 14.104 12.7416 13.9603C14.6192 12.8827 16.4928 11.7977 18.363 10.7066C18.6032 10.5663 18.8011 10.5711 19.0393 10.71C20.9021 11.7963 22.769 12.8766 24.6399 13.9489C24.897 14.0965 25.0033 14.2773 24.9999 14.576C24.9865 15.6529 24.9945 16.7299 24.9945 17.8068V17.8075ZM13.2221 15.1027C13.2134 15.1809 13.2073 15.2126 13.2073 15.2443C13.2073 17.1028 13.2093 18.9613 13.2019 20.8198C13.2019 20.985 13.2955 21.0322 13.4052 21.0956C14.9012 21.9594 16.3965 22.8253 17.8919 23.6898C18.013 23.7599 18.1355 23.8274 18.2762 23.9069C18.2849 23.8489 18.293 23.8186 18.293 23.7882C18.2937 21.9217 18.2964 20.0544 18.2856 18.1878C18.2856 18.1015 18.1894 17.9835 18.1059 17.9349C17.2102 17.4062 16.3084 16.8877 15.4086 16.3671C14.6912 15.9523 13.9738 15.5383 13.2214 15.1033L13.2221 15.1027ZM24.1769 15.1013C23.7946 15.3225 23.4474 15.5356 23.0873 15.7264C22.9372 15.806 22.8955 15.9024 22.8969 16.0643C22.9049 16.7703 22.8969 17.477 22.9022 18.1838C22.9043 18.4184 22.8168 18.5803 22.6095 18.6963C22.0974 18.9835 21.5926 19.2836 21.0825 19.5743C20.6787 19.8035 20.3927 19.6349 20.3887 19.1636C20.384 18.6335 20.3887 18.1042 20.3866 17.5741C20.3866 17.4946 20.3779 17.415 20.3718 17.3031C19.9822 17.5276 19.6309 17.7394 19.2702 17.9342C19.1315 18.0091 19.0945 18.1001 19.0952 18.2525C19.1006 20.0692 19.0986 21.8852 19.0992 23.7019C19.0992 23.7633 19.108 23.8253 19.114 23.9022C19.1686 23.8779 19.2002 23.8678 19.2278 23.8516C20.8322 22.9231 22.4345 21.9918 24.0423 21.07C24.1829 20.989 24.1876 20.8899 24.1876 20.7604C24.1856 18.9606 24.1863 17.1608 24.1863 15.3616C24.1863 15.2895 24.1802 15.2173 24.1755 15.102L24.1769 15.1013ZM17.4504 12.174C17.4706 12.2077 17.4733 12.2178 17.4794 12.2212C19.1181 13.1734 20.7575 14.1262 22.3989 15.0737C22.4507 15.1033 22.5476 15.1033 22.5994 15.0743C22.987 14.8592 23.3686 14.6326 23.7825 14.3926C23.4521 14.2011 23.1486 14.0244 22.845 13.8491C21.5307 13.0877 20.2157 12.3291 18.9047 11.563C18.758 11.4774 18.647 11.4666 18.4976 11.561C18.1577 11.7754 17.8037 11.969 17.4504 12.174ZM13.6447 14.3764C13.6669 14.4067 13.673 14.4243 13.6858 14.431C15.3164 15.3764 16.9477 16.3226 18.581 17.2639C18.6322 17.2936 18.7203 17.3152 18.7641 17.2916C19.1632 17.0711 19.5562 16.8398 19.9855 16.5923C18.2937 15.6138 16.6482 14.6616 15.0008 13.7135C14.9523 13.6859 14.8655 13.6751 14.8204 13.7C14.4267 13.9192 14.0378 14.1485 13.6454 14.3757L13.6447 14.3764ZM15.7067 13.1841C17.3831 14.1539 19.0286 15.1081 20.6774 16.0548C20.7346 16.0879 20.8416 16.0865 20.9008 16.0548C21.1592 15.9193 21.4082 15.7669 21.6626 15.6192C21.6431 15.5943 21.6357 15.5761 21.6222 15.5686C19.9849 14.6178 18.3468 13.667 16.7061 12.7215C16.655 12.6919 16.5581 12.6939 16.5049 12.7229C16.2471 12.8611 15.9975 13.0142 15.7067 13.1841ZM21.1969 18.5755C21.4998 18.4002 21.7595 18.2532 22.0146 18.0988C22.0509 18.0765 22.0879 18.0199 22.0879 17.9794C22.0927 17.4393 22.0913 16.8984 22.0913 16.3077C21.7864 16.4837 21.5273 16.6307 21.2723 16.7845C21.2366 16.8061 21.2003 16.8627 21.2003 16.9032C21.1956 17.444 21.1969 17.9848 21.1969 18.5749V18.5755Z" fill="#5B6B79"/>
<path d="M7.34429 21.8144C6.5172 21.6647 5.74596 21.4172 5.03731 21.0005C3.6254 20.171 2.64823 19.0044 2.29963 17.3725C2.11994 16.5336 2.21416 15.7163 2.58699 14.9381C2.67111 14.7628 2.80773 14.6596 3.0076 14.6819C3.20613 14.7048 3.33198 14.8302 3.36361 15.0224C3.54262 16.1236 4.20618 16.887 5.08442 17.4932C5.86508 18.0327 6.72717 18.3908 7.68145 18.6099C7.70904 18.3888 7.70837 18.1763 7.76759 17.9821C7.80932 17.8452 7.90825 17.6706 8.02467 17.6267C8.14244 17.5822 8.35376 17.6321 8.45336 17.7205C9.32756 18.4953 10.1883 19.2856 11.0477 20.0766C11.2954 20.3046 11.2725 20.5858 10.9932 20.7753C9.97833 21.4624 8.9628 22.1503 7.93516 22.8185C7.81941 22.8934 7.60944 22.8954 7.47215 22.8469C7.28843 22.7821 7.25882 22.5886 7.28507 22.3971C7.30997 22.2143 7.32208 22.0302 7.34294 21.8144H7.34429ZM3.02981 16.4837C3.02981 16.6294 3.02241 16.7015 3.03116 16.7723C3.05202 16.947 3.06683 17.1243 3.10788 17.295C3.44773 18.7118 4.3327 19.6943 5.57973 20.3787C6.2406 20.7409 6.95329 20.9526 7.70097 21.0437C8.08591 21.0909 8.19022 21.2136 8.18147 21.6007C8.18147 21.6195 8.19695 21.6384 8.21243 21.6735C8.86253 21.2365 9.50119 20.807 10.1641 20.3619C9.60079 19.8474 9.05635 19.3497 8.4897 18.8325C8.39346 19.4664 8.28579 19.5446 7.69155 19.432C6.49566 19.2054 5.40611 18.7279 4.42557 18.0064C3.88248 17.6065 3.42553 17.1217 3.02981 16.4837Z" fill="#5B6B79"/>
<path d="M17.3219 6.33481C17.2869 6.6322 17.2889 6.8399 17.231 7.02871C17.1886 7.1656 17.089 7.34026 16.9726 7.38409C16.8548 7.42793 16.6435 7.37802 16.5439 7.28901C15.6697 6.51419 14.8097 5.72385 13.9503 4.93217C13.7019 4.70357 13.7255 4.42506 14.0061 4.2349C15.021 3.54774 16.0365 2.86058 17.0635 2.19163C17.1785 2.11677 17.41 2.10126 17.5191 2.16937C17.6288 2.23681 17.6893 2.43979 17.7048 2.58949C17.7243 2.77763 17.6752 2.97252 17.6537 3.18629C17.8522 3.23147 18.0474 3.26923 18.2385 3.32048C20.0266 3.79522 21.4452 4.76156 22.2925 6.45012C22.8356 7.53245 22.9608 8.66063 22.5213 9.81848C22.4857 9.91222 22.4635 10.0302 22.3941 10.0889C22.2764 10.1894 22.1182 10.3242 21.9917 10.3108C21.8645 10.2973 21.6741 10.1341 21.6512 10.0107C21.3813 8.54464 20.3819 7.69969 19.1537 7.07322C18.5844 6.78325 17.9659 6.59039 17.3212 6.33481H17.3219ZM14.8366 4.64962C15.3999 5.16414 15.9416 5.65911 16.4955 6.16555C16.6321 5.57954 16.731 5.47637 17.1415 5.54852C18.6006 5.8041 19.9162 6.38201 21.0199 7.38409C21.3678 7.69969 21.6545 8.08406 21.9702 8.4381C21.9803 7.93031 21.8665 7.43399 21.6465 6.96937C20.7931 5.16887 19.2877 4.28682 17.3899 3.97932C16.8919 3.8984 16.8232 3.84782 16.7997 3.32857C16.1435 3.77027 15.4995 4.2032 14.8352 4.64962H14.8366Z" fill="#5B6B79"/>
<path d="M9.69636 5.73599C9.69636 6.29097 9.69972 6.81831 9.69165 7.34565C9.69097 7.40567 9.63781 7.48659 9.58531 7.52031C9.34573 7.67136 9.0974 7.80825 8.79726 7.98223C8.79726 7.78667 8.79726 7.6336 8.79726 7.48119C8.79726 7.33823 8.79726 7.19527 8.79726 7.05298C8.79726 6.44517 9.09718 6.0064 9.69703 5.73666L9.69636 5.73599Z" fill="white"/>
</svg>
