<svg width="19" height="17" viewBox="0 0 19 17" fill="none" xmlns="http://www.w3.org/2000/svg">
<path d="M18.9995 11.1825C18.9712 11.2141 18.948 11.2621 18.9132 11.2738C18.8136 11.3069 18.6951 11.3681 18.6109 11.338C18.5261 11.3079 18.4611 11.1881 18.4131 11.0944C18.3848 11.0393 18.4056 10.9572 18.4056 10.8874C18.4056 7.78414 18.3982 4.68088 18.4126 1.57763C18.415 1.03272 18.0695 0.601486 17.4583 0.603015C12.152 0.615758 6.84629 0.615758 1.54005 0.603015C0.937245 0.601486 0.584784 1.0266 0.587263 1.57916C0.601143 4.94951 0.594203 8.31987 0.594203 11.6897C0.594203 12.3381 0.911467 12.6669 1.53658 12.6674C1.98174 12.6674 2.4269 12.6669 2.87256 12.6674C3.15264 12.6679 3.2503 12.7648 3.25922 13.0553C3.28599 13.9387 3.31128 14.822 3.33705 15.7054C3.33904 15.7666 3.34251 15.8272 3.34746 15.9333C3.53633 15.7141 3.68951 15.5173 3.86351 15.343C3.93539 15.2711 4.05437 15.2064 4.14905 15.2099C4.38056 15.2186 4.49408 15.5061 4.33891 15.6942C3.99538 16.1117 3.64391 16.522 3.27856 16.9191C3.2151 16.9884 3.06341 17.0119 2.96278 16.9945C2.82993 16.9721 2.77639 16.8442 2.77242 16.703C2.75259 16.023 2.72533 15.343 2.71145 14.663C2.70203 14.2124 2.70946 13.7608 2.70946 13.2944C2.6128 13.2862 2.56025 13.2786 2.5077 13.2786C2.16119 13.2775 1.81518 13.2806 1.46866 13.2775C0.60263 13.2704 0.00131519 12.6501 0.000819465 11.759C-0.000667712 9.14564 0.000323739 6.53173 0.000323739 3.91832C0.000323739 3.12977 0.000323739 2.34121 0.000323739 1.55265C0.000819465 0.605564 0.586767 0 1.50436 0C6.83539 0 12.1659 0 17.497 0C18.2738 0 18.7764 0.40218 18.9717 1.17545C18.9762 1.19278 18.9896 1.20756 18.999 1.22336V11.1825H18.9995Z" fill="#5B6B79"/>
<path d="M18.9995 12.0985C18.6897 12.3875 18.3838 12.6812 18.067 12.9625C17.9624 13.0553 17.9401 13.1409 17.9729 13.2745C18.0571 13.6191 18.1255 13.9672 18.2044 14.3133C18.2381 14.4622 18.2242 14.5937 18.0958 14.6875C17.9748 14.7757 17.8509 14.7507 17.7309 14.6773C17.4335 14.4958 17.1306 14.3235 16.8411 14.1298C16.7102 14.0421 16.6166 14.0579 16.4946 14.137C16.2125 14.3194 15.9206 14.4856 15.6355 14.663C15.5036 14.7451 15.3728 14.7828 15.2389 14.6834C15.11 14.5881 15.1071 14.452 15.1398 14.3062C15.2211 13.9412 15.3034 13.5768 15.3728 13.2092C15.3847 13.146 15.3529 13.0482 15.3073 13.0043C15.0406 12.749 14.765 12.5033 14.4894 12.2581C14.3769 12.1582 14.3124 12.043 14.362 11.89C14.4116 11.7366 14.5295 11.6887 14.6788 11.6765C15.0421 11.6459 15.405 11.6112 15.7664 11.5643C15.8283 11.5562 15.9092 11.4945 15.9359 11.4354C16.0871 11.102 16.2269 10.763 16.3652 10.4241C16.4247 10.2788 16.507 10.1641 16.6721 10.1646C16.8367 10.1646 16.9189 10.2793 16.9779 10.4251C17.1133 10.7584 17.26 11.0872 17.3943 11.4216C17.4345 11.521 17.4826 11.5648 17.5936 11.573C17.9322 11.597 18.2693 11.6464 18.6079 11.6683C18.7744 11.679 18.9038 11.7331 19 11.8712V12.1001L18.9995 12.0985ZM17.9853 12.226C17.7176 12.1979 17.4935 12.1704 17.2684 12.1515C17.1078 12.1378 17.0107 12.0542 16.9507 11.9033C16.8669 11.6923 16.7747 11.4853 16.6716 11.2437C16.5764 11.4649 16.4817 11.6561 16.4113 11.8564C16.3409 12.0562 16.2145 12.1495 16.0123 12.1617C15.8065 12.174 15.6013 12.2005 15.3525 12.2249C15.5497 12.4039 15.7133 12.5558 15.8804 12.7026C16.0053 12.8122 16.0524 12.9386 16.0098 13.1083C15.9553 13.3255 15.9161 13.5467 15.8601 13.8143C16.0792 13.6818 16.2571 13.5834 16.4262 13.4692C16.5903 13.3586 16.74 13.352 16.9065 13.4641C17.0835 13.5829 17.2714 13.6848 17.4816 13.8107C17.4335 13.5829 17.4053 13.3882 17.3497 13.2021C17.2778 12.9625 17.3344 12.7867 17.5287 12.6368C17.6789 12.5206 17.8132 12.3825 17.9843 12.2265L17.9853 12.226Z" fill="#5B6B79"/>
<path d="M4.74045 14.3821C4.81729 14.0248 4.89413 13.6328 4.98881 13.2454C5.02004 13.118 4.98732 13.0492 4.89661 12.9707C4.62743 12.7372 4.36816 12.492 4.10146 12.2555C3.98745 12.1546 3.92845 12.0358 3.97753 11.8855C4.0271 11.7331 4.14806 11.6872 4.29678 11.6749C4.66015 11.6449 5.02302 11.6097 5.3844 11.5628C5.44637 11.5546 5.52568 11.4909 5.55245 11.4318C5.70067 11.104 5.83848 10.7712 5.97382 10.4373C6.03479 10.2864 6.1151 10.1615 6.29009 10.1631C6.46558 10.1646 6.54142 10.2956 6.6024 10.4444C6.73624 10.7722 6.87901 11.0954 7.00988 11.4242C7.05053 11.5266 7.10506 11.5633 7.21313 11.5715C7.57055 11.5985 7.92599 11.6433 8.28291 11.6744C8.43212 11.6872 8.5501 11.7402 8.59819 11.8926C8.64627 12.045 8.57886 12.1607 8.46633 12.2601C8.19963 12.4966 7.94036 12.7423 7.67019 12.9743C7.57452 13.0563 7.55667 13.1358 7.58493 13.2541C7.66672 13.5992 7.73761 13.9473 7.81544 14.2934C7.84964 14.4453 7.84964 14.5881 7.71183 14.687C7.58294 14.7792 7.45653 14.7451 7.33111 14.6671C7.03467 14.4836 6.73376 14.3087 6.4403 14.1212C6.33421 14.0534 6.2539 14.0437 6.14137 14.1171C5.83353 14.3174 5.51874 14.5065 5.20148 14.69C4.96502 14.8266 4.72955 14.6824 4.74045 14.3826V14.3821ZM6.28613 11.2401C6.17905 11.4935 6.08734 11.7076 5.99811 11.9232C5.94259 12.0578 5.85038 12.1357 5.70464 12.149C5.47363 12.1699 5.24312 12.1974 4.96997 12.2265C5.14943 12.3891 5.29517 12.5328 5.45231 12.6608C5.61739 12.7948 5.67638 12.9462 5.61442 13.1608C5.55691 13.3591 5.52667 13.5661 5.47561 13.8117C5.65507 13.7047 5.80874 13.6344 5.93763 13.5314C6.18103 13.3372 6.40361 13.3484 6.64354 13.5355C6.77342 13.6364 6.92462 13.7083 7.09862 13.8133C7.04706 13.5706 7.01236 13.3652 6.95783 13.1654C6.90033 12.9554 6.94891 12.7979 7.11646 12.6628C7.27411 12.5354 7.41836 12.3906 7.59881 12.226C7.33706 12.1989 7.11894 12.1719 6.90033 12.1551C6.72435 12.1419 6.62074 12.0511 6.55729 11.885C6.47896 11.6785 6.38626 11.4777 6.28563 11.2401H6.28613Z" fill="#5B6B79"/>
<path d="M11.4694 10.0851C11.5929 10.2084 11.7099 10.2793 11.7599 10.3838C11.922 10.7253 12.0628 11.0786 12.2051 11.4298C12.2428 11.5225 12.2889 11.5628 12.3925 11.5704C12.7558 11.5975 13.1177 11.6428 13.4811 11.6744C13.6313 11.6877 13.7458 11.7458 13.7924 11.8982C13.8365 12.0435 13.7741 12.1556 13.668 12.2509C13.4023 12.489 13.1425 12.7337 12.8723 12.9656C12.7737 13.0507 12.7474 13.1333 12.7781 13.2607C12.8609 13.6058 12.9303 13.954 13.0092 14.3001C13.0424 14.4464 13.0404 14.5825 12.914 14.6798C12.7816 14.7823 12.6503 14.7476 12.5179 14.665C12.217 14.4775 11.9096 14.3001 11.6112 14.1084C11.5126 14.0452 11.4417 14.0498 11.345 14.1115C11.0461 14.3021 10.7392 14.48 10.4373 14.6661C10.3124 14.743 10.186 14.7797 10.0556 14.6905C9.91385 14.5937 9.91484 14.4489 9.94755 14.2985C10.0259 13.9392 10.1102 13.5813 10.1776 13.2199C10.1905 13.1516 10.1572 13.0461 10.1077 12.9982C9.84643 12.7464 9.57526 12.5048 9.30311 12.2647C9.18414 12.1597 9.11622 12.0389 9.17075 11.8804C9.2228 11.729 9.34624 11.6867 9.49397 11.6744C9.85089 11.6454 10.2083 11.6107 10.5632 11.5633C10.6307 11.5541 10.7179 11.4889 10.7462 11.4257C10.9003 11.0867 11.0302 10.736 11.1884 10.3991C11.2384 10.292 11.349 10.2156 11.4684 10.0851H11.4694ZM11.4798 11.2422C11.3842 11.4649 11.2895 11.6566 11.2191 11.8579C11.1487 12.0588 11.0213 12.1495 10.8195 12.1622C10.6138 12.175 10.4086 12.201 10.1612 12.2255C10.3541 12.4003 10.5117 12.5496 10.6763 12.6903C10.8151 12.8091 10.8627 12.9442 10.8141 13.1282C10.7586 13.3387 10.7229 13.5548 10.6693 13.8128C10.8954 13.6767 11.0843 13.5712 11.2647 13.4529C11.4134 13.3555 11.5502 13.3606 11.697 13.4544C11.8819 13.5727 12.0722 13.6818 12.2933 13.8148C12.2378 13.5625 12.1947 13.3525 12.1446 13.1445C12.1005 12.9605 12.1337 12.8116 12.2844 12.6873C12.45 12.5507 12.6032 12.3988 12.7915 12.226C12.5397 12.201 12.3335 12.1745 12.1263 12.1622C11.93 12.1505 11.8085 12.0567 11.7396 11.8671C11.6662 11.6663 11.5755 11.4716 11.4798 11.2437V11.2422Z" fill="#5B6B79"/>
<path d="M11.0282 6.64387C11.0253 7.51806 10.3402 8.21385 9.48802 8.20926C8.64776 8.20467 7.97209 7.5043 7.97159 6.63826C7.97159 5.76254 8.65272 5.06217 9.50289 5.0642C10.3545 5.06624 11.0312 5.76764 11.0282 6.64438V6.64387ZM10.4344 6.64132C10.4363 6.09947 10.0209 5.67181 9.49545 5.67436C8.97692 5.67691 8.56745 6.09845 8.56547 6.63113C8.56349 7.1638 8.97197 7.59299 9.48554 7.5986C10.0125 7.60421 10.4324 7.18062 10.4344 6.64132Z" fill="#5B6B79"/>
<path d="M5.47115 5.06319C6.31488 5.06064 7.00641 5.76611 7.00889 6.63266C7.01187 7.49716 6.32182 8.20824 5.47859 8.20926C4.63387 8.21079 3.94233 7.50532 3.94035 6.6403C3.93787 5.77528 4.62693 5.06573 5.47115 5.06319ZM5.48305 7.5986C5.99513 7.59554 6.41452 7.16278 6.41501 6.63724C6.41551 6.10304 5.98819 5.66875 5.46619 5.67385C4.95163 5.67843 4.53473 6.10865 4.53373 6.6352C4.53274 7.16686 4.96105 7.60166 5.48255 7.5986H5.48305Z" fill="#5B6B79"/>
<path d="M13.5287 5.06319C14.3734 5.06624 15.062 5.77528 15.0595 6.6403C15.057 7.50634 14.3665 8.21079 13.5212 8.20926C12.6785 8.20824 11.988 7.49716 11.9904 6.63266C11.9929 5.76713 12.6854 5.06064 13.5282 5.06319H13.5287ZM13.5297 7.5986C14.0422 7.59707 14.4626 7.16686 14.4656 6.64081C14.4691 6.10712 14.0422 5.67079 13.5203 5.67334C13.0052 5.67639 12.5878 6.10355 12.5843 6.63113C12.5813 7.1638 13.0077 7.60013 13.5297 7.59809V7.5986Z" fill="#5B6B79"/>
</svg>
