<svg width="25" height="15" viewBox="0 0 25 15" fill="none" xmlns="http://www.w3.org/2000/svg">
<path d="M25 7.9189C24.8872 8.48046 24.7691 9.04138 24.6615 9.60425C24.5108 10.392 24.3686 11.1811 24.2199 11.9688C24.156 12.31 23.9844 12.4504 23.6296 12.455C23.3784 12.4582 23.1273 12.4556 22.8847 12.4556C22.3472 13.8712 21.5116 14.5387 20.3023 14.5348C19.1015 14.5309 18.2476 13.8439 17.7408 12.4556C17.671 12.4556 17.5915 12.4556 17.5119 12.4556C15.5596 12.4556 13.6067 12.4589 11.6544 12.4511C11.4646 12.4504 11.3935 12.5096 11.3394 12.6883C11.0035 13.801 9.99179 14.5407 8.83791 14.5348C7.69382 14.529 6.67562 13.7659 6.35861 12.6565C6.30904 12.4829 6.23077 12.4491 6.07096 12.4524C5.63198 12.4615 5.19234 12.4589 4.75271 12.4543C4.40113 12.4511 4.16697 12.2398 4.16762 11.9389C4.16827 11.636 4.40374 11.4248 4.75401 11.4222C5.2654 11.4189 5.77678 11.4215 6.29208 11.4215C6.33317 11.2909 6.36579 11.1746 6.40753 11.0608C6.7852 10.0248 7.80797 9.31696 8.88814 9.34426C10.029 9.37286 11.0074 10.0937 11.3309 11.172C11.3922 11.3767 11.4777 11.4287 11.6792 11.4261C12.4763 11.4144 13.274 11.4209 14.0711 11.4202C14.0874 11.4202 14.1031 11.4163 14.1585 11.4092C14.9452 7.97479 15.7344 4.52675 16.5309 1.04621H16.1806C12.4293 1.04621 8.67811 1.04621 4.92687 1.04491C4.80554 1.04491 4.68096 1.04361 4.56355 1.01762C4.32873 0.966269 4.16958 0.757631 4.16762 0.525595C4.16566 0.293559 4.32416 0.0849218 4.55703 0.0283752C4.6503 0.00562658 4.7501 0.00107698 4.84664 0.00107698C8.90705 -0.000222944 12.9675 -0.000223083 17.0279 0.000426878C17.5771 0.000426878 17.7832 0.259111 17.6619 0.790779C17.4877 1.55513 17.3116 2.31884 17.1296 3.11374C17.251 3.11374 17.3469 3.11309 17.4427 3.11374C18.549 3.12349 19.6585 3.08514 20.7609 3.15339C22.8586 3.28403 24.6667 5.02072 24.9491 7.10125C24.9596 7.17989 24.9817 7.25659 24.9987 7.33393V7.9176L25 7.9189ZM17.7545 11.415C18.0741 10.1177 19.1295 9.37156 20.284 9.34491C21.481 9.31696 22.3602 10.0176 22.8781 11.4072H23.2682C23.4574 10.4017 23.6407 9.40796 23.8318 8.41547C23.9192 7.9618 24.0072 7.51657 23.9035 7.0473C23.5376 5.39185 22.1091 4.20047 20.4054 4.16537C19.6898 4.15043 18.9743 4.16083 18.2587 4.16018C17.8126 4.16018 17.3664 4.16018 16.9013 4.16018C16.3489 6.58388 15.7997 8.99263 15.2472 11.4144H17.7552L17.7545 11.415ZM20.3075 10.39C19.4407 10.3926 18.746 11.0894 18.7512 11.9519C18.7564 12.7969 19.4563 13.4943 20.3056 13.4995C21.1607 13.5053 21.8743 12.7969 21.8743 11.9415C21.8743 11.0803 21.1751 10.3874 20.3069 10.39H20.3075ZM10.4047 11.935C10.4047 11.0712 9.72631 10.3926 8.86139 10.3894C7.99648 10.3861 7.30441 11.0673 7.30311 11.9227C7.3018 12.8001 7.98278 13.4956 8.84835 13.5001C9.71392 13.5053 10.4047 12.8105 10.4047 11.935Z" fill="#5B6B79"/>
<path d="M3.65427 9.34231C2.6302 9.34231 1.60613 9.34556 0.581404 9.34101C0.149598 9.33906 -0.108051 8.99394 0.0439288 8.63516C0.145032 8.39662 0.338105 8.30758 0.589884 8.30823C1.40262 8.31083 2.21535 8.30888 3.02874 8.30888C4.24785 8.30888 5.4676 8.30823 6.6867 8.30888C7.01154 8.30888 7.22222 8.45642 7.27506 8.7099C7.35007 9.06608 7.10807 9.33906 6.70236 9.34101C5.68611 9.34491 4.66987 9.34231 3.65427 9.34231Z" fill="#5B6B79"/>
<path d="M4.17023 6.22835C3.34836 6.22835 2.52649 6.229 1.70462 6.22705C1.59961 6.22705 1.49003 6.2264 1.39088 6.19781C1.18215 6.13736 1.03343 5.90727 1.04452 5.69149C1.05691 5.45035 1.23759 5.24496 1.48024 5.20337C1.53568 5.19362 1.59374 5.19557 1.65049 5.19557C3.32683 5.19557 5.00318 5.19687 6.67888 5.19362C6.91696 5.19362 7.11264 5.25731 7.2294 5.477C7.41399 5.82473 7.17265 6.2173 6.75715 6.22445C6.13879 6.2355 5.52044 6.2277 4.90208 6.22835C4.65813 6.22835 4.41418 6.22835 4.16957 6.22835H4.17023Z" fill="#5B6B79"/>
<path d="M4.67639 3.11439C4.0176 3.11439 3.35945 3.11634 2.70065 3.11374C2.31385 3.11244 2.09534 2.9259 2.09208 2.60482C2.08882 2.27854 2.31972 2.0816 2.71304 2.08095C4.0463 2.07965 5.37955 2.07835 6.7128 2.08225C7.16743 2.08355 7.43291 2.49888 7.21766 2.86026C7.10155 3.05524 6.91892 3.11634 6.69975 3.11569C6.0253 3.11244 5.35019 3.11439 4.67509 3.11439H4.67639Z" fill="#5B6B79"/>
</svg>
