<svg width="20" height="21" viewBox="0 0 20 21" fill="none" xmlns="http://www.w3.org/2000/svg">
<path d="M8.16934 20.8599C7.98559 20.7967 7.7935 20.7508 7.62071 20.6662C7.12742 20.4245 6.80743 20.0288 6.64874 19.5032C6.63361 19.4536 6.62212 19.4024 6.60698 19.3528C6.60333 19.3414 6.59237 19.332 6.57305 19.3059H3.50159V2.76935H0V0.859863H5.40899V15.8836H7.54137V7.27893H8.82288V1.23257H15.5103V7.27736H16.7986V15.8988H19.5432V19.3095C19.2128 19.3095 18.8897 19.3095 18.5661 19.3095C18.3379 19.3095 18.1098 19.3048 17.8822 19.3132C17.8295 19.3153 17.7413 19.3513 17.7319 19.3878C17.5247 20.2068 16.9828 20.6683 16.1821 20.8599H15.635C15.5859 20.8452 15.5369 20.8296 15.4868 20.8165C14.8823 20.6599 14.4469 20.3008 14.1932 19.7297C14.1358 19.6003 14.1009 19.4604 14.0528 19.3179H10.2866C10.2688 19.3836 10.2537 19.4463 10.2349 19.5074C10.0579 20.0816 9.69463 20.4919 9.14078 20.7257C9.00454 20.7831 8.85786 20.816 8.71587 20.8599H8.16882H8.16934ZM13.3408 9.60706H11.0012V7.91786H8.18448V15.8878H16.1669V7.9236H13.3408V9.60758V9.60706ZM14.8771 7.26535V1.85167H13.0918V3.034H11.2523V1.85845H9.47591V7.26588H14.8776L14.8771 7.26535ZM14.0554 18.6722C14.0659 18.645 14.0758 18.6278 14.0794 18.6095C14.2689 17.7289 15.0556 17.1375 15.8845 17.1338C16.7578 17.1302 17.4072 17.6349 17.7183 18.5709C17.7329 18.6147 17.7893 18.6742 17.8274 18.6753C18.1897 18.6831 18.552 18.68 18.9148 18.68V16.5393H5.41369C5.41369 17.2043 5.41369 17.8547 5.41369 18.5051C5.41369 18.5557 5.42099 18.6064 5.42674 18.681C5.62719 18.681 5.82033 18.681 6.01399 18.681C6.20765 18.681 6.40236 18.681 6.58924 18.681C6.9562 17.6318 7.54137 17.1443 8.42564 17.1359C9.31357 17.127 9.88725 17.5968 10.296 18.6727H14.0549L14.0554 18.6722ZM4.12956 2.13825V18.6685H4.77632V1.48574H0.626403V2.13825H4.12956ZM8.43347 17.7613C7.74704 17.766 7.19006 18.3308 7.20207 19.0099C7.21407 19.6948 7.77731 20.2423 8.46218 20.2335C9.134 20.2251 9.68732 19.6619 9.68367 18.9906C9.68001 18.3057 9.12095 17.756 8.43347 17.7607V17.7613ZM15.9038 17.7613C15.2164 17.7623 14.6599 18.3193 14.6641 19.001C14.6683 19.6827 15.2326 20.2382 15.9148 20.234C16.5871 20.2293 17.1415 19.6728 17.1446 18.9994C17.1478 18.3156 16.5913 17.7602 15.9038 17.7613ZM11.6417 7.91942V8.98065H12.705V7.91942H11.6417ZM11.8938 1.85062V2.40812H12.4545V1.85062H11.8938Z" fill="#5B6B79"/>
<path d="M12.9958 13.7752V13.1749H15.2226V13.7752H12.9958Z" fill="#5B6B79"/>
<path d="M15.2247 14.3891V14.9915H13.001V14.3891H15.2247Z" fill="#5B6B79"/>
<path d="M12.7504 5.96348V5.36527H14.3018V5.96348H12.7504Z" fill="#5B6B79"/>
<path d="M12.7504 6.82165V6.22239H14.3029V6.82165H12.7504Z" fill="#5B6B79"/>
<path d="M9.34541 18.9932C9.34645 19.4969 8.94764 19.8973 8.44443 19.8989C7.94174 19.8999 7.54032 19.5 7.5398 18.9968C7.53928 18.4947 7.94122 18.0896 8.44078 18.0886C8.94033 18.0875 9.34488 18.4921 9.34541 18.9937V18.9932ZM8.719 18.9906C8.71483 18.8413 8.59059 18.7186 8.44339 18.7181C8.28887 18.7176 8.1615 18.8502 8.1662 19.0083C8.17038 19.1607 8.29044 19.2787 8.44182 19.2792C8.60103 19.2798 8.7237 19.1519 8.71953 18.9911L8.719 18.9906Z" fill="#5B6B79"/>
<path d="M15.0024 18.9932C15.0034 18.4915 15.4074 18.087 15.9065 18.0886C16.405 18.0901 16.809 18.4968 16.8085 18.9974C16.8085 19.498 16.4039 19.9004 15.9018 19.8994C15.3975 19.8983 15.0008 19.499 15.0018 18.9937L15.0024 18.9932ZM16.1826 18.9921C16.1784 18.8434 16.0547 18.7202 15.9075 18.7181C15.7525 18.7165 15.6251 18.8481 15.6288 19.0068C15.6324 19.1592 15.7514 19.2777 15.9023 19.2792C16.0604 19.2803 16.1868 19.1514 16.1826 18.9927V18.9921Z" fill="#5B6B79"/>
</svg>
