<svg width="22" height="23" viewBox="0 0 22 23" fill="none" xmlns="http://www.w3.org/2000/svg">
<path d="M19.2239 14.9919C19.2405 14.9772 19.2571 14.9624 19.273 14.9477C19.289 14.9354 19.3044 14.9237 19.3197 14.9114C19.3652 14.8911 19.4107 14.8709 19.4562 14.85C19.4943 14.8598 19.5318 14.8696 19.5699 14.8795C19.5619 14.8555 19.5533 14.8309 19.5453 14.8069C19.6234 14.7596 19.7008 14.7123 19.7789 14.665C19.9362 14.7744 20.0007 14.708 20.0124 14.542C20.3689 14.4671 20.7248 14.4259 21.0745 14.5752C21.1163 14.7221 21.1777 14.8278 21.3504 14.7123L21.5483 14.8567C21.5588 14.8672 21.5692 14.8776 21.5797 14.8875C21.6276 14.9526 21.6756 15.0184 21.7241 15.0835L21.6995 15.1536C21.7223 15.1437 21.7456 15.1339 21.7684 15.1241C21.8931 15.4375 22.0443 15.7448 21.9878 16.0989C21.8735 16.1843 21.8102 16.2826 21.906 16.4215C21.8919 16.4523 21.8778 16.4824 21.8636 16.5131C21.8477 16.5444 21.8317 16.5758 21.8157 16.6071C21.7684 16.6846 21.721 16.762 21.6743 16.8395C21.5151 16.7995 21.4064 16.9077 21.4463 17.0669C21.3842 17.1136 21.3215 17.1609 21.2595 17.2076C21.2214 17.1984 21.1839 17.1892 21.1458 17.18C21.1544 17.2039 21.163 17.2279 21.1716 17.2519C20.9085 17.4055 20.6461 17.5598 20.383 17.7134C20.3455 17.7042 20.3074 17.695 20.2699 17.6852C20.2779 17.7091 20.2865 17.7331 20.2945 17.7571C20.2011 17.8038 20.1077 17.8511 20.0149 17.8978C19.9915 17.8898 19.9682 17.8812 19.9448 17.8732C19.9546 17.896 19.9645 17.9193 19.9743 17.9421C19.8034 18.0349 19.6326 18.1277 19.4617 18.2199C19.431 18.2353 19.4003 18.2506 19.3695 18.266C19.3081 18.3115 19.2466 18.3576 19.1851 18.403C19.147 18.3938 19.1095 18.3846 19.0714 18.3754C19.08 18.3994 19.0887 18.4233 19.0973 18.4473C18.8188 18.6016 18.541 18.7558 18.2626 18.9095C18.2319 18.9248 18.2011 18.9402 18.1704 18.9556C18.0936 19.0017 18.0168 19.0472 17.9399 19.0933C17.9166 19.0846 17.8932 19.0767 17.8705 19.0681C17.8803 19.0908 17.8895 19.1141 17.8994 19.1369C17.6363 19.2905 17.3733 19.4448 17.1102 19.5985C17.0727 19.5892 17.0346 19.58 16.9971 19.5702C17.0051 19.5942 17.0137 19.6181 17.0217 19.6421C16.9283 19.6888 16.8349 19.7361 16.7421 19.7828C16.7187 19.7749 16.6953 19.7663 16.6726 19.7583C16.6824 19.781 16.6917 19.8044 16.7015 19.8271C16.4384 19.9808 16.1754 20.135 15.9117 20.2887C15.8742 20.2795 15.8361 20.2702 15.7986 20.261C15.8066 20.285 15.8152 20.309 15.8232 20.3329C15.468 20.5198 15.1127 20.7072 14.7575 20.8941C14.7304 20.9064 14.7034 20.918 14.6763 20.9303C14.5503 20.9592 14.4243 20.9875 14.2977 21.0164C14.2541 21.0336 14.2098 21.0502 14.1662 21.0674C14.1349 21.0828 14.1041 21.111 14.0728 21.111C12.1497 21.111 10.2259 21.108 8.3028 21.1055C8.26838 21.0668 8.23458 21.0281 8.20016 20.9893C8.17311 21.0274 8.14546 21.0662 8.11841 21.1043C7.98012 21.0895 7.84184 21.0748 7.70355 21.0594C7.63533 20.8504 7.51486 20.8338 7.35383 20.9641C7.33232 20.9549 7.3102 20.9451 7.28868 20.9359C7.26533 20.8935 7.24259 20.851 7.21923 20.8093C7.19649 20.8301 7.17314 20.851 7.1504 20.8719C6.99428 20.7994 6.83879 20.7269 6.65502 20.6415C6.64826 20.7914 6.6415 20.9297 6.63535 21.0674C6.46326 21.1221 6.45896 21.2001 6.60216 21.2997C6.59724 21.3145 6.59171 21.3292 6.5868 21.344C6.52349 21.3495 6.45527 21.3421 6.39749 21.3636C6.33603 21.3864 6.28379 21.4362 6.22786 21.4743H3.36929C3.28325 21.4208 3.19659 21.3673 3.11792 21.3182C3.06936 21.2401 3.01527 21.1534 2.9618 21.0674V20.7373H0.417302C0.331256 20.6839 0.244596 20.6304 0.165925 20.5812C0.116142 20.5019 0.0632848 20.4159 0.00981341 20.3305C0.00981341 18.6427 0.00981341 16.955 0.00981341 15.2679C0.131507 15.207 0.131507 15.1462 0.0110427 15.0835C0.0841817 15.0202 0.157321 14.9575 0.23046 14.8942C0.292536 14.8831 0.354612 14.8721 0.417302 14.861H2.94398C2.95013 14.7381 2.95566 14.6348 2.96057 14.531C3.08227 14.4701 3.08227 14.4093 2.9618 14.3466C3.03494 14.2833 3.10808 14.2206 3.18122 14.1573C3.2433 14.1462 3.30537 14.1352 3.36806 14.1241H6.22663C6.26166 14.1653 6.29608 14.2065 6.33112 14.2476C6.37475 14.2065 6.41778 14.1653 6.46141 14.1241C6.4817 14.1253 6.50198 14.1272 6.52226 14.1284C6.54316 14.1702 6.56467 14.2126 6.58557 14.2544C6.58618 14.2851 6.58679 14.3159 6.58802 14.3466C6.41286 14.4554 6.52902 14.4916 6.63412 14.531V15.0958C6.8812 15.0417 7.10614 14.9962 7.32986 14.9434C7.77361 14.8383 8.21737 14.7313 8.65989 14.6195C8.71397 14.606 8.75884 14.5586 8.80801 14.5267C8.82522 14.5525 8.84304 14.5783 8.86025 14.6035C8.87377 14.5814 8.88729 14.5599 8.90143 14.5377C9.40787 14.6103 9.91493 14.6834 10.4214 14.7559C10.4343 14.7965 10.4466 14.8377 10.4595 14.8782C10.4933 14.8543 10.5271 14.8303 10.5609 14.8063C10.6838 14.8549 10.8067 14.9034 10.9297 14.952C10.945 14.9741 10.9598 14.9962 10.9751 15.019C10.9905 14.9975 11.0065 14.976 11.0218 14.9538C11.2216 15.0147 11.4213 15.0755 11.6211 15.1364C11.6358 15.1585 11.6512 15.1806 11.666 15.2034C11.6819 15.1818 11.6973 15.1603 11.7133 15.1388C11.8983 15.196 12.0827 15.2525 12.2677 15.3097C12.2916 15.3392 12.3162 15.3687 12.3402 15.3982C12.3617 15.373 12.3832 15.3484 12.4047 15.3232C12.543 15.3681 12.6813 15.4136 12.8196 15.4584C12.897 15.5574 12.9739 15.6637 13.0962 15.507C13.2345 15.5525 13.3727 15.5973 13.511 15.6428C13.5258 15.6649 13.5412 15.6871 13.5559 15.7098C13.5719 15.6883 13.5872 15.6668 13.6032 15.6453C13.7882 15.7024 13.9732 15.759 14.1576 15.8161C14.1816 15.8456 14.2062 15.8751 14.2301 15.9053L14.2947 15.8303C14.4944 15.8905 14.6942 15.9513 14.8939 16.0116C14.9253 16.0226 14.9566 16.0337 14.988 16.0448C15.2025 16.1068 15.4176 16.1695 15.6321 16.2316C15.6394 16.4043 15.7273 16.4406 15.8755 16.3736C15.8908 16.3754 15.8994 16.3834 15.9007 16.3988C15.932 16.4861 15.9627 16.5733 15.9941 16.66C16.0273 16.6391 16.0604 16.6176 16.0943 16.5967C16.1397 16.6317 16.1852 16.6668 16.2307 16.7018C16.2461 16.7239 16.2614 16.7454 16.2768 16.7676C16.2866 16.7589 16.3063 16.7454 16.3045 16.7424C16.2958 16.7239 16.2817 16.7079 16.2694 16.6913C16.3475 16.644 16.4255 16.5967 16.5042 16.5494C16.5349 16.5334 16.5657 16.518 16.5964 16.502C16.7507 16.4111 16.9043 16.3201 17.0586 16.2292C17.0961 16.2384 17.1342 16.2476 17.1717 16.2574C17.1637 16.2335 17.1551 16.2095 17.1471 16.1855C17.2251 16.1382 17.3026 16.0909 17.3806 16.0442C17.4187 16.054 17.4569 16.0638 17.4943 16.073C17.4857 16.0491 17.4765 16.0245 17.4679 16.0005C17.546 15.9532 17.6246 15.9059 17.7027 15.8585C17.7334 15.8432 17.7642 15.8272 17.7949 15.8118L17.9338 15.7227C18.0924 15.8266 18.109 15.7172 18.1206 15.5992C18.1661 15.5789 18.2116 15.5592 18.2571 15.5389C18.2952 15.5482 18.3327 15.5574 18.3708 15.5666C18.3622 15.5426 18.3536 15.5187 18.3456 15.4947C18.3622 15.4799 18.3788 15.4652 18.396 15.4504C18.412 15.4381 18.4273 15.4265 18.4433 15.4142C18.4888 15.3939 18.5343 15.373 18.5798 15.3527C18.6105 15.3373 18.6412 15.3214 18.6719 15.306C18.7488 15.2599 18.825 15.2138 18.9018 15.1677C18.9338 15.1425 18.9651 15.1179 18.9971 15.0927C19.0426 15.0724 19.088 15.0522 19.1335 15.0319C19.171 15.0417 19.2091 15.0509 19.2466 15.0608C19.2386 15.0368 19.2306 15.0128 19.2226 14.9882L19.2239 14.9919ZM20.796 15.1782C20.75 15.2058 20.7039 15.2329 20.6578 15.2605C20.5016 15.2759 20.3455 15.2913 20.1888 15.3066C20.1304 15.3263 20.0714 15.3453 20.013 15.365C19.9516 15.4117 19.8907 15.4584 19.8293 15.5051C19.7832 15.5199 19.7365 15.5346 19.6904 15.5494C19.6443 15.5807 19.5988 15.6115 19.5527 15.6428C19.5066 15.6582 19.4605 15.6742 19.4144 15.6895C19.3376 15.7356 19.2607 15.7817 19.1839 15.8278C19.1606 15.8192 19.1378 15.8106 19.1145 15.8026C19.1237 15.8253 19.1329 15.8487 19.1421 15.8714C18.9713 15.9796 18.801 16.0878 18.6302 16.196C18.5841 16.2107 18.5373 16.2255 18.4912 16.2402C18.4452 16.2716 18.3997 16.3023 18.3536 16.3336C18.3161 16.3244 18.278 16.3146 18.2405 16.3054C18.2485 16.3293 18.2571 16.3533 18.2651 16.3773C18.1716 16.424 18.0782 16.4713 17.9854 16.518C17.9621 16.5094 17.9393 16.5014 17.916 16.4928C17.9252 16.5156 17.935 16.5389 17.9442 16.5617L17.4802 16.8364C17.4636 16.8487 17.447 16.861 17.4304 16.8733C17.4157 16.8776 17.4009 16.8819 17.3856 16.8862C17.3548 16.9009 17.3235 16.9157 17.2928 16.9304C17.2467 16.9618 17.2012 16.9925 17.1551 17.0238L17.042 16.9956C17.05 17.0195 17.0586 17.0435 17.0666 17.0675C16.9732 17.1142 16.8797 17.1615 16.7863 17.2082C16.763 17.1996 16.7402 17.1916 16.7169 17.183C16.7267 17.2058 16.7359 17.2291 16.7457 17.2519C16.6517 17.2986 16.5577 17.3453 16.4636 17.392C16.4175 17.4172 16.3389 17.435 16.3315 17.4682C16.3124 17.5579 16.2971 17.671 16.4532 17.663C16.3966 17.8825 16.3973 18.1461 16.2694 18.3108C16.0574 18.5844 15.8416 18.8941 15.444 18.9543C15.3192 18.9734 15.2 19.0582 15.0783 19.0588C14.8939 19.0601 14.7095 19.0134 14.5245 18.9869C14.4926 18.9752 14.4612 18.9642 14.4293 18.9525C13.8306 18.7952 13.2326 18.6378 12.634 18.4805L12.5387 18.4461C12.2707 18.3686 12.0028 18.29 11.7342 18.215C11.2812 18.0884 10.8276 17.9642 10.3747 17.8388C10.3181 17.7737 10.2548 17.7134 10.2063 17.6428C10.154 17.5666 10.0667 17.4682 10.0839 17.4031C10.1048 17.3232 10.213 17.2592 10.2941 17.2039C10.3593 17.1591 10.4404 17.1369 10.5148 17.105C10.6113 17.1376 10.7072 17.1738 10.8055 17.2015C11.0765 17.2789 11.3488 17.3533 11.6211 17.4289C11.6451 17.4584 11.6697 17.4879 11.6936 17.5174C11.7151 17.4922 11.7366 17.467 11.7582 17.4424L12.173 17.5782C12.2511 17.6772 12.3273 17.7835 12.4496 17.6262C13.071 17.7915 13.696 17.9464 14.3131 18.1271C14.677 18.2334 15.0297 18.3453 15.3991 18.1652C15.4256 18.1892 15.452 18.2131 15.4784 18.2365C15.4796 18.1971 15.4815 18.1572 15.4827 18.1179C15.5098 18.0736 15.5288 18.0226 15.5638 17.9869C15.8822 17.6618 15.7212 17.0294 15.2615 16.869C15.2461 16.8327 15.2307 16.7958 15.2154 16.7596C15.2 16.7811 15.1846 16.8026 15.1693 16.8241C14.9849 16.778 14.8005 16.7319 14.6161 16.6858C14.5934 16.6489 14.5712 16.6121 14.5485 16.5752C14.5251 16.5967 14.5012 16.6182 14.4778 16.6391C14.2934 16.593 14.1091 16.5475 13.9247 16.5014C13.9093 16.4621 13.8933 16.4228 13.878 16.3834C13.8472 16.4074 13.8171 16.4307 13.7864 16.4547C13.6413 16.4246 13.4969 16.3951 13.3518 16.365C13.3445 16.1677 13.2437 16.2212 13.1386 16.2857C13.0009 16.25 12.8632 16.2144 12.7256 16.1794C12.7028 16.1425 12.6807 16.1056 12.658 16.0687L12.5873 16.1333C12.4029 16.0872 12.2185 16.0411 12.0341 15.9956C11.9634 15.8413 11.937 15.8352 11.8497 15.9513C11.7268 15.9206 11.6039 15.8899 11.481 15.8592C11.4595 15.6649 11.3304 15.6994 11.2038 15.7282C11.1724 15.7442 11.1411 15.7602 11.1091 15.7756C11.0182 15.7411 10.9266 15.7073 10.8356 15.6729C10.8129 15.636 10.7908 15.5992 10.768 15.5623C10.7447 15.5838 10.7207 15.6053 10.6973 15.6268C10.5129 15.5807 10.3286 15.5346 10.1442 15.4892C10.0944 15.2931 10.004 15.3632 9.91063 15.4535C9.89526 15.4541 9.88112 15.4511 9.8676 15.4443C9.83503 15.4326 9.80307 15.4203 9.7705 15.4086C9.40541 15.2943 9.03972 15.2851 8.66726 15.3816C7.9961 15.5549 7.32249 15.719 6.63965 15.8893C6.63965 17.1462 6.63719 18.4012 6.6458 19.6562C6.6458 19.7226 6.72017 19.816 6.7847 19.8498C7.11598 20.0213 7.45586 20.1774 7.79205 20.3391C7.83938 20.3514 7.8867 20.3637 7.93403 20.3759C8.1135 20.2961 8.29296 20.3766 8.47243 20.3766C10.261 20.3778 12.0495 20.3796 13.838 20.3735C13.9898 20.3735 14.1416 20.3169 14.2934 20.2868C14.4465 20.4147 14.5042 20.3968 14.5694 20.2014C14.5823 20.1953 14.5958 20.1922 14.6106 20.1916C14.6272 20.1793 14.6444 20.167 14.661 20.1553C14.6757 20.151 14.6911 20.1467 14.7058 20.1424C14.7194 20.1676 14.7323 20.1928 14.7458 20.2174C14.7642 20.167 14.7821 20.1166 14.8005 20.0662C14.8152 20.0625 14.8294 20.0588 14.8441 20.0545C14.8755 20.0121 14.9074 19.9691 14.9388 19.9267C14.983 19.923 15.0273 19.9193 15.0715 19.9156C15.0881 19.9045 15.1053 19.8929 15.1219 19.8818C15.168 19.8615 15.2135 19.8412 15.2596 19.821C15.4182 19.9242 15.4348 19.8148 15.4458 19.6968C15.4913 19.6765 15.5368 19.6556 15.5817 19.6353C15.6192 19.6452 15.6573 19.655 15.6948 19.6648C15.6868 19.6409 15.6782 19.6163 15.6702 19.5923C15.7482 19.545 15.8257 19.4977 15.9037 19.4497C15.9388 19.462 15.9732 19.4749 16.0082 19.4872L15.991 19.4067C16.0242 19.376 16.0574 19.3459 16.09 19.3151C16.2467 19.4202 16.3094 19.3508 16.3217 19.1897C16.3671 19.1695 16.4126 19.1498 16.4581 19.1295C16.6173 19.2328 16.6333 19.1228 16.6443 19.0054L16.7802 18.9433C16.8109 18.9279 16.8416 18.9126 16.8724 18.8972C17.0113 18.8062 17.1495 18.7153 17.2885 18.6243C17.4089 18.714 17.4734 18.6907 17.4734 18.534C17.4888 18.5229 17.5048 18.5112 17.5202 18.4989C17.5656 18.4786 17.6117 18.459 17.6572 18.4387C17.6947 18.4479 17.7328 18.4571 17.7703 18.467C17.7617 18.443 17.7537 18.419 17.7451 18.3951C17.8232 18.3477 17.9006 18.3004 17.9787 18.2531C18.0094 18.2377 18.0401 18.2217 18.0709 18.2064C18.0862 18.1928 18.1016 18.1799 18.1169 18.1664C18.1489 18.1517 18.1809 18.1363 18.2128 18.1215C18.3038 18.1215 18.4077 18.1394 18.3966 17.9937C18.4421 17.9734 18.4876 17.9531 18.533 17.9329L18.6461 17.9617C18.6381 17.9378 18.6295 17.9138 18.6215 17.8892C18.6381 17.8745 18.6547 17.8597 18.6713 17.845C18.6873 17.8327 18.7027 17.821 18.7187 17.8087C18.7641 17.7884 18.8096 17.7675 18.8551 17.7472C18.8932 17.7571 18.9307 17.7669 18.9688 17.7767C18.9602 17.7528 18.9516 17.7282 18.943 17.7042C19.021 17.6569 19.0997 17.6096 19.1778 17.5622C19.2097 17.537 19.2411 17.5125 19.273 17.4873C19.3032 17.4676 19.3339 17.4473 19.364 17.4276C19.5207 17.5334 19.5828 17.4633 19.5957 17.3029C19.6412 17.2826 19.6867 17.2629 19.7322 17.2426C19.7696 17.2519 19.8078 17.2611 19.8452 17.2709C19.8366 17.247 19.8286 17.223 19.82 17.199C19.8981 17.1517 19.9762 17.1044 20.0536 17.057C20.0917 17.0669 20.1292 17.0767 20.1673 17.0865C20.1587 17.0626 20.1495 17.038 20.1409 17.014C20.2189 16.9667 20.2976 16.9194 20.3757 16.872L20.4457 16.9015C20.4537 16.8665 20.4623 16.8321 20.4703 16.7971C20.5158 16.7768 20.5613 16.7571 20.6067 16.7368C20.7315 16.8413 20.769 16.7589 20.793 16.6495C20.8391 16.6342 20.8852 16.6182 20.9313 16.6028C21.1876 16.5838 21.2367 16.5229 21.155 16.3244C21.1753 16.2642 21.1955 16.2033 21.2158 16.1431C21.2533 16.1284 21.2902 16.113 21.3277 16.0982C21.3062 16.0829 21.2847 16.0669 21.2632 16.0515C21.2601 15.9593 21.2564 15.8678 21.2533 15.7756C21.2785 15.7196 21.3369 15.6262 21.324 15.6145C21.249 15.5494 21.1574 15.5045 21.0714 15.4529C21.0247 15.4074 20.978 15.3625 20.9313 15.3171C20.8852 15.2704 20.8397 15.2236 20.7936 15.1769L20.796 15.1782ZM5.89044 20.7423V14.8696H3.70364V20.7423H5.89044ZM0.744891 19.998H2.93968V15.6059H0.745506V19.998H0.744891Z" fill="#5B6B79"/>
<path d="M18.9043 10.303C19.1016 10.4905 19.3013 10.6755 19.4949 10.8666C19.6105 10.981 19.7186 11.1033 19.8262 11.225C19.9706 11.3885 19.9626 11.5618 19.8164 11.7105C19.3001 12.2354 18.7789 12.756 18.254 13.2722C18.0874 13.4363 17.8779 13.4296 17.7101 13.2673C17.4181 12.984 17.1336 12.6939 16.841 12.4118C16.7974 12.37 16.7267 12.3565 16.6683 12.33C16.6449 12.3897 16.6032 12.4487 16.6019 12.5083C16.5958 12.8912 16.6001 13.2747 16.5982 13.6576C16.597 13.9704 16.4446 14.1198 16.1311 14.1198C15.4249 14.1198 14.7181 14.1204 14.0119 14.1198C13.7827 14.1198 13.6499 13.9883 13.6487 13.7609C13.6469 13.4234 13.6573 13.086 13.6432 12.7492C13.6376 12.6195 13.5805 12.4917 13.5307 12.3018C13.1927 12.6263 12.9124 12.8949 12.6327 13.1628C12.6205 13.1751 12.6076 13.1874 12.5953 13.1991C12.4398 13.3694 12.2609 13.4499 12.0341 13.3429C11.996 13.2649 11.9745 13.1696 11.9161 13.1106C11.4834 12.6687 11.0452 12.2317 10.6027 11.799C10.5437 11.7412 10.4484 11.7203 10.3704 11.6822C10.2677 11.4856 10.2929 11.3196 10.4558 11.1574C10.7416 10.8728 11.0139 10.5753 11.2898 10.2815C11.3181 10.2514 11.3316 10.2078 11.3728 10.1316C11.229 10.1082 11.111 10.075 10.9923 10.0726C10.6396 10.0652 10.2868 10.0713 9.93398 10.0689C9.73423 10.0676 9.59226 9.93243 9.59164 9.73699C9.58918 8.97917 9.58918 8.22135 9.59164 7.46353C9.59226 7.24165 9.71825 7.12795 9.96778 7.12549C10.3587 7.12119 10.7502 7.12795 11.1411 7.12119C11.2099 7.11996 11.2781 7.07694 11.3464 7.05297C11.3169 6.99519 11.299 6.92697 11.2566 6.88088C10.977 6.57972 10.6918 6.28409 10.4097 5.98538C10.2732 5.84033 10.2782 5.62522 10.4183 5.46296C10.4748 5.46112 10.5547 5.48079 10.5818 5.4519C10.6113 5.42055 10.591 5.34311 10.5928 5.28595C11.0563 4.82438 11.5191 4.36219 11.9825 3.90061C11.9997 3.88894 12.0163 3.87664 12.0335 3.86497C12.2388 3.77339 12.4508 3.82379 12.6002 3.98666C12.8841 4.29581 13.173 4.60004 13.5141 4.9639C13.5713 4.82622 13.6395 4.73526 13.6419 4.64184C13.6542 4.24357 13.6462 3.84468 13.6475 3.4458C13.6481 3.23314 13.7772 3.07888 13.9818 3.07703C14.7267 3.07089 15.4723 3.06966 16.2172 3.07703C16.4477 3.07949 16.5952 3.26203 16.597 3.51341C16.5995 3.95777 16.5976 4.40214 16.5976 4.90366C16.7046 4.84835 16.7955 4.82315 16.8558 4.76599C17.144 4.49064 17.4243 4.20608 17.7076 3.9252C17.8668 3.76786 18.0831 3.75495 18.2466 3.91598C18.7721 4.43226 19.2976 4.94915 19.809 5.47894C20.002 5.67931 19.9626 5.84341 19.7586 6.05115C19.4752 6.3394 19.1741 6.61045 18.8852 6.89378C18.8539 6.92451 18.8305 7.00687 18.8496 7.03453C18.8785 7.07755 18.9461 7.11873 18.9983 7.11935C19.3898 7.12611 19.7819 7.12242 20.1734 7.12303C20.5016 7.12365 20.6547 7.27484 20.6553 7.59875C20.6559 8.26622 20.6565 8.93307 20.6553 9.60054C20.6553 9.91523 20.5029 10.0676 20.1931 10.0683C19.8016 10.0683 19.4095 10.0646 19.018 10.0726C18.9627 10.0738 18.9086 10.1291 18.8539 10.1592C18.8699 10.2072 18.8864 10.2545 18.9024 10.3024L18.9043 10.303ZM18.1213 6.62888C18.4206 6.33387 18.7199 6.03886 18.9897 5.77334C18.6234 5.40212 18.2958 5.07022 17.9547 4.7242C17.699 4.98295 17.4372 5.25092 17.1723 5.5152C16.9547 5.73216 16.8177 5.75183 16.5454 5.62092C16.4317 5.56622 16.3198 5.49677 16.1994 5.47157C15.9338 5.41564 15.8484 5.26321 15.8589 5.00323C15.8742 4.60865 15.8632 4.21284 15.8632 3.82379H14.3875C14.3875 4.2282 14.3826 4.6191 14.3893 5.00876C14.393 5.22818 14.2873 5.36401 14.0968 5.44637C13.9198 5.52319 13.7452 5.62276 13.559 5.65779C13.4201 5.68361 13.2215 5.67255 13.1251 5.59019C12.8552 5.35786 12.6211 5.08436 12.3808 4.81946C12.2775 4.70576 12.2068 4.71252 12.103 4.82069C11.8104 5.12493 11.508 5.41932 11.1982 5.72786C11.4945 6.01919 11.7901 6.30867 12.0845 6.6C12.2216 6.73583 12.2701 6.88764 12.1755 7.07202C12.1183 7.18388 12.0747 7.3025 12.0286 7.41928C11.8651 7.82984 11.7901 7.87901 11.4029 7.86303C11.0464 7.84889 10.6887 7.85996 10.347 7.85996V9.33257C10.6863 9.33257 11.0089 9.32704 11.3316 9.3338C11.6383 9.33995 11.9315 9.36883 11.9997 9.76403C12.0138 9.84516 12.1159 9.90723 12.154 9.98959C12.2246 10.1402 12.3119 10.3049 12.1724 10.4585C11.8596 10.8033 11.5387 11.1401 11.2351 11.4659C11.5707 11.8009 11.9149 12.1457 12.2671 12.4972C12.5393 12.2127 12.8165 11.9164 13.1005 11.6282C13.2369 11.4899 13.3973 11.4456 13.586 11.5378C13.7317 11.6091 13.8835 11.6693 14.0359 11.7246C14.2922 11.8181 14.3862 11.9416 14.3869 12.2102C14.3875 12.598 14.3869 12.9858 14.3869 13.3687H15.8718V11.9551C15.8834 11.9385 15.8951 11.9213 15.9068 11.9047C15.9818 11.8463 16.0494 11.7726 16.1336 11.7339C16.2534 11.6779 16.3942 11.6644 16.5103 11.6036C16.8287 11.437 16.9406 11.4438 17.187 11.6902C17.4507 11.9539 17.7125 12.22 17.9547 12.4646C18.3142 12.1063 18.6498 11.772 19.0051 11.418C18.7426 11.1617 18.482 10.8796 18.1919 10.6325C17.9903 10.4604 18.0002 10.2828 18.0764 10.072C18.1096 9.98099 18.1415 9.89003 18.1735 9.79906C18.3167 9.38727 18.396 9.33257 18.8496 9.33257C19.2005 9.33257 19.5521 9.33257 19.9098 9.33257V7.85934C19.4716 7.85934 19.0432 7.85381 18.6148 7.86241C18.4519 7.86549 18.3597 7.79419 18.3056 7.65406C18.2731 7.57047 18.2442 7.48627 18.2134 7.40207C18.2012 7.38609 18.1889 7.37011 18.1766 7.35413C18.1446 7.28038 18.0905 7.20785 18.0844 7.13225C18.0721 6.97676 18.0862 6.81942 18.0893 6.66269C18.0997 6.65163 18.1108 6.64056 18.1213 6.62888Z" fill="#5B6B79"/>
<path d="M6.2967 7.6307C6.27211 7.90912 6.24261 8.16234 6.22909 8.41679C6.22049 8.57475 6.12706 8.59503 6.0023 8.59503C5.44177 8.59442 4.88124 8.59626 4.32071 8.59503C4.14801 8.59503 4.06073 8.5053 4.06135 8.33198C4.06135 8.10334 4.06135 7.87471 4.06135 7.56371C3.89602 7.72658 3.77617 7.84398 3.65755 7.9626C3.41047 8.20844 3.23776 8.2066 2.99069 7.95891C2.68215 7.64914 2.37239 7.34061 2.06201 7.03207C1.85919 6.83109 1.85181 6.64671 2.0534 6.43467C2.17756 6.30375 2.31339 6.18329 2.48671 6.01734C2.21443 6.01734 2.00362 6.01857 1.79219 6.01734C1.54881 6.0155 1.48058 5.95158 1.47935 5.71618C1.4769 5.20237 1.47628 4.68916 1.47813 4.17535C1.47874 3.93134 1.58384 3.8201 1.82968 3.81149C2.02698 3.80412 2.22427 3.81027 2.47933 3.81027C2.31523 3.65047 2.17756 3.53369 2.06078 3.39909C1.88439 3.19504 1.80879 3.04323 2.07184 2.78632C2.40066 2.46426 2.72456 2.13667 3.04908 1.81031C3.20642 1.65174 3.42153 1.63761 3.58502 1.79679C3.72577 1.93385 3.85053 2.0875 3.98268 2.23378C4.00849 2.22149 4.0343 2.20981 4.06012 2.19752C4.06012 1.99777 4.05827 1.7974 4.06012 1.59766C4.06258 1.35488 4.16706 1.23872 4.41229 1.23503C4.89599 1.22827 5.37969 1.22704 5.86339 1.23503C6.17562 1.23995 6.26166 1.33706 6.27211 1.65604C6.27519 1.74824 6.27211 1.83981 6.27211 1.93201C6.27211 2.01313 6.27211 2.09488 6.27211 2.23255C6.42208 2.07828 6.53517 1.95905 6.65194 1.8435C6.84493 1.65236 7.03731 1.61364 7.22907 1.79064C7.60398 2.13729 7.9537 2.50974 8.30894 2.87667C8.47059 3.04384 8.41343 3.20794 8.27145 3.35484C8.13378 3.49681 7.99057 3.63326 7.83262 3.78937C8.1012 3.80904 8.34643 3.8453 8.59044 3.83915C8.82092 3.83301 8.84366 4.00879 8.84488 4.13478C8.84919 4.68978 8.82153 5.24539 8.81047 5.80038C8.80678 5.97862 8.68632 6.0112 8.55171 6.0155C8.32369 6.02287 8.09506 6.01734 7.78468 6.01734C7.97398 6.19435 8.11903 6.32342 8.25609 6.46048C8.43494 6.6381 8.46628 6.7893 8.29604 6.97184C7.94325 7.35044 7.57018 7.71183 7.19158 8.06524C7.03546 8.2109 6.85046 8.16542 6.69988 8.03143C6.56283 7.90974 6.43867 7.77268 6.29608 7.6307H6.2967ZM7.47676 6.7389C7.29053 6.55267 7.11413 6.37136 6.93159 6.19558C6.71832 5.98969 6.76934 5.77334 6.87689 5.53856C6.97031 5.33451 7.11905 5.2712 7.33171 5.28042C7.58923 5.29148 7.84798 5.28288 8.10366 5.28288V4.54657C7.81541 4.54657 7.5376 4.56624 7.26533 4.53735C7.14363 4.52445 6.98261 4.4427 6.92668 4.34314C6.83203 4.17535 6.66424 3.9799 6.84555 3.76786C7.04714 3.53184 7.26103 3.30628 7.48597 3.05798C7.3649 2.9412 7.23829 2.83057 7.12581 2.70642C7.02686 2.59702 6.95249 2.58473 6.84801 2.70212C6.71095 2.85638 6.54807 2.98914 6.41286 3.14525C6.24999 3.33271 6.06806 3.32902 5.86339 3.24052C5.66487 3.15447 5.51737 3.04323 5.5315 2.79062C5.54687 2.51896 5.53519 2.24607 5.53519 1.98425H4.79765C4.79765 2.22948 4.79765 2.45934 4.79765 2.68859C4.79765 2.99959 4.7153 3.10653 4.42643 3.23929C4.17812 3.35299 3.99067 3.27248 3.82472 3.09055C3.66738 2.91723 3.51434 2.74022 3.35454 2.55953C3.14127 2.77587 2.98209 2.93813 2.81553 3.10776C3.00237 3.29092 3.18183 3.48145 3.37667 3.65415C3.55859 3.81518 3.53216 3.99649 3.4664 4.19071C3.39203 4.40951 3.26051 4.55272 3.00667 4.54719C2.74792 4.54166 2.48917 4.54596 2.22611 4.54596V5.28226C2.48056 5.28226 2.72518 5.2921 2.96856 5.27919C3.20703 5.26628 3.36192 5.37323 3.44735 5.57974C3.53708 5.7967 3.55859 6.03701 3.357 6.19865C3.16094 6.356 2.99376 6.5496 2.85486 6.68666C3.01466 6.8692 3.17016 7.04682 3.33242 7.23243C3.52172 7.04067 3.69504 6.85691 3.87819 6.68297C4.04783 6.52194 4.2488 6.54038 4.45101 6.6129C4.6692 6.69096 4.80933 6.82372 4.79888 7.08001C4.78843 7.33692 4.79642 7.59444 4.79642 7.84459H5.52228C5.52843 7.82308 5.53212 7.81632 5.53212 7.80894C5.53335 7.56371 5.54564 7.31787 5.5315 7.07325C5.51122 6.73152 5.68884 6.63626 6.01275 6.56804C6.25429 6.51702 6.39135 6.66207 6.53886 6.81142C6.99859 7.27792 7.00104 7.27546 7.44664 6.79483C7.45647 6.78438 7.46016 6.7684 7.47614 6.73767L7.47676 6.7389Z" fill="#5B6B79"/>
<path d="M10.3722 11.6816C10.4503 11.7197 10.5455 11.7406 10.6045 11.7984C11.047 12.2305 11.4853 12.6681 11.918 13.11C11.9757 13.169 11.9972 13.2636 12.036 13.3423C11.4816 12.7885 10.9266 12.2354 10.3722 11.6816Z" fill="#5B6B79"/>
<path d="M0.0104275 20.3329C0.0638989 20.4184 0.116756 20.5038 0.166539 20.5837C0.24521 20.6322 0.331256 20.6863 0.417916 20.7398C0.058982 20.781 -0.0344393 20.7244 0.0104275 20.3329Z" fill="#5B6B79"/>
<path d="M2.96119 21.0692C3.01466 21.1553 3.06875 21.2413 3.1173 21.32C3.19597 21.3686 3.28202 21.4226 3.36868 21.4761C3.00974 21.5173 2.91632 21.4607 2.96119 21.0692Z" fill="#5B6B79"/>
<path d="M7.3526 20.9666C7.51363 20.8357 7.6341 20.8529 7.70232 21.0619C7.58554 21.0299 7.46938 20.9986 7.3526 20.9666Z" fill="#5B6B79"/>
<path d="M6.22663 21.4761C6.28256 21.438 6.33418 21.3882 6.39626 21.3655C6.45403 21.344 6.52225 21.3513 6.58556 21.3458C6.52717 21.5566 6.35692 21.4614 6.22663 21.4761Z" fill="#5B6B79"/>
<path d="M16.0955 16.5998C16.0623 16.6207 16.0291 16.6422 15.9953 16.6631C15.964 16.5758 15.9332 16.4885 15.9019 16.4019C15.9664 16.4676 16.0309 16.534 16.0949 16.5998H16.0955Z" fill="#5B6B79"/>
<path d="M21.4463 17.0669C21.4064 16.9083 21.5151 16.7995 21.6743 16.8395C21.5981 16.9151 21.5225 16.9913 21.4463 17.0669Z" fill="#5B6B79"/>
<path d="M21.3498 14.7123C21.1777 14.8278 21.1156 14.7221 21.0739 14.5752C21.166 14.6207 21.2576 14.6662 21.3498 14.7123Z" fill="#5B6B79"/>
<path d="M10.5953 5.28534C10.5935 5.3425 10.6137 5.41994 10.5842 5.45128C10.5572 5.48017 10.4773 5.4605 10.4207 5.46235C10.4791 5.40334 10.5369 5.34434 10.5953 5.28534Z" fill="#5B6B79"/>
<path d="M20.0124 14.5427C20.0007 14.7086 19.9362 14.775 19.7789 14.6656C19.8569 14.6244 19.9344 14.5838 20.0124 14.5427Z" fill="#5B6B79"/>
<path d="M21.906 16.4209C21.8095 16.2826 21.8735 16.1837 21.9878 16.0982C21.9607 16.2058 21.9337 16.3134 21.906 16.4209Z" fill="#5B6B79"/>
<path d="M6.46141 14.1272C6.41777 14.1684 6.37475 14.2095 6.33111 14.2507C6.29608 14.2095 6.26166 14.1684 6.22663 14.1272C6.30468 14.1272 6.38335 14.1272 6.46141 14.1272Z" fill="#5B6B79"/>
<path d="M6.60093 21.3016C6.45772 21.202 6.46202 21.1239 6.63411 21.0692L6.60093 21.3016Z" fill="#5B6B79"/>
<path d="M13.0968 15.5101C12.9745 15.6668 12.8976 15.5605 12.8202 15.4615C12.9124 15.4775 13.0046 15.4935 13.0968 15.5101Z" fill="#5B6B79"/>
<path d="M15.8767 16.3767C15.7286 16.4437 15.6407 16.4074 15.6333 16.2347L15.8767 16.3767Z" fill="#5B6B79"/>
<path d="M8.11718 21.1061C8.14422 21.068 8.17188 21.0293 8.19892 20.9912C8.23334 21.0299 8.26714 21.0686 8.30156 21.1073C8.2401 21.1073 8.17864 21.1061 8.11718 21.1061Z" fill="#5B6B79"/>
<path d="M18.1219 15.6022C18.1108 15.7203 18.0942 15.8297 17.935 15.7258C17.9971 15.6846 18.0592 15.6434 18.1219 15.6022Z" fill="#5B6B79"/>
<path d="M6.63412 14.534C6.52902 14.4953 6.41286 14.4591 6.58803 14.3497C6.60339 14.4111 6.61876 14.4726 6.63412 14.534Z" fill="#5B6B79"/>
<path d="M10.5609 14.81C10.5271 14.834 10.4933 14.8579 10.4595 14.8819C10.4466 14.8414 10.4343 14.8002 10.4214 14.7596C10.4681 14.7762 10.5142 14.7934 10.5609 14.81Z" fill="#5B6B79"/>
<path d="M3.36806 14.1272C3.30599 14.1382 3.24391 14.1493 3.18122 14.1604C3.24329 14.1493 3.30537 14.1382 3.36806 14.1272Z" fill="#5B6B79"/>
<path d="M2.96242 14.3497C3.08288 14.4117 3.08288 14.4732 2.96119 14.534L2.96242 14.3497Z" fill="#5B6B79"/>
<path d="M0.0116578 15.086C0.132122 15.148 0.132122 15.2095 0.0104286 15.2704C0.0104286 15.2089 0.0110432 15.1474 0.0116578 15.086Z" fill="#5B6B79"/>
<path d="M0.4173 14.8635C0.355224 14.8745 0.293148 14.8856 0.230458 14.8967C0.292534 14.8856 0.35461 14.8745 0.4173 14.8635Z" fill="#5B6B79"/>
<path d="M7.14916 20.8744C7.1719 20.8535 7.19526 20.8326 7.218 20.8117C7.24135 20.8541 7.26409 20.8965 7.28745 20.9383C7.24135 20.9168 7.19526 20.8959 7.14916 20.8744Z" fill="#5B6B79"/>
<path d="M21.1716 17.2519C21.163 17.2279 21.1544 17.2039 21.1458 17.18C21.1839 17.1892 21.2214 17.1984 21.2595 17.2076C21.23 17.2224 21.2011 17.2371 21.1716 17.2519Z" fill="#5B6B79"/>
<path d="M14.2953 15.8327L14.2307 15.9077C14.2068 15.8782 14.1822 15.8487 14.1582 15.8186C14.2037 15.8235 14.2498 15.8278 14.2953 15.8327Z" fill="#5B6B79"/>
<path d="M17.1483 16.1886C17.1563 16.2126 17.1649 16.2365 17.1729 16.2605C17.1354 16.2513 17.0973 16.2421 17.0598 16.2322C17.0893 16.2175 17.1188 16.2027 17.1483 16.188V16.1886Z" fill="#5B6B79"/>
<path d="M17.0211 19.6452C17.0131 19.6212 17.0045 19.5972 16.9965 19.5733C17.034 19.5825 17.0721 19.5917 17.1096 19.6015L17.0211 19.6458V19.6452Z" fill="#5B6B79"/>
<path d="M19.0966 18.4491C19.088 18.4252 19.0794 18.4012 19.0708 18.3772C19.1089 18.3864 19.1464 18.3957 19.1845 18.4049C19.1556 18.4196 19.1261 18.4344 19.0973 18.4491H19.0966Z" fill="#5B6B79"/>
<path d="M18.3468 15.4978C18.3554 15.5217 18.364 15.5457 18.372 15.5697C18.3339 15.5605 18.2964 15.5512 18.2583 15.542C18.2878 15.5273 18.3173 15.5125 18.3462 15.4978H18.3468Z" fill="#5B6B79"/>
<path d="M12.4047 15.3269C12.3832 15.3521 12.3617 15.3767 12.3402 15.4019C12.3162 15.3724 12.2916 15.3429 12.2677 15.3134C12.3131 15.3177 12.3592 15.3226 12.4047 15.3269Z" fill="#5B6B79"/>
<path d="M15.8226 20.3354C15.8146 20.3114 15.806 20.2874 15.798 20.2635C15.8355 20.2727 15.8736 20.2819 15.9111 20.2911L15.8226 20.3354Z" fill="#5B6B79"/>
<path d="M19.2239 14.9919L19.2478 15.0645C19.2103 15.0546 19.1722 15.0454 19.1347 15.0356C19.1642 15.0214 19.1944 15.0067 19.2239 14.9925L19.2239 14.9919Z" fill="#5B6B79"/>
<path d="M20.2945 17.7577C20.2865 17.7337 20.2779 17.7098 20.2699 17.6858C20.3074 17.695 20.3455 17.7042 20.383 17.7141C20.3535 17.7288 20.324 17.7436 20.2945 17.7583V17.7577Z" fill="#5B6B79"/>
<path d="M19.5459 14.8075C19.5539 14.8315 19.5625 14.8561 19.5705 14.8801C19.5324 14.8702 19.4949 14.8604 19.4568 14.8506C19.4863 14.8364 19.5158 14.8223 19.5459 14.8075Z" fill="#5B6B79"/>
<path d="M17.4691 16.0036C17.4777 16.0276 17.487 16.0521 17.4956 16.0761C17.4575 16.0663 17.4194 16.0564 17.3819 16.0472C17.4114 16.0331 17.4403 16.0183 17.4698 16.0042L17.4691 16.0036Z" fill="#5B6B79"/>
<path d="M8.90081 14.5414C8.88729 14.5635 8.87377 14.5851 8.85963 14.6072C8.84242 14.5814 8.8246 14.5556 8.80739 14.5304C8.83873 14.534 8.86946 14.5377 8.90081 14.5414Z" fill="#5B6B79"/>
<path d="M19.9743 17.9427C19.9645 17.92 19.9546 17.8966 19.9448 17.8739C19.9682 17.8818 19.9915 17.8905 20.0149 17.8984C20.0014 17.9132 19.9878 17.9279 19.9743 17.9427Z" fill="#5B6B79"/>
<path d="M11.0218 14.9575C11.0065 14.979 10.9905 15.0005 10.9751 15.0227C10.9598 15.0005 10.945 14.9784 10.9297 14.9557C10.9604 14.9557 10.9911 14.9569 11.0218 14.9575Z" fill="#5B6B79"/>
<path d="M21.7677 15.1241C21.745 15.1339 21.7217 15.1437 21.6989 15.1536L21.7235 15.0835C21.7382 15.097 21.753 15.1099 21.7677 15.1235V15.1241Z" fill="#5B6B79"/>
<path d="M11.7133 15.1419C11.6973 15.1634 11.6819 15.1849 11.666 15.2064C11.6512 15.1843 11.6358 15.1622 11.6211 15.1394C11.6518 15.1401 11.6826 15.1413 11.7133 15.1419Z" fill="#5B6B79"/>
<path d="M16.7003 19.8296C16.6904 19.8068 16.6812 19.7835 16.6714 19.7607C16.6947 19.7687 16.7181 19.7773 16.7408 19.7853C16.7273 19.8001 16.7138 19.8148 16.7003 19.8296Z" fill="#5B6B79"/>
<path d="M13.6038 15.6483C13.5879 15.6699 13.5725 15.6914 13.5565 15.7129C13.5418 15.6908 13.5264 15.6686 13.5116 15.6459C13.5424 15.6465 13.5731 15.6471 13.6038 15.6477V15.6483Z" fill="#5B6B79"/>
<path d="M17.8988 19.1393C17.8889 19.1166 17.8797 19.0933 17.8699 19.0705C17.8932 19.0791 17.9166 19.0871 17.9393 19.0957C17.9258 19.1105 17.9123 19.1252 17.8981 19.14L17.8988 19.1393Z" fill="#5B6B79"/>
<path d="M16.2706 16.6938C16.2829 16.7104 16.2965 16.7264 16.3057 16.7448C16.3075 16.7479 16.2879 16.7614 16.278 16.77C16.2627 16.7479 16.2473 16.7264 16.2319 16.7042C16.243 16.6932 16.2559 16.6895 16.2713 16.6932L16.2706 16.6938Z" fill="#5B6B79"/>
<path d="M12.5971 13.1985C12.6094 13.1862 12.6223 13.1739 12.6346 13.1622C12.6223 13.1745 12.6094 13.1868 12.5971 13.1985Z" fill="#FCFCFC"/>
<path d="M19.3204 14.9114C19.3044 14.9237 19.289 14.9354 19.2736 14.9477C19.2896 14.9354 19.305 14.9237 19.3204 14.9114Z" fill="#5B6B79"/>
<path d="M21.5791 14.8881C21.5686 14.8776 21.5582 14.8672 21.5477 14.8573C21.5631 14.8622 21.5735 14.8727 21.5791 14.8881Z" fill="#F7F6F6"/>
<path d="M10.3765 17.8401C10.1718 17.848 10.0231 17.7602 9.94074 17.5733C9.86084 17.3914 9.94259 17.2457 10.0624 17.113C10.0901 17.1001 10.1184 17.0872 10.146 17.0742C10.2696 17.0847 10.3931 17.0958 10.5166 17.1062C10.4423 17.1382 10.3611 17.1603 10.296 17.2052C10.2149 17.2605 10.1067 17.3244 10.0858 17.4043C10.0686 17.4694 10.1559 17.5678 10.2081 17.644C10.2567 17.7147 10.32 17.7749 10.3765 17.8401Z" fill="#5B6B79"/>
<path d="M21.2564 15.7768C21.1955 15.6692 21.1347 15.5617 21.0739 15.4541C21.1599 15.5058 21.2521 15.5512 21.3265 15.6158C21.3394 15.6274 21.281 15.7209 21.2558 15.7768H21.2564Z" fill="#5B6B79"/>
<path d="M20.9349 16.5211C21.0093 16.4559 21.0843 16.3914 21.1587 16.3263C21.2404 16.5254 21.1912 16.5862 20.9349 16.6047C20.9349 16.577 20.9349 16.5487 20.9349 16.5211Z" fill="#5B6B79"/>
<path d="M16.4642 17.3926C16.4606 17.483 16.4575 17.5733 16.4538 17.6637C16.2977 17.6716 16.3124 17.5586 16.3321 17.4688C16.3395 17.4356 16.4182 17.4172 16.4642 17.3926Z" fill="#5B6B79"/>
<path d="M11.4828 15.861C11.3906 15.845 11.2984 15.8284 11.2062 15.8124C11.2062 15.7854 11.2062 15.7577 11.2056 15.7307C11.3322 15.7018 11.4619 15.6674 11.4828 15.8616V15.861Z" fill="#5B6B79"/>
<path d="M14.2959 20.2881C14.3881 20.2598 14.4803 20.2309 14.5719 20.2026C14.5067 20.3981 14.4483 20.4159 14.2959 20.2881Z" fill="#5B6B79"/>
<path d="M19.3658 17.4301C19.4433 17.3883 19.5201 17.3465 19.5975 17.3053C19.5846 17.4664 19.5226 17.5358 19.3658 17.4301Z" fill="#5B6B79"/>
<path d="M16.0924 19.3176C16.1698 19.2758 16.2467 19.234 16.3241 19.1922C16.3118 19.3532 16.2491 19.4227 16.0924 19.3176Z" fill="#5B6B79"/>
<path d="M10.146 15.491C10.068 15.4793 9.99053 15.4676 9.91247 15.4554C10.0059 15.3644 10.0962 15.2943 10.146 15.491Z" fill="#5B6B79"/>
<path d="M12.1742 17.5795C12.2664 17.5954 12.3586 17.6114 12.4508 17.6274C12.3285 17.7847 12.2517 17.6778 12.1742 17.5795Z" fill="#5B6B79"/>
<path d="M15.2621 19.8222C15.3241 19.781 15.3862 19.7392 15.4483 19.698C15.4372 19.8154 15.4206 19.9254 15.2621 19.8222Z" fill="#5B6B79"/>
<path d="M17.2909 18.6268C17.3524 18.5966 17.4138 18.5665 17.4759 18.5364C17.4759 18.6931 17.4114 18.7165 17.2909 18.6268Z" fill="#5B6B79"/>
<path d="M16.4606 19.132C16.5226 19.0908 16.5847 19.049 16.6468 19.0078C16.6357 19.1258 16.6197 19.2352 16.4606 19.132Z" fill="#5B6B79"/>
<path d="M20.9349 16.5211C20.9349 16.5487 20.9349 16.577 20.9349 16.6047C20.8889 16.62 20.8428 16.636 20.7967 16.6514C20.7795 16.6508 20.7622 16.6495 20.745 16.6489C20.7051 16.4529 20.8483 16.5291 20.9349 16.5211Z" fill="#5B6B79"/>
<path d="M18.2147 18.0404C18.2761 18.0257 18.3376 18.0103 18.3991 17.9956C18.4101 18.1412 18.3062 18.124 18.2153 18.1234C18.2153 18.0957 18.2153 18.0681 18.2147 18.0404Z" fill="#5B6B79"/>
<path d="M20.7444 16.6489C20.7616 16.6495 20.7788 16.6508 20.796 16.6514C20.7721 16.7608 20.7346 16.8432 20.6098 16.7387C20.6547 16.7086 20.6996 16.6784 20.7444 16.6489Z" fill="#5B6B79"/>
<path d="M20.8421 15.3048C20.7807 15.29 20.7192 15.2753 20.6571 15.2605C20.7032 15.2329 20.7493 15.2058 20.7954 15.1782C20.8108 15.2206 20.8262 15.2624 20.8415 15.3048H20.8421Z" fill="#5B6B79"/>
<path d="M13.3537 16.3668C13.2824 16.3404 13.2117 16.314 13.1404 16.2875C13.2455 16.223 13.3463 16.1695 13.3537 16.3668Z" fill="#5B6B79"/>
<path d="M12.036 15.9974C11.9745 15.9827 11.913 15.9679 11.8516 15.9532C11.9388 15.837 11.9653 15.8432 12.036 15.9974Z" fill="#5B6B79"/>
<path d="M15.401 18.1664C15.4286 18.1504 15.4569 18.1351 15.4846 18.1191C15.4833 18.1584 15.4815 18.1984 15.4803 18.2377C15.4538 18.2137 15.4274 18.1898 15.401 18.1664Z" fill="#5B6B79"/>
<path d="M13.9265 16.5033L13.7882 16.4566C13.819 16.4326 13.8491 16.4092 13.8798 16.3853C13.8952 16.4246 13.9111 16.4639 13.9265 16.5033Z" fill="#5B6B79"/>
<path d="M14.7083 20.1436C14.7396 20.1184 14.771 20.0932 14.8023 20.068C14.7839 20.1184 14.7661 20.1688 14.7476 20.2192C14.7341 20.194 14.7212 20.1688 14.7077 20.1442L14.7083 20.1436Z" fill="#5B6B79"/>
<path d="M14.6179 16.6877C14.5719 16.6723 14.5258 16.6563 14.4797 16.6409C14.503 16.6194 14.527 16.5979 14.5503 16.577C14.5731 16.6139 14.5952 16.6508 14.6179 16.6877Z" fill="#5B6B79"/>
<path d="M10.8375 15.6754C10.7914 15.66 10.7453 15.6447 10.6992 15.6293C10.7225 15.6078 10.7465 15.5863 10.7699 15.5648C10.7926 15.6016 10.8147 15.6385 10.8375 15.6754Z" fill="#5B6B79"/>
<path d="M20.8421 15.3048C20.8268 15.2624 20.8114 15.2206 20.796 15.1782L20.9337 15.3183C20.903 15.314 20.8729 15.3097 20.8421 15.3048Z" fill="#5B6B79"/>
<path d="M12.728 16.1812C12.6819 16.1658 12.6358 16.1505 12.5897 16.1345C12.6131 16.113 12.637 16.0915 12.6604 16.07C12.6831 16.1068 12.7053 16.1437 12.728 16.1806V16.1812Z" fill="#5B6B79"/>
<path d="M19.734 17.2445C19.7635 17.2297 19.793 17.215 19.8219 17.2002C19.8305 17.2242 19.8385 17.2482 19.8471 17.2722C19.8096 17.2629 19.7715 17.2537 19.734 17.2439V17.2445Z" fill="#5B6B79"/>
<path d="M15.9062 19.4516C15.9351 19.4374 15.964 19.4233 15.9928 19.4085L16.0101 19.4891C15.975 19.4768 15.9406 19.4639 15.9056 19.4516H15.9062Z" fill="#5B6B79"/>
<path d="M17.6591 18.4418C17.6886 18.427 17.7181 18.4123 17.7476 18.3975C17.7562 18.4215 17.7642 18.4454 17.7728 18.4694C17.7353 18.4602 17.6972 18.451 17.6597 18.4411L17.6591 18.4418Z" fill="#5B6B79"/>
<path d="M15.5841 19.6366C15.6136 19.6224 15.6431 19.6083 15.6726 19.5935C15.6806 19.6175 15.6892 19.6421 15.6972 19.6661C15.6597 19.6562 15.6216 19.6464 15.5841 19.6366Z" fill="#5B6B79"/>
<path d="M18.2147 18.0404C18.2147 18.0681 18.2147 18.0957 18.2153 18.1234C18.1833 18.1381 18.1514 18.1535 18.1194 18.1683C18.1514 18.1252 18.1827 18.0828 18.2147 18.0398L18.2147 18.0404Z" fill="#5B6B79"/>
<path d="M18.5349 17.9347C18.5644 17.92 18.5939 17.9058 18.6234 17.8911C18.6314 17.915 18.64 17.939 18.648 17.9636L18.5349 17.9347Z" fill="#5B6B79"/>
<path d="M18.8576 17.7497C18.8871 17.7356 18.9159 17.7208 18.9454 17.7067C18.954 17.7307 18.9627 17.7552 18.9713 17.7792C18.9331 17.7694 18.8957 17.7595 18.8576 17.7497Z" fill="#5B6B79"/>
<path d="M18.3542 16.333C18.3247 16.3478 18.2952 16.3625 18.2657 16.3767C18.2577 16.3527 18.2491 16.3287 18.2411 16.3047C18.2786 16.314 18.3167 16.3238 18.3542 16.333Z" fill="#5B6B79"/>
<path d="M17.1557 17.0238C17.1262 17.0386 17.0967 17.0533 17.0672 17.0675C17.0592 17.0435 17.0506 17.0195 17.0426 16.9956C17.0801 17.0048 17.1182 17.0146 17.1557 17.0238Z" fill="#5B6B79"/>
<path d="M20.056 17.0589C20.0849 17.0447 20.1144 17.03 20.1433 17.0159C20.1519 17.0398 20.1611 17.0644 20.1698 17.0884C20.1316 17.0785 20.0942 17.0687 20.056 17.0589Z" fill="#5B6B79"/>
<path d="M11.6223 17.4301C11.6678 17.4344 11.7139 17.4393 11.7594 17.4436C11.7379 17.4688 11.7164 17.494 11.6948 17.5186C11.6709 17.4891 11.6463 17.4596 11.6223 17.4301Z" fill="#5B6B79"/>
<path d="M20.3787 16.8739C20.4107 16.8487 20.442 16.8241 20.474 16.7989C20.466 16.8339 20.4574 16.8683 20.4494 16.9034L20.3793 16.8739H20.3787Z" fill="#5B6B79"/>
<path d="M21.2195 16.1449C21.2355 16.1142 21.2509 16.0835 21.2668 16.0528C21.2884 16.0681 21.3099 16.0841 21.3314 16.0995C21.2939 16.1142 21.257 16.1296 21.2195 16.1443V16.1449Z" fill="#5B6B79"/>
<path d="M15.2633 16.8708C15.2326 16.8561 15.2018 16.8407 15.1711 16.8259C15.1865 16.8044 15.2018 16.7829 15.2172 16.7614C15.2326 16.7977 15.2479 16.8345 15.2633 16.8708Z" fill="#5B6B79"/>
<path d="M16.7869 17.2082C16.7734 17.223 16.7599 17.2377 16.7464 17.2519C16.7365 17.2291 16.7273 17.2058 16.7175 17.183C16.7408 17.1916 16.7636 17.1996 16.7869 17.2082Z" fill="#5B6B79"/>
<path d="M19.1845 15.8278C19.1704 15.8426 19.1569 15.8567 19.1427 15.8714C19.1335 15.8487 19.1243 15.8253 19.1151 15.8026C19.1384 15.8112 19.1612 15.8198 19.1845 15.8278Z" fill="#5B6B79"/>
<path d="M17.986 16.518C17.9725 16.5328 17.9584 16.5469 17.9449 16.5617C17.9356 16.5389 17.9258 16.5156 17.9166 16.4928C17.9399 16.5014 17.9627 16.5094 17.986 16.518Z" fill="#5B6B79"/>
<path d="M11.2056 15.7301C11.2056 15.7571 11.2056 15.7848 11.2062 15.8118C11.1743 15.8001 11.1429 15.7891 11.111 15.7774C11.1423 15.7614 11.1737 15.7455 11.2056 15.7301Z" fill="#5B6B79"/>
<path d="M12.6358 18.4817L12.5406 18.4473C12.5725 18.459 12.6039 18.47 12.6358 18.4817Z" fill="#5B6B79"/>
<path d="M14.613 20.1934C14.6296 20.1811 14.6468 20.1688 14.6634 20.1571C14.6468 20.1694 14.6296 20.1817 14.613 20.1934Z" fill="#5B6B79"/>
<path d="M18.0893 6.66269C18.0997 6.65163 18.1108 6.64056 18.1213 6.62888C18.1108 6.63995 18.0997 6.65101 18.0893 6.66269Z" fill="#171616"/>
<path d="M12.9075 8.46719C12.8669 7.37318 13.9173 6.34678 15.1318 6.38796C16.38 6.43036 17.3284 7.34491 17.3278 8.58336C17.3272 9.89863 16.3714 10.6884 15.3481 10.7997C14.7052 10.8697 14.1097 10.7019 13.626 10.249C13.1496 9.80275 12.894 9.25328 12.9075 8.46658V8.46719ZM13.6499 8.61532C13.621 9.36822 14.3309 10.1162 15.133 10.0689C15.9357 10.0216 16.5669 9.48008 16.5804 8.64543C16.5945 7.77268 16.0439 7.147 15.0476 7.13717C14.2615 7.1298 13.6333 7.78989 13.6493 8.61532H13.6499Z" fill="#5B6B79"/>
<path d="M3.69074 4.91473C3.64034 4.15814 4.32748 3.4163 5.14799 3.44396C6.01275 3.47284 6.61814 4.05365 6.63228 4.89014C6.64703 5.74999 5.99001 6.35661 5.14799 6.39164C4.39078 6.42299 3.62743 5.67685 3.69074 4.91473ZM4.43012 4.90243C4.42766 5.30132 4.74541 5.6664 5.11357 5.6455C5.58743 5.61846 5.83697 5.39413 5.89536 4.92456C5.94084 4.55702 5.53273 4.16613 5.13692 4.18149C4.7239 4.19747 4.4295 4.51646 4.43073 4.90243H4.43012Z" fill="#5B6B79"/>
</svg>
