<svg width="22" height="18" viewBox="0 0 22 18" fill="none" xmlns="http://www.w3.org/2000/svg">
<path d="M20.8674 2.50171H6.99971C6.8275 1.73616 6.38179 1.07314 5.7301 0.618592C5.05478 0.143541 4.23089 -0.0478466 3.41037 0.068353L3.40024 0L0 0.475051L0.124934 1.38072L3.52518 0.905673L3.51843 0.847573C4.73738 0.673274 5.88205 1.41148 6.20958 2.54614L6.25348 2.72727C6.26023 2.75803 6.26698 2.78879 6.27036 2.81613H6.27711L6.76672 4.79494H3.40024V5.581H6.95919L7.33399 7.09501H0.617919V7.88107H7.52646L7.96204 9.6514H3.39687V10.4375H8.15451L8.47529 11.7362C8.07009 11.8216 7.69529 11.9891 7.38464 12.2317C6.88828 12.6179 6.61477 13.1374 6.61477 13.7013C6.61477 14.5899 7.32049 15.3657 8.33685 15.6323C8.47866 16.6131 9.31268 17.3684 10.3223 17.3684C11.2948 17.3684 12.1085 16.6644 12.2909 15.7314H16.6872C16.8695 16.6644 17.6833 17.3684 18.6558 17.3684C19.7633 17.3684 20.6615 16.4593 20.6615 15.3383C20.6615 14.2174 19.7633 13.3083 18.6558 13.3083C17.6833 13.3083 16.8695 14.0123 16.6872 14.9453H12.2909C12.1085 14.0123 11.2948 13.3083 10.3223 13.3083C9.79216 13.3083 9.29242 13.5133 8.91762 13.8893C8.65425 14.149 8.47191 14.4737 8.38412 14.8223C7.79659 14.6206 7.39815 14.1832 7.39815 13.6979C7.39815 13.3869 7.5636 13.0861 7.86412 12.8537C8.13425 12.6453 8.48204 12.512 8.86022 12.471H19.2534C19.7835 12.471 20.2461 12.0916 20.3576 11.5653L21.975 3.8756C22.0459 3.53725 21.9648 3.18865 21.7487 2.91866C21.5326 2.65892 21.2119 2.50171 20.8674 2.50171ZM18.6558 14.1012C19.3311 14.1012 19.8848 14.6582 19.8848 15.3452C19.8848 16.0287 19.3345 16.5892 18.6558 16.5892C17.9771 16.5892 17.4267 16.0321 17.4267 15.3452C17.4267 14.6582 17.9771 14.1012 18.6558 14.1012ZM9.0932 15.3247V15.3213C9.10671 14.648 9.6571 14.1012 10.3223 14.1012C10.9976 14.1012 11.5514 14.6582 11.5514 15.3452C11.5514 16.0287 11.001 16.5892 10.3223 16.5892C9.64359 16.5892 9.0932 16.0321 9.0932 15.3452C9.0932 15.3383 9.0932 15.3315 9.0932 15.3247ZM19.5945 11.4081C19.5607 11.5721 19.4155 11.6883 19.25 11.6883H9.26541L8.95814 10.4443H13.6651V9.65824H8.7623L8.32671 7.8879H10.3594V7.10185H8.13425L7.75945 5.58783H12.6353V4.80178H7.5636L7.19218 3.2946H20.8674C20.9755 3.2946 21.0734 3.34245 21.1409 3.42789C21.2085 3.51333 21.2321 3.61928 21.2119 3.72522L19.5945 11.4081Z" fill="#5B6B79"/>
</svg>
