<svg width="24" height="24" viewBox="0 0 24 24" fill="none" xmlns="http://www.w3.org/2000/svg">
<path d="M11.752 10.431H13.182C13.403 10.431 13.582 10.252 13.582 10.031C13.582 9.80999 13.402 9.63099 13.182 9.63099H12.526V9.53599C12.526 9.31499 12.346 9.13599 12.126 9.13599C11.906 9.13599 11.726 9.31499 11.726 9.53599V9.63599C11.003 9.65099 10.418 10.239 10.418 10.966C10.418 11.702 11.017 12.301 11.753 12.301H12.248C12.543 12.301 12.782 12.54 12.782 12.835C12.782 13.13 12.543 13.37 12.248 13.37H12.136C12.133 13.37 12.13 13.368 12.126 13.368C12.122 13.368 12.12 13.37 12.116 13.37H10.818C10.597 13.37 10.418 13.55 10.418 13.77C10.418 13.99 10.597 14.17 10.818 14.17H11.726V14.263C11.726 14.484 11.905 14.663 12.126 14.663C12.347 14.663 12.526 14.483 12.526 14.263V14.114C13.125 13.982 13.583 13.472 13.583 12.834C13.583 12.098 12.984 11.5 12.248 11.5H11.753C11.458 11.5 11.218 11.26 11.218 10.965C11.218 10.67 11.457 10.431 11.752 10.431Z" fill="#5B6B79"/>
<path d="M17.787 4.83899L18.497 6.39999L13.895 11.002C13.739 11.158 13.739 11.411 13.895 11.567C13.973 11.645 14.076 11.684 14.178 11.684C14.28 11.684 14.383 11.645 14.461 11.567L19.062 6.96599L20.623 7.67599C20.677 7.69999 20.733 7.71199 20.789 7.71199C20.893 7.71199 20.995 7.67099 21.072 7.59499L23.697 4.96999C23.79 4.87699 23.831 4.74499 23.807 4.61599C23.783 4.48699 23.699 4.37799 23.579 4.32299L22.29 3.73699L23.293 2.73399C23.449 2.57799 23.449 2.32499 23.293 2.16899C23.137 2.01299 22.883 2.01299 22.727 2.16899L21.725 3.17099L21.14 1.88299C21.085 1.76299 20.976 1.67799 20.847 1.65499C20.72 1.63099 20.586 1.67399 20.493 1.76599L17.868 4.39099C17.751 4.50899 17.718 4.68799 17.787 4.83899ZM22.724 4.81199L20.703 6.83299L19.667 6.36199L21.688 4.34099L22.724 4.81199ZM20.651 2.73999L21.121 3.77499L19.1 5.79599L18.63 4.76099L20.651 2.73999Z" fill="#5B6B79"/>
<path d="M23.058 7.521C22.976 7.316 22.747 7.217 22.538 7.296C22.333 7.378 22.232 7.61 22.313 7.816C22.835 9.132 23.1 10.506 23.1 11.9C23.1 18.02 18.121 23 12 23C5.87898 23 0.899976 18.02 0.899976 11.9C0.899976 5.779 5.87898 0.8 12 0.8C14.163 0.8 16.263 1.428 18.072 2.615C18.26 2.737 18.506 2.685 18.626 2.5C18.748 2.315 18.696 2.067 18.512 1.946C16.57 0.673 14.319 0 12 0C5.43798 0 0.0999756 5.338 0.0999756 11.9C0.0999756 18.462 5.43798 23.8 12 23.8C18.562 23.8 23.9 18.462 23.9 11.9C23.9 10.405 23.616 8.932 23.058 7.521Z" fill="#5B6B79"/>
<path d="M15.6599 7.71595C15.7929 7.53995 15.7579 7.28895 15.5819 7.15595C14.5389 6.36695 13.2999 5.94995 11.9999 5.94995C8.71893 5.94995 6.04993 8.61895 6.04993 11.9C6.04993 15.181 8.71893 17.851 11.9999 17.851C15.2809 17.851 17.9509 15.181 17.9509 11.9C17.9509 11.475 17.9019 11.041 17.8059 10.608C17.7579 10.393 17.5469 10.254 17.3279 10.304C17.1129 10.352 16.9759 10.565 17.0239 10.781C17.1069 11.156 17.1489 11.533 17.1489 11.9C17.1489 14.74 14.8379 17.05 11.9989 17.05C9.15993 17.05 6.84993 14.74 6.84993 11.9C6.84993 9.05995 9.15993 6.74995 11.9999 6.74995C13.1249 6.74995 14.1959 7.11095 15.0999 7.79395C15.2759 7.92695 15.5249 7.89195 15.6599 7.71595Z" fill="#5B6B79"/>
</svg>
