<svg width="30" height="31" viewBox="0 0 30 31" fill="none" xmlns="http://www.w3.org/2000/svg">
<path d="M26.9995 20.2405C26.9995 21.4312 26.9995 22.5841 26.9995 23.736C26.9995 24.877 27.0015 26.017 26.9995 27.1579C26.9985 27.6509 26.8866 27.8079 26.4308 27.9292C22.7288 28.9141 19.0257 29.8981 15.3207 30.8701C15.1194 30.9228 14.8797 30.9218 14.6784 30.8691C11.0087 29.906 7.34105 28.931 3.67437 27.958C3.0811 27.801 2.99957 27.6877 2.99957 27.0466C2.99957 24.8889 2.99466 22.7322 3.00546 20.5745C3.00645 20.318 2.93965 20.2077 2.68526 20.1471C1.97117 19.9762 1.26396 19.7774 0.555769 19.5816C0.00375239 19.4285 -0.144565 19.0707 0.145194 18.5728C1.096 16.9398 2.04582 15.3069 3.01823 13.6869C3.13217 13.497 3.36496 13.3171 3.57614 13.2615C5.90797 12.6473 8.24569 12.0579 10.5824 11.4626C10.6296 11.4506 10.6787 11.4427 10.7268 11.4337C11.0981 11.3602 11.3967 11.5282 11.4714 11.8502C11.5499 12.1901 11.3839 12.4773 11.0127 12.5757C9.86442 12.8788 8.71324 13.1681 7.56304 13.4632C7.06701 13.5905 6.57098 13.7207 5.96985 13.8767C7.00415 14.153 7.93531 14.4035 8.86843 14.6519C10.8083 15.1678 12.7483 15.6846 14.6901 16.1915C14.8591 16.2352 15.0565 16.2561 15.2225 16.2133C18.0651 15.4709 20.9038 14.7175 23.7434 13.9662C23.8014 13.9512 23.8564 13.9224 23.9752 13.8757C23.8161 13.826 23.713 13.7882 23.6079 13.7614C22.1139 13.3808 20.617 13.009 19.1259 12.6145C18.9295 12.5628 18.6888 12.4346 18.6024 12.2706C18.5189 12.1116 18.5297 11.7866 18.6397 11.6663C18.7743 11.5182 19.0778 11.4069 19.2693 11.4506C20.617 11.7597 21.9548 12.1136 23.2955 12.4535C24.3278 12.7159 25.3641 12.9623 26.3866 13.2555C26.6184 13.3221 26.8748 13.5119 26.9995 13.7187C27.9631 15.3148 28.8992 16.9279 29.8392 18.538C30.1515 19.0737 30.0091 19.4325 29.4148 19.5975C28.6251 19.8161 27.8315 20.0209 27.0025 20.2415L26.9995 20.2405ZM25.8218 20.5675C25.6774 20.5963 25.593 20.6083 25.5114 20.6301C23.1452 21.2593 20.779 21.8884 18.4128 22.5185C17.795 22.6835 17.6761 22.6338 17.3422 22.0643C16.8295 21.1907 16.3177 20.3171 15.804 19.4434C15.7529 19.356 15.6891 19.2765 15.6125 19.1671V29.5562C15.7372 29.5283 15.8315 29.5104 15.9258 29.4856C19.0856 28.6488 22.2435 27.803 25.4073 26.983C25.758 26.8926 25.8336 26.7445 25.8297 26.4066C25.811 24.9684 25.8218 23.5293 25.8218 22.0911V20.5675ZM4.19397 20.5586C4.18513 20.6649 4.17531 20.7255 4.17531 20.7852C4.17531 22.7193 4.18022 24.6543 4.16745 26.5884C4.16549 26.8449 4.28728 26.8916 4.48373 26.9433C7.3715 27.7056 10.2583 28.4738 13.1461 29.2401C13.5547 29.3484 13.9653 29.4528 14.3856 29.5621V19.1145C13.7718 20.162 13.206 21.1291 12.6392 22.0951C12.3318 22.6189 12.1904 22.6805 11.6236 22.5294C9.80155 22.0444 7.98049 21.5564 6.15942 21.0714C5.51311 20.8995 4.86582 20.7335 4.19593 20.5586H4.19397ZM14.0792 17.2927C13.9849 17.2539 13.9407 17.2301 13.8945 17.2181C10.6306 16.3505 7.36463 15.4868 4.10262 14.6112C3.87671 14.5506 3.80206 14.6489 3.70678 14.8129C3.02511 15.9877 2.33656 17.1585 1.65194 18.3313C1.60578 18.4108 1.57337 18.4982 1.52032 18.6116C1.84839 18.698 2.14208 18.7745 2.43577 18.8531C5.42864 19.6472 8.42053 20.4443 11.4154 21.2294C11.5372 21.2612 11.7641 21.2304 11.8132 21.1489C12.5764 19.8817 13.318 18.6006 14.0812 17.2937L14.0792 17.2927ZM15.917 17.2718C15.9955 17.4189 16.0505 17.5282 16.1114 17.6336C16.7656 18.7527 17.4306 19.8648 18.07 20.9929C18.2213 21.2612 18.3637 21.305 18.6505 21.2274C21.2259 20.5327 23.8073 19.8569 26.3856 19.1731C27.0791 18.9892 27.7716 18.7984 28.5023 18.5996C27.6979 17.2261 26.9209 15.8983 26.1352 14.5575C22.7209 15.4639 19.3322 16.3634 15.916 17.2708L15.917 17.2718Z" fill="#2CA87F"/>
<path d="M14.9779 15.0435C14.7451 15.0435 14.5124 15.0475 14.2796 15.0435C13.4005 15.0246 12.7591 14.4512 12.6825 13.5716C12.6432 13.1164 12.6667 12.6552 12.6716 12.197C12.6726 12.1016 12.6864 11.9724 12.7473 11.9168C13.0341 11.6504 12.8573 11.4268 12.6952 11.2141C12.5685 11.0491 12.4133 10.906 12.2621 10.7609C10.9802 9.53444 10.6384 7.65004 11.4105 6.05486C12.1737 4.47956 13.8837 3.55227 15.5604 3.80571C17.3166 4.07207 18.6947 5.42673 18.9452 7.19385C19.1446 8.60019 18.7232 9.80974 17.6958 10.7937C17.5367 10.9467 17.3766 11.1028 17.242 11.2757C17.0947 11.4646 16.9866 11.6763 17.2322 11.883C17.2499 11.8979 17.2646 11.9247 17.2666 11.9466C17.3314 12.7675 17.5082 13.6074 17.0269 14.3647C16.7538 14.7951 16.3334 15.0197 15.8207 15.0376C15.5398 15.0475 15.2579 15.0395 14.976 15.0395C14.976 15.0405 14.976 15.0415 14.976 15.0425L14.9779 15.0435ZM15.5869 11.551C15.6164 11.5729 15.6468 11.5938 15.6763 11.6156C15.7451 11.555 15.8561 11.5053 15.8767 11.4308C16.0564 10.7977 16.4464 10.3266 16.9179 9.88926C18.0838 8.80692 18.1201 6.97122 17.023 5.8213C15.9287 4.67436 14.1165 4.67039 13.0036 5.81136C11.8849 6.9583 11.8986 8.76816 13.0596 9.87335C13.5242 10.3156 13.9142 10.7897 14.1106 11.4129C14.1371 11.4954 14.2599 11.547 14.4092 11.6733C14.4092 11.4139 14.4092 11.2906 14.4092 11.1674C14.4092 10.3484 14.4073 9.53046 14.4102 8.71151C14.4122 8.26824 14.6292 8.00585 14.9868 7.99989C15.3482 7.99392 15.5761 8.25531 15.5859 8.68964C15.5879 8.80095 15.5859 8.91326 15.5859 9.02458C15.5859 9.8664 15.5859 10.7082 15.5859 11.551H15.5869ZM16.1547 12.8123H13.8425C13.8425 12.9912 13.8395 13.1383 13.8425 13.2844C13.8513 13.7266 13.9721 13.8489 14.4151 13.8529C14.7933 13.8568 15.1705 13.8558 15.5486 13.8529C16.0348 13.8499 16.1488 13.7336 16.1547 13.2436C16.1566 13.1094 16.1547 12.9762 16.1547 12.8123Z" fill="#2CA87F"/>
<path d="M14.4112 1.26933C14.4112 1.0467 14.4014 0.824074 14.4132 0.602438C14.4318 0.251598 14.6715 0.00710367 14.9868 0.000146501C15.3021 -0.00681067 15.5673 0.234703 15.58 0.579579C15.5967 1.04869 15.5967 1.5188 15.58 1.98691C15.5683 2.3298 15.3021 2.57629 14.9907 2.57231C14.6784 2.56833 14.4377 2.31986 14.4112 1.973C14.4092 1.94815 14.4102 1.92331 14.4102 1.89846C14.4102 1.68875 14.4102 1.47805 14.4102 1.26834C14.4102 1.26834 14.4102 1.26834 14.4112 1.26834V1.26933Z" fill="#2CA87F"/>
<path d="M11.769 3.44192C11.6688 3.56615 11.5666 3.80965 11.3997 3.86829C11.217 3.93289 10.9026 3.90606 10.774 3.78182C10.4056 3.42701 10.0854 3.01554 9.77896 2.60109C9.60904 2.37151 9.65226 2.10018 9.85558 1.89047C10.0569 1.68275 10.3506 1.59528 10.5471 1.79804C10.9626 2.22441 11.3211 2.70942 11.6973 3.17456C11.7326 3.2173 11.7297 3.29085 11.768 3.44092L11.769 3.44192Z" fill="#2CA87F"/>
<path d="M20.3036 2.17872C20.2967 2.6369 19.2713 3.919 18.9589 3.92397C18.7654 3.92695 18.4914 3.84148 18.3981 3.69935C18.2949 3.54133 18.2665 3.21235 18.3637 3.06426C18.6456 2.63491 18.9805 2.23239 19.3499 1.87757C19.4776 1.75433 19.7919 1.73048 19.9736 1.79508C20.1376 1.85372 20.2378 2.09622 20.3036 2.17872Z" fill="#2CA87F"/>
</svg>
