<svg width="30" height="31" viewBox="0 0 30 31" fill="none" xmlns="http://www.w3.org/2000/svg">
<path fill-rule="evenodd" clip-rule="evenodd" d="M18.4946 2.89344C19.2043 1.66784 19.2733 1.02407 19.2529 0H10.8031C10.7051 1.57924 11.3292 2.85109 12.46 3.90967C12.4939 3.94156 12.5231 3.97817 12.5538 4.01663L12.5538 4.01664L12.5539 4.01669C12.57 4.03684 12.5865 4.0575 12.6042 4.07826C12.5818 4.08924 12.562 4.09906 12.5441 4.10798L12.544 4.10804L12.544 4.10805C12.5069 4.12649 12.4775 4.14112 12.4474 4.15432C8.89531 5.68258 6.57429 8.33137 5.32517 11.9627C4.67277 13.8595 4.65866 15.8206 4.70884 17.7903C4.70884 17.8012 4.72148 17.8117 4.73101 17.8197L4.73102 17.8197C4.73449 17.8226 4.73754 17.8251 4.73942 17.8272H5.63803V17.2885C5.63816 17.11 5.63702 16.9314 5.63588 16.7528C5.62973 15.7867 5.62357 14.8202 5.81682 13.8665C6.65113 9.75378 8.91334 6.76155 12.7752 5.03097C13.3076 4.79181 13.8518 4.64989 14.4469 4.68909C14.7197 4.70725 14.9938 4.70312 15.2679 4.699H15.2679H15.2679H15.2679H15.2679C15.5029 4.69546 15.7379 4.69193 15.9721 4.70242C16.2489 4.71497 16.539 4.75182 16.797 4.84827C20.0072 6.04956 22.2255 8.27884 23.5405 11.4224C23.6958 11.7938 23.8195 12.1783 23.9486 12.5798C24.0093 12.7683 24.0711 12.9605 24.138 13.1569H22.5564V14.0963H24.2909C24.3231 14.4194 24.3513 14.7071 24.3834 15.0357H20.68V15.9751H24.4046V16.9082H23.5021V17.8515H24.4038C24.4156 18.013 24.4258 18.1542 24.4352 18.2906H25.4334C25.4077 17.8222 25.3947 17.3545 25.3818 16.8888V16.8887V16.8886C25.3535 15.8738 25.3256 14.8679 25.1676 13.8822C24.5371 9.94197 22.4623 6.92621 19.0365 4.85533C18.9892 4.82724 18.9429 4.79733 18.8965 4.76733L18.8965 4.76731L18.8964 4.76725L18.853 4.73928C18.8577 4.72281 18.8632 4.70556 18.8686 4.68909H22.5203V3.74657H19.0349C19.0337 3.73874 19.0323 3.7311 19.031 3.72346C19.0296 3.71581 19.0282 3.70816 19.027 3.70031C19.7806 3.39606 20.5349 3.09182 21.3049 2.78131L21.1068 2.29036L20.9552 1.91484L20.0712 2.26636C19.5487 2.47408 19.0302 2.68021 18.4946 2.89344ZM11.8037 1.04751L11.8038 1.04774L11.8038 1.04782C11.8114 1.10061 11.8176 1.14375 11.8287 1.1856C12.1102 2.26221 12.8003 3.04007 13.6683 3.68384C13.7389 3.73559 13.8494 3.75284 13.9412 3.75363C14.6649 3.75912 15.3887 3.7599 16.1124 3.75363C16.2128 3.75284 16.332 3.72697 16.4096 3.66972C17.0691 3.17964 17.6329 2.60017 17.9818 1.84506C18.069 1.65616 18.1347 1.45705 18.2035 1.24845C18.2355 1.15138 18.2682 1.05225 18.3041 0.951149H11.789C11.795 0.987039 11.7996 1.01871 11.8037 1.04751ZM1.51964 27.2268C1.01341 27.2306 0.507142 27.2343 0.000943227 27.2343V28.1737L1.34303 28.1736C2.68531 28.1735 4.02781 28.1733 5.36988 28.1745C5.49612 28.1745 5.62472 28.1745 5.74939 28.1941C6.95067 28.3862 8.15186 28.5788 9.35307 28.7714C11.9806 29.1927 14.6082 29.614 17.2369 30.0305C17.3772 30.0533 17.5498 30.0125 17.6799 29.9474C20.1586 28.703 22.6333 27.4531 25.1048 26.1946C25.2515 26.1201 25.3918 25.9899 25.4797 25.8503C26.7119 23.8909 27.9376 21.9282 29.1636 19.9649L29.1639 19.9644L29.1642 19.9639L29.8645 18.8426C29.8954 18.7931 29.9241 18.7425 29.9548 18.6884L29.9549 18.6882L29.9549 18.6881L29.955 18.6879L29.9554 18.6873L29.9559 18.6864C29.9701 18.6614 29.9847 18.6357 30.0002 18.6089C29.1627 18.0639 28.2563 17.911 27.2996 18.0451C26.412 18.1698 25.5839 18.4897 25.0641 19.248C24.4961 20.075 23.9644 20.9269 23.4278 21.7868C23.2027 22.1474 22.9768 22.5093 22.747 22.8714C22.9381 22.9911 23.1195 23.1051 23.303 23.2203L23.5405 23.3694C23.5624 23.3363 23.5832 23.3051 23.6032 23.2752L23.6033 23.2751C23.6478 23.2085 23.6882 23.1479 23.7271 23.0863C23.9216 22.7772 24.1174 22.469 24.3131 22.1607L24.3137 22.1598L24.3143 22.159L24.3148 22.1581C24.7681 21.4444 25.2213 20.7309 25.6584 20.007C26.2395 19.0449 27.7662 18.761 28.6146 19.048C28.6055 19.0649 28.5969 19.0818 28.5883 19.0985L28.5883 19.0985L28.5883 19.0986L28.5882 19.0986L28.5882 19.0986C28.5701 19.134 28.5522 19.1687 28.5315 19.2017L28.0255 20.0123C26.9475 21.7396 25.8691 23.4673 24.7849 25.1909C24.712 25.3062 24.5865 25.4057 24.4634 25.4685C23.6227 25.8962 22.7809 26.3218 21.939 26.7475L21.9386 26.7477L21.9386 26.7477L21.9386 26.7477L21.9386 26.7477C20.5844 27.4324 19.2301 28.1171 17.8807 28.8104C17.4894 29.012 17.1263 29.077 16.6864 29.0041C13.8157 28.5258 10.9411 28.0671 8.06493 27.6178C7.90511 27.5929 7.74515 27.5672 7.58506 27.5415C6.77111 27.4109 5.9537 27.2796 5.13464 27.2508C3.93074 27.2088 2.72528 27.2178 1.51964 27.2268ZM0.574546 20.6617H0.574617C1.17563 20.6627 1.77687 20.6637 2.37766 20.6548C2.49763 20.6532 2.64662 20.5983 2.73052 20.516C5.06095 18.2169 7.77953 17.7041 10.8298 18.7643C13.0473 19.5343 15.2821 20.2361 17.6141 20.5631C17.9387 20.6087 18.2671 20.6271 18.5954 20.6455H18.5955C18.9215 20.6638 19.2474 20.682 19.5697 20.7269C19.979 20.7842 20.3977 20.8979 20.771 21.0743C22.2671 21.7824 22.4874 23.6008 21.2266 24.675C20.6479 25.1682 19.9649 25.38 19.2176 25.351C18.4476 25.321 17.6781 25.2696 16.9086 25.2182L16.9085 25.2182L16.9084 25.2182L16.9083 25.2182L16.9077 25.2182L16.907 25.2181L16.9064 25.2181C16.7105 25.205 16.5146 25.1919 16.3187 25.1792C15.1991 25.1066 14.0795 25.0318 12.9531 24.9566L12.9501 24.9564C12.3994 24.9196 11.8471 24.8828 11.2924 24.846V23.9332C11.5104 23.9436 11.7284 23.953 11.9462 23.9625C12.4571 23.9847 12.9677 24.0069 13.4778 24.0399C14.4566 24.1023 15.4353 24.1679 16.4139 24.2335C17.3278 24.2948 18.2416 24.356 19.1557 24.4147C19.6363 24.4453 20.0896 24.3379 20.4903 24.0579C21.374 23.4408 21.3011 22.3509 20.3201 21.9086C19.9547 21.744 19.5336 21.6295 19.1353 21.6232C17.1577 21.5926 15.2648 21.1198 13.3861 20.574C12.3933 20.2855 11.4093 19.9593 10.4354 19.6127C7.69641 18.638 5.13074 19.2826 3.16493 21.4515C3.0873 21.5369 2.93518 21.5942 2.81756 21.5958C2.10553 21.6047 1.39305 21.6037 0.680459 21.6027C0.453708 21.6024 0.226945 21.602 0.000183105 21.602V20.6626L0.000967235 20.6611C0.192075 20.6611 0.383228 20.6614 0.574405 20.6617H0.574476H0.574546ZM20.19 12.6881C20.1994 9.84093 17.8901 7.52461 15.0296 7.51363C12.2154 7.50265 9.87632 9.81583 9.86221 12.6246C9.84731 15.4914 12.1432 17.832 14.9794 17.8422C17.8603 17.8516 20.1806 15.5572 20.19 12.6881ZM10.8016 12.6403C10.8102 10.3287 12.7157 8.45067 15.05 8.45302C17.3491 8.45537 19.2506 10.3577 19.2529 12.6575C19.2553 15.0138 17.3593 16.9083 15.0037 16.9028C12.6757 16.8965 10.7922 14.9864 10.8016 12.6403ZM21.614 17.8233V16.92H22.5165V17.8233H21.614ZM14.5599 9.40892V10.3177V10.3193C14.5292 10.3232 14.5046 10.326 14.4834 10.3284C14.4533 10.3318 14.4304 10.3344 14.4078 10.3381C13.6174 10.4651 13.0991 11.0893 13.1524 11.8483C13.2049 12.5948 13.8244 13.1429 14.6234 13.1492C14.7457 13.15 14.8679 13.1496 14.99 13.1492C15.1121 13.1488 15.2342 13.1484 15.3566 13.1492C15.7486 13.1508 15.9682 13.3241 15.9635 13.6252C15.9588 13.9153 15.7439 14.0847 15.3715 14.087C15.2084 14.0881 15.0457 14.0877 14.8828 14.0874C14.8014 14.0872 14.7199 14.087 14.6383 14.087H13.6354V15.035H14.563V15.9478H15.5024V15.0374C15.5183 15.0355 15.5327 15.0339 15.5458 15.0324C15.5878 15.0276 15.6175 15.0241 15.6467 15.0194C16.4387 14.89 16.9562 14.2666 16.9013 13.5083C16.8472 12.7595 16.2301 12.2138 15.4295 12.2083C15.3208 12.2079 15.2122 12.2082 15.1036 12.2085C14.9679 12.2088 14.8322 12.2091 14.6963 12.2083C14.3051 12.2067 14.0847 12.0326 14.0902 11.7315C14.0957 11.439 14.3082 11.272 14.6822 11.2697C14.8453 11.2686 15.008 11.269 15.1708 11.2693C15.2523 11.2695 15.3338 11.2697 15.4154 11.2697H16.4191V10.3216H15.4805V9.40892H14.5599Z" fill="#4680FF"/>
</svg>
