<svg width="31" height="35" viewBox="0 0 31 35" fill="none" xmlns="http://www.w3.org/2000/svg">
<path d="M15.6433 34.9494C11.0195 34.9494 6.39574 34.9494 1.77194 34.9494C0.689413 34.9494 0.297514 34.5606 0.298527 33.48C0.300552 31.7467 0.266122 30.0114 0.314729 28.279C0.389666 25.6161 2.12739 23.4669 4.72182 22.7512C6.89498 22.1514 9.06916 21.5506 11.2484 20.9719C11.5795 20.8839 11.6585 20.7449 11.6818 20.4171C11.7304 19.7293 11.5471 19.2435 10.9892 18.7497C9.58764 17.5082 8.9365 15.8838 8.89701 14.0246C8.89498 13.9126 8.88688 13.7986 8.89701 13.6877C8.94258 13.2379 8.82106 12.901 8.47473 12.5451C7.69397 11.7424 7.3446 10.6978 7.11676 9.62725C6.64891 7.42411 6.90713 5.35091 8.38663 3.54961C9.51068 2.18114 11.0297 1.40844 12.7188 0.952616C15.4732 0.207905 18.1537 0.433817 20.7006 1.72532C22.417 2.59598 23.3952 4.01043 23.5978 5.92369C23.6069 6.00866 23.6271 6.09562 23.6606 6.17359C24.4545 8.09885 24.1628 9.93114 23.1795 11.7044C23.0702 11.9014 22.9689 12.1123 22.816 12.2712C22.3816 12.7231 22.3147 13.2519 22.3249 13.8496C22.3623 16.0048 21.4965 17.7631 19.8388 19.1576C19.7173 19.2595 19.6322 19.4634 19.6241 19.6244C19.6028 20.0192 19.4925 20.525 19.6899 20.7849C19.8843 21.0418 20.4099 21.0638 20.7947 21.1698C22.7978 21.7246 24.8119 22.2424 26.8049 22.8311C29.2211 23.5459 30.893 25.702 30.9608 28.1991C31.0114 30.0563 30.9851 31.9156 30.978 33.7739C30.975 34.4946 30.4919 34.9444 29.7416 34.9464C27.2909 34.9534 24.8393 34.9524 22.3887 34.9534C20.1395 34.9534 17.8914 34.9534 15.6423 34.9534V34.9484L15.6433 34.9494ZM9.70308 11.7364H9.74156C9.74156 12.7341 9.64637 13.7417 9.75878 14.7263C10.1061 17.7551 12.8433 19.9812 15.933 19.8293C19.0023 19.6774 21.4884 17.1593 21.54 14.1115C21.5694 12.4032 21.5481 10.6938 21.5471 8.9855C21.5471 8.58066 21.4671 8.52368 21.0732 8.62864C17.4317 9.60226 13.7912 9.59927 10.1507 8.62464C9.77093 8.52268 9.70511 8.57166 9.7041 8.96851C9.70106 9.89115 9.70308 10.8148 9.70308 11.7374V11.7364ZM22.336 11.4096C23.138 10.253 23.4702 8.9855 23.2454 7.61603C23.1532 7.05725 22.8768 6.52546 22.8069 5.96567C22.6013 4.33331 21.776 3.11278 20.3026 2.41205C17.0013 0.840659 13.7173 0.924627 10.5274 2.74992C9.4165 3.38567 8.58511 4.30832 8.13853 5.51285C7.36081 7.61204 7.64739 9.62725 8.70562 11.5645C8.74207 11.6325 8.80384 11.6865 8.896 11.7984C8.896 10.8028 8.89498 9.88116 8.896 8.95951C8.89802 8.03687 9.45903 7.62403 10.3583 7.86394C13.86 8.80058 17.3649 8.80257 20.8666 7.86694C21.778 7.62303 22.3299 8.02088 22.334 8.94852C22.338 9.7692 22.334 10.5899 22.334 11.4106L22.336 11.4096ZM22.9081 34.1178C23.0003 34.1338 23.0357 34.1458 23.0722 34.1458C25.295 34.1478 27.5168 34.1458 29.7395 34.1508C30.0919 34.1508 30.1962 33.9728 30.1962 33.6579C30.1912 31.8996 30.2104 30.1423 30.1881 28.384C30.1598 26.1429 28.7157 24.2416 26.5466 23.5739C25.6565 23.3 24.7522 23.072 23.854 22.8251C23.1542 22.6322 22.4545 22.4413 21.7335 22.2434V27.3664C22.6773 27.6003 22.9081 27.8992 22.9092 28.8688C22.9092 29.8534 22.9092 30.839 22.9092 31.8237C22.9092 32.5824 22.9092 33.3401 22.9092 34.1188L22.9081 34.1178ZM9.54713 22.2664C9.41549 22.2943 9.30612 22.3133 9.19878 22.3423C7.78916 22.7272 6.37853 23.112 4.96891 23.5009C2.61042 24.1506 1.10156 26.0999 1.09043 28.5209C1.08334 30.2053 1.0884 31.8896 1.08941 33.574C1.08941 34.0858 1.15524 34.1488 1.68587 34.1488C3.78308 34.1488 5.88131 34.1488 7.97853 34.1488C8.10005 34.1488 8.22258 34.1368 8.37448 34.1288V33.6969C8.37448 32.0876 8.37448 30.4782 8.37448 28.8688C8.37448 27.8982 8.59422 27.6143 9.54713 27.3664V22.2674V22.2664ZM11.7061 21.6566C11.379 21.7466 11.055 21.8585 10.7218 21.9195C10.4332 21.9735 10.34 22.0954 10.3431 22.3913C10.3593 23.9377 10.3502 25.4841 10.3502 27.0305V27.3814H20.9314C20.9314 25.6411 20.9335 23.9227 20.9233 22.2044C20.9233 22.1264 20.8231 22.0035 20.7441 21.9785C20.3522 21.8545 19.9512 21.7566 19.5613 21.6516C18.8099 23.0291 17.3679 23.8358 15.6049 23.7898C13.9704 23.7478 12.5628 23.225 11.7051 21.6566H11.7061ZM22.0504 34.1308C22.0707 34.0858 22.0889 34.0638 22.0889 34.0418C22.093 32.2205 22.094 30.3992 22.099 28.5779C22.099 28.306 21.9593 28.1991 21.697 28.2021C21.3304 28.2061 20.9649 28.2021 20.5983 28.2021C16.9598 28.2021 13.3213 28.2021 9.68182 28.2021C9.25245 28.2021 9.18562 28.263 9.18562 28.7069C9.18359 30.4162 9.1846 32.1245 9.18562 33.8339C9.18562 33.9288 9.20283 34.0248 9.21195 34.1228H11.1026V31.4868C11.1026 30.2383 11.2464 30.0973 12.5223 30.0973C14.7461 30.0973 16.9699 30.0963 19.1937 30.0973C19.857 30.0973 20.1699 30.4062 20.179 31.054C20.1821 31.3159 20.179 31.5777 20.179 31.8396C20.179 32.5964 20.179 33.3531 20.179 34.1278H22.0484L22.0504 34.1308ZM12.4616 19.8553C12.4616 20.2521 12.4757 20.589 12.4575 20.9239C12.4332 21.3687 12.6084 21.7206 12.9173 22.0265C14.2752 23.3689 17.1451 23.319 18.4302 21.9155C18.6003 21.7296 18.7654 21.4787 18.7968 21.2398C18.8555 20.7929 18.814 20.3331 18.814 19.8403C16.6935 20.8639 14.6044 20.8769 12.4616 19.8553ZM11.9299 32.2425H19.3487V30.928H11.9299V32.2425ZM19.3547 33.0802H11.9441V34.1258H19.3547V33.0802Z" fill="#F4F4F4"/>
</svg>
