<svg width="30" height="30" viewBox="0 0 30 30" fill="none" xmlns="http://www.w3.org/2000/svg">
<path d="M29.0082 5.22632C28.7725 5.95386 28.5464 6.68384 28.2987 7.40652C27.4991 9.73855 26.6923 12.0681 25.8854 14.3977C25.8229 14.5799 25.7435 14.7561 25.6618 14.9297C25.4309 15.4229 25.0341 15.6743 24.5026 15.7192C24.3271 15.7338 24.1503 15.7423 23.9735 15.7423C19.3321 15.7435 14.6919 15.7423 10.0504 15.7423H9.82797C9.86765 16.0654 9.90493 16.3678 9.94461 16.6715C9.95783 16.7747 9.97467 16.8767 9.9915 16.98C10.0348 17.2423 10.1454 17.365 10.4039 17.4124C10.5194 17.433 10.6372 17.4403 10.7551 17.4403C15.8077 17.4415 20.8604 17.4403 25.9143 17.4403H26.1127V21.5699H25.9588C20.4648 21.5699 14.9696 21.5699 9.47565 21.5699C8.6616 21.5699 8.00145 21.2031 7.42428 20.6651C6.58618 19.8841 6.09558 18.9161 5.86711 17.7853C5.38974 15.4192 4.88111 13.0605 4.38089 10.6993C3.94921 8.66242 3.50912 6.62675 3.07383 4.59108C3.06421 4.54736 3.05339 4.50485 3.03896 4.45019H0.166321V0.331488C0.210811 0.327844 0.254099 0.322986 0.296185 0.322986C2.37642 0.322986 4.45665 0.322986 6.53688 0.320557C6.6463 0.320557 6.68478 0.349707 6.70402 0.463879C6.85432 1.34203 7.01184 2.21776 7.16816 3.0947C7.17537 3.13842 7.1874 3.18094 7.20063 3.23802C7.26917 3.23802 7.3365 3.23802 7.40504 3.23802C13.8958 3.23802 20.3854 3.23802 26.8762 3.23802C27.3837 3.23802 27.8622 3.33155 28.2783 3.6437C28.6655 3.93399 28.9012 4.32144 28.9829 4.80364C28.9865 4.82672 28.9998 4.84858 29.0082 4.87044V5.22753V5.22632ZM8.32371 14.5301C8.38864 14.5301 8.44155 14.5301 8.49446 14.5301C13.6121 14.5301 18.7285 14.5314 23.8461 14.5301C24.0216 14.5301 24.1984 14.5168 24.3739 14.5034C24.5206 14.4937 24.618 14.4123 24.6698 14.2726C24.6938 14.2083 24.7178 14.1427 24.7407 14.0771C25.5223 11.79 26.3027 9.50413 27.0831 7.21704C27.3127 6.54416 27.5496 5.87248 27.7709 5.19717C27.8743 4.88137 27.7648 4.68339 27.4558 4.56801C27.3873 4.5425 27.3151 4.51578 27.2442 4.51092C26.9412 4.48663 26.6382 4.45262 26.3351 4.45262C19.6676 4.44898 13 4.45019 6.33366 4.45019H6.13406C5.94527 3.4773 5.75769 2.51169 5.57011 1.54366H1.37237V3.23559H1.54072C2.35958 3.23559 3.17965 3.23802 3.99851 3.23316C4.10914 3.23316 4.14641 3.26596 4.16806 3.37527C4.45063 4.79149 4.73922 6.2065 5.02781 7.62272C5.60258 10.443 6.17614 13.2645 6.75452 16.0848C6.91084 16.8452 7.07076 17.6055 7.25834 18.3586C7.39061 18.8881 7.64192 19.3667 8.04835 19.7432C8.55217 20.2084 9.16783 20.3566 9.82797 20.3566C14.8025 20.3578 19.777 20.3566 24.7527 20.3566H24.9054V18.6561H24.689C19.7481 18.6561 14.8085 18.6561 9.86765 18.6561C9.80873 18.6561 9.74981 18.6561 9.69089 18.6549C9.34819 18.6428 9.1041 18.4776 8.96461 18.1642C8.9105 18.044 8.86481 17.914 8.84317 17.784C8.73975 17.1792 8.64476 16.5731 8.54857 15.967C8.47281 15.4933 8.39946 15.0196 8.32251 14.5277L8.32371 14.5301Z" fill="white"/>
<path d="M21.3835 29.1624C21.155 29.1102 20.9205 29.0762 20.7005 29.0021C19.3718 28.5539 18.5433 27.281 18.6503 25.8648C18.7513 24.5178 19.7686 23.3894 21.1093 23.1356C22.7975 22.8149 24.4293 24.0319 24.6265 25.7567C24.8189 27.4438 23.6669 28.9243 21.9955 29.1369C21.9679 29.1405 21.9402 29.1539 21.9137 29.1624H21.3835ZM19.8431 26.1283C19.8455 27.1377 20.6524 27.9466 21.6528 27.9454C22.6484 27.943 23.4505 27.1231 23.4469 26.1126C23.4421 25.1105 22.6388 24.304 21.6444 24.304C20.6452 24.304 19.8407 25.119 19.8443 26.1296L19.8431 26.1283Z" fill="white"/>
<path d="M10.0805 29.1624C9.89891 29.1235 9.71494 29.0956 9.53698 29.0458C8.13733 28.6571 7.24271 27.3514 7.34492 25.8526C7.43871 24.4838 8.53534 23.3177 9.91695 23.1198C11.5511 22.8866 13.0553 24.0137 13.3127 25.6643C13.564 27.2822 12.4806 28.8089 10.8669 29.1089C10.7815 29.1247 10.6961 29.1442 10.6108 29.1612H10.0805V29.1624ZM8.53654 26.1198C8.53534 27.1206 9.33857 27.9405 10.3246 27.9441C11.325 27.9478 12.1379 27.1377 12.1415 26.1332C12.1451 25.1238 11.3431 24.3064 10.3462 24.3016C9.34819 24.2979 8.53895 25.1105 8.53774 26.1186L8.53654 26.1198Z" fill="white"/>
<path d="M15.1452 13.0155C14.0245 11.8811 12.9026 10.7442 11.794 9.62195C12.0621 9.35109 12.3399 9.0693 12.6188 8.7863C13.4413 9.6183 14.2866 10.4722 15.1295 11.3248C16.843 9.59401 18.5385 7.88143 20.2243 6.17856C20.5189 6.47492 20.7991 6.75549 21.0708 7.02878C19.1 9.01951 17.1232 11.0163 15.144 13.0155H15.1452Z" fill="white"/>
</svg>
