<svg width="22" height="25" viewBox="0 0 22 25" fill="none" xmlns="http://www.w3.org/2000/svg">
<path d="M3.86601 13.3096C5.68872 13.3096 7.17138 11.7317 7.17138 9.79243C7.17138 7.85319 5.68872 6.27523 3.86601 6.27523C2.04329 6.27523 0.56063 7.85291 0.56063 9.79243C0.56063 11.732 2.04355 13.3096 3.86601 13.3096ZM3.86601 6.98366C5.32157 6.98366 6.50562 8.24359 6.50562 9.79243C6.50562 11.3413 5.32157 12.6012 3.86601 12.6012C2.41044 12.6012 1.2264 11.3413 1.2264 9.79243C1.2264 8.24359 2.4107 6.98366 3.86601 6.98366ZM2.66424 8.98197C2.66424 8.44683 3.02904 7.99377 3.52726 7.84959L3.52283 7.65549C3.5184 7.46002 3.6638 7.29754 3.84777 7.29282C3.85037 7.29282 3.85324 7.29282 3.85584 7.29282C4.03616 7.29282 4.18417 7.44588 4.1886 7.63858L4.19355 7.85652C4.4635 7.93665 4.76707 8.10301 4.91534 8.34313C5.01618 8.50672 4.9737 8.72632 4.81997 8.83363C4.66649 8.94093 4.45985 8.89573 4.35901 8.73214C4.3069 8.64979 4.01818 8.51033 3.86627 8.51033C3.57078 8.51033 3.33027 8.72188 3.33027 8.98169C3.33027 9.24177 3.57078 9.45333 3.86627 9.45333C4.5289 9.45333 5.06829 9.98264 5.06829 10.6334C5.06829 11.1683 4.70375 11.6213 4.20579 11.7655L4.20944 11.9294C4.21387 12.1249 4.06847 12.2873 3.88477 12.292C3.8819 12.292 3.8793 12.292 3.87669 12.292C3.69663 12.292 3.54837 12.139 3.54394 11.9463L3.54003 11.7716C3.26564 11.6965 3.07907 11.5307 2.911 11.3618C2.77733 11.2276 2.77108 11.0033 2.89719 10.861C3.02331 10.7188 3.23411 10.7121 3.36779 10.8463C3.56087 11.0402 3.66015 11.1048 3.86653 11.1048C4.16202 11.1048 4.40253 10.8932 4.40253 10.6334C4.40253 10.3736 4.16202 10.162 3.86653 10.162C3.20337 10.1618 2.66424 9.63245 2.66424 8.98197ZM11 10.172C12.8227 10.172 14.3054 8.59406 14.3054 6.65482C14.3054 4.71557 12.8227 3.13762 11 3.13762C9.17728 3.13762 7.69461 4.71557 7.69461 6.65482C7.69461 8.59406 9.17728 10.172 11 10.172ZM11 3.84605C12.4556 3.84605 13.6396 5.10597 13.6396 6.65482C13.6396 8.20366 12.4556 9.46359 11 9.46359C9.54443 9.46359 8.36038 8.20366 8.36038 6.65482C8.36038 5.10597 9.54443 3.84605 11 3.84605ZM9.79796 5.84435C9.79796 5.30921 10.1628 4.85615 10.661 4.71197L10.6566 4.51788C10.6521 4.3224 10.7975 4.15992 10.9815 4.15521C10.9841 4.15521 10.987 4.15521 10.9896 4.15521C11.1699 4.15521 11.3179 4.30826 11.3223 4.50096L11.3273 4.7189C11.5972 4.79903 11.9008 4.9654 12.0491 5.20551C12.1499 5.36911 12.1074 5.58871 11.9537 5.69601C11.8002 5.80331 11.5936 5.75812 11.4927 5.59453C11.4406 5.51218 11.1519 5.37271 11 5.37271C10.7045 5.37271 10.464 5.58427 10.464 5.84407C10.464 6.10416 10.7045 6.31544 11 6.31544C11.6626 6.31544 12.202 6.84475 12.202 7.49551C12.202 8.03037 11.8375 8.48343 11.3395 8.62761L11.3432 8.79148C11.3476 8.98696 11.2022 9.14944 11.0185 9.15415C11.0156 9.15415 11.013 9.15415 11.0104 9.15415C10.8304 9.15415 10.6821 9.0011 10.6777 8.80839L10.6738 8.63371C10.3994 8.55857 10.2128 8.39276 10.0447 8.2239C9.91105 8.0897 9.9048 7.86539 10.0309 7.72315C10.157 7.58091 10.3678 7.57453 10.5015 7.70845C10.6946 7.90227 10.7936 7.96687 11 7.96687C11.2955 7.96687 11.536 7.75531 11.536 7.49551C11.536 7.23543 11.2955 7.02387 11 7.02387C10.3374 7.02415 9.79796 6.49483 9.79796 5.84435ZM18.134 7.0344C19.9567 7.0344 21.4394 5.45645 21.4394 3.5172C21.4394 1.57796 19.9564 0 18.134 0C16.3113 0 14.8286 1.57796 14.8286 3.5172C14.8286 5.45645 16.3113 7.0344 18.134 7.0344ZM18.134 0.708431C19.5895 0.708431 20.7736 1.96836 20.7736 3.5172C20.7736 5.06605 19.5895 6.32597 18.134 6.32597C16.6784 6.32597 15.4944 5.06605 15.4944 3.5172C15.4944 1.96836 16.6784 0.708431 18.134 0.708431ZM16.9319 2.70673C16.9319 2.1716 17.2968 1.71853 17.795 1.57435L17.7905 1.38026C17.7861 1.18479 17.9315 1.0223 18.1155 1.01759C18.3005 1.01315 18.4519 1.16759 18.4563 1.36335L18.4613 1.58129C18.7312 1.66142 19.0345 1.8275 19.183 2.0679C19.2839 2.23149 19.2414 2.45109 19.0877 2.55839C18.9339 2.66598 18.7276 2.6205 18.6267 2.45691C18.5746 2.37456 18.2859 2.23509 18.134 2.23509C17.8385 2.23509 17.598 2.44665 17.598 2.70646C17.598 2.96626 17.8385 3.17782 18.134 3.17782C18.7966 3.17782 19.336 3.70713 19.336 4.35789C19.336 4.89275 18.9715 5.34581 18.4735 5.49L18.4771 5.65386C18.4816 5.84934 18.3362 6.01182 18.1525 6.01654C18.1496 6.01654 18.147 6.01654 18.1444 6.01654C17.9643 6.01654 17.8161 5.86348 17.8116 5.67078L17.8077 5.4961C17.5334 5.42096 17.3468 5.25515 17.1787 5.08629C17.045 4.95209 17.0388 4.72777 17.1649 4.58553C17.291 4.44302 17.5018 4.43664 17.6355 4.57084C17.8286 4.76465 17.9276 4.82926 18.134 4.82926C18.4295 4.82926 18.67 4.6177 18.67 4.35761C18.67 4.09753 18.4295 3.88625 18.134 3.88625C17.4713 3.88653 16.9319 3.35722 16.9319 2.70673ZM4.10156 14.7293C3.97154 14.5909 3.76073 14.5909 3.63071 14.7293L0.0975905 18.4885C0.00222052 18.5897 -0.026182 18.7422 0.0254116 18.8745C0.0770052 19.007 0.198433 19.0933 0.332888 19.0933H1.56358V24.6456C1.56358 24.8414 1.71263 25 1.89659 25H5.83542C6.01939 25 6.16843 24.8414 6.16843 24.6456V19.0935H7.39912C7.53384 19.0935 7.65527 19.0073 7.7066 18.8748C7.75819 18.7425 7.72979 18.59 7.63442 18.4888L4.10156 14.7293ZM5.83542 18.3848C5.65146 18.3848 5.50241 18.5434 5.50241 18.7392V24.2916H2.22934V18.7392C2.22934 18.5434 2.08029 18.3848 1.89633 18.3848H1.1365L3.86601 15.4807L6.59525 18.3848H5.83542ZM11.2355 11.5917C11.1055 11.4533 10.8947 11.4533 10.7647 11.5917L7.23157 15.3509C7.1362 15.4521 7.1078 15.6046 7.1594 15.7369C7.21099 15.8694 7.33242 15.9556 7.46687 15.9556H8.69756V24.6456C8.69756 24.8414 8.84661 25 9.03057 25H12.9697C13.1536 25 13.3027 24.8414 13.3027 24.6456V15.9559H14.5331C14.6678 15.9559 14.7893 15.8697 14.8406 15.7372C14.8922 15.6049 14.8638 15.4524 14.7684 15.3512L11.2355 11.5917ZM12.9694 15.2472C12.7854 15.2472 12.6364 15.4058 12.6364 15.6016V24.2916H9.36333V15.6016C9.36333 15.4058 9.21428 15.2472 9.03031 15.2472H8.27048L11 12.3431L13.7292 15.2472H12.9694ZM21.9024 12.2133L18.3693 8.45404C18.2392 8.31568 18.0284 8.31568 17.8984 8.45404L14.3656 12.2133C14.2704 12.3145 14.2418 12.467 14.2934 12.5993C14.345 12.7318 14.4664 12.818 14.6009 12.818H15.8315V24.6456C15.8315 24.8414 15.9806 25 16.1646 25H20.1036C20.2876 25 20.4367 24.8414 20.4367 24.6456V12.8183H21.6674C21.8021 12.8183 21.9235 12.7321 21.9748 12.5995C22.0262 12.467 21.9975 12.3148 21.9024 12.2133ZM20.1034 12.1096C19.9194 12.1096 19.7704 12.2682 19.7704 12.464V24.2916H16.4973V12.464C16.4973 12.2682 16.3483 12.1096 16.1643 12.1096H15.4045L18.1337 9.20545L20.863 12.1096H20.1034Z" fill="#5B6B79"/>
</svg>
