<svg width="31" height="31" viewBox="0 0 31 31" fill="none" xmlns="http://www.w3.org/2000/svg">
<path d="M0.487595 30.7026C0.487595 29.4633 0.486783 28.224 0.487595 26.9847C0.488407 26.2867 0.870978 25.9069 1.5752 25.9053C2.47843 25.9037 3.38246 25.9029 4.28569 25.9053C4.96554 25.9069 5.35786 26.2955 5.35949 26.9695C5.36192 27.8786 5.35949 28.7869 5.35949 29.7192H6.82154C6.82154 29.6168 6.82154 29.5113 6.82154 29.4049C6.82154 27.3365 6.82154 25.2673 6.82154 23.1989C6.82154 22.4225 7.18543 22.0667 7.97819 22.0659C8.85136 22.0659 9.72453 22.0643 10.5977 22.0659C11.3011 22.0667 11.6942 22.4497 11.6951 23.1373C11.6967 25.2161 11.6951 27.2949 11.6951 29.373V29.72H13.1571V29.3674C13.1571 25.4 13.1571 21.4327 13.1571 17.4653C13.1571 16.6626 13.5129 16.3092 14.3194 16.3092C15.1926 16.3092 16.0658 16.3076 16.939 16.3092C17.6399 16.3108 18.0298 16.6937 18.0298 17.3869C18.0306 21.3743 18.0298 25.3616 18.0298 29.349V29.7224H19.4919V29.3618C19.4919 23.1661 19.4919 16.9696 19.4919 10.7739C19.4919 9.93197 19.8355 9.59296 20.6908 9.59296C21.5233 9.59296 22.3559 9.59296 23.1884 9.59296C24.0129 9.59296 24.3662 9.94476 24.3662 10.7667C24.3662 16.9624 24.3662 23.1589 24.3662 29.3546V29.7248H25.8283V29.3578C25.8283 21.2528 25.8283 13.1485 25.8283 5.04353C25.8283 4.16323 26.1621 3.83702 27.0621 3.83702C27.9149 3.83702 28.7678 3.83542 29.6207 3.83702C30.3046 3.83862 30.6985 4.224 30.7018 4.89402C30.7042 5.49128 30.7018 6.08774 30.7018 6.6994H29.7376V4.79567H26.8168V29.7216H29.7238V9.60895H30.7018V30.7026H0.487595ZM20.4901 10.5684V29.7192H23.3793V10.5684H20.4901ZM17.0372 17.2942H14.1497V29.7296H17.0372V17.2942ZM7.82224 23.0374V29.7264H10.7041V23.0374H7.82224ZM4.36285 29.732V26.88H1.48098V29.732H4.36285Z" fill="#FE5502"/>
<path d="M8.46798 0C8.80506 0.0607656 9.14377 0.115135 9.47923 0.183096C11.8461 0.662825 14.0043 2.40584 14.9319 4.60459C14.6525 4.72772 14.3706 4.85085 14.0644 4.98598C13.1206 3.02469 11.613 1.71983 9.4833 1.17054C7.89372 0.761169 6.34556 0.929074 4.8567 1.61669C1.94884 2.95913 0.397436 6.19889 1.17882 9.29794C1.96427 12.4106 4.85914 14.531 8.14795 14.3831C11.5115 14.2311 14.5834 11.5095 14.6492 7.69005H15.6207C15.5654 8.16658 15.5419 8.64231 15.4517 9.10525C14.7207 12.8639 11.2995 15.5112 7.40718 15.3441C3.65538 15.1834 0.468914 12.2563 0.0579141 8.59514C0.0473548 8.50719 0.0197382 8.42163 0.000244141 8.33528C0.000244141 7.89553 0.000244141 7.45578 0.000244141 7.01603C0.0205505 6.92008 0.044918 6.82414 0.0603508 6.72739C0.537956 3.7043 2.21445 1.60549 5.10688 0.490123C5.74693 0.243062 6.45278 0.15911 7.12776 0C7.5745 0 8.02124 0 8.46798 0Z" fill="#FE5502"/>
<path d="M27.9637 0C28.2122 0.169504 28.2813 0.402172 28.274 0.695606C28.2569 1.412 28.2683 2.12919 28.2683 2.86238H27.3074V1.86774C27.2765 1.84855 27.2465 1.82857 27.2156 1.80938C27.1693 1.88134 27.1319 1.96049 27.0767 2.02445C25.5326 3.80025 23.9828 5.57205 22.4444 7.35264C22.2414 7.58771 22.0188 7.72763 21.7101 7.67326C20.9637 7.54213 20.4788 7.86195 19.9825 8.40884C17.0892 11.5982 14.1505 14.7485 11.2337 17.9163C11.0339 18.1329 10.8251 18.2409 10.5222 18.2345C9.78139 18.2185 9.0398 18.2369 8.29903 18.2241C8.08947 18.2209 7.94245 18.2793 7.79381 18.4264C6.21235 19.9927 4.6244 21.5526 3.03807 23.1133C2.96009 23.1901 2.87887 23.2628 2.78952 23.3468C2.56128 23.1189 2.3444 22.903 2.11616 22.6752C2.18683 22.6016 2.25343 22.5281 2.3241 22.4585C3.98191 20.8258 5.64296 19.1971 7.29427 17.5589C7.50383 17.351 7.72233 17.2582 8.01962 17.2646C8.77014 17.2798 9.52228 17.2774 10.2728 17.2622C10.4036 17.2598 10.5701 17.1919 10.657 17.0975C13.7354 13.7762 16.809 10.4509 19.872 7.11597C20.1311 6.83373 20.3959 6.64904 20.7882 6.717C21.4567 6.83213 21.8896 6.55549 22.3169 6.04138C23.6725 4.4103 25.0915 2.8304 26.4854 1.2297C26.5487 1.15695 26.6056 1.07939 26.6949 0.967453H25.3425V0H27.9637Z" fill="#FE5502"/>
<path d="M8.28766 11.5223V12.453H7.31945V11.5247H5.86715V10.5532C6.69564 10.5532 7.51439 10.5532 8.33315 10.5532C9.04955 10.5532 9.51091 10.267 9.68717 9.71372C9.93085 8.95255 9.37852 8.18179 8.56139 8.1578C8.09516 8.14421 7.62811 8.1562 7.16107 8.1538C5.87364 8.14821 4.89082 7.23592 4.87457 6.0334C4.85833 4.8077 5.81679 3.86663 7.11395 3.83625C7.16431 3.83545 7.21467 3.83145 7.29752 3.82745V2.89598H8.27548V3.82425H9.72778V4.7957C8.87898 4.7957 8.03992 4.7957 7.20005 4.7957C6.56487 4.7957 6.11245 5.07395 5.92319 5.57606C5.63403 6.34523 6.19042 7.16396 7.03192 7.19035C7.49815 7.20474 7.96519 7.19275 8.43224 7.19435C9.71966 7.19914 10.7025 8.11143 10.7195 9.31395C10.7366 10.5397 9.77814 11.4807 8.48016 11.5119C8.4298 11.5135 8.37944 11.5167 8.28604 11.5207L8.28766 11.5223Z" fill="#FE5502"/>
<path d="M1.15202 23.7114C1.35183 23.9017 1.56221 24.1016 1.74496 24.2767C1.4225 24.5941 1.10653 24.9059 0.782444 25.2249C0.602936 25.045 0.39175 24.8324 0.205744 24.6453C0.520898 24.3342 0.836864 24.0224 1.15202 23.7114Z" fill="#FE5502"/>
<path d="M14.5745 6.78175C14.5095 6.47393 14.4502 6.19489 14.3852 5.88946C14.6866 5.80471 14.9839 5.72155 15.3218 5.62721C15.3941 5.97341 15.4623 6.29723 15.5354 6.64583C15.2064 6.6922 14.9083 6.73458 14.5745 6.78175Z" fill="#FE5502"/>
<path d="M29.7433 8.6191V7.69643H30.6863V8.6191H29.7433Z" fill="#FE5502"/>
<path d="M20.4901 10.5684H23.3793V29.7192H20.4901V10.5684Z" fill="#FE5502"/>
<path d="M17.0372 29.7296H14.1497V17.2942H17.0372V29.7296Z" fill="#FE5502"/>
<path d="M7.82224 23.0382H10.7041V29.7272H7.82224V23.0382Z" fill="#FE5502"/>
<path d="M4.36285 29.732H1.48098V26.88H4.36285V29.732Z" fill="#FE5502"/>
</svg>
