<svg width="32" height="32" viewBox="0 0 32 32" fill="none" xmlns="http://www.w3.org/2000/svg">
<path d="M1.19695 31.0232C1.19695 29.7839 1.19613 28.5446 1.19695 27.3053C1.19776 26.6073 1.58033 26.2275 2.28455 26.2259C3.18778 26.2243 4.09181 26.2235 4.99504 26.2259C5.6749 26.2275 6.06721 26.6161 6.06884 27.2901C6.07127 28.1992 6.06884 29.1075 6.06884 30.0397H7.53089C7.53089 29.9374 7.53089 29.8318 7.53089 29.7255C7.53089 27.6571 7.53089 25.5878 7.53089 23.5194C7.53089 22.7431 7.89478 22.3873 8.68754 22.3865C9.56071 22.3865 10.4339 22.3849 11.3071 22.3865C12.0105 22.3873 12.4036 22.7702 12.4044 23.4579C12.406 25.5367 12.4044 27.6155 12.4044 29.6935V30.0405H13.8665V29.6879C13.8665 25.7206 13.8665 21.7532 13.8665 17.7859C13.8665 16.9831 14.2222 16.6297 15.0288 16.6297C15.902 16.6297 16.7751 16.6281 17.6483 16.6297C18.3493 16.6313 18.7392 17.0143 18.7392 17.7075C18.74 21.6949 18.7392 25.6822 18.7392 29.6695V30.0429H20.2012V29.6823C20.2012 23.4866 20.2012 17.2901 20.2012 11.0944C20.2012 10.2525 20.5448 9.91352 21.4001 9.91352C22.2327 9.91352 23.0652 9.91352 23.8978 9.91352C24.7222 9.91352 25.0756 10.2653 25.0756 11.0873C25.0756 17.2829 25.0756 23.4794 25.0756 29.6751V30.0453H26.5376V29.6783C26.5376 21.5733 26.5376 13.4691 26.5376 5.36409C26.5376 4.48379 26.8714 4.15757 27.7714 4.15757C28.6243 4.15757 29.4772 4.15597 30.33 4.15757C31.0139 4.15917 31.4079 4.54455 31.4111 5.21457C31.4136 5.81184 31.4111 6.4083 31.4111 7.01995H30.447V5.11623H27.5261V30.0421H30.4332V9.92951H31.4111V31.0232H1.19695ZM21.1995 10.889V30.0397H24.0887V10.889H21.1995ZM17.7466 17.6148H14.859V30.0501H17.7466V17.6148ZM8.53159 23.3579V30.0469H11.4135V23.3579H8.53159ZM5.0722 30.0525V27.2005H2.19033V30.0525H5.0722Z" fill="white"/>
<path d="M9.17733 0.320557C9.51441 0.381322 9.85312 0.435691 10.1886 0.503653C12.5555 0.983382 14.7136 2.7264 15.6412 4.92515C15.3618 5.04828 15.08 5.17141 14.7738 5.30654C13.8299 3.34525 12.3224 2.04038 10.1926 1.49109C8.60307 1.08173 7.05491 1.24963 5.56605 1.93724C2.65819 3.27968 1.10679 6.51945 1.88817 9.6185C2.67362 12.7311 5.56849 14.8515 8.8573 14.7036C12.2208 14.5517 15.2928 11.83 15.3586 8.01061H16.33C16.2748 8.48714 16.2512 8.96287 16.1611 9.4258C15.4301 13.1845 12.0088 15.8318 8.11653 15.6647C4.36473 15.504 1.17826 12.5768 0.767265 8.91569C0.756705 8.82774 0.729089 8.74219 0.709595 8.65584C0.709595 8.21609 0.709595 7.77634 0.709595 7.33659C0.729901 7.24064 0.754269 7.1447 0.769701 7.04795C1.24731 4.02486 2.9238 1.92605 5.81623 0.810679C6.45628 0.563619 7.16213 0.479667 7.83711 0.320557C8.28385 0.320557 8.73059 0.320557 9.17733 0.320557Z" fill="white"/>
<path d="M28.673 0.320557C28.9216 0.490061 28.9906 0.722729 28.9833 1.01616C28.9662 1.73256 28.9776 2.44975 28.9776 3.18294H28.0167V2.1883C27.9859 2.16911 27.9558 2.14912 27.9249 2.12993C27.8786 2.20189 27.8413 2.28105 27.786 2.34501C26.2419 4.12081 24.6922 5.8926 23.1538 7.6732C22.9507 7.90826 22.7281 8.04818 22.4195 7.99382C21.673 7.86269 21.1881 8.18251 20.6918 8.7294C17.7986 11.9188 14.8598 15.069 11.943 18.2368C11.7432 18.4535 11.5345 18.5614 11.2315 18.555C10.4907 18.539 9.74915 18.5574 9.00838 18.5446C8.79882 18.5414 8.6518 18.5998 8.50316 18.7469C6.9217 20.3132 5.33375 21.8732 3.74742 23.4339C3.66944 23.5106 3.58822 23.5834 3.49887 23.6673C3.27063 23.4395 3.05376 23.2236 2.82551 22.9957C2.89618 22.9222 2.96278 22.8486 3.03345 22.7791C4.69126 21.1464 6.35231 19.5177 8.00362 17.8794C8.21318 17.6715 8.43168 17.5788 8.72897 17.5852C9.47949 17.6004 10.2316 17.598 10.9822 17.5828C11.1129 17.5804 11.2794 17.5124 11.3664 17.4181C14.4448 14.0968 17.5184 10.7714 20.5814 7.43653C20.8405 7.15429 21.1053 6.96959 21.4976 7.03756C22.1661 7.15269 22.599 6.87605 23.0262 6.36194C24.3819 4.73086 25.8009 3.15096 27.1947 1.55026C27.2581 1.4775 27.3149 1.39995 27.4043 1.28801H26.0519V0.320557H28.673Z" fill="white"/>
<path d="M8.99701 11.8429V12.7735H8.0288V11.8453H6.5765V10.8738C7.40499 10.8738 8.22374 10.8738 9.0425 10.8738C9.7589 10.8738 10.2203 10.5876 10.3965 10.0343C10.6402 9.27311 10.0879 8.50234 9.27074 8.47836C8.80451 8.46477 8.33746 8.47676 7.87042 8.47436C6.58299 8.46876 5.60017 7.55648 5.58392 6.35396C5.56768 5.12825 6.52614 4.18719 7.8233 4.1568C7.87366 4.156 7.92402 4.15201 8.00687 4.14801V3.21654H8.98483V4.14481H10.4371V5.11626C9.58833 5.11626 8.74927 5.11626 7.9094 5.11626C7.27422 5.11626 6.8218 5.3945 6.63254 5.89662C6.34338 6.66578 6.89977 7.48452 7.74127 7.5109C8.2075 7.5253 8.67455 7.5133 9.14159 7.5149C10.429 7.5197 11.4118 8.43198 11.4289 9.6345C11.446 10.8602 10.4875 11.8013 9.18951 11.8325C9.13915 11.8341 9.0888 11.8373 8.99539 11.8413L8.99701 11.8429Z" fill="white"/>
<path d="M1.86137 24.0319C2.06118 24.2222 2.27156 24.4221 2.45431 24.5972C2.13185 24.9146 1.81588 25.2265 1.49179 25.5455C1.31229 25.3656 1.1011 25.1529 0.915095 24.9658C1.23025 24.6548 1.54622 24.343 1.86137 24.0319Z" fill="white"/>
<path d="M15.2838 7.10231C15.2189 6.79448 15.1596 6.51544 15.0946 6.21002C15.3959 6.12526 15.6932 6.04211 16.0311 5.94776C16.1034 6.29397 16.1716 6.61778 16.2447 6.96639C15.9158 7.01276 15.6177 7.05514 15.2838 7.10231Z" fill="white"/>
<path d="M30.4527 8.93966V8.01698H31.3957V8.93966H30.4527Z" fill="white"/>
<path d="M21.1995 10.889H24.0887V30.0397H21.1995V10.889Z" fill="white"/>
<path d="M17.7466 30.0501H14.859V17.6148H17.7466V30.0501Z" fill="white"/>
<path d="M8.53159 23.3587H11.4135V30.0477H8.53159V23.3587Z" fill="white"/>
<path d="M5.0722 30.0525H2.19033V27.2005H5.0722V30.0525Z" fill="white"/>
</svg>
