<svg width="27" height="22" viewBox="0 0 27 22" fill="none" xmlns="http://www.w3.org/2000/svg">
<path d="M21.8402 0C19.8322 0 18.2456 1.58451 18.2456 3.55905C18.2456 5.53359 19.857 7.09372 21.8402 7.09372C23.8234 7.09372 25.4596 5.50921 25.4596 3.53467C25.4596 1.56013 23.8482 0 21.8402 0ZM21.8402 6.31366C20.2784 6.31366 19.0141 5.07043 19.0141 3.53467C19.0141 1.99892 20.3032 0.780066 21.8402 0.780066C23.402 0.780066 24.6663 2.0233 24.6663 3.55905C24.6663 5.0948 23.402 6.31366 21.8402 6.31366Z" fill="#5B6B79"/>
<path d="M22.9806 4.09535C22.9558 4.02222 22.9558 3.97347 22.9062 3.90033C22.8814 3.85158 22.8566 3.77845 22.807 3.7297C22.7574 3.68094 22.7327 3.63219 22.6831 3.58343C22.6335 3.53468 22.5839 3.48593 22.5095 3.46155C22.46 3.41279 22.3856 3.38842 22.336 3.36404C22.2616 3.33966 22.2121 3.29091 22.1377 3.26653C22.0633 3.24215 21.989 3.21778 21.9394 3.1934C21.9146 3.1934 21.865 3.16902 21.8402 3.14465C21.8154 3.12027 21.7658 3.12027 21.741 3.09589C21.7163 3.07152 21.6667 3.07152 21.6419 3.04714C21.6171 3.02276 21.5923 2.99838 21.5675 2.97401C21.5427 2.94963 21.5179 2.92525 21.5179 2.8765C21.4931 2.85212 21.4931 2.80337 21.4931 2.77899C21.4931 2.73024 21.4931 2.70586 21.4931 2.65711C21.4931 2.63273 21.5179 2.58397 21.5179 2.5596C21.5427 2.53522 21.5427 2.48647 21.5675 2.46209C21.5923 2.43771 21.6171 2.41333 21.6419 2.38896C21.6667 2.36458 21.7163 2.3402 21.7658 2.3402C21.8154 2.31583 21.8402 2.31583 21.8898 2.31583C21.9146 2.31583 21.9394 2.31583 21.9642 2.31583C21.989 2.31583 22.0137 2.31583 22.0385 2.31583C22.0881 2.31583 22.1129 2.31583 22.1625 2.3402C22.2121 2.3402 22.2616 2.36458 22.2864 2.36458C22.3112 2.36458 22.3608 2.38896 22.3856 2.38896C22.4352 2.38896 22.46 2.41333 22.4848 2.41333L22.6087 2.46209L22.6335 2.31583L22.6831 1.92579V1.82829L22.5839 1.80391C22.5591 1.80391 22.5095 1.77953 22.4848 1.77953C22.46 1.77953 22.4352 1.75515 22.3856 1.75515C22.3608 1.75515 22.3112 1.73078 22.2616 1.73078C22.2121 1.73078 22.1873 1.7064 22.1377 1.7064H22.1129V1.24324H21.5179V1.73078H21.4931C21.4188 1.75515 21.3444 1.77953 21.27 1.82829C21.1957 1.85266 21.1461 1.90142 21.0965 1.95017C21.0469 1.99892 20.9973 2.04768 20.9478 2.12081C20.8982 2.16956 20.8734 2.2427 20.8486 2.31583C20.8238 2.38896 20.799 2.46209 20.7742 2.53522C20.7494 2.60835 20.7494 2.70586 20.7494 2.77899C20.7494 2.85212 20.7494 2.90088 20.7742 2.97401C20.799 3.04714 20.799 3.09589 20.8486 3.16902C20.8734 3.21778 20.923 3.29091 20.9478 3.33966C20.9973 3.38842 21.0221 3.43717 21.0717 3.48593C21.1213 3.53468 21.1709 3.58343 21.2452 3.60781C21.2948 3.65656 21.3692 3.68094 21.4188 3.70532C21.4931 3.7297 21.5675 3.77845 21.6171 3.80283C21.6915 3.8272 21.7658 3.85158 21.8154 3.87596C21.8402 3.87596 21.8898 3.90033 21.9146 3.92471C21.9394 3.94909 21.989 3.94909 22.0137 3.97347C22.0385 3.99784 22.0633 4.02222 22.0881 4.02222C22.1129 4.0466 22.1377 4.07097 22.1625 4.09535C22.1873 4.11973 22.1873 4.14411 22.2121 4.19286C22.2121 4.21724 22.2369 4.26599 22.2369 4.31474C22.2369 4.3635 22.2369 4.38788 22.2369 4.43663C22.2369 4.46101 22.2121 4.50976 22.1873 4.53414C22.1625 4.55852 22.1377 4.58289 22.1129 4.60727C22.0881 4.63165 22.0633 4.65602 22.0137 4.6804C21.989 4.70478 21.9394 4.70478 21.9146 4.72916C21.8898 4.72916 21.8402 4.75353 21.7906 4.75353C21.7658 4.75353 21.741 4.75353 21.6915 4.75353C21.6667 4.75353 21.6171 4.75353 21.5923 4.75353C21.5427 4.75353 21.4931 4.75353 21.4684 4.75353C21.4188 4.75353 21.3692 4.72916 21.3444 4.72916C21.2948 4.72916 21.2452 4.70478 21.1957 4.6804C21.1461 4.65602 21.0965 4.65602 21.0469 4.63165C21.0221 4.63165 20.9973 4.60727 20.9726 4.60727C20.9478 4.60727 20.923 4.58289 20.8982 4.58289L20.7494 4.50976L20.7246 4.6804L20.6751 5.11919V5.19232L20.7494 5.2167C20.8486 5.19232 20.8982 5.2167 20.9726 5.24107C21.0221 5.26545 21.0965 5.28983 21.1461 5.28983C21.1957 5.3142 21.27 5.3142 21.3444 5.33858C21.4188 5.36296 21.4684 5.36296 21.5427 5.36296H21.5923V5.8505H22.1873V5.33858H22.2121C22.2864 5.3142 22.3608 5.28983 22.4352 5.24107C22.5095 5.2167 22.5591 5.16794 22.6335 5.11919C22.6831 5.07043 22.7327 5.02168 22.7822 4.94855C22.8318 4.89979 22.8566 4.82666 22.9062 4.75353C22.931 4.6804 22.9558 4.60727 22.9806 4.53414C23.0054 4.46101 23.0054 4.38788 23.0054 4.29037C23.0054 4.21724 23.0054 4.16848 22.9806 4.09535Z" fill="#5B6B79"/>
<path d="M20.1049 7.55693C19.9809 7.38629 19.7082 7.36191 19.5347 7.4838L15.5187 10.6284L10.3375 8.50764C10.2136 8.45888 10.0648 8.48326 9.96569 8.55639L4.41268 12.4567C4.23914 12.5786 4.18956 12.8224 4.31351 12.993C4.38789 13.1149 4.51184 13.1637 4.63579 13.1637C4.71016 13.1637 4.78453 13.1393 4.8589 13.0905L10.2384 9.31208L15.4443 11.4329C15.5683 11.4816 15.7418 11.4573 15.841 11.3841L20.0305 8.1176C20.204 7.99572 20.2288 7.72757 20.1049 7.55693Z" fill="#5B6B79"/>
<path d="M25.9058 20.9155H24.0713V9.62896C24.0713 9.40956 23.8978 9.23892 23.6747 9.23892H20.0305C19.8074 9.23892 19.6339 9.40956 19.6339 9.62896V20.9155H18.2952V13.5293C18.2952 13.3099 18.1217 13.1393 17.8985 13.1393H14.2296C14.0065 13.1393 13.8329 13.3099 13.8329 13.5293V20.9155H12.4943V12.9442C12.4943 12.7248 12.3207 12.5542 12.0976 12.5542H8.45347C8.23035 12.5542 8.05682 12.7248 8.05682 12.9442V20.9155H6.71815V15.2357C6.71815 15.0163 6.54462 14.8456 6.32151 14.8456H2.65255C2.42944 14.8456 2.25591 15.0163 2.25591 15.2357V20.9155H0.396644C0.173532 20.9155 0 21.0862 0 21.3056C0 21.525 0.173532 21.6956 0.396644 21.6956H25.881C26.1041 21.6956 26.2776 21.525 26.2776 21.3056C26.3024 21.0862 26.1289 20.9155 25.9058 20.9155ZM5.90007 20.9155H3.0492V15.6257H5.90007V20.9155ZM11.701 20.9155H8.85011V13.3343H11.701V20.9155ZM17.4771 20.9155H14.6262V13.9193H17.4771V20.9155ZM23.278 20.9155H20.4271V10.019H23.278V20.9155Z" fill="#5B6B79"/>
</svg>
