<svg width="32" height="33" viewBox="0 0 32 33" fill="none" xmlns="http://www.w3.org/2000/svg">
<path d="M28.3944 21.1049C28.3944 22.3235 28.3944 23.5034 28.3944 24.6823C28.3944 25.85 28.3964 27.0167 28.3944 28.1844C28.3934 28.6889 28.2788 28.8496 27.8123 28.9737C24.0236 29.9817 20.2338 30.9887 16.4421 31.9835C16.236 32.0374 15.9907 32.0363 15.7846 31.9824C12.0291 30.9968 8.27549 29.999 4.52293 29.0032C3.91577 28.8425 3.83233 28.7265 3.83233 28.0704C3.83233 25.8622 3.8273 23.655 3.83836 21.4467C3.83937 21.1843 3.77101 21.0714 3.51065 21.0093C2.77984 20.8344 2.05607 20.631 1.33129 20.4306C0.766348 20.2739 0.614557 19.9078 0.911103 19.3982C1.88418 17.727 2.85624 16.0558 3.85143 14.3978C3.96804 14.2035 4.20628 14.0194 4.42241 13.9625C6.80885 13.3339 9.20132 12.7307 11.5928 12.1214C11.641 12.1092 11.6913 12.1011 11.7406 12.0919C12.1205 12.0166 12.4261 12.1885 12.5025 12.5181C12.5829 12.866 12.4131 13.1599 12.0331 13.2606C10.858 13.5709 9.67981 13.8669 8.50268 14.1689C7.99503 14.2991 7.48738 14.4324 6.87218 14.5921C7.9307 14.8749 8.88366 15.1312 9.83864 15.3855C11.824 15.9134 13.8093 16.4423 15.7967 16.961C15.9696 17.0058 16.1717 17.0272 16.3415 16.9834C19.2507 16.2236 22.1559 15.4526 25.062 14.6836C25.1213 14.6684 25.1776 14.6389 25.2992 14.5911C25.1364 14.5402 25.0308 14.5016 24.9233 14.4741C23.3943 14.0845 21.8623 13.7041 20.3364 13.3003C20.1353 13.2474 19.889 13.1162 19.8006 12.9484C19.7151 12.7856 19.7262 12.453 19.8388 12.3299C19.9765 12.1784 20.2871 12.0644 20.4831 12.1092C21.8623 12.4255 23.2315 12.7876 24.6036 13.1355C25.6601 13.404 26.7206 13.6563 27.7671 13.9564C28.0043 14.0245 28.2667 14.2188 28.3944 14.4304C29.3805 16.0639 30.3385 17.7148 31.3005 19.3626C31.6202 19.9108 31.4744 20.278 30.8663 20.4468C30.058 20.6706 29.2458 20.8802 28.3974 21.106L28.3944 21.1049ZM27.1891 21.4396C27.0413 21.4691 26.9549 21.4813 26.8714 21.5037C24.4498 22.1475 22.0282 22.7914 19.6066 23.4363C18.9743 23.6051 18.8526 23.5543 18.5109 22.9714C17.9861 22.0774 17.4624 21.1833 16.9366 20.2892C16.8844 20.1997 16.819 20.1183 16.7406 20.0064V30.6388C16.8683 30.6103 16.9648 30.592 17.0613 30.5666C20.2952 29.7101 23.527 28.8445 26.7649 28.0053C27.1238 27.9128 27.2012 27.7612 27.1971 27.4154C27.178 25.9436 27.1891 24.4707 27.1891 22.9989V21.4396ZM5.0547 21.4304C5.04566 21.5393 5.0356 21.6013 5.0356 21.6623C5.0356 23.6417 5.04063 25.6221 5.02756 27.6015C5.02555 27.864 5.1502 27.9118 5.35125 27.9647C8.30666 28.7448 11.2611 29.5311 14.2165 30.3153C14.6346 30.4262 15.0548 30.533 15.4851 30.6449V19.9525C14.8568 21.0246 14.2778 22.0143 13.6978 23.003C13.3831 23.539 13.2384 23.6021 12.6583 23.4475C10.7936 22.9511 8.9299 22.4517 7.06619 21.9553C6.40474 21.7793 5.74229 21.6095 5.05671 21.4304H5.0547ZM15.1714 18.0881C15.0749 18.0484 15.0297 18.024 14.9825 18.0118C11.642 17.1238 8.29962 16.2399 4.96122 15.3438C4.73001 15.2817 4.65361 15.3824 4.5561 15.5502C3.85847 16.7525 3.15379 17.9507 2.45314 19.151C2.40589 19.2324 2.37272 19.3219 2.31844 19.4378C2.65419 19.5263 2.95476 19.6046 3.25532 19.685C6.31829 20.4977 9.38025 21.3135 12.4452 22.117C12.5699 22.1496 12.8021 22.118 12.8524 22.0346C13.6334 20.7378 14.3924 19.4266 15.1735 18.0891L15.1714 18.0881ZM17.0522 18.0667C17.1327 18.2172 17.189 18.3291 17.2513 18.4369C17.9208 19.5823 18.6013 20.7205 19.2557 21.8749C19.4105 22.1496 19.5563 22.1943 19.8498 22.115C22.4856 21.404 25.1273 20.7123 27.7661 20.0125C28.4758 19.8243 29.1845 19.6291 29.9324 19.4256C29.1091 18.0199 28.314 16.661 27.5098 15.2888C24.0155 16.2165 20.5475 17.137 17.0512 18.0657L17.0522 18.0667Z" fill="white"/>
<path d="M16.0912 15.7862C15.853 15.7862 15.6148 15.7903 15.3765 15.7862C14.4768 15.7669 13.8204 15.18 13.742 14.2798C13.7018 13.814 13.7259 13.342 13.7309 12.8731C13.7319 12.7754 13.746 12.6432 13.8083 12.5863C14.1019 12.3137 13.9209 12.0848 13.7551 11.8671C13.6254 11.6983 13.4666 11.5518 13.3117 11.4033C11.9999 10.1481 11.6501 8.21959 12.4402 6.58705C13.2213 4.97486 14.9714 4.02585 16.6873 4.28522C18.4847 4.55782 19.8951 5.94421 20.1514 7.75272C20.3555 9.19199 19.9242 10.4299 18.8727 11.4369C18.7099 11.5935 18.546 11.7532 18.4083 11.9302C18.2575 12.1234 18.147 12.3401 18.3983 12.5517C18.4164 12.5669 18.4314 12.5944 18.4334 12.6168C18.4998 13.4569 18.6807 14.3164 18.1882 15.0915C17.9087 15.5319 17.4785 15.7618 16.9537 15.7801C16.6662 15.7903 16.3777 15.7822 16.0892 15.7822C16.0892 15.7832 16.0892 15.7842 16.0892 15.7852L16.0912 15.7862ZM16.7145 12.2119C16.7446 12.2343 16.7758 12.2557 16.806 12.2781C16.8763 12.216 16.9899 12.1651 17.011 12.0889C17.195 11.4409 17.5941 10.9588 18.0766 10.5112C19.2698 9.40356 19.307 7.52487 18.1842 6.34802C17.0643 5.17422 15.2096 5.17015 14.0707 6.33785C12.9257 7.51165 12.9398 9.36389 14.128 10.495C14.6035 10.9476 15.0026 11.4328 15.2036 12.0706C15.2308 12.155 15.3564 12.2079 15.5092 12.337C15.5092 12.0716 15.5092 11.9454 15.5092 11.8193C15.5092 10.9812 15.5072 10.1441 15.5102 9.30592C15.5122 8.85226 15.7344 8.58373 16.1003 8.57763C16.4702 8.57153 16.7034 8.83904 16.7135 9.28354C16.7155 9.39746 16.7135 9.5124 16.7135 9.62632C16.7135 10.4879 16.7135 11.3494 16.7135 12.2119H16.7145ZM17.2955 13.5027H14.9292C14.9292 13.6858 14.9262 13.8363 14.9292 13.9859C14.9382 14.4385 15.0619 14.5636 15.5152 14.5677C15.9023 14.5717 16.2883 14.5707 16.6753 14.5677C17.1729 14.5646 17.2895 14.4456 17.2955 13.9442C17.2975 13.8068 17.2955 13.6705 17.2955 13.5027Z" fill="white"/>
<path d="M15.5112 1.68944C15.5112 1.4616 15.5012 1.23375 15.5132 1.00693C15.5323 0.647872 15.7776 0.397651 16.1003 0.390531C16.423 0.383411 16.6944 0.63058 16.7074 0.983534C16.7245 1.46363 16.7245 1.94475 16.7074 2.42383C16.6954 2.77475 16.423 3.027 16.1043 3.02294C15.7846 3.01887 15.5384 2.76458 15.5112 2.40959C15.5092 2.38416 15.5102 2.35873 15.5102 2.3333C15.5102 2.11868 15.5102 1.90304 15.5102 1.68842C15.5102 1.68842 15.5102 1.68842 15.5112 1.68842V1.68944Z" fill="white"/>
<path d="M12.8071 3.91291C12.7046 4.04005 12.6 4.28926 12.4291 4.34927C12.2422 4.41538 11.9205 4.38792 11.7888 4.26078C11.4118 3.89765 11.0841 3.47655 10.7705 3.05239C10.5966 2.81743 10.6408 2.53974 10.8489 2.32512C11.055 2.11254 11.3555 2.02303 11.5566 2.23053C11.9818 2.66689 12.3487 3.16326 12.7337 3.63929C12.7699 3.68303 12.7669 3.7583 12.8061 3.91189L12.8071 3.91291Z" fill="white"/>
<path d="M21.5416 2.62012C21.5346 3.08903 20.4851 4.40117 20.1655 4.40625C19.9674 4.40931 19.687 4.32183 19.5915 4.17638C19.4859 4.01465 19.4568 3.67797 19.5563 3.52641C19.8448 3.087 20.1876 2.67505 20.5656 2.31193C20.6962 2.1858 21.0179 2.16139 21.2039 2.2275C21.3718 2.28751 21.4743 2.5357 21.5416 2.62012Z" fill="white"/>
</svg>
