<svg width="31" height="33" viewBox="0 0 31 33" fill="none" xmlns="http://www.w3.org/2000/svg">
<path d="M15.5037 32.9962C10.8351 32.9962 6.16657 32.9962 1.49798 32.9962C0.404965 32.9962 0.00927057 32.6234 0.010293 31.5875C0.012338 29.9259 -0.0224259 28.2624 0.0266525 26.6017C0.102315 24.0489 1.85687 21.9887 4.47643 21.3025C6.67064 20.7276 8.86588 20.1517 11.0662 19.5968C11.4006 19.5125 11.4803 19.3793 11.5038 19.065C11.5529 18.4057 11.3679 17.94 10.8045 17.4666C9.38938 16.2765 8.73193 14.7193 8.69206 12.9369C8.69001 12.8296 8.68183 12.7204 8.69206 12.614C8.73807 12.1828 8.61537 11.8599 8.26569 11.5187C7.47737 10.7492 7.12462 9.74786 6.89456 8.72157C6.42218 6.60957 6.68291 4.62214 8.17673 2.89536C9.31167 1.58351 10.8454 0.842772 12.5508 0.405806C15.332 -0.308096 18.0384 -0.0915299 20.6099 1.14654C22.343 1.98118 23.3307 3.33712 23.5352 5.17122C23.5444 5.25268 23.5649 5.33604 23.5986 5.41079C24.4002 7.25639 24.1057 9.01288 23.1129 10.7128C23.0025 10.9016 22.9003 11.1038 22.7459 11.2562C22.3072 11.6893 22.2397 12.1962 22.25 12.7693C22.2878 14.8353 21.4136 16.5208 19.7398 17.8576C19.6171 17.9553 19.5312 18.1508 19.523 18.3051C19.5016 18.6836 19.3901 19.1685 19.5895 19.4176C19.7858 19.6639 20.3165 19.685 20.705 19.7866C22.7275 20.3184 24.7611 20.8148 26.7734 21.3792C29.213 22.0644 30.9011 24.1313 30.9696 26.525C31.0207 28.3055 30.9941 30.0879 30.9869 31.8693C30.9839 32.5602 30.4962 32.9914 29.7385 32.9933C27.2641 33 24.7888 32.999 22.3144 33C20.0435 33 17.7736 33 15.5027 33V32.9952L15.5037 32.9962ZM9.50594 10.7435H9.5448C9.5448 11.6998 9.44868 12.6658 9.56218 13.6096C9.91288 16.5132 12.6766 18.6472 15.7962 18.5016C18.8953 18.3559 21.4054 15.942 21.4576 13.0203C21.4872 11.3827 21.4657 9.74403 21.4647 8.10637C21.4647 7.71827 21.3839 7.66365 20.9862 7.76427C17.3094 8.69761 13.6336 8.69474 9.95787 7.76044C9.57445 7.6627 9.50799 7.70965 9.50697 8.09008C9.5039 8.97455 9.50594 9.85998 9.50594 10.7445V10.7435ZM22.2612 10.4301C23.071 9.32144 23.4064 8.10637 23.1794 6.79355C23.0863 6.25789 22.8072 5.7481 22.7367 5.21147C22.5291 3.64663 21.6958 2.4766 20.2081 1.80486C16.8749 0.298481 13.559 0.378975 10.3382 2.12875C9.21658 2.73821 8.37714 3.62268 7.92623 4.77738C7.14098 6.78972 7.43033 8.72157 8.49881 10.5787C8.53562 10.6438 8.59799 10.6956 8.69104 10.8029C8.69104 9.84848 8.69001 8.96497 8.69104 8.08145C8.69308 7.19698 9.25953 6.80122 10.1675 7.0312C13.7032 7.92909 17.2419 7.93101 20.7776 7.03408C21.6978 6.80026 22.2551 7.18165 22.2592 8.07091C22.2633 8.85764 22.2592 9.64437 22.2592 10.4311L22.2612 10.4301ZM22.8389 32.1989C22.932 32.2142 22.9677 32.2257 23.0045 32.2257C25.2489 32.2276 27.4922 32.2257 29.7365 32.2305C30.0923 32.2305 30.1976 32.0599 30.1976 31.7581C30.1925 30.0725 30.2119 28.3879 30.1894 26.7023C30.1608 24.5539 28.7028 22.7313 26.5126 22.0912C25.6139 21.8286 24.7008 21.6101 23.7939 21.3735C23.0874 21.1885 22.3808 21.0055 21.6528 20.8157V25.7268C22.6058 25.9511 22.8389 26.2376 22.8399 27.1671C22.8399 28.111 22.8399 29.0558 22.8399 29.9997C22.8399 30.727 22.8399 31.4534 22.8399 32.1999L22.8389 32.1989ZM9.34848 20.8378C9.21556 20.8646 9.10513 20.8828 8.99675 20.9106C7.57348 21.2795 6.14918 21.6485 4.72591 22.0212C2.34458 22.6441 0.821109 24.5127 0.809862 26.8336C0.802705 28.4483 0.807817 30.0629 0.808839 31.6776C0.808839 32.1682 0.8753 32.2286 1.41107 32.2286C3.5286 32.2286 5.64715 32.2286 7.76468 32.2286C7.88738 32.2286 8.0111 32.2171 8.16447 32.2094V31.7955C8.16447 30.2527 8.16447 28.7099 8.16447 27.1671C8.16447 26.2366 8.38634 25.9645 9.34848 25.7268V20.8387V20.8378ZM11.5284 20.2533C11.1981 20.3395 10.8709 20.4468 10.5345 20.5053C10.2431 20.557 10.1491 20.6739 10.1521 20.9576C10.1685 22.44 10.1593 23.9224 10.1593 25.4048V25.7412H20.8431C20.8431 24.0729 20.8451 22.4256 20.8349 20.7784C20.8349 20.7036 20.7337 20.5858 20.6539 20.5618C20.2582 20.443 19.8533 20.3491 19.4597 20.2485C18.701 21.5689 17.245 22.3423 15.4649 22.2982C13.8146 22.2579 12.3934 21.7568 11.5274 20.2533H11.5284ZM21.9729 32.2114C21.9933 32.1682 22.0117 32.1472 22.0117 32.1261C22.0158 30.3801 22.0168 28.6342 22.022 26.8882C22.022 26.6276 21.8809 26.525 21.616 26.5279C21.2459 26.5318 20.8768 26.5279 20.5067 26.5279C16.8329 26.5279 13.1592 26.5279 9.48447 26.5279C9.05095 26.5279 8.98346 26.5864 8.98346 27.0118C8.98142 28.6505 8.98244 30.2881 8.98346 31.9268C8.98346 32.0178 9.00084 32.1098 9.01005 32.2037H10.919V29.6768C10.919 28.4799 11.0642 28.3448 12.3525 28.3448C14.5978 28.3448 16.8432 28.3438 19.0885 28.3448C19.7582 28.3448 20.0742 28.6409 20.0834 29.2618C20.0864 29.5129 20.0834 29.764 20.0834 30.015C20.0834 30.7404 20.0834 31.4658 20.0834 32.2085H21.9708L21.9729 32.2114ZM12.2911 18.5265C12.2911 18.9069 12.3055 19.2298 12.2871 19.5508C12.2625 19.9773 12.4394 20.3146 12.7513 20.6078C14.1224 21.8947 17.0201 21.8468 18.3176 20.5014C18.4893 20.3232 18.656 20.0827 18.6877 19.8537C18.747 19.4253 18.7051 18.9845 18.7051 18.5121C16.564 19.4934 14.4547 19.5058 12.2911 18.5265ZM11.7543 30.4012H19.2449V29.1411H11.7543V30.4012ZM19.2511 31.2042H11.7687V32.2066H19.2511V31.2042Z" fill="#99A6C6"/>
</svg>
